<?xml version="1.0" encoding="UTF-8" standalone="no"?>
<svg
   xmlns:dc="http://purl.org/dc/elements/1.1/"
   xmlns:cc="http://creativecommons.org/ns#"
   xmlns:rdf="http://www.w3.org/1999/02/22-rdf-syntax-ns#"
   xmlns:svg="http://www.w3.org/2000/svg"
   xmlns="http://www.w3.org/2000/svg"
   xmlns:sodipodi="http://sodipodi.sourceforge.net/DTD/sodipodi-0.dtd"
   xmlns:inkscape="http://www.inkscape.org/namespaces/inkscape"
   version="1.1"
   id="coyote-grill-logo"
   viewBox="0 0 5399.9071 3240.0001"
   height="36in"
   width="59.99897in"
   sodipodi:docname="banner.svg"
   inkscape:version="0.92.4 5da689c313, 2019-01-14">
  <sodipodi:namedview
     pagecolor="#ffebcd"
     bordercolor="#666666"
     borderopacity="1"
     objecttolerance="10"
     gridtolerance="10"
     guidetolerance="10"
     inkscape:pageopacity="1"
     inkscape:pageshadow="2"
     inkscape:window-width="1920"
     inkscape:window-height="1016"
     id="namedview48"
     showgrid="false"
     inkscape:zoom="0.2291706"
     inkscape:cx="1756.2095"
     inkscape:cy="1812.909"
     inkscape:window-x="1920"
     inkscape:window-y="27"
     inkscape:window-maximized="1"
     inkscape:current-layer="layer2" />
  <defs
     id="defs3422" />
  <metadata
     id="metadata3425">
    <rdf:RDF>
      <cc:Work
         rdf:about="">
        <dc:format>image/svg+xml</dc:format>
        <dc:type
           rdf:resource="http://purl.org/dc/dcmitype/StillImage" />
        <dc:title></dc:title>
      </cc:Work>
    </rdf:RDF>
  </metadata>
  <g
     inkscape:groupmode="layer"
     id="layer2"
     inkscape:label="Background"
     style="display:inline">
    <rect
       style="fill:#ffebcd;fill-opacity:1;stroke:#34596b;stroke-width:0.91157514;stroke-miterlimit:4;stroke-dasharray:none;stroke-opacity:1"
       id="rect4558"
       width="5467.1533"
       height="3338.1553"
       x="-17.368921"
       y="-72.108536" />
  </g>
  <g
     transform="translate(3728.525,2044.7808)"
     id="layer1">
    <path
       inkscape:connector-curvature="0"
       d="m -2728.269,-433.16329 c 0,0 -138.9925,-131.44314 -284.0729,23.30265 -145.0794,154.75886 -107.63,169.8455 -187.0732,243.03201 -79.4443,73.186524 -149.5351,54.59926 -204.6694,-16.86307 -58.2964,-75.55074 -9.3388,-253.42938 21.4478,-317.35493 31.6624,-65.79341 0,-108.79359 3.8789,-165.91382 3.8538,-57.12023 58.1657,-80.14858 58.1657,-80.14858 0,0 -172.7583,-18.36521 -264.9365,153.75308 -59.0017,110.16511 -56.7289,196.9492 -49.1529,229.64344 6.2301,26.84246 -15.1394,176.23283 103.7773,323.298151 17.7904,21.996448 89.1227,105.763206 235.0516,120.013874 63.9256,6.230585 135.8712,-22.610363 195.3034,-129.222601 78.3847,-140.586564 36.5998,-216.476924 140.3509,-338.502344 98.658,-116.02996 228.2071,-1.69806 228.2071,-1.69806 l 3.7222,-43.3398"
       style="fill:#7c797a;fill-opacity:1;fill-rule:nonzero;stroke:none;stroke-width:10.44961929"
       id="path16" />
    <path
       inkscape:connector-curvature="0"
       d="m -2899.7598,-457.09292 c 0,-26.09792 1.5277,-53.00569 6.2301,-78.55501 4.1798,-22.68873 -0.6897,-54.3772 12.3838,-74.03555 6.5174,-9.80958 4.4923,-19.85427 7.902,-31.41417 2.0764,-7.06655 3.9448,-13.48 2.2989,-20.96454 -0.8359,-3.77493 -3.9186,-11.76889 -5.996,-17.21575 44.7119,-7.9809 92.2179,-4.67621 137.2955,-8.71237 49.5437,-4.44109 99.7939,-3.69655 149.1422,-10.34512 21.1218,43.31367 47.0369,87.7768 58.8052,135.51849 10.5667,42.80425 13.5187,87.47638 27.3916,129.73202 14.0537,42.81732 19.5397,89.22669 15.896,134.42129 -1.9593,24.34761 -2.8737,49.15239 -4.3105,73.6045 -0.6374,10.9721 0.6165,23.7337 -2.8736,34.17026 -4.0367,12.09543 -15.3746,18.0909 -21.9181,28.17478 -4.9249,7.57598 -40.0879,20.99067 -49.8186,24.03413 -9.7704,3.05651 -19.2931,5.52523 -29.4679,6.15221 -6.8968,0.43052 -45.4694,7.23636 -52.7183,8.58175 -10.7506,2.01155 -21.6443,2.02461 -32.42,3.87942 -22.2451,3.82717 -46.2792,8.79074 -68.8107,7.62822 -22.3883,-1.16252 -44.0452,-8.02008 -65.5066,-14.6164 -21.0037,-6.4657 -41.067,-10.61943 -52.6138,-32.87712 -10.2532,-19.74978 -12.317,-38.2456 -15.4519,-60.12449 -1.6855,-11.75582 -6.0221,-22.81936 -6.4923,-34.83642 -0.5643,-14.47272 -1.5675,-28.90626 -2.7169,-43.33979 -0.7942,-9.7704 -5.7599,-41.45887 -9.2741,-75.82505 -0.4075,-3.91861 3.0566,-68.51032 3.044,-83.03529"
       style="fill:#9c0054;fill-opacity:1;fill-rule:nonzero;stroke:none;stroke-width:10.44961929"
       id="path18" />
    <path
       inkscape:connector-curvature="0"
       d="m -2894.0386,-304.41092 c 1.2017,14.42047 2.2728,28.85401 2.952,43.31367 0.6792,14.30292 4.7671,27.05145 6.7661,41.04088 3.5268,24.60885 5.8257,48.02906 20.3904,68.64093 13.8969,19.65835 43.2217,23.1851 63.7416,29.15444 25.3936,7.39311 51.0077,12.72241 77.3021,8.29438 24.3079,-4.10147 49.1258,-5.45992 73.3689,-9.97938 9.5091,-1.76337 35.8547,-5.94322 38.6897,-6.72694 6.1391,-1.685 12.5009,-1.65888 18.7696,-2.18136 11.7694,-0.96659 23.6558,-5.12031 34.7847,-9.23485 5.9166,-2.19442 29.4679,-13.78044 29.4679,-13.78044 0,0 3.4223,53.05794 3.3042,77.118191 0,11.494581 0.4284,22.20544 2.1171,33.556339 1.0345,6.909811 4.114,19.606098 -4.6376,22.048696 -7.9553,2.233606 -16.7977,3.605119 -24.9223,5.250934 -7.2228,1.449884 -3.8403,16.5365217 -3.8403,22.179316 0,26.685715 2.4296,51.320691 5.3429,77.784351 11.1675,101.687853 -23.4082,195.760553 -46.5143,292.001543 -5.3032,22.10094 -5.0942,43.84921 -6.7798,66.45958 -1.9457,25.98036 4.6376,49.80549 8.3085,75.35481 3.1872,22.16625 8.3723,46.37018 5.485,68.84993 -2.4556,19.10974 -13.48,43.69247 -30.8911,51.07251 -13.4675,5.7081 -42.2426,6.42652 -54.1688,-3.57899 -15.2951,-12.83997 -13.6628,-43.31367 -12.3817,-61.65276 3.7221,-53.31918 7.1841,-106.66448 12.0421,-159.86611 1.045,-11.33783 5.6303,-20.20695 8.622,-30.97005 3.0816,-11.10272 4.6887,-22.62343 5.4463,-34.18332 1.7242,-26.04567 0.3762,-52.43096 -0.5329,-78.47664 -0.8882,-24.94846 -2.116,-49.92305 -2.1024,-74.9107 0,-27.3127 4.8716,-53.86779 5.7472,-81.02374 0.8047,-25.37951 -2.7691,-49.923052 -9.7704,-74.061672 -3.0962,-10.671674 -6.2572,-21.212727 -7.3669,-32.4199433 -1.3459,-13.6628769 0.9613,-18.0909027 -12.9973,-18.0647787 -23.1981,0.0209 -46.4224,-0.82343 -69.6331,0.235116 -11.6127,0.522481 -23.2117,1.528257 -34.7314,3.3438783 -7.3544,1.1625202 -22.0362,-2.4425983 -26.7646,5.5121741 -10.3974,17.4900496 -12.2908,42.3862666 -20.3903,61.4568216 -8.3462,19.671408 -20.3632,37.30514 -31.7146,54.599264 -25.68,39.14688 -30.4346,87.50249 -48.016,130.72473 -8.947,21.97032 -19.0967,43.41817 -28.9841,64.89213 -10.3588,22.47975 -22.2316,44.29333 -27.3122,69.13729 -4.5592,22.33607 -4.7807,43.65329 -13.6242,64.78764 -9.366,22.37525 -19.9985,43.8884 -30.0824,65.85873 -18.0642,39.34281 -41.2363,119.08647 -94.3987,108.76747 -15.2439,-2.96508 -35.8945,-17.73823 -34.3793,-41.51111 2.5466,-39.591 27.3519,-72.16768 50.4195,-100.48615 11.6774,-14.35517 25.9537,-27.87436 35.5934,-44.00596 9.6795,-16.19691 13.8458,-37.9713 20.5074,-55.94465 7.2761,-19.65834 5.4077,-44.30638 7.8247,-65.29705 2.7953,-24.29537 5.6689,-48.55155 8.0587,-72.89916 4.4808,-45.41666 11.5207,-89.70998 29.4293,-131.31252 8.3597,-19.423233 18.9399,-37.331268 28.2265,-56.179768 4.0889,-8.307447 7.7986,-16.863073 10.737,-25.745249 2.4034,-7.301671 7.994,-17.9472205 7.785,-25.8758689 -0.209,-8.3074471 -4.5456,-8.3205091 -2.4944,-17.3986161 2.3376,-10.39737 3.3303,-21.36947 5.2248,-31.897462 4.2583,-23.694511 8.9993,-47.323712 12.4476,-71.188026 6.2959,-43.62716 8.9742,-88.11642 14.0684,-131.97869 4.5717,-39.31669 15.1519,-80.37063 17.6985,-118.2505 4.5456,0.73147 7.9939,60.43798 8.7651,69.64671"
       style="fill:#7c797a;fill-opacity:1;fill-rule:nonzero;stroke:none;stroke-width:10.44961929"
       id="path20" />
    <path
       inkscape:connector-curvature="0"
       d="m -2590.5033,-698.33543 c -51.269,6.90981 -103.4251,5.82566 -154.8634,10.88066 -50.3671,4.95051 -101.5055,5.1595 -151.6501,9.83571 -3.3177,0.30095 -2.4692,8.32051 -5.1077,10.56717 -4.2447,3.61818 -11.2323,3.94473 -16.2231,5.40768 -15.0997,4.41497 -29.8587,10.20144 -45.1549,13.81962 -5.4076,1.26702 -6.9887,6.09997 -9.4046,10.8023 -3.5006,6.80531 -8.621,12.2783 -14.7737,16.11853 -11.5594,7.23636 -22.9494,10.82842 -34.3657,2.07687 -20.6244,-15.81812 -36.1818,-43.41817 -31.1659,-71.95869 2.8214,-16.04017 13.7015,-27.14289 19.8668,-41.49805 6.205,-14.4466 9.3921,-30.17328 11.783,-45.84771 5.067,-33.38653 14.8771,-65.6236 19.2785,-99.31056 4.65,-35.64627 8.5425,-74.53191 22.0487,-107.74864 5.0942,-12.53954 13.1801,-25.15746 21.8919,-34.99316 9.7056,-10.959 22.3371,-12.6179 35.0721,-16.5888 14.9304,-4.65 28.7751,-12.1607 43.3001,-18.0517 12.7621,-5.1725 26.2943,-9.2871 37.1619,-18.8746 7.0274,3.37 -3.6176,20.8862 -5.4338,26.2024 -4.4411,13.0228 -7.7327,26.6074 -10.9459,40.0482 -7.0932,29.5724 -15.57,57.30307 -25.6539,85.79135 -9.9407,28.12253 -17.0067,57.00267 -14.9293,87.42412 0.9613,14.21148 3.3428,28.25316 6.0994,42.15115 2.9656,15.06052 9.2741,34.90173 6.2573,50.51085 -7.5112,-10.55412 -9.6273,-37.03084 -12.8405,-50.05368 -2.1025,-8.51644 -5.0681,-16.71939 -7.2761,-25.19664 0,-0.22153 -5.0942,-19.65835 -7.5885,-11.41621 -10.2804,34.0527 -19.3057,69.2026 -29.4157,103.5296 -1.9729,6.67469 31.1137,2.97814 35.2936,2.70384 16.3536,-1.08415 32.2893,-2.65159 48.7339,-3.4745 35.7387,-1.7895 71.4628,-4.10147 107.2005,-6.11303 67.6352,-3.80104 135.2965,-9.60058 202.6578,-11.63826 4.3231,-0.13062 5.7338,-3.26551 4.0096,-7.52372 -6.7265,-16.57571 -13.898,-33.03386 -20.7289,-49.59651 -7.5112,-18.18234 -17.3077,-35.80301 -20.9129,-55.60503 -1.5413,-8.50338 -4.5194,1.42376 -4.9897,3.86635 -1.6844,8.69931 -1.6061,15.88343 -2.1944,24.71335 -0.6165,9.24792 -3.5267,17.94722 -3.7483,27.35188 -0.2194,9.80958 4.8069,22.03564 3.3042,31.15293 -7.9156,-1.21477 -9.692,-18.86156 -11.1414,-25.5232 -1.4368,-6.54407 -0.1358,-13.15345 -0.9927,-19.78896 -1.2289,-9.40466 -3.0701,-18.33908 -3.4358,-27.88742 -1.3062,-33.45185 -11.1414,-67.28249 -26.5807,-96.00588 -15.5052,-28.85401 -29.2203,-56.83286 -40.6104,-87.99888 -9.3001,-25.497 -19.5408,-49.8447 -30.8263,-74.349 18.9002,12.7746 43.7974,16.2361 65.5191,18.4697 14.969,1.5413 29.8984,3.5529 44.8811,4.8852 12.2522,1.0972 23.1595,1.2931 32.5892,11.1288 18.7184,19.5278 27.7312,49.283 37.0962,74.93686 8.739,23.91657 12.4225,49.07403 18.5877,73.76125 10.0578,40.23103 24.936,79.31261 41.0535,117.02267 6.0085,14.05474 6.0618,18.97912 21.3433,18.43052 10.8289,-0.39186 20.2723,0.66668 27.5745,10.51493 3.3313,4.50639 4.6375,10.35818 7.9281,14.77314 2.1171,2.84753 10.6983,4.53253 10.529,8.41195 -0.3239,7.09268 -7.786,4.03616 -8.4642,11.39008 -0.9927,10.84148 -6.9364,18.90075 -8.4255,28.98463 -1.4504,9.92714 -8.0462,24.90928 -15.8698,30.70882 -8.0598,5.99547 -24.727,3.34388 -34.1191,4.0231 -11.18,0.79627 -22.3225,-1.64581 -32.4063,-6.98818 -4.3492,-2.31198 -8.4768,-5.10725 -12.3693,-8.24214 -4.7159,-3.81411 -10.646,-1.07108 -15.8447,-2.91283 -3.5916,-1.28007 -4.4808,-4.70232 -7.4454,-6.74 -4.2969,-2.96508 -11.7558,-1.14946 -16.4581,-1.05802 -12.2386,0.2487 -24.4647,0.39186 -36.7043,0.58726 -21.0299,2.83446 15.7267,-0.2487 0,0"
       style="fill:#7c797a;fill-opacity:1;fill-rule:nonzero;stroke:none;stroke-width:10.44961929"
       id="path22" />
    <path
       inkscape:connector-curvature="0"
       d="m -2826.4432,-1094.8854 c 1.137,-7.0143 2.8214,-14.0156 0.1568,-21.056 2.5068,-1.6458 -13.572,0.1045 -15.5971,0.1442 1.7242,-4.7284 -2.1547,-3.3439 2.6908,-8.5426 1.4504,-1.5674 4.7942,-10.4234 4.742,-10.5018 0.5852,0.8098 -15.6744,7.158 -18.8616,6.1261 -5.2384,-1.6981 -9.7965,-5.8779 -12.8133,-10.8154 -1.4117,-2.3903 -2.5089,-4.9374 -3.2791,-7.6674 -1.0345,-2.7822 -0.1045,-5.8387 -1.4107,-7.2625 3.0691,-1.1886 14.8907,4.6762 14.3547,1.9332 -0.4494,-2.2336 -4.2708,-3.1088 -5.9689,-3.2263 0.1463,-0.9792 0.4076,-1.9332 0.7838,-2.8345 -5.6167,-0.745 -6.2698,-6.6747 -9.4047,-10.8676 0,-0.042 2.325,-3.0565 0.1776,-1.9332 -3.8538,-13.7804 -1.9467,-23.6684 6.3482,-29.5854 -1.3062,4.3496 -3.671,7.5106 -3.2655,11.7427 1.2926,13.7151 14.1853,7.9678 12.1999,-5.0942 -2.325,-15.3087 -10.6722,-31.2705 -15.1916,-46.0305 -9.9794,-32.6682 -15.7131,-69.6076 -9.3786,-103.7386 5.7086,-30.8134 17.4509,-58.1522 37.58,-80.7364 9.3524,-10.4888 20.9776,-18.3652 34.0396,-21.7483 5.9041,-1.5282 11.991,-2.1552 18.0517,-1.9854 7.8237,0.209 14.4069,4.9897 22.4531,4.5456 6.8707,-0.3783 13.0756,-3.8141 19.894,-4.5979 7.9804,-0.9143 15.9618,0.5748 23.6809,2.7692 13.2972,3.788 25.9412,9.7312 36.8872,19.0052 21.7749,18.4697 34.5099,46.4486 36.1431,76.4782 1.998,36.639 -0.3761,71.8281 -10.7234,106.8996 -4.7295,16.014 -13.1936,30.8786 -16.8636,47.167 -3.9321,17.5553 4.0754,23.8382 17.9609,14.3812 3.7096,9.4047 1.0449,16.9807 -7.8247,22.5712 -0.9091,0 -13.7277,-0.9927 -9.3399,3.8011 4.1799,4.5456 16.8897,1.267 21.9055,0.954 0.627,1.0972 1.2665,2.1944 1.9196,3.2917 -5.3157,3.3308 -9.6136,6.2697 -16.0265,8.8952 -11.0641,4.5195 -17.4645,-3.9578 -27.9266,-2.534 2.7691,2.756 18.5616,14.6033 15.1122,19.6322 -1.2665,1.8417 -16.4843,-4.3366 -19.6317,-4.8591 -7.3931,-1.2409 -10.2803,2.4818 -11.3776,10.737 -1.6322,12.1999 3.0179,23.4855 6.5969,34.6797 4.9897,15.5699 10.7109,30.8394 15.2167,46.5922 3.5529,12.3959 7.3283,24.9223 10.3974,37.4749 2.2989,9.44389 -2.5863,11.48157 -10.4235,11.49463 -30.1336,0.0836 -60.0853,1.07108 -90.0747,5.055 -14.6305,1.95931 -29.0771,5.27706 -43.693,7.41923 -7.4714,1.09721 -30.3039,10.20144 -30.0687,-4.16678 0.2821,-17.67292 7.3011,-39.26448 11.9522,-56.17978 3.0168,-10.9721 7.2489,-21.474 10.2532,-32.4461 1.0972,-3.9447 8.3597,-23.9296 7.6408,-25.3795 1.1369,-7.0143 1.163,2.3512 0,0"
       style="fill:#7c797a;fill-opacity:1;fill-rule:nonzero;stroke:none;stroke-width:10.44961929"
       id="path24" />
    <path
       inkscape:connector-curvature="0"
       d="m -2713.0387,-1102.0956 c 6.1266,25.5623 16.9159,49.7663 23.7081,75.185 3.4484,12.9444 17.1113,37.6839 -3.1223,37.72308 -30.1336,0.0836 -60.0853,1.07109 -90.0747,5.05501 -14.6305,1.9593 -29.0771,5.27705 -43.693,7.41923 -7.4715,1.09721 -30.3039,10.20144 -30.0688,-4.16679 0.2613,-16.15772 6.6617,-35.20213 10.5406,-50.79823 4.6114,-18.535 12.0829,-35.8944 15.5835,-54.8213 -4.2196,4.2713 -8.4245,8.5426 -12.6441,12.8008 7.0274,3.37 -3.6176,20.8862 -5.4338,26.2024 -5.1077,14.956 -8.8038,30.6174 -12.3702,46.0959 -7.2615,31.45334 -18.1427,60.38573 -27.9914,90.85943 -10.0703,31.1268 -13.8719,61.63969 -9.2354,94.43843 2.2341,15.76586 6.322,30.99618 9.0128,46.63143 2.4567,14.3421 0.8987,31.20517 1.4504,45.82157 48.5782,0.87464 97.2598,-5.8126 145.7722,-8.60787 25.2358,-1.44988 50.4455,-3.33082 75.6688,-4.76764 12.643,-0.71893 25.2871,-0.95405 37.9311,-1.54132 11.0641,-0.52248 25.8764,1.07109 36.1296,-4.11453 0.8777,-7.18412 -0.7211,-14.25067 -2.5989,-21.05599 -1.8673,-6.79225 -7.1841,-7.17105 -8.5822,-14.79927 -0.9928,-5.40768 -2.834,-10.50187 -3.996,-15.8573 -1.79,-8.1507 -0.3135,-16.65408 -1.8297,-24.97459 -3.16,-17.34636 -2.8862,-34.79723 -6.4516,-52.09135 -4.0503,-19.68447 -8.622,-38.93789 -17.5825,-56.74143 -16.4185,-32.65506 -33.0459,-63.07651 -45.7558,-97.87377 -5.9563,-16.3406 -11.599,-32.642 -18.7048,-48.447 -2.3512,-5.2248 -9.4705,-26.2808 -15.6619,-27.5739"
       style="fill:#9c0054;fill-opacity:1;fill-rule:nonzero;stroke:none;stroke-width:10.44961929"
       id="path26" />
    <path
       inkscape:connector-curvature="0"
       d="m -2875.7915,-1386.5996 c -1.162,-2.8214 -20.0758,-49.1524 -19.2273,-67.8572 h 2.1944 l -0.4493,-2.8867 2.1944,-2.8867 c 0,0 2.1944,6.2698 2.1944,2.8867 0,-3.37 3.4881,-10.1231 3.4881,-10.1231 h 4.833 c 0,0 0.4284,-5.3032 17.0715,12.5265 -0.9196,-0.4828 -43.4046,-22.6104 -12.3044,68.3405 z m 54.338,-53.3975 c -1.5152,-1.9855 -3.1735,-1.3585 -6.5697,-3.9578 -3.3835,-2.5733 -3.4097,-1.5022 -1.4629,-2.73 1.9332,-1.2278 -1.9468,1.2278 -4.1537,0.01 -2.2206,-1.2148 -4.5853,-5.9302 -5.0158,-7.3017 -0.418,-1.3715 0,7.6282 0,7.6282 -19.9849,-10.9198 -56.7028,-76.7002 -66.5516,-21.1735 -9.8352,55.5397 33.3604,109.2246 33.3604,109.2246 l 1.672,-0.6008 c 19.6986,-45.9522 60.3465,-77.7844 59.2368,-76.8701 -1.0972,0.928 -9.0003,-2.2597 -10.5416,-4.2321"
       style="fill:#7c797a;fill-opacity:1;fill-rule:nonzero;stroke:none;stroke-width:10.44961929"
       id="path28" />
    <path
       inkscape:connector-curvature="0"
       d="m -2654.9252,-1445.6399 c 18.0778,-16.0271 18.0642,-10.7109 18.0642,-10.7109 l 4.8069,0.5099 c 0,0 2.8997,7.0797 2.6124,10.4366 -0.2822,3.37 2.4295,-2.6516 2.4295,-2.6516 l 1.9332,3.1088 -0.6792,2.8344 2.1818,0.2226 c -0.7419,18.7048 -23.5503,62.8806 -24.9359,65.5714 38.7294,-87.3327 -5.4724,-69.699 -6.4129,-69.3202 z m -53.9859,13.6628 c -1.024,-1.0188 36.7304,34.8626 52.4184,82.6565 l 1.6062,0.7712 c 0,0 47.599,-48.9956 42.5435,-105.293 -5.0681,-56.2973 -47.2459,5.3816 -68.0532,14.1854 0,0 1.1882,-8.9083 0.6479,-7.576 -0.5329,1.3193 -3.2916,5.7604 -5.6041,6.7531 -2.2989,0.9791 -5.9552,-1.8679 -4.1402,-0.4441 1.8413,1.4237 1.9071,0.3521 -1.698,2.5601 -3.5915,2.2336 -5.1862,1.4369 -6.8706,3.2525 -1.6981,1.8156 -9.8363,4.1668 -10.8551,3.1349"
       style="fill:#7c797a;fill-opacity:1;fill-rule:nonzero;stroke:none;stroke-width:10.44961929"
       id="path30" />
    <path
       inkscape:connector-curvature="0"
       d="m -2786.512,-1211.5162 c 0.209,0.2215 0.2717,0.3396 0.3657,0.3918 3.2519,1.6981 6.4526,3.5398 9.7965,5.042 4.1402,1.8678 8.5039,2.5079 13.0359,1.4107 5.3952,-1.3062 10.3054,-3.7227 15.0861,-6.4657 0.1045,-0.052 0.115,-0.1829 0.2404,-0.3658 -0.3135,-0.021 -0.5121,-0.073 -0.7211,-0.063 -3.4619,0.1181 -6.9228,0.1568 -10.3712,0.3919 -2.2728,0.1567 -4.5456,0.5225 -6.7923,0.9018 -1.4232,0.2351 -2.7952,0.2612 -4.1673,-0.2351 -0.6374,-0.2351 -1.3187,-0.4316 -1.9979,-0.5225 -1.7117,-0.1964 -3.4223,-0.418 -5.1465,-0.4566 -3.0439,-0.084 -6.1005,-0.021 -9.3262,-0.021 z m -9.1048,-1.2801 c 1.6072,-0.4577 3.3052,-0.6928 4.742,-1.4368 2.1161,-1.1234 4.0618,-2.5994 6.0608,-3.9578 0.93,-0.6406 1.8423,-1.3193 2.7033,-2.0508 3.2791,-2.7952 6.9887,-3.1218 10.7631,-1.476 2.3648,1.0189 4.4411,1.2671 6.8184,0.1568 1.2676,-0.5883 2.7953,-0.6531 4.2196,-0.8757 2.2205,-0.3521 4.2446,0.3135 6.0869,1.476 1.9457,1.2148 3.8528,2.4949 5.7337,3.8141 2.7691,1.9332 5.5905,3.7488 8.9741,4.428 0.418,0.073 0.8464,0.1045 1.5539,0.1829 -1.5675,2.1291 -2.9385,4.2452 -4.5456,6.1522 -4.4536,5.3163 -9.7829,9.4308 -16.5104,11.4554 -9.5739,2.8867 -18.2346,1.0711 -25.9673,-5.2378 -4.1663,-3.4092 -7.5499,-7.4846 -10.3451,-12.0563 -0.1045,-0.1567 -0.1986,-0.326 -0.2717,-0.4964 0,-0.042 0,-0.118 0,-0.073"
       style="fill:#9c0054;fill-opacity:1;fill-rule:nonzero;stroke:none;stroke-width:10.44961929"
       id="path32" />
    <path
       inkscape:connector-curvature="0"
       d="m -2749.0637,-857.90112 c -23.0279,1.80256 -46.0567,3.56594 -69.072,5.44687 -1.6458,0.13062 -2.6772,-0.58832 -3.5654,-1.75031 -1.5549,-2.05074 -2.2342,-4.51946 -2.5341,-7.15799 -0.4493,-3.8533 0.3344,-7.41923 1.5278,-11.03741 2.0638,-6.32202 5.9176,-11.19416 10.0191,-15.93567 3.3041,-3.81411 7.1444,-6.89675 11.2458,-9.53528 6.832,-4.41496 14.1342,-7.75884 21.7488,-10.14919 3.4223,-1.08415 6.949,-1.76337 10.4497,-2.45566 2.7043,-0.53502 5.4599,-0.82343 8.1893,-1.20171 3.1746,-0.43052 6.3356,-0.99271 9.5228,-1.22783 3.696,-0.28736 7.4192,-0.35215 11.1288,-0.36573 6.4265,0 12.853,0.30094 19.1615,1.75031 4.8726,1.11027 9.8226,2.01155 14.4466,4.24515 3.37,1.6197 6.8581,2.97815 10.1371,4.80683 3.6177,2.01155 7.0525,4.45415 10.0045,7.57597 3.8925,4.11454 7.6021,8.38582 9.8101,13.88493 2.0899,5.17257 2.534,10.43656 0,15.62218 -0.5852,1.20171 -1.3971,2.01156 -2.86,2.11605 -23.1062,1.75031 -46.2135,3.56594 -69.3207,5.36849"
       style="fill:#7c797a;fill-opacity:1;fill-rule:nonzero;stroke:none;stroke-width:10.44961929"
       id="path34" />
    <path
       inkscape:connector-curvature="0"
       d="m -2812.7542,-755.97814 c 2.8214,-1.07109 5.4088,-2.15524 8.0598,-3.04346 2.7556,-0.91434 5.4997,-1.26701 7.8111,1.39764 2.1286,2.46872 4.5456,4.42803 7.5363,5.59055 2.3125,0.90075 4.5456,0.73147 6.8706,0.30095 5.1339,-0.92793 8.6993,-4.67621 12.4351,-8.17683 1.0972,-1.03138 2.5476,-1.82868 3.9457,-2.18136 3.4745,-0.87568 6.74,-0.13062 9.8352,1.93318 2.8998,1.92012 5.3032,4.62396 8.5823,5.90404 4.7274,1.8548 8.9344,0.97912 12.7349,-2.4426 2.2467,-2.01155 4.2844,-4.31047 6.5833,-6.23059 3.7754,-3.14795 7.9678,-3.84023 12.317,-1.55438 1.9331,1.03138 3.6584,2.49485 5.5121,3.73574 3.7494,2.49485 7.8372,3.37 12.1352,2.56016 2.5988,-0.48382 4.8193,-2.07687 6.7139,-4.07536 1.1494,-1.2017 2.1035,-2.62546 3.1348,-3.94473 1.4766,-1.90705 3.1997,-3.03039 5.6042,-2.49484 2.1808,0.47023 4.3752,0.7973 6.5696,1.14946 0.6166,0.10449 1.254,0.1442 1.881,0.094 0.8882,-0.0627 1.2675,0.27483 1.3323,1.3062 0.2508,4.49334 0.3762,9.0128 0.8987,13.46695 0.4598,3.87942 -0.209,7.39311 -1.79,10.75005 -1.0847,2.31197 -3.0169,3.73573 -5.0807,4.83294 -2.208,1.17559 -4.5717,1.75032 -7.0534,1.93318 -36.9405,2.84753 -73.8789,5.74729 -110.8183,8.60788 -3.8935,0.30095 -7.5509,-0.78372 -10.4496,-3.69655 -1.372,-1.38458 -2.4692,-3.33082 -3.161,-5.25094 -0.7419,-2.08992 -1.024,-4.42802 -1.2289,-6.68775 -0.4075,-4.65008 -0.6269,-9.32629 -0.9091,-13.78044"
       style="fill:#7c797a;fill-opacity:1;fill-rule:nonzero;stroke:none;stroke-width:10.44961929"
       id="path36" />
    <path
       inkscape:connector-curvature="0"
       d="m -2674.6886,-803.68066 c 0.3449,5.35543 0.6792,10.56718 1.0241,15.88343 -46.9846,3.67042 -93.9818,7.34085 -141.0699,11.01128 -0.3448,-5.23787 -0.6792,-10.47574 -1.024,-15.88342 0.5015,-0.0418 0.9613,-0.0732 1.4243,-0.11808 19.384,-1.51519 38.768,-2.9912 58.1521,-4.58477 2.4034,-0.19645 4.5194,0.0731 6.5446,1.51519 1.1756,0.84956 2.4943,1.48908 3.7221,2.2728 0.7106,0.45769 1.2801,0.37932 1.9071,-0.14316 1.7503,-1.42376 3.4745,-2.88671 5.2645,-4.21904 0.627,-0.47023 1.4232,-0.82343 2.1683,-0.87567 20.2064,-1.6197 40.4264,-3.18714 60.6465,-4.76764 0.3761,-0.0209 0.7732,-0.0522 1.2403,-0.0941"
       style="fill:#7c797a;fill-opacity:1;fill-rule:nonzero;stroke:none;stroke-width:10.44961929"
       id="path38" />
    <path
       inkscape:connector-curvature="0"
       d="m -2748.6196,-853.94332 c 23.3162,-1.82869 46.6189,-3.64431 69.9215,-5.4338 0.8046,-0.0522 1.7764,0.15674 2.4421,0.62697 1.9854,1.38458 4.0367,2.78221 4.7159,5.56442 0.2821,1.16253 -0.2508,3.17408 -1.1108,3.93167 -2.0105,1.80256 -4.2833,2.39035 -6.8445,1.93318 -2.7942,-0.49635 -5.6031,-1.12333 -8.437,-1.3062 -2.9656,-0.19645 -5.8131,0.43053 -7.8508,3.26551 -1.162,1.60663 -2.3251,3.23938 -3.671,4.66314 -2.7158,2.87364 -5.9301,3.60512 -9.6126,2.56016 -3.1349,-0.87568 -5.787,-2.70384 -8.413,-4.6109 -2.2205,-1.61969 -4.5717,-2.66465 -7.275,-2.87364 -5.4599,-0.41799 -9.6795,2.24666 -13.5197,6.04771 -1.3574,1.33233 -2.5988,2.8214 -4.0492,3.99698 -3.9573,3.2002 -6.8707,3.21326 -10.9586,0.41799 -3.1213,-2.14217 -5.9301,-4.89826 -9.5091,-6.11303 -1.5936,-0.53502 -3.2791,-0.66669 -4.9374,-0.96659 -2.0377,-0.36574 -3.9448,0.27483 -5.8518,0.92793 -2.4818,0.86209 -4.3105,2.74302 -6.1392,4.66314 -2.9395,3.10876 -6.322,5.44686 -10.5154,5.52524 -3.2394,0.0522 -5.8779,-1.71113 -8.0201,-4.36272 -1.9854,-2.45566 -4.3753,-4.03617 -7.4454,-4.03617 -3.1996,0 -6.0994,1.38458 -9.0911,2.40342 -2.7034,0.91434 -5.3293,1.42376 -8.1236,0.0522 -1.6594,-0.80984 -2.3125,-2.79527 -2.1035,-4.20597 0.4911,-3.23938 2.5988,-5.27705 4.9636,-6.97512 0.2926,-0.22257 0.7524,-0.18287 1.1494,-0.20899 23.4333,-1.82868 46.854,-3.65737 70.2863,-5.48605"
       style="fill:#7c797a;fill-opacity:1;fill-rule:nonzero;stroke:none;stroke-width:10.44961929"
       id="path40" />
    <path
       inkscape:connector-curvature="0"
       d="m -2743.8253,-778.13134 c 23.381,-1.81562 46.762,-3.65736 70.1566,-5.4338 0.7524,-0.0627 1.6709,0.18287 2.324,0.61444 1.999,1.35845 4.0106,2.75609 4.6898,5.51217 0.2717,1.07109 -0.2612,3.17407 -1.045,3.86636 -2.0502,1.85481 -4.3366,2.49485 -6.9751,1.98543 -2.8088,-0.53502 -5.6302,-1.09721 -8.4642,-1.34539 -2.952,-0.26124 -5.6428,0.70535 -7.6679,3.26551 -1.2404,1.55438 -2.3512,3.22632 -3.6835,4.66314 -2.7294,2.93896 -5.995,3.61818 -9.7046,2.62547 -3.1213,-0.84956 -5.7608,-2.67772 -8.3858,-4.59784 -2.1819,-1.60662 -4.5069,-2.70383 -7.1841,-2.92589 -5.4735,-0.48277 -9.7056,2.25973 -13.5845,6.04772 -1.2153,1.17558 -2.3125,2.48178 -3.5665,3.59205 -1.698,1.50214 -3.5267,2.76915 -5.7859,2.91284 -2.1296,0.11808 -3.9709,-0.90181 -5.7086,-2.0638 -2.3512,-1.56745 -4.5979,-3.34388 -6.9877,-4.84601 -2.3647,-1.50214 -4.9113,-2.25974 -7.7453,-2.32505 -4.8726,-0.094 -8.5436,2.20749 -11.8477,5.85179 -2.8998,3.2002 -6.4265,5.42074 -10.6461,5.34237 -3.1213,-0.0627 -5.7985,-1.69806 -7.8498,-4.44109 -0.6269,-0.84955 -1.4242,-1.63275 -2.2863,-2.19442 -2.4285,-1.55438 -5.0023,-2.3381 -7.8237,-1.4107 -3.0439,1.00526 -6.0869,2.02462 -9.157,2.89977 -2.2728,0.64056 -4.4411,-0.094 -6.2823,-1.54132 -1.0846,-0.83597 -1.2936,-2.3381 -1.0449,-3.7488 0.5642,-3.03039 2.5727,-4.87213 4.7284,-6.53101 0.3553,-0.26124 0.8987,-0.24766 1.371,-0.28736 23.3946,-1.82869 46.7756,-3.65737 70.1567,-5.48605"
       style="fill:#7c797a;fill-opacity:1;fill-rule:nonzero;stroke:none;stroke-width:10.44961929"
       id="path42" />
    <path
       inkscape:connector-curvature="0"
       d="m -2817.5213,-819.43346 c -0.2717,-4.28434 -0.5329,-8.41194 -0.7942,-12.39586 2.2728,-0.74505 4.4286,-1.476 6.5969,-2.18135 1.4629,-0.47024 2.9123,-0.95405 4.3888,-1.38458 1.5936,-0.45665 3.1213,-0.0522 4.4014,0.96659 1.1495,0.9018 2.0774,2.14217 3.161,3.14795 0.7733,0.73147 1.5936,1.42376 2.4818,1.9593 5.5644,3.39613 11.0244,2.87365 16.1844,-0.99271 2.2069,-1.64582 4.115,-3.77493 6.2562,-5.5383 1.9728,-1.60663 4.1537,-2.50791 6.7535,-2.45566 4.2321,0.1045 7.4329,2.50791 10.5667,5.17256 3.5529,3.01733 7.4328,4.81989 11.9648,3.86636 2.8214,-0.60085 5.2248,-2.29892 7.2886,-4.51946 2.4431,-2.63853 4.7943,-5.47299 8.0598,-6.8445 3.4484,-1.44988 6.9104,-1.44988 10.1487,0.91434 3.1485,2.29892 6.2436,4.76764 10.0327,5.61667 5.6553,1.28008 10.5666,-0.13062 14.4591,-5.09419 1.4107,-1.80256 2.5466,-3.94473 4.6365,-4.97663 0.4284,-0.20899 0.8987,-0.45665 1.3459,-0.41798 2.0899,0.18286 4.1934,0.39186 6.2823,0.69176 1.9593,0.28737 3.9186,0.67923 6.0483,1.05803 0.2612,3.94473 0.5224,8.13764 0.7941,12.39586 -46.9982,3.67042 -93.9817,7.34085 -141.0573,11.01128"
       style="fill:#7c797a;fill-opacity:1;fill-rule:nonzero;stroke:none;stroke-width:10.44961929"
       id="path44" />
    <path
       inkscape:connector-curvature="0"
       d="m -2758.8467,-800.55883 c -0.3448,0.0209 -0.6687,0.0522 -1.0031,0.0731 -17.5554,1.35845 -35.1108,2.74302 -52.6525,4.10147 -4.2583,0.32603 -8.1643,-2.8214 -9.3002,-6.85756 -1.3323,-4.75458 1.1098,-9.80958 4.7546,-11.66439 0.3762,-0.19645 0.8464,-0.19645 1.2801,-0.22258 8.8299,-0.70534 17.6734,-1.34538 26.5033,-2.12911 1.4881,-0.13062 2.5989,0.58832 3.7608,1.22784 5.7348,3.21325 11.456,6.4657 17.1635,9.71814 3.1746,1.81562 6.3357,3.65737 9.4967,5.47299 0,0.0941 0,0.18287 0,0.27482"
       style="fill:#7c797a;fill-opacity:1;fill-rule:nonzero;stroke:none;stroke-width:10.44961929"
       id="path46" />
    <path
       inkscape:connector-curvature="0"
       d="m -2732.383,-802.88387 c 1.7106,-1.33233 3.4222,-2.65159 5.1328,-3.98392 6.1392,-4.76764 12.2658,-9.54834 18.405,-14.32904 0.8464,-0.66564 1.7106,-1.35845 2.6124,-1.94624 0.5224,-0.32603 1.1494,-0.61444 1.7503,-0.6531 8.9866,-0.74506 17.9859,-1.46295 26.9861,-2.08993 0.8046,-0.0627 1.7503,0.26125 2.4682,0.71894 2.743,1.75031 4.7943,4.17985 4.8988,7.86334 0.1567,5.83872 -3.4358,10.01857 -8.3994,10.43655 -17.4248,1.44989 -34.8756,2.75609 -52.3004,4.11454 -0.5015,0.0418 -0.9927,0.0836 -1.489,0.11808 0,-0.094 0,-0.17033 -0.1045,-0.2487"
       style="fill:#7c797a;fill-opacity:1;fill-rule:nonzero;stroke:none;stroke-width:10.44961929"
       id="path48" />
    <path
       inkscape:connector-curvature="0"
       d="m -2780.2297,-817.81376 c 22.4541,-1.76338 44.646,-3.48757 66.8389,-5.22481 0,0.094 0.1045,0.18286 0.1358,0.27482 -1.5549,1.18864 -3.1349,2.36423 -4.6898,3.55287 -4.8716,3.77493 -9.7442,7.57597 -14.6294,11.32478 -3.161,2.42953 -6.3607,4.79376 -9.5353,7.21023 -0.8987,0.67923 -1.7367,1.47601 -2.6385,2.14217 -0.2508,0.18287 -0.7315,0.23512 -0.9928,0.094 -7.2624,-4.03616 -14.5113,-8.12458 -21.7738,-12.16074 -3.671,-2.03768 -7.367,-4.02311 -11.0505,-6.04772 -0.512,-0.27482 -0.9509,-0.66564 -1.6594,-1.16252"
       style="fill:#7c797a;fill-opacity:1;fill-rule:nonzero;stroke:none;stroke-width:10.44961929"
       id="path50" />
    <path
       inkscape:connector-curvature="0"
       d="m -2062.6931,-616.30592 c 8.1372,-45.70403 20.0372,-90.76801 35.698,-135.25726 15.6483,-44.45007 33.6489,-87.17595 53.9984,-128.1907 20.3381,-41.00169 42.2687,-79.84815 65.7281,-116.46101 23.4991,-36.63901 46.9972,-69.81651 70.4566,-99.55871 23.4991,-29.7292 46.3179,-55.9055 68.5631,-78.4244 22.218,-22.5451 42.1119,-40.4009 59.6537,-53.5413 11.2595,-8.1245 24.2567,-14.4074 38.9646,-18.7962 14.7078,-4.3758 29.1147,-7.1841 43.2091,-8.4511 14.0934,-1.2279 26.7636,-0.6134 38.0492,1.8809 11.2595,2.5079 18.7571,6.5702 22.5189,12.213 3.7755,5.6428 2.835,12.84 -2.8078,21.6046 -5.6428,8.7777 -18.1562,18.7832 -37.5664,30.0557 -39.4473,23.799 -77.6542,53.9984 -114.58,90.6504 -36.9656,36.6129 -71.0836,76.3737 -102.3938,119.26937 -31.3091,42.89569 -59.4708,87.01921 -84.5238,132.4228 -25.053,45.40359 -45.7045,88.45603 -61.9662,129.13117 12.5134,-10.00551 24.5566,-17.8166 36.1556,-23.4594 11.5594,-5.64279 22.6757,-8.45113 33.3207,-8.45113 11.2856,0 21.2911,3.29163 30.0563,9.84877 8.7641,6.5702 16.7455,13.7935 23.9557,21.60459 7.1977,7.83721 14.0934,15.02132 20.6506,21.60458 6.5968,6.55714 13.6367,9.86183 21.1479,9.86183 11.899,0 24.4124,-2.80833 37.5664,-8.45113 13.1404,-5.64279 25.8367,-12.99671 38.0366,-22.06176 12.2125,-9.06504 23.6287,-18.79625 34.2747,-29.11525 10.6451,-10.34512 19.7362,-20.19389 27.2474,-29.59854 7.5102,-9.3916 14.5511,-15.80505 21.1469,-19.25343 6.5572,-3.44837 11.8739,-4.54558 15.9493,-3.29163 4.0617,1.28008 6.113,4.70233 6.113,10.34513 0,5.61667 -3.1485,13.45388 -9.4047,23.45939 -6.2572,10.0447 -17.5428,24.13862 -33.8045,42.26871 -16.2888,18.18234 -34.4451,36.33855 -54.4686,54.49476 -20.0507,18.14315 -40.5445,33.96127 -61.5096,47.41515 -20.9902,13.48001 -39.3031,20.19389 -54.9514,20.19389 -20.0507,0 -34.6018,-4.70233 -43.6669,-14.09392 -9.0912,-9.3916 -16.1436,-19.55385 -21.1469,-30.51289 -5.0294,-10.95904 -9.0911,-21.14742 -12.1999,-30.51289 -3.1485,-9.40466 -8.4642,-14.09392 -15.9618,-14.09392 -8.1507,0 -18.1823,4.84601 -30.0562,14.55109 -11.9251,9.70508 -23.1846,19.89346 -33.8432,30.51289 -5.6167,15.6483 -12.8144,28.50133 -21.5921,38.50684 -8.7641,10.00551 -17.059,16.60184 -24.8701,19.73672 -7.8497,3.12183 -13.9502,2.48179 -18.3129,-1.88093 -4.3889,-4.4019 -5.3419,-13.76737 -2.834,-28.17478"
       style="fill:#9c0054;fill-opacity:1;fill-rule:nonzero;stroke:none;stroke-width:10.44961929"
       id="path52" />
    <path
       inkscape:connector-curvature="0"
       d="m -1408.0767,-1023.0051 c -11.9,12.5395 -24.8962,20.207 -38.9645,23.04141 -14.0934,2.80834 -25.5357,0.14421 -34.2873,-7.99391 -8.1507,-8.1246 -10.9596,-19.2535 -8.4517,-33.3605 2.4954,-14.0939 9.6921,-27.3649 21.5921,-39.9044 11.899,-12.5135 24.9088,-20.1939 38.9771,-23.0023 14.0934,-2.8083 25.5096,-0.1567 34.2873,7.9809 8.1245,8.1246 10.9595,19.2535 8.4516,33.3343 -2.4954,14.0939 -9.7056,27.3911 -21.6046,39.9045 z m -67.609,247.029 c 7.4976,-9.3916 14.7078,-15.80505 21.6046,-19.25343 6.857,-3.44837 12.3567,-4.54558 16.4184,-3.29163 4.0754,1.28008 6.1005,4.70233 6.1005,10.34513 0,5.61667 -3.1485,13.45388 -9.3785,23.45939 -6.2834,10.0447 -17.5428,24.13862 -33.8045,42.26871 -16.2889,18.18234 -34.628,36.33855 -54.9525,54.49476 -20.3506,18.14315 -41.0148,33.96127 -62.0049,47.41515 -20.9776,13.48001 -39.2906,20.19389 -54.9263,20.19389 -10.6451,0 -18.1562,-5.77342 -22.5451,-17.35943 -4.3627,-11.59908 -6.0994,-27.09064 -5.159,-46.50081 0.9301,-19.41016 4.5456,-41.47192 10.8018,-66.21139 6.2572,-24.75254 15.1655,-50.26267 26.7646,-76.55653 11.573,-26.30691 25.8106,-52.43096 42.7254,-78.42439 16.9022,-25.9673 35.9989,-49.60956 57.29,-70.91372 5.6564,-5.00276 12.5134,-7.35392 20.6641,-7.04043 8.1507,0.32602 15.6483,1.89399 22.5451,4.70233 6.8706,2.80833 12.2135,6.42651 15.9618,10.80229 3.7493,4.38884 3.7493,8.13764 0,11.25946 -6.2562,5.6428 -13.2972,12.3828 -21.1208,20.19389 -7.8372,7.83722 -15.6744,16.44509 -23.4855,25.83668 -7.8372,9.37854 -15.3484,19.10975 -22.5451,29.11526 -7.2102,10.00551 -13.3107,19.71059 -18.3129,29.11525 -7.5112,14.39435 -13.9377,28.80176 -19.2534,43.19611 -5.3429,14.40741 -8.9083,27.56087 -10.8029,39.46037 -1.8673,11.89951 -2.0376,21.90502 -0.4597,30.05572 1.5538,8.13764 5.1589,13.1404 10.8017,15.00827 4.3627,1.28007 10.9199,0 19.7111,-3.74881 8.7516,-3.76186 18.313,-9.06504 28.6445,-15.96179 10.3452,-6.89675 20.8209,-14.86458 31.467,-23.95575 10.645,-9.06504 19.7362,-18.2999 27.2474,-27.70455"
       style="fill:#9c0054;fill-opacity:1;fill-rule:nonzero;stroke:none;stroke-width:10.44961929"
       id="path54" />
    <path
       inkscape:connector-curvature="0"
       d="m -1351.7146,-931.89748 c -6.2823,13.7935 -11.9251,27.1037 -16.9283,39.91754 -5.0023,12.83997 -9.064,25.53626 -12.2125,38.04968 22.5576,-26.92083 45.2468,-54.46864 68.1054,-82.65649 22.8585,-28.17478 43.2092,-55.42216 61.0519,-81.71605 17.8552,-26.3069 32.2235,-51.0202 43.2092,-74.1792 10.9323,-23.159 16.1185,-43.8231 15.5041,-62.0054 -11.2856,2.5079 -23.3414,10.0447 -36.1819,22.545 -12.8269,12.5396 -26.1501,28.6581 -39.9175,48.3687 -13.7674,19.7106 -27.704,42.5953 -41.7985,68.5626 -14.0673,25.99339 -27.704,53.69794 -40.8319,83.11362 z m -87.3588,328.74501 c -15.0338,0 -24.8962,-9.87489 -29.5985,-29.59854 -4.6888,-19.7106 -5.0023,-45.54728 -0.9405,-77.47087 4.0889,-31.94971 12.0829,-67.94864 23.9558,-108.00987 11.9,-40.07429 26.9077,-80.46207 45.0911,-121.16333 11.8729,-27.56087 25.3529,-54.62539 40.3742,-81.25882 15.0339,-26.6074 30.8389,-51.791 47.4413,-75.59 16.5752,-23.799 33.4774,-45.2468 50.7193,-64.3435 17.2032,-19.0967 33.9613,-34.4184 50.2501,-46.0175 16.2617,-11.586 31.7669,-18.9399 46.5008,-22.0879 14.6817,-3.1087 28.005,-0.6144 39.905,7.5368 15.6348,11.2595 18.6254,31.3097 8.9209,60.1114 -9.7056,28.8018 -27.8608,62.6063 -54.4687,101.4267 -26.634,38.8333 -59.6548,81.10206 -99.1021,126.77995 -39.4337,45.73015 -80.7755,91.10762 -123.9711,136.21079 -6.8968,31.91052 -8.1507,56.04914 -3.7619,72.31136 4.3627,16.28834 10.6451,25.05296 18.7968,26.30692 4.3627,0.60085 11.2595,-1.25396 20.6641,-5.6428 9.3911,-4.37578 19.7101,-10.34512 30.9957,-17.85578 11.2594,-7.51067 22.3622,-16.11854 33.3468,-25.81056 10.9334,-9.70509 20.1678,-19.25343 27.7051,-28.65808 7.5101,-9.3916 14.6817,-15.80505 21.6046,-19.25343 6.8706,-3.44837 12.3305,-4.54558 16.4184,-3.29163 4.0628,1.28008 6.1005,4.70233 6.1005,10.34513 0,5.61667 -3.1349,13.45388 -9.366,23.45939 -6.2823,10.0447 -17.8553,23.95575 -34.7575,41.81154 -16.9023,17.84272 -35.698,35.68545 -56.3496,53.54124 -20.6641,17.82966 -41.4986,33.32122 -62.4626,46.47468 -20.9912,13.15345 -38.9906,19.73671 -54.012,19.73671"
       style="fill:#9c0054;fill-opacity:1;fill-rule:nonzero;stroke:none;stroke-width:10.44961929"
       id="path56" />
    <path
       inkscape:connector-curvature="0"
       d="m -1049.3433,-1096.2439 c 8.7641,5.6298 13.6106,13.6107 14.5636,23.9297 0.9091,10.3451 -2.9907,22.0878 -11.7558,35.2413 -5.6428,8.1507 -12.526,16.6018 -20.6506,25.3534 -8.1507,8.7646 -16.9022,17.059 -26.3069,24.89621 -9.3921,7.82415 -19.0967,15.02133 -29.1022,21.57846 -10.0452,6.59633 -19.4363,11.74276 -28.2014,15.50463 -8.7516,3.7488 -15.1906,4.70232 -19.2534,2.83445 -4.0754,-1.89399 -1.7368,-8.45112 7.0535,-19.73671 6.8967,-9.37854 12.5134,-18.15622 16.9022,-26.30692 4.3627,-8.12462 8.2949,-16.26222 11.7433,-24.41292 3.4223,-8.1115 6.5697,-16.1055 9.4047,-23.9558 2.8078,-7.811 6.4004,-15.4915 10.8017,-23.0022 8.7516,-15.6483 18.1562,-27.2474 28.1618,-34.758 10.0055,-7.4976 22.219,-6.5572 36.6395,2.8344"
       style="fill:#9c0054;fill-opacity:1;fill-rule:nonzero;stroke:none;stroke-width:10.44961929"
       id="path58" />
    <path
       inkscape:connector-curvature="0"
       d="m -561.85346,-660.45556 c 7.4976,9.40465 19.25342,11.59907 35.21521,6.57019 15.97486,-5.00275 33.64778,-15.02132 53.05794,-30.05571 19.41017,-15.02133 39.7608,-34.4315 61.0519,-58.23051 21.30416,-23.799 41.34131,-50.06673 60.11144,-78.89462 -40.70127,11.28559 -75.00215,25.22277 -102.82426,41.79848 -27.88742,16.60183 -50.26266,33.1906 -67.16492,49.79243 -16.90226,16.60183 -28.50134,31.30967 -34.75805,44.12352 -6.24364,12.85303 -7.83721,21.14741 -4.68926,24.89622 z m 373.80899,-214.13882 c 7.51067,0 13.29714,1.73725 17.35943,5.1595 4.08842,3.44837 5.95628,7.19717 5.6428,11.28559 -0.32603,4.06229 -2.65159,7.81109 -7.04043,11.25946 -4.40191,3.44837 -10.64555,5.1595 -18.77013,5.1595 -11.28559,0 -22.7018,0.18287 -34.30088,0.48277 -11.58601,0.31349 -22.38831,1.09721 -32.39382,2.35117 -18.77012,31.30967 -40.85801,61.02577 -66.22446,89.22668 -25.35338,28.16172 -51.80398,53.51511 -79.35179,76.06016 -27.56087,22.55812 -55.26542,41.6548 -83.12672,57.3031 -27.8613,15.66137 -53.54124,26.92083 -77.01369,33.81758 -23.48552,6.87063 -43.83615,8.75156 -61.0519,5.6428 -17.24187,-3.14795 -28.64502,-12.23912 -34.27475,-27.24738 -8.13764,-20.05021 -4.55865,-42.26871 10.80229,-66.70776 15.32176,-24.39986 38.33704,-48.6691 69.0328,-72.76853 30.65657,-24.09944 67.46535,-46.31794 110.36104,-66.6947 42.86956,-20.32451 87.81598,-36.15568 134.77396,-47.42821 17.51617,-26.29385 31.61009,-56.50631 42.25564,-90.62432 10.65862,-34.13106 15.50463,-66.85143 14.56416,-98.14803 -0.95405,-31.3097 -8.92136,-58.8706 -23.95575,-82.6565 -15.02133,-23.7859 -39.7608,-38.8203 -74.20536,-45.077 -8.76462,-1.254 -17.51617,-2.3512 -26.28079,-3.2917 -8.77768,-0.9404 -17.5423,-1.4107 -26.29385,-1.4107 l -3.76187,4.7024 c -31.32273,41.9552 -60.89515,86.2616 -88.75645,132.8799 -27.88742,46.65757 -53.55429,93.92904 -77.01369,141.82748 -23.49858,47.9115 -44.48925,95.32665 -62.94589,142.31075 -18.45664,46.95797 -33.96126,91.08149 -46.47468,132.42279 -5.6428,18.15622 -12.99672,33.17754 -22.08788,45.07705 -9.06453,11.8995 -17.69905,19.86734 -25.81004,23.94269 -8.1507,4.06229 -14.73396,3.9186 -19.74978,-0.45665 -5.00328,-4.38884 -6.25723,-14.09392 -3.74932,-29.12831 11.90002,-67.6221 27.70507,-130.54187 47.44127,-188.78543 19.71059,-58.21744 40.53146,-111.58887 62.46259,-160.12735 21.90502,-48.52542 43.96678,-92.19172 66.2114,-131.02512 22.2185,-38.8204 41.79848,-72.3245 58.7138,-100.4862 -28.20091,7.5107 -54.95194,17.5162 -80.31839,30.0557 -25.35338,12.5134 -47.59801,26.6074 -66.69469,42.2557 -19.09668,15.6613 -34.6013,32.5636 -46.4752,50.7198 -11.89898,18.1823 -18.48224,36.3124 -19.7362,54.46865 -25.66635,-19.38405 -37.72312,-42.56915 -36.15568,-69.48995 1.55386,-26.9078 13.45389,-53.5413 35.69799,-79.8482 22.21902,-26.2938 52.73191,-50.2496 91.56531,-71.8542 38.82033,-21.6045 82.96997,-36.7696 132.4228,-45.5472 45.71708,-7.5107 91.12067,-10.6325 136.21078,-9.3786 45.06398,1.254 83.88432,9.7051 116.43488,25.3534 35.69851,18.1562 61.36539,41.3283 77.01369,69.5161 15.66137,28.1617 23.95575,59.0142 24.90928,92.5053 0.94047,33.5041 -4.21903,67.7788 -15.50462,102.83727 -11.25947,35.0846 -25.35339,68.24908 -42.26871,99.55875 5.65586,0 12.21299,-0.15675 19.74978,-0.48277 7.4976,-0.30095 16.90226,-0.13062 28.16172,0.48277"
       style="fill:#9c0054;fill-opacity:1;fill-rule:nonzero;stroke:none;stroke-width:10.44961929"
       id="path60" />
    <path
       inkscape:connector-curvature="0"
       d="m -16.161297,-915.90956 c -7.510664,-5.6428 -17.059003,-7.19718 -28.658081,-4.70233 -11.586015,2.50791 -23.459394,8.1507 -35.672386,16.91532 -12.199931,8.75155 -23.799006,20.35063 -34.758046,34.74498 -10.9721,14.40741 -19.25342,30.36921 -24.89622,47.88538 6.25671,0.64056 15.50463,0.94047 27.70456,0.94047 12.21299,0 27.404121,-3.42225 45.560334,-10.319 17.516174,-6.89675 30.996183,-14.39435 40.40084,-22.54505 9.365471,-8.15071 15.805049,-16.28835 19.2534228,-24.41293 3.4222503,-8.13764 4.0622894,-15.6483 1.8548074,-22.54505 -2.19442,-6.89675 -5.7864762,-12.19993 -10.7892312,-15.96179 z m 68.562562,139.93346 c 6.243648,-9.3916 12.500357,-16.10548 18.78319,-20.19389 6.25671,-4.06229 11.572953,-5.47299 15.961793,-4.21904 4.362716,1.25396 6.713881,4.85908 7.053493,10.8023 0.300949,5.95628 -2.351164,14.25067 -7.993958,24.87009 -3.761863,6.89675 -10.162255,17.08513 -19.253423,30.53901 -9.065045,13.46695 -20.050207,27.8613 -32.864052,43.20918 -12.839969,15.34788 -27.5608702,30.21246 -44.14964,44.60681 -16.601833,14.40741 -34.444557,26.30691 -53.528174,35.67239 -19.122802,9.40465 -39.146884,15.04745 -60.111434,16.91532 -20.99067,1.88093 -42.73894,-2.50791 -65.28399,-13.12734 -18.15622,-8.79074 -30.98312,-22.70179 -38.50685,-41.79847 -7.51066,-19.10974 -10.63249,-40.85801 -9.37853,-65.29706 1.25395,-24.41292 6.41345,-50.23654 15.50462,-77.47086 9.06504,-27.24738 20.78168,-53.07101 35.21522,-77.48393 13.75431,-23.15897 29.7161,-44.30638 47.89844,-63.40306 18.15621,-19.09668 37.10921,-33.96126 56.8198,-44.60681 19.710594,-10.64555 39.577932,-16.28835 59.6412,-16.90226 20.0240828,-0.61339 39.120761,5.61667 57.276975,18.77013 13.153457,9.39159 22.558115,21.47396 28.200909,36.15568 5.61667,14.73396 6.400391,30.38227 2.338102,46.95797 -4.075351,16.60184 -13.480008,33.04692 -28.187847,49.30914 -14.707839,16.28835 -35.5417668,30.99619 -62.462598,44.14964 -11.899503,5.6428 -24.099434,9.54834 -36.612852,11.74276 -12.539543,2.19442 -24.439047,3.44838 -35.698511,3.76187 -11.259468,0.32602 -21.748268,-0.15675 -31.453358,-1.4107 -9.7312,-1.25396 -18.01253,-2.50791 -24.89621,-3.7488 -1.86787,10.00551 -3.76187,20.8078 -5.6428,32.40688 -1.86787,11.58601 -2.82139,22.68873 -2.82139,33.32122 0,10.67167 1.41069,20.19389 4.24515,28.64502 2.80834,8.45113 7.96784,14.55109 15.50463,18.33908 16.26222,8.75156 34.41843,10.16225 54.468635,4.20597 20.01102,-5.94322 39.264443,-15.00826 57.760269,-27.24738 18.456639,-12.19993 35.2021539,-25.81056 50.249605,-40.84495 15.008266,-15.02133 25.666877,-27.22126 31.923586,-36.62591"
       style="fill:#9c0054;fill-opacity:1;fill-rule:nonzero;stroke:none;stroke-width:10.44961929"
       id="path62" />
    <path
       inkscape:connector-curvature="0"
       d="m 176.37293,-931.89748 c -6.28283,13.7935 -11.92563,27.1037 -16.92838,39.91754 -5.01582,12.83997 -9.06504,25.53626 -12.21299,38.04968 22.54505,-26.92083 45.24685,-54.46864 68.10539,-82.65649 22.85854,-28.17478 43.20917,-55.42216 61.0519,-81.71605 17.85578,-26.3069 32.22401,-51.0202 43.20917,-74.1792 10.93292,-23.159 16.10548,-43.8231 15.50463,-62.0054 -11.29866,2.5079 -23.34184,10.0447 -36.19487,22.545 -12.81385,12.5396 -26.13711,28.6581 -39.90449,48.3687 -13.76737,19.7106 -27.70455,42.5953 -41.79847,68.5626 -14.08086,25.99339 -27.70455,53.69794 -40.83189,83.11362 z m 155.89526,155.92138 c 6.24364,-9.3916 12.68322,-15.9618 19.25342,-19.7106 6.58326,-3.77492 12.04319,-5.18562 16.44509,-4.24515 4.36271,0.95405 6.71388,4.54558 7.04043,10.80229 0.31349,6.25671 -2.67772,14.40741 -8.93443,24.41292 -6.89674,11.28559 -15.02132,20.66412 -24.41292,28.20091 -9.39159,7.4976 -19.41017,13.29714 -30.05572,17.35943 -10.64554,4.08841 -21.29109,6.28283 -31.94971,6.58326 -10.64554,0.31349 -20.35063,-1.09721 -29.10218,-4.2321 -10.64555,16.28835 -22.54506,31.79297 -35.67239,46.50081 -13.15346,14.70784 -26.79021,27.39106 -40.85801,38.02355 -14.09393,10.67167 -28.34459,18.63951 -42.75201,23.94269 -14.39435,5.34237 -28.48827,7.05349 -42.255642,5.18562 -15.047452,-1.89399 -24.896217,-12.83997 -29.598546,-32.89017 -4.702329,-20.02408 -5.002755,-45.6779 -0.940466,-77.01369 4.088414,-31.30968 12.06931,-66.66857 23.955752,-106.12895 11.899503,-39.44731 26.907772,-79.50854 45.090102,-120.2098 11.87338,-27.56087 25.35339,-54.62539 40.37472,-81.25882 15.03439,-26.6074 30.83944,-51.791 47.44127,-75.59 16.57571,-23.799 33.47797,-45.2468 50.70678,-64.3435 17.21574,-19.0967 33.97432,-34.4184 50.26266,-46.0175 16.26222,-11.586 31.76684,-18.9399 46.50081,-22.0879 14.68171,-3.1087 28.00498,-0.6144 39.90448,7.5368 15.63524,11.2595 18.61338,31.3097 8.9083,60.1114 -9.69202,28.8018 -27.84823,62.6063 -54.45558,101.4267 -26.63346,38.8333 -59.65426,81.10206 -99.10157,126.77995 -39.43425,45.73015 -80.77556,91.10762 -123.98473,136.21079 -6.88369,31.91052 -8.9083,56.34957 -6.09997,73.25183 2.83446,16.90226 8.93443,26.92083 18.31296,30.05571 13.78044,3.76187 27.54781,0.6134 41.34131,-9.39159 13.76737,-10.00551 25.02683,-20.96455 33.80451,-32.86405 -11.25946,-13.15346 -16.60183,-29.75529 -15.96179,-49.79244 0.61339,-20.02408 4.70233,-38.96401 12.21299,-56.8198 7.51067,-17.84273 17.35943,-32.56363 29.57243,-44.14964 12.22605,-11.57295 23.94269,-15.16501 35.22827,-10.8023 9.40466,3.13489 15.81811,9.24792 19.25343,18.31296 3.42225,9.09117 4.37577,20.03715 2.80833,32.89018 -1.55438,12.83997 -5.00275,27.09064 -10.30594,42.71282 -5.34236,15.66136 -12.38279,31.63622 -21.14741,47.9115 8.76462,5.64279 18.61338,6.89675 29.59854,3.7488 10.91986,-3.10876 20.80781,-11.25946 29.57243,-24.41292"
       style="fill:#9c0054;fill-opacity:1;fill-rule:nonzero;stroke:none;stroke-width:10.44961929"
       id="path64" />
    <path
       inkscape:connector-curvature="0"
       d="m 456.26598,-931.89748 c -6.28284,13.7935 -11.92563,27.1037 -16.92839,39.91754 -5.01581,12.83997 -9.06504,25.53626 -12.21299,38.04968 22.54506,-26.92083 45.24685,-54.46864 68.10539,-82.65649 22.85855,-28.17478 43.20918,-55.42216 61.0519,-81.71605 17.85579,-26.3069 32.22402,-51.0202 43.20918,-74.1792 10.93291,-23.159 16.10547,-43.8231 15.50462,-62.0054 -11.29865,2.5079 -23.34184,10.0447 -36.19487,22.545 -12.81384,12.5396 -26.13711,28.6581 -39.90448,48.3687 -13.76737,19.7106 -27.70455,42.5953 -41.79848,68.5626 -14.08086,25.99339 -27.71761,53.69794 -40.83188,83.11362 z m 155.89525,155.92138 c 6.24365,-9.3916 12.68323,-15.9618 19.25342,-19.7106 6.58326,-3.77492 12.04319,-5.18562 16.44509,-4.24515 4.36272,0.95405 6.71388,4.54558 7.04043,10.80229 0.29991,6.25671 -2.67771,14.40741 -8.93442,24.41292 -6.89675,11.28559 -15.02133,20.66412 -24.41292,28.20091 -9.3916,7.4976 -19.41017,13.29714 -30.05572,17.35943 -10.64555,4.08841 -21.2911,6.28283 -31.94971,6.58326 -10.64555,0.31349 -20.35063,-1.09721 -29.10219,-4.2321 -10.64555,16.28835 -22.54505,31.79297 -35.67239,46.50081 -13.15345,14.70784 -26.79021,27.39106 -40.85801,38.02355 -14.09392,10.67167 -28.34459,18.63951 -42.752,23.94269 -14.39435,5.34237 -28.48827,7.05349 -42.25565,5.18562 -15.04745,-1.89399 -24.89621,-12.83997 -29.59854,-32.89017 -4.70233,-20.02408 -5.00276,-45.6779 -0.94047,-77.01369 4.08841,-31.30968 12.06931,-66.66857 23.95575,-106.12895 11.88644,-39.44731 26.90777,-79.50854 45.09011,-120.2098 11.87338,-27.56087 25.35339,-54.62539 40.37471,-81.25882 15.03439,-26.6074 30.83944,-51.791 47.44127,-75.59 16.57571,-23.799 33.47797,-45.2468 50.70678,-64.3435 17.21575,-19.0967 33.96126,-34.4184 50.26267,-46.0175 16.26222,-11.586 31.76684,-18.9399 46.5008,-22.0879 14.68172,-3.1087 28.00498,-0.6144 39.90449,7.5368 15.63524,11.2595 18.61338,31.3097 8.9083,60.1114 -9.69203,28.8018 -27.84824,62.6063 -54.45558,101.4267 -26.63347,38.8333 -59.65426,81.10206 -99.10158,126.77995 -39.43425,45.73015 -80.77555,91.10762 -123.98473,136.21079 -6.89674,31.91052 -8.9083,56.34957 -6.09996,73.25183 2.83446,16.90226 8.93442,26.92083 18.31296,30.05571 13.78043,3.76187 27.5478,0.6134 41.3413,-9.39159 13.75431,-10.00551 25.02684,-20.96455 33.80452,-32.86405 -11.25946,-13.15346 -16.60183,-29.75529 -15.96179,-49.79244 0.61443,-20.02408 4.70233,-38.96401 12.21299,-56.8198 7.51066,-17.84273 17.35943,-32.56363 29.57242,-44.14964 12.22605,-11.57295 23.94269,-15.16501 35.22828,-10.8023 9.40466,3.13489 15.80505,9.24792 19.25342,18.31296 3.42225,9.09117 4.37578,20.03715 2.80834,32.89018 -1.55438,12.83997 -5.00276,27.09064 -10.30594,42.71282 -5.34237,15.66136 -12.39586,31.63622 -21.14742,47.9115 8.75156,5.64279 18.61339,6.89675 29.59855,3.7488 10.91985,-3.10876 20.8078,-11.25946 29.57242,-24.41292"
       style="fill:#9c0054;fill-opacity:1;fill-rule:nonzero;stroke:none;stroke-width:10.44961929"
       id="path66" />
    <path
       inkscape:connector-curvature="0"
       d="m 871.39015,-1023.0051 c -11.8995,12.5395 -24.89621,20.207 -38.96401,23.04141 -14.09393,2.80834 -25.53626,0.14421 -34.30088,-7.99391 -8.13764,-8.1246 -10.94597,-19.2535 -8.45113,-33.3605 2.50791,-14.0939 9.70509,-27.3649 21.60459,-39.9044 11.8995,-12.5135 24.89622,-20.1939 38.96402,-23.0023 14.09392,-2.8083 25.51013,-0.1567 34.30087,7.9809 8.11152,8.1246 10.94598,19.2535 8.45113,33.3343 -2.50791,14.0939 -9.70508,27.3911 -21.60459,39.9045 z m -67.62209,247.029 c 7.51066,-9.3916 14.70784,-15.80505 21.60458,-19.25343 6.87063,-3.44837 12.35668,-4.54558 16.41897,-3.29163 4.08841,1.28008 6.09996,4.70233 6.09996,10.34513 0,5.61667 -3.13488,13.45388 -9.36547,23.45939 -6.28283,10.0447 -17.5423,24.13862 -33.80451,42.26871 -16.30141,18.18234 -34.62743,36.33855 -54.95194,54.49476 -20.35063,18.14315 -41.01475,33.96127 -62.00543,47.41515 -20.99067,13.48001 -39.30362,20.19389 -54.92581,20.19389 -10.64554,0 -18.15621,-5.77342 -22.54505,-17.35943 -4.37578,-11.59908 -6.09996,-27.09064 -5.1595,-46.50081 0.91434,-19.41016 4.54559,-41.47192 10.8023,-66.21139 6.25671,-24.75254 15.16501,-50.26267 26.76408,-76.55653 11.55989,-26.30691 25.81056,-52.43096 42.71282,-78.42439 16.90226,-25.9673 36.012,-49.60956 57.3031,-70.91372 5.64279,-5.00276 12.51342,-7.35392 20.66412,-7.04043 8.13764,0.32602 15.6483,1.89399 22.54505,4.70233 6.87063,2.80833 12.19993,6.42651 15.9618,10.80229 3.7488,4.38884 3.7488,8.13764 0,11.25946 -6.25671,5.6428 -13.31021,12.3828 -21.1213,20.19389 -7.83721,7.83722 -15.67442,16.44509 -23.49858,25.83668 -7.83721,9.37854 -15.34788,19.10975 -22.54505,29.11526 -7.19718,10.00551 -13.29714,19.71059 -18.31296,29.11525 -7.4976,14.39435 -13.93718,28.80176 -19.25342,43.19611 -5.32931,14.40741 -8.9083,27.56087 -10.78923,39.46037 -1.86787,11.89951 -2.05074,21.90502 -0.47023,30.05572 1.56744,8.13764 5.15949,13.1404 10.80229,15.00827 4.37578,1.28007 10.93291,0 19.71059,-3.74881 8.76462,-3.76186 18.31296,-9.06504 28.65808,-15.96179 10.34513,-6.89675 20.80781,-14.86458 31.45336,-23.95575 10.65861,-9.06504 19.74978,-18.2999 27.24738,-27.70455"
       style="fill:#9c0054;fill-opacity:1;fill-rule:nonzero;stroke:none;stroke-width:10.44961929"
       id="path68" />
    <path
       inkscape:connector-curvature="0"
       d="m 1031.9747,-915.90956 c -7.4976,-5.6428 -17.046,-7.19718 -28.645,-4.70233 -11.58606,2.50791 -23.4725,8.1507 -35.67243,16.91532 -12.19993,8.75155 -23.79901,20.35063 -34.75805,34.74498 -10.9721,14.40741 -19.25342,30.36921 -24.89621,47.88538 6.25671,0.64056 15.50462,0.94047 27.70455,0.94047 12.21299,0 27.40413,-3.42225 45.56034,-10.319 17.51617,-6.89675 30.9962,-14.39435 40.4008,-22.54505 9.3655,-8.15071 15.8051,-16.28835 19.2535,-24.41293 3.4222,-8.13764 4.0623,-15.6483 1.8548,-22.54505 -2.1945,-6.89675 -5.7865,-12.19993 -10.8023,-15.96179 z m 68.5625,139.93346 c 6.2567,-9.3916 12.5135,-16.10548 18.7963,-20.19389 6.2567,-4.06229 11.5729,-5.47299 15.9618,-4.21904 4.3627,1.25396 6.7139,4.85908 7.0535,10.8023 0.2999,5.95628 -2.3512,14.25067 -7.994,24.87009 -3.7618,6.89675 -10.1622,17.08513 -19.2534,30.53901 -9.0651,13.46695 -20.0502,27.8613 -32.8641,43.20918 -12.853,15.34788 -27.5608,30.21246 -44.1496,44.60681 -16.6018,14.40741 -34.4446,26.30691 -53.52817,35.67239 -19.1228,9.40465 -39.14689,15.04745 -60.11144,16.91532 -20.99067,1.88093 -42.73894,-2.50791 -65.28399,-13.12734 -18.15621,-8.79074 -30.98312,-22.70179 -38.50685,-41.79847 -7.51066,-19.10974 -10.63248,-40.85801 -9.37853,-65.29706 1.25396,-24.41292 6.41345,-50.23654 15.50462,-77.47086 9.06505,-27.24738 20.78168,-53.07101 35.21522,-77.48393 13.75431,-23.15897 29.7161,-44.30638 47.89844,-63.40306 18.15621,-19.09668 37.09615,-33.96126 56.8198,-44.60681 19.7106,-10.64555 39.5779,-16.28835 59.6412,-16.90226 20.0241,-0.61339 39.1208,5.61667 57.277,18.77013 13.1534,9.39159 22.545,21.47396 28.2009,36.15568 5.6167,14.73396 6.4004,30.38227 2.3381,46.95797 -4.0754,16.60184 -13.48,33.04692 -28.1879,49.30914 -14.7078,16.28835 -35.5417,30.99619 -62.4626,44.14964 -11.8995,5.6428 -24.09939,9.54834 -36.61281,11.74276 -12.53954,2.19442 -24.43904,3.44838 -35.69851,3.76187 -11.25946,0.32602 -21.76133,-0.15675 -31.45335,-1.4107 -9.73121,-1.25396 -18.01253,-2.50791 -24.89622,-3.7488 -1.86787,10.00551 -3.76186,20.8078 -5.65586,32.40688 -1.8548,11.58601 -2.80833,22.68873 -2.80833,33.32122 0,10.67167 1.4107,20.19389 4.24516,28.64502 2.80833,8.45113 7.96783,14.55109 15.50462,18.33908 16.26222,8.75156 34.41843,10.16225 54.45558,4.20597 20.02408,-5.94322 39.2775,-15.00826 57.77332,-27.24738 18.4566,-12.19993 35.2022,-25.81056 50.2496,-40.84495 15.0083,-15.02133 25.6669,-27.22126 31.9105,-36.62591"
       style="fill:#9c0054;fill-opacity:1;fill-rule:nonzero;stroke:none;stroke-width:10.44961929"
       id="path70" />
    <path
       inkscape:connector-curvature="0"
       d="m 1269.6928,-1103.448 c 8.7777,5.6428 13.6368,13.6106 14.5773,23.9557 0.9279,10.3451 -2.9912,22.0618 -11.7428,35.2152 -5.6428,8.1377 -12.5134,16.6019 -20.6641,25.3534 -8.1377,8.7646 -16.9023,17.059 -26.2939,24.89623 -9.4046,7.81109 -19.0966,15.04745 -29.1413,21.60459 -9.9794,6.55714 -19.371,11.74276 -28.1618,15.50462 -8.7646,3.7488 -15.165,4.68927 -19.2534,2.80834 -4.0623,-1.86787 -1.7111,-8.45113 7.0535,-19.72366 6.8837,-9.39159 12.5265,-18.29989 16.9023,-26.75102 4.3888,-8.4511 8.2943,-16.6018 11.7427,-24.439 3.4484,-7.8373 6.5572,-15.6614 9.3916,-23.4725 2.8084,-7.8372 6.4135,-15.4916 10.7762,-23.0022 8.7907,-15.6745 18.1823,-27.2474 28.2009,-34.7581 10.0055,-7.5368 22.2316,-6.5832 36.6128,2.8084"
       style="fill:#9c0054;fill-opacity:1;fill-rule:nonzero;stroke:none;stroke-width:10.44961929"
       id="path72" />
    <path
       inkscape:connector-curvature="0"
       d="m 1536.3255,-775.9761 c 7.5107,-9.3916 14.8646,-15.80505 22.0879,-19.25343 7.1841,-3.44837 12.8269,-4.36271 16.9023,-2.80833 4.0623,1.55438 6.113,5.1595 6.113,10.80229 0,5.61667 -3.4484,13.12734 -10.3451,22.51893 -17.5423,23.18509 -36.9525,46.50081 -58.2175,69.97326 -21.3041,23.48552 -43.392,43.9929 -66.2114,61.5352 -22.8846,17.51617 -46.0436,30.66963 -69.516,39.43425 -23.4856,8.77768 -45.8869,9.69202 -67.1519,2.83446 -22.5451,-6.89675 -36.9525,-17.05901 -43.2092,-30.55208 -6.2567,-13.45388 -7.0404,-26.75102 -2.3512,-39.90448 4.7024,-13.15346 12.9968,-24.41292 24.8963,-33.80452 11.8733,-9.40465 24.7264,-13.46694 38.5068,-12.21299 -3.1349,6.89675 -4.2321,14.25067 -3.2916,22.06176 0.9404,7.83721 6.0999,14.25067 15.5046,19.25342 10.6456,5.6428 22.5451,5.98241 35.6985,0.95405 13.1535,-5.01582 25.3534,-16.27528 36.6129,-33.81758 6.8967,-11.25946 11.5729,-24.09943 14.0939,-38.50684 2.4818,-14.39435 3.1218,-29.10219 1.8679,-44.14964 -1.254,-15.00827 -4.2191,-29.87285 -8.9083,-44.60682 -4.7024,-14.70783 -10.1884,-27.70455 -16.4451,-38.96401 -14.4074,16.28834 -28.8018,32.86405 -43.2092,49.76631 -14.4074,16.90226 -28.5013,33.80452 -42.2556,50.70677 -9.4047,11.89951 -17.6991,19.25343 -24.9093,22.08789 -7.1972,2.80833 -12.5004,2.96508 -15.9488,0.45664 -3.4222,-2.49484 -4.7023,-6.88368 -3.7618,-13.14039 0.954,-6.25671 4.5456,-13.15346 10.8023,-20.66412 17.5161,-21.26498 35.0584,-42.11197 52.6007,-62.4626 17.5162,-20.35063 34.118,-39.29057 49.7794,-56.80674 -6.2567,-16.30141 -6.5702,-33.34735 -0.954,-51.20313 5.6428,-17.84273 14.2506,-33.96127 25.8497,-48.36868 11.5599,-14.39435 24.5566,-25.51015 38.964,-33.34735 14.3944,-7.8111 27.2474,-9.5222 38.5069,-5.1595 10.6455,4.4019 15.0344,15.3479 13.1534,32.8641 -1.8678,17.54226 -10.6586,37.89289 -26.3069,61.06492 15.0475,37.55332 23.159,75.75974 24.4391,114.56701 1.2539,38.84646 -3.4484,74.54497 -14.094,107.06941 8.1116,-8.75156 16.2623,-17.51618 24.413,-26.29386 8.1376,-8.76461 16.9022,-19.38404 26.2938,-31.92358"
       style="fill:#9c0054;fill-opacity:1;fill-rule:nonzero;stroke:none;stroke-width:10.44961929"
       id="path74" />
    <path
       inkscape:connector-curvature="0"
       d="m -1631.5815,-276.47125 c 15.6222,-13.76738 24.7134,-27.56087 27.2213,-41.35437 2.4953,-13.75431 -0.3135,-24.87009 -8.4506,-33.32122 -8.1507,-8.45113 -20.9651,-13.15346 -38.5069,-14.09393 -17.5167,-0.94046 -38.5068,4.21904 -62.9192,15.50463 -33.8181,16.28834 -63.8744,35.99893 -90.1677,59.1579 2.5079,3.76186 9.7056,9.73121 21.6046,17.85579 11.899,8.1507 26.1502,14.55109 42.7389,19.25342 16.5752,4.70233 34.5757,5.94322 53.9859,3.7488 19.4091,-2.19442 37.5925,-11.10272 54.4937,-26.75102 z m -83.6095,-154.98091 c 54.4948,-17.51618 98.6183,-23.00223 132.4364,-16.44509 33.8296,6.58326 56.3496,20.19389 67.6341,40.85801 11.2595,20.65106 10.6325,46.34406 -1.8799,77.01369 -12.5406,30.69576 -37.8934,61.69194 -76.0742,93.00161 -23.799,20.05021 -49.1519,32.06727 -76.0722,36.15568 -26.9339,4.06229 -52.1447,3.60512 -75.603,-1.42376 -23.4991,-4.98969 -44.1497,-12.67016 -62.006,-23.01529 -17.8427,-10.31899 -29.5985,-20.16776 -35.2152,-29.57242 -33.1901,35.67239 -59.7979,74.51885 -79.8487,116.47407 -20.0371,41.955219 -34.118,82.016446 -42.2551,120.222865 -8.1507,38.193358 -10.5018,71.697449 -7.0535,100.473087 3.4484,28.801758 12.3567,48.238058 26.7908,58.243568 13.1529,8.76461 27.704,13.3102 43.6658,13.61062 15.9618,0.33962 32.4074,-2.49484 49.3097,-8.45112 16.9012,-5.94323 33.8045,-13.91106 50.7067,-23.94269 16.9012,-10.01858 32.7199,-20.66413 47.4538,-31.949715 14.6818,-11.259464 27.8221,-22.518928 39.4212,-33.804517 11.5991,-11.259464 20.8073,-20.664122 27.7051,-28.174785 8.1507,-9.391595 15.6473,-15.805049 22.5451,-19.2534232 6.8957,-3.4483743 12.2124,-4.3627159 15.9617,-2.8083351 3.7744,1.5674428 5.4861,5.3162433 5.1851,11.2594643 -0.3239,5.956283 -3.6312,13.310202 -9.8623,22.07482 -19.4227,28.187848 -42.5812,55.578911 -69.5025,82.186251 -26.9339,26.60735 -55.592,49.30914 -85.9481,68.07927 -30.3687,18.79625 -61.3654,32.10645 -92.9755,39.91755 -31.6362,7.83721 -61.8492,7.04043 -90.6243,-2.32505 -23.1846,-7.53678 -41.3408,-21.93113 -54.4948,-43.20917 -13.154,-21.2911 -21.2911,-47.28453 -24.4124,-77.95416 -3.1349,-30.669629 -1.7378,-64.356588 4.2185,-100.969441 5.9427,-36.638977 16.4456,-74.048613 31.4795,-112.255029 15.0213,-38.1803 34.4189,-75.43319 58.218,-111.77174 23.7979,-36.2863 51.9732,-69.4769 84.5238,-99.53262 -13.7674,-20.05021 -23.4594,-42.28177 -29.1022,-66.69469 -5.6553,-24.41293 -3.7619,-48.82585 5.6428,-73.2649 6.2436,-16.90225 15.9492,-29.25893 29.1022,-37.09614 13.154,-7.82416 26.6068,-11.57296 40.4013,-11.25947 13.7674,0.32603 26.6069,4.20597 38.5069,11.74276 11.8728,7.51067 19.7101,18.15621 23.4583,31.91053 -8.7515,3.14794 -15.9482,8.46419 -21.591,15.98791 -5.6166,7.51067 -10.319,15.9618 -14.0808,25.35339 -3.7755,9.40466 -6.2698,18.65257 -7.5237,27.71762 -1.254,9.06504 -1.8684,16.41896 -1.8684,22.06175 17.5167,-12.51342 35.6729,-23.799 54.4696,-33.81758 18.7958,-10.00551 38.5058,-18.45664 59.1574,-25.35338"
       style="fill:#9c0054;fill-opacity:1;fill-rule:nonzero;stroke:none;stroke-width:10.44961929"
       id="path76" />
    <path
       inkscape:connector-curvature="0"
       d="m -1579.0063,116.10787 c 6.2572,1.88093 13.7935,1.42376 22.545,-1.4107 8.7652,-2.80833 17.5157,-6.55713 26.307,-11.25946 8.7515,-4.70233 16.9022,-10.345125 24.4124,-16.90226 7.5247,-6.596322 13.4538,-12.696288 17.8427,-18.312958 -9.3911,-10.645549 -14.2502,-23.799007 -14.5501,-39.447311 -0.3239,-15.661367 2.1944,-31.1529271 7.5102,-46.500805 5.3032,-15.347878 12.5395,-29.729166 21.6046,-43.209175 9.065,-13.453884 18.6389,-23.315712 28.6445,-29.598545 8.1507,-5.616671 12.6962,-11.559896 13.6106,-17.816596 0.9404,-6.25671 -0.6165,-11.59908 -4.6762,-15.98792 -4.0879,-4.36272 -10.1884,-7.17105 -18.3255,-8.45113 -8.1507,-1.25396 -17.2158,0.63952 -27.2213,5.64279 -16.9148,8.77768 -33.9874,21.93114 -51.2031,39.447315 -17.2419,17.542298 -31.4534,37.892931 -42.7264,61.064961 -7.5227,16.288343 -13.6357,32.3938187 -18.3255,48.355612 -4.7023,15.961793 -7.2102,30.695756 -7.5102,44.14964 -0.3239,13.466946 1.253,24.752535 4.7024,33.817579 3.4222,9.065043 9.2082,14.551093 17.3589,16.418963 z m 202.8793,-88.286217 c 6.2573,-9.391595 12.6963,-15.948731 19.2535,-19.710594 6.5832,-3.7749249 11.8989,-5.1856235 15.9618,-4.2320957 4.0878,0.9404657 6.4265,4.5455842 7.0399,10.8022937 0.6165,6.256709 -2.1945,14.39435 -8.4506,24.412922 -6.8968,11.285589 -15.0088,20.65106 -24.4135,28.187848 -9.3911,7.497601 -19.3966,13.29714 -30.0552,17.359429 -10.645,4.088414 -21.2911,6.282834 -31.9372,6.58326 -10.645,0.313489 -20.3495,-1.09721 -29.1147,-4.232096 -10.645,16.28834 -23.0017,32.09339 -37.0961,47.44127 -14.0684,15.34788 -28.632,28.31847 -43.6669,38.96402 -15.0213,10.65861 -30.5129,18.65257 -46.5008,23.95575 -15.9608,5.34237 -31.1524,6.41345 -45.5593,3.29163 -15.6483,-3.7488 -28.006,-11.58602 -37.0711,-23.48552 -9.0901,-11.87338 -14.8907,-26.92083 -17.3986,-45.07704 -2.4943,-18.15622 -1.0711,-38.990145 4.2457,-62.449539 5.3157,-23.498581 14.8646,-48.695225 28.6184,-75.6160557 21.9442,-43.2091743 45.4036,-76.0993503 70.4565,-98.6182753 25.053,-22.54506 49.1529,-38.80728 72.3114,-48.85197 16.3014,-6.87063 32.7209,-10.8023 49.3097,-11.74276 16.6013,-0.91434 30.8525,1.5805 42.7514,7.53679 11.8739,5.94322 19.8679,15.16501 23.9558,27.70455 4.0492,12.51342 1.7116,28.80176 -7.0535,48.825843 6.2572,12.539542 5.4599,30.695756 -2.3512,54.494763 -7.8372,23.785945 -18.639,48.812783 -32.4063,75.119698 8.1245,5.642795 17.8552,6.896749 29.1147,3.748801 11.2856,-3.108761 21.2911,-11.259464 30.0562,-24.412922"
       style="fill:#9c0054;fill-opacity:1;fill-rule:nonzero;stroke:none;stroke-width:10.44961929"
       id="path78" />
    <path
       inkscape:connector-curvature="0"
       d="m -1058.6937,27.821653 c 7.5238,-9.391595 14.5773,-15.805049 21.1344,-19.2534232 6.5697,-3.4483743 11.899,-4.5455843 15.9618,-3.29163 4.0618,1.2800783 6.0994,4.7023286 6.0994,10.3451232 0,5.61667 -3.1349,13.453884 -9.3649,23.472456 -3.7755,5.642795 -11.9251,16.58877 -24.4396,32.877114 -12.5395,16.301406 -27.4041,35.554827 -44.6063,57.773327 -17.2418,22.20544 -36.1557,46.34406 -56.8198,72.31137 -20.6516,25.9673 -40.7012,51.17701 -60.1114,75.60299 -15.6483,19.38404 -30.1994,37.56638 -43.6669,54.46864 -13.4789,16.90226 -25.6789,31.76684 -36.6384,44.61987 -10.9596,12.81385 -20.3507,22.68874 -28.1618,29.58549 -7.8372,6.87062 -13.9502,9.70508 -18.339,8.45113 -5.0033,-1.26702 -7.1977,-7.83722 -6.5572,-19.73672 0.6166,-11.89951 3.5916,-27.09064 8.9083,-45.54728 5.3157,-18.4697 12.5396,-39.43425 21.6046,-62.91977 9.0651,-23.47245 19.2534,-47.59801 30.539,-72.32442 11.2595,-24.71335 23.4594,-49.45282 36.6124,-74.20536 13.1539,-24.71335 26.6078,-47.715572 40.4013,-69.019733 l 24.4124,-38.506846 c -12.5395,14.407413 -27.8608,31.309671 -46.017,50.719839 -18.1823,19.3971 -36.7962,37.73619 -55.8929,54.95193 -19.1092,17.20269 -36.9519,31.29661 -53.5282,42.25565 -16.6013,10.95904 -28.958,15.19113 -37.0961,12.67016 -12.5134,-3.76186 -20.2064,-12.8269 -23.0153,-27.22125 -2.8339,-14.40742 -1.3971,-31.94971 4.2196,-52.60077 5.6427,-20.664125 14.4204,-43.365923 26.2933,-68.105396 11.9,-24.726411 26.1502,-49.139333 42.7525,-73.264891 16.5752,-24.07331 34.5747,-46.957975 54.011,-68.562562 19.3715,-21.604591 39.1212,-39.904481 59.1584,-54.925811 13.7674,-10.00551 26.6068,-16.74551 38.5068,-20.19389 11.8729,-3.44837 21.2775,-4.37578 28.1743,-2.80833 6.8842,1.55438 10.3326,4.84601 10.3326,9.84876 0,5.00276 -5.0294,11.25947 -15.0349,18.77013 -12.5135,8.79074 -25.3529,19.89346 -38.5069,33.34735 -13.1529,13.480006 -25.6663,27.861294 -37.5664,43.209172 -11.8989,15.347878 -22.7018,31.152927 -32.4063,47.415146 -9.7056,16.3014059 -17.686,31.4925395 -23.9432,45.560339 -6.2562,14.093924 -10.0181,26.293854 -11.272,36.638977 -1.2676,10.318998 0.9509,17.372491 6.5696,21.121292 2.4954,1.893994 8.4517,-1.071086 17.8428,-8.9083 9.4046,-7.824152 20.6641,-18.613384 33.8181,-32.406881 13.1404,-13.767373 27.3905,-29.271995 42.7389,-46.5008045 15.3212,-17.2157475 30.5129,-34.4184325 45.5603,-51.6603035 15.0078,-17.202686 28.7752,-33.321223 41.3147,-48.368677 12.5134,-15.00826 22.8585,-27.20819 30.9967,-36.61285 9.4047,-10.64555 20.964,-18.79625 34.7575,-24.43905 13.7674,-5.61667 26.7646,-9.36547 38.96457,-11.25946 12.21247,-1.89399 22.08736,-1.89399 29.59855,0 7.51014,1.89399 9.06504,5.02888 4.70233,9.40466 -14.43406,15.00826 -30.8525,34.26168 -49.30965,57.76027 -18.4958,23.45939 -37.2654,48.355607 -56.3621,74.662523 -19.0967,26.293854 -37.8935,52.757514 -56.3496,79.364856 -18.4958,26.633467 -34.7586,50.706776 -48.852,72.311361 -14.0683,21.60459 -25.5106,39.30363 -34.2747,53.05794 -8.7777,13.7935 -12.8405,20.99068 -12.1999,21.60459 1.2539,0.64056 5.4599,-1.85481 12.6565,-7.4976 7.2103,-5.65586 16.1186,-13.46695 26.7908,-23.49858 10.6189,-9.97939 22.2179,-21.26498 34.7314,-33.80452 12.5395,-12.51342 24.5566,-24.870093 36.1818,-37.083085 11.5729,-12.226054 22.219,-23.642263 31.9236,-34.287812 9.692,-10.658611 17.059,-19.109741 22.0622,-25.36645"
       style="fill:#9c0054;fill-opacity:1;fill-rule:nonzero;stroke:none;stroke-width:10.44961929"
       id="path80" />
    <path
       inkscape:connector-curvature="0"
       d="m -951.62373,116.10787 c 6.25619,1.88093 13.77991,1.42376 22.54505,-1.4107 8.75156,-2.80833 17.51565,-6.55713 26.29333,-11.25946 8.76514,-4.70233 16.91585,-10.345125 24.4124,-16.90226 7.53731,-6.596322 13.46747,-12.696288 17.85631,-18.312958 -9.40465,-10.645549 -14.25014,-23.799007 -14.55109,-39.447311 -0.33439,-15.661367 2.19442,-31.1529271 7.4976,-46.500805 5.31572,-15.347878 12.53954,-29.729166 21.60459,-43.209175 9.06504,-13.453884 18.63898,-23.315712 28.65808,-29.598545 8.13712,-5.616671 12.6827,-11.559896 13.61063,-17.816596 0.94046,-6.25671 -0.61653,-11.59908 -4.67621,-15.98792 -4.08893,-4.36272 -10.18838,-7.17105 -18.33908,-8.45113 -8.13816,-1.25396 -17.20321,0.63952 -27.22126,5.64279 -16.90226,8.77768 -33.98738,21.93114 -51.19059,39.447315 -17.24187,17.542298 -31.46589,37.892931 -42.72536,61.064961 -7.53731,16.288343 -13.63675,32.3938187 -18.33908,48.355612 -4.68979,15.961793 -7.1977,30.695756 -7.4976,44.14964 -0.33439,13.466946 1.24037,24.752535 4.68874,33.817579 3.42225,9.065043 9.22284,14.551093 17.37354,16.418963 z m 202.87831,-88.286217 c 6.25723,-9.391595 12.68375,-15.948731 19.25394,-19.710594 6.58326,-3.7749249 11.89951,-5.1856235 15.94873,-4.2320957 4.08842,0.9404657 6.43958,4.5455842 7.0535,10.8022937 0.61444,6.256709 -2.19442,14.39435 -8.45113,24.412922 -6.89675,11.285589 -15.02133,20.65106 -24.41292,28.187848 -9.39212,7.497601 -19.41017,13.29714 -30.05624,17.359429 -10.64503,4.088414 -21.2911,6.282834 -31.94971,6.58326 -10.64503,0.313489 -20.35064,-1.09721 -29.10219,-4.232096 -10.64503,16.28834 -23.01529,32.09339 -37.10869,47.44127 -14.06832,15.34788 -28.61942,28.31847 -43.66687,38.96402 -15.00774,10.65861 -30.51288,18.65257 -46.5008,23.95575 -15.94821,5.34237 -31.15241,6.41345 -45.5468,3.29163 -15.6483,-3.7488 -28.0185,-11.58602 -37.0836,-23.48552 -9.0911,-11.87338 -14.8771,-26.92083 -17.385,-45.07704 -2.5079,-18.15622 -1.0711,-38.990145 4.2446,-62.449539 5.3032,-23.498581 14.8521,-48.695225 28.6195,-75.6160557 21.9306,-43.2091743 45.40355,-76.0993503 70.45651,-98.6182753 25.03938,-22.54506 49.15188,-38.80728 72.31137,-48.85197 16.28782,-6.87063 32.7073,-10.8023 49.30861,-11.74276 16.60236,-0.91434 30.8525,1.5805 42.75253,7.53679 11.87286,5.94322 19.85428,15.16501 23.94217,27.70455 4.06281,12.51342 1.71164,28.80176 -7.03991,48.825843 6.25619,12.539542 5.45992,30.695756 -2.35117,54.494763 -7.83721,23.785945 -18.64003,48.812783 -32.4074,75.119698 8.12458,5.642795 17.85631,6.896749 29.11577,3.748801 11.28559,-3.108761 21.2911,-11.259464 30.0552,-24.412922"
       style="fill:#9c0054;fill-opacity:1;fill-rule:nonzero;stroke:none;stroke-width:10.44961929"
       id="path82" />
    <path
       inkscape:connector-curvature="0"
       d="m -459.46026,-341.28501 c -16.28834,3.7488 -35.0846,16.90225 -56.36263,39.44731 7.51066,-0.61444 14.56415,-1.09721 21.14741,-1.39764 6.5702,-0.33961 13.28408,-0.48277 20.18083,-0.48277 4.38884,-7.51067 7.65435,-14.40741 9.87489,-20.66412 2.1683,-6.25671 3.90555,-11.89951 5.1595,-16.90226 z m -165.28685,213.19835 c -3.14795,6.88368 -5.82566,12.52648 -7.99396,16.90226 -2.19442,4.38884 -4.24515,8.45113 -6.09996,12.199926 -1.894,3.787987 -3.63124,7.837214 -5.18563,12.239116 -1.56744,4.362716 -3.2655,9.705084 -5.15949,15.948731 31.30967,-34.418433 59.79794,-68.249073 85.46482,-101.426613 25.66687,-33.1906 47.27146,-63.24632 64.81376,-90.18021 -7.51066,-0.61444 -15.34788,-1.07109 -23.47246,-1.4107 -8.1507,-0.30095 -16.28834,-0.45769 -24.43904,-0.45769 -27.54781,36.95246 -53.51512,82.35605 -77.92804,136.18465 z m -45.10317,-163.43204 c 14.40742,-1.25396 29.11525,-2.35117 44.14964,-3.26551 15.02133,-0.95405 30.05572,-2.05074 45.07705,-3.29163 16.90226,-22.55811 34.118,-43.05243 51.6603,-61.52213 17.51618,-18.45664 34.6013,-33.34735 51.19007,-44.60681 16.57571,-11.28559 32.22402,-18.33908 46.95798,-21.14742 14.70784,-2.80833 27.71761,-0.1442 38.97708,7.99396 8.13764,5.61667 9.06504,18.31296 2.83446,38.02355 -6.28284,19.73672 -17.85579,43.9929 -34.75805,72.80772 l 88.27316,-3.76186 c 8.1507,-0.61339 12.21299,2.80833 12.21299,10.319 0,7.53678 -2.66465,15.50462 -7.96783,23.95575 -5.34237,8.45113 -12.53955,15.83117 -21.60459,22.08788 -9.09117,6.25671 -18.33908,8.11152 -27.70455,5.61667 -6.89675,-1.25395 -16.60184,-2.96508 -29.14138,-5.1595 -12.51342,-2.19442 -27.22126,-4.24516 -44.12352,-6.09996 -25.693,37.55331 -56.34957,77.79741 -92.04808,120.68003 -35.69851,42.89569 -74.21842,84.393739 -115.5336,124.454966 -5.02888,18.156213 -8.13764,34.601301 -9.39159,49.30914 -1.25396,14.707838 -1.25396,27.221257 0,37.56638 1.25395,10.332061 3.60512,18.299895 7.05349,23.942689 3.43531,5.642795 7.04043,8.790745 10.80229,9.404655 4.36272,0.6134 11.40315,-1.25395 21.13436,-5.64279 9.70508,-4.37578 20.18083,-10.345125 31.46641,-17.855788 11.25947,-7.510664 22.36219,-16.105475 33.34735,-25.810559 10.91985,-9.705084 20.16777,-19.253423 27.70455,-28.65808 7.51067,-9.391595 14.5511,-15.805049 21.1213,-19.2534232 6.58326,-3.4483743 11.8995,-4.5455843 15.94873,-3.29163 4.08841,1.2800783 6.13915,4.7023286 6.13915,10.3451232 0,5.61667 -3.14795,13.453884 -9.40466,23.472456 -6.28283,10.031635 -17.69904,23.94269 -34.28781,41.798476 -16.60183,17.842725 -35.21522,35.698515 -55.87934,53.541235 -20.65106,17.82966 -41.48499,33.32122 -62.44953,46.47468 -20.99068,13.15346 -39.00321,19.73672 -54.01147,19.73672 -15.04745,0 -24.89622,-9.87489 -29.59855,-29.58548 -4.70233,-19.72366 -5.00223,-45.56034 -0.94046,-77.48393 4.08893,-31.936648 11.92615,-67.948647 23.48551,-108.009874 11.57296,-40.061227 26.46366,-80.462066 44.61988,-121.163336 9.39159,-21.91807 20.03714,-43.5096 31.93665,-64.81376 11.87338,-21.26497 24.41292,-41.92909 37.56638,-61.99236 -13.7935,1.26701 -27.24739,2.52097 -40.40084,3.77492 -13.15346,1.25396 -25.96731,3.44838 -38.50685,6.55714 -5.00275,1.28008 -8.60787,0 -10.80229,-3.7488 -2.19442,-3.7488 -2.65159,-8.12458 -1.39764,-13.15346 1.25395,-5.00276 4.06229,-9.84877 8.45113,-14.5511 4.36272,-4.70232 10.34512,-7.35391 17.84272,-7.99395"
       style="fill:#9c0054;fill-opacity:1;fill-rule:nonzero;stroke:none;stroke-width:10.44961929"
       id="path84" />
    <path
       inkscape:connector-curvature="0"
       d="m -311.07567,-112.11181 c -7.51066,-5.64279 -17.059,-7.19717 -28.64502,-4.68926 -11.59907,2.49484 -23.47245,8.13764 -35.67238,16.902255 -12.213,8.751555 -23.79901,20.350633 -34.75805,34.744983 -10.98516,14.407412 -19.25342,30.369205 -24.89622,47.885379 6.25671,0.639516 15.50463,0.940466 27.70456,0.940466 12.19993,0 27.40412,-3.422251 45.56033,-10.305937 17.51618,-6.896749 30.99619,-14.407412 40.38778,-22.558115 9.37853,-8.137641 15.80505,-16.288344 19.25342,-24.412923 3.42225,-8.13764 4.06229,-15.648304 1.86787,-22.545053 -2.19442,-6.896745 -5.79953,-12.199925 -10.80229,-15.961795 z m 68.56256,139.933463 c 6.25671,-9.391595 12.51342,-16.105475 18.79626,-20.1938889 6.2567,-4.0622894 11.55989,-5.4599259 15.96179,-4.2190337 4.36271,1.2539543 6.71388,4.8590728 7.04043,10.8022936 0.31349,5.956283 -2.35117,14.250668 -7.99396,24.883155 -3.7488,6.883687 -10.16225,17.072065 -19.25342,30.539012 -9.06505,13.453884 -20.03715,27.848234 -32.86405,43.196109 -12.83997,15.34788 -27.54781,30.21246 -44.14964,44.61988 -16.58877,14.39435 -34.44456,26.29385 -53.51512,35.67238 -19.1228,9.3916 -39.14688,15.03439 -60.11143,16.90226 -20.99067,1.88093 -42.752,-2.50791 -65.29706,-13.12733 -18.15621,-8.79074 -30.97005,-22.7018 -38.50684,-41.79848 -7.51067,-19.10974 -10.61943,-40.85801 -9.36547,-65.297055 1.24089,-24.412922 6.40039,-50.223481 15.49156,-77.470862 9.06504,-27.247382 20.79474,-53.071003 35.21521,-77.483925 13.76738,-23.158968 29.72917,-44.293318 47.91151,-63.403068 18.15621,-19.09667 37.09614,-33.96126 56.80674,-44.60681 19.72365,-10.64555 39.57793,-16.28834 59.65426,-16.90226 20.02408,-0.61443 39.12076,5.61667 57.27697,18.77013 13.15346,9.3916 22.54506,21.47397 28.18785,36.15568 5.61667,14.73397 6.41346,30.38227 2.35117,46.95798 -4.08842,16.601832 -13.48001,33.04692 -28.18785,49.30914 -14.70784,16.288343 -35.54177,30.9961819 -62.4626,44.1496398 -11.8995,5.6427942 -24.09943,9.5483392 -36.61285,11.7427592 -12.53954,2.207482 -24.43905,3.448374 -35.69851,3.761863 -11.25947,0.326028 -21.76133,-0.156744 -31.46642,-1.410699 -9.73121,-1.240892 -17.99947,-2.494846 -24.89621,-3.7488 -1.86787,10.00551 -3.74881,20.807803 -5.6428,32.406881 -1.86787,11.586015 -2.80833,22.701797 -2.80833,33.321222 0,10.671674 1.41069,20.193884 4.24515,28.645014 2.80834,8.45113 7.95478,14.56416 15.49156,18.33909 16.27529,8.76461 34.41844,10.16225 54.46864,4.21903 20.02409,-5.95628 39.27751,-15.02133 57.76027,-27.24738 18.4697,-12.212995 35.21522,-25.823623 50.24961,-40.858013 15.02132,-15.021327 25.66687,-27.221257 31.92358,-36.625914"
       style="fill:#9c0054;fill-opacity:1;fill-rule:nonzero;stroke:none;stroke-width:10.44961929"
       id="path86" />
    <path
       inkscape:connector-curvature="0"
       d="m 490.0705,-263.33086 c 15.62218,-13.75431 24.71334,-28.31846 27.22125,-43.69247 2.50791,-15.32175 -0.2999,-28.00497 -8.45113,-38.01049 -8.1507,-10.01857 -20.99067,-16.11853 -38.50684,-18.31295 -17.5423,-2.19442 -38.50685,2.32504 -62.91977,13.61063 -33.80452,16.28834 -63.86024,35.99893 -90.16715,59.1579 10.00551,15.66137 22.06176,28.34459 36.15568,38.04968 14.09392,9.70508 28.95851,15.80505 44.60681,18.31295 15.66137,2.50791 31.46642,1.39764 47.42821,-3.29163 15.98792,-4.70232 30.83944,-13.28407 44.63294,-25.82362 z m -83.59696,-168.1213 c 54.45558,-17.51618 98.61828,-22.38831 132.4228,-14.5511 33.80452,7.83722 56.34957,23.00223 67.60903,45.54728 11.29866,22.53199 10.65862,49.76631 -1.8548,81.71602 -12.53955,31.92358 -37.89293,63.55981 -76.07323,94.86948 -20.67718,16.90226 -42.73894,28.61889 -66.2114,35.20215 -23.49858,6.5702 -46.65755,8.46419 -69.50303,5.65586 -22.88466,-2.83446 -44.14964,-10.34513 -63.87329,-22.55812 -19.73672,-12.19993 -36.18181,-28.64502 -49.30914,-49.30914 -33.1906,35.67239 -59.79795,74.51885 -79.84815,116.47407 -20.03715,41.955219 -34.13107,82.016446 -42.25565,120.222865 -8.1507,38.193358 -10.50187,71.697449 -7.05349,100.473087 3.44837,28.801758 12.36973,48.238058 26.76408,58.243568 15.64831,10.65861 31.94971,11.8995 48.85197,3.76186 16.90226,-8.1507 33.64778,-21.30416 50.24961,-39.46038 16.57571,-18.156208 32.40688,-38.807268 47.41514,-61.99236 15.04746,-23.132844 28.81483,-44.7374312 41.35437,-64.813762 8.11152,-20.01102 15.62218,-38.167233 22.51893,-54.468639 6.89675,-16.262219 12.83997,-27.848239 17.84273,-34.744979 6.2567,-7.51067 15.04745,-12.51342 26.30691,-15.02133 11.28559,-2.49485 22.06176,-3.29163 32.40688,-2.35117 10.33206,0.95405 18.78319,3.3047 25.35339,7.0535 6.58326,3.7488 8.29439,8.45113 5.1595,14.0678 -4.37578,8.1507 -11.8995,21.147413 -22.51893,38.990138 -10.68473,17.855786 -22.88467,37.56638 -36.65204,59.1709673 -13.76737,21.6045877 -28.00498,43.9928957 -42.71282,67.1518637 -14.73396,23.158969 -28.04416,44.306381 -39.94366,63.403061 -11.89951,19.10974 -21.74827,35.07154 -29.57243,47.88538 -7.83721,12.83997 -11.44233,19.57998 -10.80229,20.19389 1.25395,0.64056 5.47299,-1.85481 12.67016,-7.4976 7.19718,-5.65586 16.11854,-13.46695 26.79021,-23.49858 10.61943,-9.97939 22.20544,-21.26498 34.74499,-33.80452 12.51342,-12.51342 24.56966,-24.870093 36.16874,-37.083085 11.55989,-12.226054 22.20544,-23.642263 31.91052,-34.287812 9.70509,-10.658611 17.05901,-19.109741 22.08789,-25.36645 7.51066,-9.391595 14.56415,-15.805049 21.12129,-19.2534232 6.58326,-3.4483743 11.8995,-4.5455843 15.96179,-3.29163 4.08842,1.2800783 6.12609,4.7023286 6.12609,10.3451232 0,5.61667 -3.13488,13.453884 -9.39159,23.472456 -3.76187,5.642795 -11.89951,16.58877 -24.43905,32.877114 -12.51342,16.301406 -27.40413,35.672387 -44.61987,58.230497 -17.20269,22.54506 -36.15568,46.64449 -56.80674,72.31137 -20.66413,25.66688 -40.70127,50.71984 -60.11144,75.14582 -30.69575,38.82034 -54.33802,65.88485 -70.91372,81.23273 -16.60184,15.34787 -28.95851,21.44784 -37.10921,18.33908 -6.25671,-1.894 -8.29439,-10.18838 -6.09997,-24.89622 2.19442,-14.73396 7.66741,-33.68696 16.44509,-56.8198 8.76462,-23.18509 20.66412,-49.63569 35.69851,-79.36486 15.02133,-29.75529 32.22401,-60.90822 51.63418,-93.45878 -14.39435,18.15621 -28.95851,34.75805 -43.66635,49.76631 -14.70783,15.04745 -29.74222,27.40413 -45.06398,37.10921 -15.374,9.69202 -31.00924,16.26222 -46.95797,19.7106 -15.98792,3.44837 -32.10646,2.67771 -48.3948,-2.32505 C 107.81037,220.02933 90.568499,205.47824 78.668995,183.25974 66.769491,161.04123 59.898867,134.13346 58.017935,102.49724 56.150066,70.874083 58.958401,36.1291 66.469065,-1.763831 73.966666,-39.6437 85.86617,-78.150546 102.16758,-117.28437 c 16.26222,-39.12076 36.61285,-77.32718 61.05189,-114.58007 24.41293,-37.25289 52.27422,-70.91373 83.57083,-100.96944 -9.39159,-28.18785 -13.75431,-52.44403 -13.14039,-72.80773 0.61443,-20.3245 3.59205,-37.39657 8.93442,-51.16394 5.30318,-13.76738 11.71664,-24.43905 19.25342,-31.94971 7.51067,-7.51067 13.76738,-12.51342 18.77013,-15.00827 15.03439,-6.89675 30.05572,-7.53679 45.09011,-1.89399 15.02133,5.64279 24.72641,19.09668 29.11525,40.40084 -8.79074,1.25395 -18.4697,9.84876 -29.11525,25.81056 -10.64555,15.98791 -18.18234,35.85525 -22.54505,59.65426 33.1906,-22.54505 67.62209,-39.7608 103.3206,-51.6603"
       style="fill:#9c0054;fill-opacity:1;fill-rule:nonzero;stroke:none;stroke-width:10.44961929"
       id="path88" />
    <path
       inkscape:connector-curvature="0"
       d="m 737.07336,27.821653 c 7.51067,-9.391595 14.5511,-15.805049 21.1213,-19.2534232 6.58326,-3.4483743 11.8995,-4.5455843 15.98791,-3.29163 4.04923,1.2800783 6.09997,4.7023286 6.09997,10.3451232 0,5.61667 -3.14795,13.453884 -9.40466,23.472456 -6.25671,10.031635 -17.5423,24.125558 -33.80452,42.255647 -16.28834,18.182337 -34.44455,36.338554 -54.49476,54.494764 -20.03714,18.15621 -40.5184,33.96126 -61.50907,47.41515 -20.99067,13.48 -39.30363,20.19388 -54.92581,20.19388 -14.43353,0 -24.13862,-8.45113 -29.14137,-25.35338 -5.00276,-16.90226 -3.7488,-39.44732 3.77492,-67.60904 7.51066,-28.200908 21.73521,-60.725347 42.72588,-97.703937 20.96455,-36.926341 49.92306,-75.733613 86.87552,-116.447943 -8.1507,1.25396 -16.3014,1.56744 -24.41292,0.92793 -8.1507,-0.61339 -16.60183,-1.86787 -25.35339,-3.76186 -10.65861,20.664117 -23.79901,44.162697 -39.46037,70.456551 -15.64831,26.306916 -32.86406,51.346816 -51.66031,75.132761 -9.39159,11.899503 -17.5423,19.253423 -24.39986,22.087882 -6.89675,2.808335 -12.05625,2.952017 -15.50462,0.456648 -3.44837,-2.507908 -4.85907,-6.896748 -4.24516,-13.153458 0.64056,-6.256709 4.08842,-13.153458 10.34513,-20.664121 21.90501,-26.293854 40.53145,-52.117475 55.86627,-77.496987 15.34788,-25.353388 27.74374,-47.728635 37.10921,-67.125736 -17.51617,-9.40466 -27.22126,-22.24463 -29.11525,-38.50685 -1.85481,-16.30141 0.79626,-31.79297 7.99396,-46.5008 7.18411,-14.70784 17.51617,-26.60735 31.00924,-35.69852 13.45389,-9.06504 26.75103,-11.11578 39.90448,-6.09996 9.40466,3.13488 15.9618,7.83721 19.7106,14.09392 3.76186,6.25671 5.64279,13.29714 5.64279,21.10823 0,7.85028 -1.5805,16.14466 -4.68926,24.89622 -3.14795,8.79074 -6.89675,17.24187 -11.25947,25.36645 3.7488,4.38884 8.56869,6.88369 14.5511,7.4976 5.91709,0.63952 12.19993,0.49636 18.77012,-0.45665 6.58326,-0.94046 12.99672,-2.65159 19.25343,-5.1595 6.25671,-2.49484 11.28559,-4.68926 15.03439,-6.58326 1.86787,-0.61339 4.70233,0 8.45113,1.894 3.76186,1.85481 7.35392,4.38884 10.80229,7.4976 3.42225,3.14795 6.09996,6.43958 7.96783,9.86183 1.894,3.44837 1.894,6.09996 0,7.99396 -8.75155,8.77768 -18.15621,20.19388 -28.16172,34.26168 -10.00551,14.093928 -19.89346,29.298124 -29.59854,45.560343 -9.70509,16.288344 -18.61339,32.733432 -26.76409,49.3091399 -8.13764,16.6018321 -15.00827,32.0933921 -20.65106,46.5008041 -5.6428,14.394351 -9.40466,26.933893 -11.25947,37.566381 -1.89399,10.671673 -0.953,17.842724 2.80834,21.591525 3.10876,3.147947 9.06504,2.991207 17.84272,-0.456648 8.76462,-3.448375 18.61339,-8.934425 29.57243,-16.445088 10.95903,-7.510664 21.90501,-16.105475 32.89017,-25.810559 10.93292,-9.705084 20.19389,-19.253423 27.70455,-28.65808"
       style="fill:#9c0054;fill-opacity:1;fill-rule:nonzero;stroke:none;stroke-width:10.44961929"
       id="path90" />
    <path
       inkscape:connector-curvature="0"
       d="m 996.27616,-219.20734 c -11.8995,12.53954 -24.89621,20.20695 -38.96401,23.04141 -14.09393,2.80833 -25.53626,0.14316 -34.28782,-7.99396 -8.1507,-8.12458 -10.95903,-19.25342 -8.45113,-33.34735 2.49485,-14.09392 9.70509,-27.378 21.60459,-39.91754 11.89951,-12.51342 24.89622,-20.19389 38.96402,-23.00222 14.09392,-2.80834 25.51009,-0.15675 34.28779,7.99395 8.1246,8.11152 10.9591,19.25343 8.4512,33.32123 -2.4949,14.09392 -9.6921,27.40412 -21.60464,39.90448 z M 928.66713,27.821653 c 7.51066,-9.391595 14.70784,-15.805049 21.60459,-19.2534232 6.87062,-3.4483743 12.35667,-4.5455843 16.41896,-3.29163 4.08841,1.2800783 6.09996,4.7023286 6.09996,10.3451232 0,5.61667 -3.14794,13.453884 -9.36547,23.472456 -6.28283,10.031635 -17.55536,24.125558 -33.81758,42.255647 -16.28834,18.182337 -34.62742,36.338554 -54.95193,54.494764 -20.35063,18.15621 -41.00169,33.96126 -61.99236,47.41515 -20.99068,13.48 -39.30363,20.19388 -54.92581,20.19388 -10.65862,0 -18.15622,-5.76035 -22.55812,-17.35943 -4.36272,-11.58601 -6.09996,-27.09063 -5.1595,-46.5008 0.92793,-19.41017 4.54559,-41.471925 10.80229,-66.211398 6.25671,-24.739473 15.17808,-50.249606 26.76409,-76.5565216 11.57295,-26.2938534 25.82362,-52.4179014 42.72588,-78.4243904 16.90226,-25.9673 35.99894,-49.60957 57.3031,-70.90067 5.64279,-5.01581 12.51342,-7.35391 20.65106,-7.05349 8.1507,0.33961 15.66137,1.894 22.54505,4.70233 6.87063,2.80834 12.21299,6.42652 15.9618,10.80229 3.76186,4.38884 3.76186,8.13765 0,11.25947 -6.25671,5.64279 -13.29715,12.3828 -21.1213,20.19389 -7.83721,7.83721 -15.67443,16.445085 -23.48552,25.849742 -7.83721,9.365472 -15.34787,19.096679 -22.54505,29.102189 -7.21024,10.018573 -13.3102,19.710594 -18.31296,29.115251 -7.51066,14.394351 -13.93718,28.80176271 -19.25342,43.209175 -5.34237,14.39435 -8.9083,27.547808 -10.80229,39.447312 -1.86787,11.899503 -2.03768,21.905013 -0.45665,30.055716 1.55438,8.150703 5.1595,13.153458 10.80229,15.008266 4.36272,1.280079 10.93292,0 19.7106,-3.748801 8.76461,-3.748801 18.31295,-9.065045 28.64501,-15.961793 10.34513,-6.896749 20.82087,-14.864583 31.46642,-23.955752 10.64555,-9.065044 19.73672,-18.299895 27.24738,-27.704552"
       style="fill:#9c0054;fill-opacity:1;fill-rule:nonzero;stroke:none;stroke-width:10.44961929"
       id="path92" />
    <path
       inkscape:connector-curvature="0"
       d="m 1052.6388,-128.08666 c -6.2828,13.78043 -11.9256,27.09063 -16.9284,39.90448 -5.0027,12.853031 -9.065,25.536256 -12.213,38.049675 22.5581,-26.907769 45.2599,-54.468635 68.1054,-82.656485 22.8586,-28.16172 43.2092,-55.40911 61.0519,-81.71602 17.8558,-26.29386 32.2371,-51.02027 43.2092,-74.17923 10.9329,-23.15897 16.1185,-43.82309 15.5046,-62.00543 -11.2856,2.50791 -23.3418,10.04469 -36.1818,22.55811 -12.8269,12.53955 -26.1502,28.64502 -39.9175,48.35562 -13.7674,19.72365 -27.7046,42.59525 -41.7985,68.56256 -14.0678,25.99343 -27.7046,53.69798 -40.8319,83.12672 z m -87.35882,328.73195 c -15.03439,0 -24.89622,-9.87489 -29.59854,-29.58548 -4.68927,-19.72366 -5.00276,-45.56034 -0.94047,-77.48393 4.08841,-31.936648 12.08237,-67.948647 23.95575,-108.009874 11.8995,-40.061227 26.90777,-80.462066 45.09008,-121.163336 11.8734,-27.56087 25.3534,-54.62538 40.3747,-81.25885 15.0344,-26.60734 30.8525,-51.77786 47.4413,-75.57687 16.5757,-23.799 33.478,-45.24685 50.7199,-64.35659 17.2026,-19.09668 33.9612,-34.41843 50.2496,-46.01751 16.2622,-11.58601 31.7668,-18.93993 46.5008,-22.08788 14.6817,-3.10876 28.0049,-0.60085 39.9044,7.53679 15.6353,11.25946 18.6265,31.30967 8.9214,60.11143 -9.7051,28.80177 -27.8613,62.61934 -54.4686,101.42662 -26.6335,38.84646 -59.6543,81.1021 -99.1016,126.78 -39.4343,45.743207 -80.7756,91.107615 -123.9717,136.2107832 -6.8967,31.9235858 -8.1507,56.0491438 -3.7618,72.3113638 4.3757,16.288343 10.6455,25.052963 18.7962,26.306913 4.3627,0.6134 11.2595,-1.25395 20.6641,-5.64279 9.3916,-4.37578 19.7106,-10.345125 30.9962,-17.855788 11.2595,-7.510664 22.3622,-16.105475 33.3474,-25.810559 10.9329,-9.705084 20.1677,-19.253423 27.7045,-28.65808 7.5107,-9.391595 14.6817,-15.805049 21.6046,-19.2534232 6.8706,-3.4483743 12.3306,-4.5455843 16.419,-3.29163 4.0623,1.2800783 6.0999,4.7023286 6.0999,10.3451232 0,5.61667 -3.1349,13.453884 -9.3654,23.472456 -6.2829,10.031635 -17.8558,23.94269 -34.7581,41.798476 -16.9022,17.842725 -35.6985,35.698515 -56.3496,53.541235 -20.6641,17.82966 -41.498,33.32122 -62.4626,46.47468 -20.99062,13.15346 -38.99009,19.73672 -54.01142,19.73672"
       style="fill:#9c0054;fill-opacity:1;fill-rule:nonzero;stroke:none;stroke-width:10.44961929"
       id="path94" />
    <path
       inkscape:connector-curvature="0"
       d="m 1262.0753,-128.08666 c -6.2828,13.78043 -11.9256,27.09063 -16.9284,39.90448 -5.0028,12.853031 -9.065,25.536256 -12.1999,38.049675 22.545,-26.907769 45.2468,-54.468635 68.1054,-82.656485 22.8454,-28.16172 43.1961,-55.40911 61.0519,-81.71602 17.8427,-26.29386 32.224,-51.02027 43.2091,-74.17923 10.9199,-23.15897 16.1055,-43.82309 15.4916,-62.00543 -11.2856,2.50791 -23.3418,10.04469 -36.1818,22.55811 -12.8139,12.53955 -26.1502,28.64502 -39.9176,48.35562 -13.7543,19.72365 -27.7045,42.59525 -41.7984,68.56256 -14.0678,25.99343 -27.7046,53.69798 -40.8319,83.12672 z m -87.3458,328.73195 c -15.0474,0 -24.9092,-9.87489 -29.5985,-29.58548 -4.7023,-19.72366 -5.0028,-45.56034 -0.9541,-77.48393 4.0884,-31.936648 12.0824,-67.948647 23.9558,-108.009874 11.8995,-40.061227 26.9208,-80.462066 45.1032,-121.163336 11.8733,-27.56087 25.3533,-54.62538 40.3616,-81.25885 15.0475,-26.60734 30.8525,-51.77786 47.4543,-75.57687 16.5627,-23.799 33.4649,-45.24685 50.7068,-64.35659 17.2158,-19.09668 33.9613,-34.41843 50.2496,-46.01751 16.2753,-11.58601 31.7669,-18.93993 46.5008,-22.08788 14.6817,-3.10876 28.0181,-0.60085 39.9176,7.53679 15.6222,11.25946 18.6134,31.30967 8.9083,60.11143 -9.7051,28.80177 -27.8613,62.61934 -54.4687,101.42662 -26.6334,38.84646 -59.6412,81.1021 -99.1015,126.78 -39.4212,45.743207 -80.7625,91.107615 -123.9717,136.2107832 -6.8968,31.9235858 -8.1507,56.0491438 -3.7488,72.3113638 4.3627,16.288343 10.6455,25.052963 18.7832,26.306913 4.3758,0.6134 11.2725,-1.25395 20.6641,-5.64279 9.3916,-4.37578 19.7106,-10.345125 30.9962,-17.855788 11.2594,-7.510664 22.3752,-16.105475 33.3473,-25.810559 10.9329,-9.705084 20.1809,-19.253423 27.7176,-28.65808 7.4976,-9.391595 14.6818,-15.805049 21.5916,-19.2534232 6.8706,-3.4483743 12.3436,-4.5455843 16.4189,-3.29163 4.0623,1.2800783 6.1131,4.7023286 6.1131,10.3451232 0,5.61667 -3.148,13.453884 -9.3786,23.472456 -6.2828,10.031635 -17.8427,23.94269 -34.745,41.798476 -16.9153,17.842725 -35.7115,35.698515 -56.3626,53.541235 -20.6641,17.82966 -41.498,33.32122 -62.4626,46.47468 -20.9907,13.15346 -38.9901,19.73672 -53.9984,19.73672"
       style="fill:#9c0054;fill-opacity:1;fill-rule:nonzero;stroke:none;stroke-width:10.44961929"
       id="path96" />
  </g>
</svg>
