<?xml version="1.0" encoding="UTF-8" standalone="no"?>
<svg
   xmlns:dc="http://purl.org/dc/elements/1.1/"
   xmlns:cc="http://creativecommons.org/ns#"
   xmlns:rdf="http://www.w3.org/1999/02/22-rdf-syntax-ns#"
   xmlns:svg="http://www.w3.org/2000/svg"
   xmlns="http://www.w3.org/2000/svg"
   xmlns:sodipodi="http://sodipodi.sourceforge.net/DTD/sodipodi-0.dtd"
   xmlns:inkscape="http://www.inkscape.org/namespaces/inkscape"
   version="1.1"
   id="coyote-grill-logo"
   viewBox="0 0 5399.9071 3240.0001"
   height="36in"
   width="59.99897in"
   sodipodi:docname="banner.svg"
   inkscape:version="0.92.4 5da689c313, 2019-01-14">
  <sodipodi:namedview
     pagecolor="#ffebcd"
     bordercolor="#666666"
     borderopacity="1"
     objecttolerance="10"
     gridtolerance="10"
     guidetolerance="10"
     inkscape:pageopacity="1"
     inkscape:pageshadow="2"
     inkscape:window-width="3840"
     inkscape:window-height="2032"
     id="namedview48"
     showgrid="false"
     inkscape:zoom="0.32409617"
     inkscape:cx="1992.9627"
     inkscape:cy="1505.006"
     inkscape:window-x="0"
     inkscape:window-y="54"
     inkscape:window-maximized="1"
     inkscape:current-layer="layer2" />
  <defs
     id="defs3422" />
  <metadata
     id="metadata3425">
    <rdf:RDF>
      <cc:Work
         rdf:about="">
        <dc:format>image/svg+xml</dc:format>
        <dc:type
           rdf:resource="http://purl.org/dc/dcmitype/StillImage" />
        <dc:title></dc:title>
      </cc:Work>
    </rdf:RDF>
  </metadata>
  <g
     inkscape:groupmode="layer"
     id="layer2"
     inkscape:label="Background"
     style="display:inline">
    <rect
       style="fill:#ffebcd;fill-opacity:1;stroke:#34596b;stroke-width:0.91157514;stroke-miterlimit:4;stroke-dasharray:none;stroke-opacity:1"
       id="rect4558"
       width="5467.1533"
       height="3338.1553"
       x="-17.368921"
       y="-72.108536" />
  </g>
  <g
     transform="translate(3728.525,2044.7808)"
     id="layer1">
    <g
       transform="matrix(10.449619,0,0,10.449619,9719.6087,4014.0166)"
       id="g4216">
      <path
         id="path16"
         style="fill:#6e6b6c;fill-opacity:1;fill-rule:nonzero;stroke:none"
         d="m -1191.2279,-425.58297 c 0,0 -13.3012,-12.57875 -27.185,2.23 -13.8837,14.81 -10.2999,16.25375 -17.9024,23.2575 -7.6026,7.00375 -14.3101,5.225 -19.5863,-1.61375 -5.5788,-7.23 -0.8937,-24.2525 2.0525,-30.37 3.03,-6.29625 0,-10.41125 0.3712,-15.8775 0.3688,-5.46625 5.5663,-7.67 5.5663,-7.67 0,0 -16.5325,-1.7575 -25.3537,14.71375 -5.6463,10.5425 -5.4288,18.8475 -4.7038,21.97625 0.5962,2.56875 -1.4488,16.865 9.9312,30.93875 1.7025,2.105 8.5288,10.12125 22.4938,11.485 6.1175,0.59625 13.0025,-2.16375 18.69,-12.36625 7.5012,-13.45375 3.5025,-20.71625 13.4312,-32.39375 9.4413,-11.10375 21.8388,-0.1625 21.8388,-0.1625 l 0.3562,-4.1475" />
      <path
         id="path18"
         style="fill:#9c0054;fill-opacity:1;fill-rule:nonzero;stroke:none"
         d="m -1207.6391,-427.87297 c 0,-2.4975 0.1462,-5.0725 0.5962,-7.5175 0.4,-2.17125 -0.066,-5.20375 1.1851,-7.085 0.6237,-0.93875 0.4299,-1.9 0.7562,-3.00625 0.1987,-0.67625 0.3775,-1.29 0.22,-2.00625 -0.08,-0.36125 -0.375,-1.12625 -0.5738,-1.6475 4.2788,-0.76375 8.825,-0.4475 13.1388,-0.83375 4.7412,-0.425 9.55,-0.35375 14.2725,-0.99 2.0213,4.145 4.5013,8.4 5.6275,12.96875 1.0112,4.09625 1.2937,8.37125 2.6213,12.415 1.3449,4.0975 1.8699,8.53875 1.5212,12.86375 -0.1875,2.33 -0.275,4.70375 -0.4125,7.04375 -0.061,1.05 0.059,2.27125 -0.275,3.27 -0.3863,1.1575 -1.4713,1.73125 -2.0975,2.69625 -0.4713,0.725 -3.8363,2.00875 -4.7675,2.3 -0.935,0.2925 -1.8463,0.52875 -2.82,0.58875 -0.66,0.0412 -4.3513,0.6925 -5.045,0.82125 -1.0288,0.1925 -2.0713,0.19375 -3.1025,0.37125 -2.1288,0.36625 -4.4288,0.84125 -6.585,0.73 -2.1425,-0.11125 -4.215,-0.7675 -6.2688,-1.39875 -2.01,-0.61875 -3.93,-1.01625 -5.035,-3.14625 -0.9812,-1.89 -1.1787,-3.66 -1.4787,-5.75375 -0.1613,-1.125 -0.5763,-2.18375 -0.6213,-3.33375 -0.054,-1.385 -0.15,-2.76625 -0.26,-4.1475 -0.076,-0.935 -0.5512,-3.9675 -0.8875,-7.25625 -0.039,-0.375 0.2925,-6.55625 0.2913,-7.94625" />
      <path
         id="path20"
         style="fill:#6e6b6c;fill-opacity:1;fill-rule:nonzero;stroke:none"
         d="m -1207.0916,-413.26172 c 0.115,1.38 0.2175,2.76125 0.2825,4.145 0.065,1.36875 0.4562,2.58875 0.6475,3.9275 0.3375,2.355 0.5575,4.59625 1.9513,6.56875 1.3299,1.88125 4.1362,2.21875 6.0999,2.79 2.4301,0.7075 4.8813,1.2175 7.3976,0.79375 2.3262,-0.3925 4.7012,-0.5225 7.0212,-0.955 0.91,-0.16875 3.4312,-0.56875 3.7025,-0.64375 0.5875,-0.16125 1.1963,-0.15875 1.7962,-0.20875 1.1263,-0.0925 2.2638,-0.49 3.3288,-0.88375 0.5662,-0.21 2.82,-1.31875 2.82,-1.31875 0,0 0.3275,5.0775 0.3162,7.38 0,1.1 0.041,2.125 0.2026,3.21125 0.099,0.66125 0.3937,1.87625 -0.4438,2.11 -0.7613,0.21375 -1.6075,0.345 -2.385,0.5025 -0.6912,0.13875 -0.3675,1.5825 -0.3675,2.1225 0,2.55375 0.2325,4.91125 0.5113,7.44375 1.0687,9.73125 -2.2401,18.73375 -4.4513,27.94375 -0.5075,2.115 -0.4875,4.19625 -0.6488,6.36 -0.1862,2.48625 0.4438,4.76625 0.7951,7.21125 0.305,2.12125 0.8012,4.4375 0.5249,6.58875 -0.235,1.82875 -1.29,4.18125 -2.9562,4.8875 -1.2888,0.54625 -4.0425,0.615 -5.1838,-0.3425 -1.4637,-1.22875 -1.3075,-4.145 -1.1849,-5.9 0.3562,-5.1025 0.6875,-10.2075 1.1524,-15.29875 0.1,-1.085 0.5388,-1.93375 0.8251,-2.96375 0.2949,-1.0625 0.4487,-2.165 0.5212,-3.27125 0.165,-2.4925 0.036,-5.0175 -0.051,-7.51 -0.085,-2.3875 -0.2025,-4.7775 -0.2012,-7.16875 0,-2.61375 0.4662,-5.155 0.55,-7.75375 0.077,-2.42875 -0.265,-4.7775 -0.935,-7.0875 -0.2963,-1.02125 -0.5988,-2.03 -0.705,-3.1025 -0.1288,-1.3075 0.092,-1.73125 -1.2438,-1.72875 -2.22,0.002 -4.4425,-0.0788 -6.6637,0.0225 -1.1113,0.05 -2.2213,0.14625 -3.3237,0.32 -0.7038,0.11125 -2.1088,-0.23375 -2.5613,0.5275 -0.995,1.67375 -1.1762,4.05625 -1.9513,5.88125 -0.7987,1.8825 -1.9487,3.57 -3.035,5.225 -2.4575,3.74625 -2.9125,8.37375 -4.595,12.51 -0.8562,2.1025 -1.8275,4.155 -2.7737,6.21 -0.9913,2.15125 -2.1275,4.23875 -2.6137,6.61625 -0.4363,2.1375 -0.4575,4.1775 -1.3038,6.2 -0.8963,2.14125 -1.9138,4.2 -2.8788,6.3025 -1.7287,3.765 -3.9462,11.39625 -9.0337,10.40875 -1.4588,-0.28375 -3.435,-1.6975 -3.29,-3.9725 0.2437,-3.78875 2.6175,-6.90625 4.825,-9.61625 1.1175,-1.37375 2.4837,-2.6675 3.4062,-4.21125 0.9263,-1.55 1.325,-3.63375 1.9625,-5.35375 0.6963,-1.88125 0.5175,-4.24 0.7488,-6.24875 0.2675,-2.325 0.5425,-4.64625 0.7712,-6.97625 0.4288,-4.34625 1.1025,-8.585 2.8163,-12.56625 0.8,-1.85875 1.8125,-3.5725 2.7012,-5.37625 0.3913,-0.795 0.7463,-1.61375 1.0275,-2.46375 0.23,-0.69875 0.765,-1.7175 0.745,-2.47625 -0.02,-0.795 -0.435,-0.79625 -0.2387,-1.665 0.2237,-0.995 0.3187,-2.045 0.5,-3.0525 0.4075,-2.2675 0.8612,-4.52875 1.1912,-6.8125 0.6025,-4.175 0.8588,-8.4325 1.3463,-12.63 0.4375,-3.7625 1.45,-7.69125 1.6937,-11.31625 0.435,0.07 0.765,5.78375 0.8388,6.665" />
      <path
         id="path22"
         style="fill:#6e6b6c;fill-opacity:1;fill-rule:nonzero;stroke:none"
         d="m -1178.0441,-450.95922 c -4.9063,0.66125 -9.8975,0.5575 -14.82,1.04125 -4.82,0.47375 -9.7138,0.49375 -14.5125,0.94125 -0.3175,0.0288 -0.2363,0.79625 -0.4888,1.01125 -0.4062,0.34625 -1.0749,0.3775 -1.5525,0.5175 -1.445,0.4225 -2.8574,0.97625 -4.3212,1.3225 -0.5175,0.12125 -0.6688,0.58375 -0.9,1.03375 -0.335,0.65125 -0.825,1.175 -1.4138,1.5425 -1.1062,0.6925 -2.1962,1.03625 -3.2887,0.19875 -1.9737,-1.51375 -3.4625,-4.155 -2.9825,-6.88625 0.27,-1.535 1.3112,-2.5975 1.9012,-3.97125 0.5938,-1.3825 0.8988,-2.8875 1.1276,-4.3875 0.4849,-3.195 1.4237,-6.28 1.8449,-9.50375 0.445,-3.41125 0.8175,-7.1325 2.11,-10.31125 0.4875,-1.2 1.2613,-2.4075 2.095,-3.34875 0.9288,-1.04875 2.1376,-1.2075 3.3563,-1.5875 1.4288,-0.445 2.7537,-1.16375 4.1437,-1.7275 1.2213,-0.495 2.5163,-0.88875 3.5563,-1.80625 0.6725,0.3225 -0.3462,1.99875 -0.52,2.5075 -0.425,1.24625 -0.74,2.54625 -1.0475,3.8325 -0.6788,2.83 -1.49,5.48375 -2.455,8.21 -0.9513,2.69125 -1.6275,5.455 -1.4287,8.36625 0.092,1.36 0.3199,2.70375 0.5837,4.03375 0.2838,1.44125 0.8875,3.34 0.5988,4.83375 -0.7188,-1.01 -0.9213,-3.54375 -1.2288,-4.79 -0.2012,-0.815 -0.485,-1.6 -0.6963,-2.41125 0,-0.0212 -0.4875,-1.88125 -0.7262,-1.0925 -0.9838,3.25875 -1.8475,6.6225 -2.815,9.9075 -0.1888,0.63875 2.9775,0.285 3.3775,0.25875 1.565,-0.10375 3.09,-0.25375 4.6637,-0.3325 3.4201,-0.17125 6.8388,-0.3925 10.2588,-0.585 6.4725,-0.36375 12.9475,-0.91875 19.3938,-1.11375 0.4137,-0.0125 0.5487,-0.3125 0.3837,-0.72 -0.6437,-1.58625 -1.33,-3.16125 -1.9837,-4.74625 -0.7188,-1.74 -1.6563,-3.42625 -2.0013,-5.32125 -0.1475,-0.81375 -0.4325,0.13625 -0.4775,0.37 -0.1612,0.8325 -0.1537,1.52 -0.21,2.365 -0.059,0.885 -0.3375,1.7175 -0.3587,2.6175 -0.021,0.93875 0.46,2.10875 0.3162,2.98125 -0.7575,-0.11625 -0.9275,-1.805 -1.0662,-2.4425 -0.1375,-0.62625 -0.013,-1.25875 -0.095,-1.89375 -0.1176,-0.9 -0.2938,-1.755 -0.3288,-2.66875 -0.125,-3.20125 -1.0662,-6.43875 -2.5437,-9.1875 -1.4838,-2.76125 -2.7963,-5.43875 -3.8863,-8.42125 -0.89,-2.44 -1.87,-4.77 -2.95,-7.115 1.8087,1.2225 4.1913,1.55375 6.27,1.7675 1.4325,0.1475 2.8612,0.34 4.295,0.4675 1.1725,0.105 2.2163,0.12375 3.1187,1.065 1.7913,1.86875 2.6538,4.71625 3.55,7.17125 0.8363,2.28875 1.1888,4.69625 1.7788,7.05875 0.9625,3.85 2.3863,7.59 3.9287,11.19875 0.575,1.345 0.5801,1.81625 2.0425,1.76375 1.0363,-0.0375 1.94,0.0638 2.6388,1.00625 0.3188,0.43125 0.4438,0.99125 0.7587,1.41375 0.2026,0.2725 1.0238,0.43375 1.0076,0.805 -0.031,0.67875 -0.7451,0.38625 -0.81,1.09 -0.095,1.0375 -0.6638,1.80875 -0.8063,2.77375 -0.1388,0.95 -0.77,2.38375 -1.5187,2.93875 -0.7713,0.57375 -2.3663,0.32 -3.2651,0.385 -1.0699,0.0762 -2.1362,-0.1575 -3.1012,-0.66875 -0.4162,-0.22125 -0.8112,-0.48875 -1.1837,-0.78875 -0.4513,-0.365 -1.0188,-0.1025 -1.5163,-0.27875 -0.3437,-0.1225 -0.4288,-0.45 -0.7125,-0.645 -0.4112,-0.28375 -1.125,-0.11 -1.575,-0.10125 -1.1712,0.0238 -2.3412,0.0375 -3.5125,0.0562 -2.0125,0.27125 1.505,-0.0238 0,0" />
      <path
         id="path24"
         style="fill:#6e6b6c;fill-opacity:1;fill-rule:nonzero;stroke:none"
         d="m -1200.6229,-488.90797 c 0.1088,-0.67125 0.27,-1.34125 0.015,-2.015 0.2399,-0.1575 -1.2988,0.01 -1.4926,0.0138 0.165,-0.4525 -0.2062,-0.32 0.2575,-0.8175 0.1388,-0.15 0.4588,-0.9975 0.4538,-1.005 0.056,0.0775 -1.5,0.685 -1.805,0.58625 -0.5013,-0.1625 -0.9375,-0.5625 -1.2262,-1.035 -0.1351,-0.22875 -0.2401,-0.4725 -0.3138,-0.73375 -0.099,-0.26625 -0.01,-0.55875 -0.135,-0.695 0.2937,-0.11375 1.425,0.4475 1.3737,0.185 -0.043,-0.21375 -0.4087,-0.2975 -0.5712,-0.30875 0.014,-0.0937 0.039,-0.185 0.075,-0.27125 -0.5375,-0.0713 -0.6,-0.63875 -0.9,-1.04 0,-0.004 0.2225,-0.2925 0.017,-0.185 -0.3688,-1.31875 -0.1863,-2.265 0.6075,-2.83125 -0.125,0.41625 -0.3513,0.71875 -0.3125,1.12375 0.1237,1.3125 1.3575,0.7625 1.1675,-0.4875 -0.2225,-1.465 -1.0213,-2.9925 -1.4538,-4.405 -0.955,-3.12625 -1.5037,-6.66125 -0.8975,-9.9275 0.5463,-2.94875 1.67,-5.565 3.5963,-7.72625 0.895,-1.00375 2.0075,-1.7575 3.2575,-2.08125 0.565,-0.14625 1.1475,-0.20625 1.7275,-0.19 0.7487,0.02 1.3787,0.4775 2.1487,0.435 0.6575,-0.0362 1.2513,-0.365 1.9038,-0.44 0.7637,-0.0875 1.5275,0.055 2.2662,0.265 1.2725,0.3625 2.4825,0.93125 3.53,1.81875 2.0838,1.7675 3.3025,4.445 3.4588,7.31875 0.1912,3.50625 -0.036,6.87375 -1.0262,10.23 -0.4526,1.5325 -1.2626,2.955 -1.6138,4.51375 -0.3763,1.68 0.39,2.28125 1.7188,1.37625 0.355,0.9 0.1,1.625 -0.7488,2.16 -0.087,0 -1.3137,-0.095 -0.8938,0.36375 0.4,0.435 1.6163,0.12125 2.0963,0.0913 0.06,0.105 0.1212,0.21 0.1837,0.315 -0.5087,0.31875 -0.92,0.6 -1.5337,0.85125 -1.0588,0.4325 -1.6713,-0.37875 -2.6725,-0.2425 0.265,0.26375 1.7763,1.3975 1.4462,1.87875 -0.1212,0.17625 -1.5775,-0.415 -1.8787,-0.465 -0.7075,-0.11875 -0.9838,0.2375 -1.0888,1.0275 -0.1562,1.1675 0.2888,2.2475 0.6313,3.31875 0.4775,1.49 1.025,2.95125 1.4562,4.45875 0.34,1.18625 0.7013,2.385 0.995,3.58625 0.22,0.90375 -0.2475,1.09875 -0.9975,1.1 -2.8837,0.008 -5.75,0.1025 -8.6199,0.48375 -1.4001,0.1875 -2.7826,0.505 -4.1813,0.71 -0.715,0.105 -2.9,0.97625 -2.8775,-0.39875 0.027,-1.69125 0.6987,-3.7575 1.1438,-5.37625 0.2887,-1.05 0.6937,-2.055 0.9812,-3.105 0.105,-0.3775 0.8,-2.29 0.7312,-2.42875 0.1088,-0.67125 0.1113,0.225 0,0" />
      <path
         id="path26"
         style="fill:#9c0054;fill-opacity:1;fill-rule:nonzero;stroke:none"
         d="m -1189.7704,-489.59797 c 0.5863,2.44625 1.6188,4.7625 2.2688,7.195 0.33,1.23875 1.6375,3.60625 -0.2988,3.61 -2.8837,0.008 -5.75,0.1025 -8.6199,0.48375 -1.4001,0.1875 -2.7826,0.505 -4.1813,0.71 -0.715,0.105 -2.9,0.97625 -2.8775,-0.39875 0.025,-1.54625 0.6375,-3.36875 1.0087,-4.86125 0.4413,-1.77375 1.1563,-3.435 1.4913,-5.24625 -0.4038,0.40875 -0.8062,0.8175 -1.21,1.225 0.6725,0.3225 -0.3462,1.99875 -0.52,2.5075 -0.4888,1.43125 -0.8425,2.93 -1.1838,4.41125 -0.6949,3.01 -1.7362,5.77875 -2.6787,8.695 -0.9637,2.97875 -1.3275,5.89875 -0.8838,9.0375 0.2138,1.50875 0.605,2.96625 0.8625,4.4625 0.2351,1.3725 0.086,2.98625 0.1388,4.385 4.6488,0.0837 9.3075,-0.55625 13.95,-0.82375 2.415,-0.13875 4.8275,-0.31875 7.2413,-0.45625 1.2099,-0.0688 2.4199,-0.0913 3.6299,-0.1475 1.0588,-0.05 2.4763,0.1025 3.4575,-0.39375 0.084,-0.6875 -0.069,-1.36375 -0.2487,-2.015 -0.1787,-0.65 -0.6875,-0.68625 -0.8213,-1.41625 -0.095,-0.5175 -0.2712,-1.005 -0.3824,-1.5175 -0.1713,-0.78 -0.03,-1.59375 -0.1751,-2.39 -0.3024,-1.66 -0.2762,-3.33 -0.6174,-4.985 -0.3876,-1.88375 -0.8251,-3.72625 -1.6826,-5.43 -1.5712,-3.125 -3.1624,-6.03625 -4.3787,-9.36625 -0.57,-1.56375 -1.11,-3.12375 -1.79,-4.63625 -0.225,-0.5 -0.9063,-2.515 -1.4988,-2.63875" />
      <path
         id="path28"
         style="fill:#6e6b6c;fill-opacity:1;fill-rule:nonzero;stroke:none"
         d="m -1205.3454,-516.82422 c -0.1112,-0.27 -1.9212,-4.70375 -1.84,-6.49375 h 0.21 l -0.043,-0.27625 0.21,-0.27625 c 0,0 0.21,0.6 0.21,0.27625 0,-0.3225 0.3338,-0.96875 0.3338,-0.96875 h 0.4625 c 0,0 0.041,-0.5075 1.6337,1.19875 -0.088,-0.0462 -4.1537,-2.16375 -1.1775,6.54 z m 5.2,-5.11 c -0.145,-0.19 -0.3037,-0.13 -0.6287,-0.37875 -0.3238,-0.24625 -0.3263,-0.14375 -0.14,-0.26125 0.185,-0.1175 -0.1863,0.1175 -0.3975,10e-4 -0.2125,-0.11625 -0.4388,-0.5675 -0.48,-0.69875 -0.04,-0.13125 0,0.73 0,0.73 -1.9125,-1.045 -5.4263,-7.34 -6.3688,-2.02625 -0.9412,5.315 3.1925,10.4525 3.1925,10.4525 l 0.16,-0.0575 c 1.8851,-4.3975 5.775,-7.44375 5.6688,-7.35625 -0.105,0.0888 -0.8613,-0.21625 -1.0088,-0.405" />
      <path
         id="path30"
         style="fill:#6e6b6c;fill-opacity:1;fill-rule:nonzero;stroke:none"
         d="m -1184.2091,-522.47422 c 1.73,-1.53375 1.7287,-1.025 1.7287,-1.025 l 0.46,0.0488 c 0,0 0.2775,0.6775 0.25,0.99875 -0.027,0.3225 0.2325,-0.25375 0.2325,-0.25375 l 0.185,0.2975 -0.065,0.27125 0.2088,0.0213 c -0.071,1.79 -2.2537,6.0175 -2.3863,6.275 3.7063,-8.3575 -0.5237,-6.67 -0.6137,-6.63375 z m -5.1663,1.3075 c -0.098,-0.0975 3.515,3.33625 5.0163,7.91 l 0.1537,0.0738 c 0,0 4.5551,-4.68875 4.0713,-10.07625 -0.485,-5.3875 -4.5213,0.515 -6.5125,1.3575 0,0 0.1137,-0.8525 0.062,-0.725 -0.051,0.12625 -0.315,0.55125 -0.5363,0.64625 -0.22,0.0937 -0.5699,-0.17875 -0.3962,-0.0425 0.1762,0.13625 0.1825,0.0337 -0.1625,0.245 -0.3437,0.21375 -0.4963,0.1375 -0.6575,0.31125 -0.1625,0.17375 -0.9413,0.39875 -1.0388,0.3" />
      <path
         id="path32"
         style="fill:#9c0054;fill-opacity:1;fill-rule:nonzero;stroke:none"
         d="m -1196.8016,-500.06922 c 0.02,0.0212 0.026,0.0325 0.035,0.0375 0.3112,0.1625 0.6175,0.33875 0.9375,0.4825 0.3962,0.17875 0.8138,0.24 1.2475,0.135 0.5163,-0.125 0.9862,-0.35625 1.4437,-0.61875 0.01,-0.005 0.011,-0.0175 0.023,-0.035 -0.03,-0.002 -0.049,-0.007 -0.069,-0.006 -0.3313,0.0113 -0.6625,0.015 -0.9925,0.0375 -0.2175,0.015 -0.435,0.05 -0.65,0.0863 -0.1362,0.0225 -0.2675,0.025 -0.3988,-0.0225 -0.061,-0.0225 -0.1262,-0.0413 -0.1912,-0.05 -0.1638,-0.0188 -0.3275,-0.04 -0.4925,-0.0437 -0.2913,-0.008 -0.5838,-0.002 -0.8925,-0.002 z m -0.8713,-0.1225 c 0.1538,-0.0438 0.3163,-0.0663 0.4538,-0.1375 0.2025,-0.1075 0.3887,-0.24875 0.58,-0.37875 0.089,-0.0613 0.1763,-0.12625 0.2587,-0.19625 0.3138,-0.2675 0.6688,-0.29875 1.03,-0.14125 0.2263,0.0975 0.425,0.12125 0.6525,0.015 0.1213,-0.0563 0.2675,-0.0625 0.4038,-0.0838 0.2125,-0.0337 0.4062,0.03 0.5825,0.14125 0.1862,0.11625 0.3687,0.23875 0.5487,0.365 0.265,0.185 0.535,0.35875 0.8588,0.42375 0.04,0.007 0.081,0.01 0.1487,0.0175 -0.15,0.20375 -0.2812,0.40625 -0.435,0.58875 -0.4262,0.50875 -0.9362,0.9025 -1.58,1.09625 -0.9162,0.27625 -1.745,0.1025 -2.485,-0.50125 -0.3987,-0.32625 -0.7225,-0.71625 -0.99,-1.15375 -0.01,-0.015 -0.019,-0.0312 -0.026,-0.0475 0,-0.004 0,-0.0113 0,-0.007" />
      <path
         id="path34"
         style="fill:#6e6b6c;fill-opacity:1;fill-rule:nonzero;stroke:none"
         d="m -1193.2179,-466.22922 c -2.2037,0.1725 -4.4075,0.34125 -6.61,0.52125 -0.1575,0.0125 -0.2562,-0.0563 -0.3412,-0.1675 -0.1488,-0.19625 -0.2138,-0.4325 -0.2425,-0.685 -0.043,-0.36875 0.032,-0.71 0.1462,-1.05625 0.1975,-0.605 0.5663,-1.07125 0.9588,-1.525 0.3162,-0.365 0.6837,-0.66 1.0762,-0.9125 0.6538,-0.4225 1.3526,-0.7425 2.0813,-0.97125 0.3275,-0.10375 0.665,-0.16875 1,-0.235 0.2588,-0.0512 0.5225,-0.0788 0.7837,-0.115 0.3038,-0.0412 0.6063,-0.095 0.9113,-0.1175 0.3537,-0.0275 0.71,-0.0337 1.065,-0.035 0.615,0 1.23,0.0288 1.8337,0.1675 0.4663,0.10625 0.94,0.1925 1.3825,0.40625 0.3225,0.155 0.6563,0.285 0.9701,0.46 0.3462,0.1925 0.6749,0.42625 0.9574,0.725 0.3725,0.39375 0.7275,0.8025 0.9388,1.32875 0.2,0.495 0.2425,0.99875 0,1.495 -0.056,0.115 -0.1337,0.1925 -0.2737,0.2025 -2.2112,0.1675 -4.4225,0.34125 -6.6338,0.51375" />
      <path
         id="path36"
         style="fill:#6e6b6c;fill-opacity:1;fill-rule:nonzero;stroke:none"
         d="m -1199.3129,-456.47547 c 0.27,-0.1025 0.5176,-0.20625 0.7713,-0.29125 0.2637,-0.0875 0.5263,-0.12125 0.7475,0.13375 0.2037,0.23625 0.435,0.42375 0.7212,0.535 0.2213,0.0862 0.435,0.07 0.6575,0.0288 0.4913,-0.0888 0.8325,-0.4475 1.19,-0.7825 0.105,-0.0987 0.2438,-0.175 0.3776,-0.20875 0.3325,-0.0838 0.645,-0.0125 0.9412,0.185 0.2775,0.18375 0.5075,0.4425 0.8213,0.565 0.4524,0.1775 0.855,0.0937 1.2187,-0.23375 0.215,-0.1925 0.41,-0.4125 0.63,-0.59625 0.3613,-0.30125 0.7625,-0.3675 1.1787,-0.14875 0.185,0.0987 0.3501,0.23875 0.5275,0.3575 0.3588,0.23875 0.75,0.3225 1.1613,0.245 0.2487,-0.0463 0.4612,-0.19875 0.6425,-0.39 0.11,-0.115 0.2013,-0.25125 0.3,-0.3775 0.1413,-0.1825 0.3062,-0.29 0.5363,-0.23875 0.2087,0.045 0.4187,0.0763 0.6287,0.11 0.059,0.01 0.12,0.0138 0.18,0.009 0.085,-0.006 0.1213,0.0263 0.1275,0.125 0.024,0.43 0.036,0.8625 0.086,1.28875 0.044,0.37125 -0.02,0.7075 -0.1713,1.02875 -0.1038,0.22125 -0.2887,0.3575 -0.4862,0.4625 -0.2113,0.1125 -0.4375,0.1675 -0.675,0.185 -3.5351,0.2725 -7.07,0.55 -10.605,0.82375 -0.3726,0.0288 -0.7226,-0.075 -1,-0.35375 -0.1313,-0.1325 -0.2363,-0.31875 -0.3025,-0.5025 -0.071,-0.2 -0.098,-0.42375 -0.1176,-0.64 -0.039,-0.445 -0.06,-0.8925 -0.087,-1.31875" />
      <path
         id="path38"
         style="fill:#6e6b6c;fill-opacity:1;fill-rule:nonzero;stroke:none"
         d="m -1186.1004,-461.04047 c 0.033,0.5125 0.065,1.01125 0.098,1.52 -4.4963,0.35125 -8.9938,0.7025 -13.5,1.05375 -0.033,-0.50125 -0.065,-1.0025 -0.098,-1.52 0.048,-0.004 0.092,-0.007 0.1363,-0.0113 1.855,-0.145 3.71,-0.28625 5.565,-0.43875 0.23,-0.0188 0.4325,0.007 0.6263,0.145 0.1125,0.0813 0.2387,0.1425 0.3562,0.2175 0.068,0.0438 0.1225,0.0363 0.1825,-0.0137 0.1675,-0.13625 0.3325,-0.27625 0.5038,-0.40375 0.06,-0.045 0.1362,-0.0788 0.2075,-0.0838 1.9337,-0.155 3.8687,-0.305 5.8037,-0.45625 0.036,-0.002 0.074,-0.005 0.1187,-0.009" />
      <path
         id="path40"
         style="fill:#6e6b6c;fill-opacity:1;fill-rule:nonzero;stroke:none"
         d="m -1193.1754,-465.85047 c 2.2313,-0.175 4.4613,-0.34875 6.6913,-0.52 0.077,-0.005 0.17,0.015 0.2337,0.06 0.19,0.1325 0.3863,0.26625 0.4513,0.5325 0.027,0.11125 -0.024,0.30375 -0.1063,0.37625 -0.1924,0.1725 -0.4099,0.22875 -0.655,0.185 -0.2674,-0.0475 -0.5362,-0.1075 -0.8074,-0.125 -0.2838,-0.0188 -0.5563,0.0412 -0.7513,0.3125 -0.1112,0.15375 -0.2225,0.31 -0.3513,0.44625 -0.2599,0.275 -0.5675,0.345 -0.9199,0.245 -0.3,-0.0838 -0.5538,-0.25875 -0.8051,-0.44125 -0.2125,-0.155 -0.4375,-0.255 -0.6962,-0.275 -0.5225,-0.04 -0.9263,0.215 -1.2938,0.57875 -0.1299,0.1275 -0.2487,0.27 -0.3875,0.3825 -0.3787,0.30625 -0.6575,0.3075 -1.0487,0.04 -0.2987,-0.205 -0.5675,-0.46875 -0.91,-0.585 -0.1525,-0.0512 -0.3138,-0.0638 -0.4725,-0.0925 -0.195,-0.035 -0.3775,0.0263 -0.56,0.0888 -0.2375,0.0825 -0.4125,0.2625 -0.5875,0.44625 -0.2813,0.2975 -0.605,0.52125 -1.0063,0.52875 -0.31,0.005 -0.5625,-0.16375 -0.7675,-0.4175 -0.19,-0.235 -0.4187,-0.38625 -0.7125,-0.38625 -0.3062,0 -0.5837,0.1325 -0.87,0.23 -0.2587,0.0875 -0.51,0.13625 -0.7774,0.005 -0.1588,-0.0775 -0.2213,-0.2675 -0.2013,-0.4025 0.047,-0.31 0.2487,-0.505 0.475,-0.6675 0.028,-0.0213 0.072,-0.0175 0.11,-0.02 2.2425,-0.175 4.4838,-0.35 6.7262,-0.525" />
      <path
         id="path42"
         style="fill:#6e6b6c;fill-opacity:1;fill-rule:nonzero;stroke:none"
         d="m -1192.7166,-458.59547 c 2.2375,-0.17375 4.475,-0.35 6.7138,-0.52 0.072,-0.006 0.1599,0.0175 0.2224,0.0588 0.1913,0.13 0.3838,0.26375 0.4488,0.5275 0.026,0.1025 -0.025,0.30375 -0.1,0.37 -0.1962,0.1775 -0.415,0.23875 -0.6675,0.19 -0.2688,-0.0512 -0.5388,-0.105 -0.81,-0.12875 -0.2825,-0.025 -0.54,0.0675 -0.7338,0.3125 -0.1187,0.14875 -0.225,0.30875 -0.3525,0.44625 -0.2612,0.28125 -0.5737,0.34625 -0.9287,0.25125 -0.2987,-0.0813 -0.5513,-0.25625 -0.8025,-0.44 -0.2088,-0.15375 -0.4313,-0.25875 -0.6875,-0.28 -0.5238,-0.0462 -0.9288,0.21625 -1.3,0.57875 -0.1163,0.1125 -0.2213,0.2375 -0.3413,0.34375 -0.1625,0.14375 -0.3375,0.265 -0.5537,0.27875 -0.2038,0.0113 -0.38,-0.0863 -0.5463,-0.1975 -0.225,-0.15 -0.44,-0.32 -0.6687,-0.46375 -0.2263,-0.14375 -0.47,-0.21625 -0.7412,-0.2225 -0.4663,-0.009 -0.8176,0.21125 -1.1338,0.56 -0.2775,0.30625 -0.615,0.51875 -1.0188,0.51125 -0.2987,-0.006 -0.5549,-0.1625 -0.7512,-0.425 -0.06,-0.0813 -0.1363,-0.15625 -0.2188,-0.21 -0.2324,-0.14875 -0.4787,-0.22375 -0.7487,-0.135 -0.2913,0.0962 -0.5825,0.19375 -0.8763,0.2775 -0.2175,0.0613 -0.425,-0.009 -0.6012,-0.1475 -0.1038,-0.08 -0.1238,-0.22375 -0.1,-0.35875 0.054,-0.29 0.2462,-0.46625 0.4525,-0.625 0.034,-0.025 0.086,-0.0237 0.1312,-0.0275 2.2388,-0.175 4.4763,-0.35 6.7138,-0.525" />
      <path
         id="path44"
         style="fill:#6e6b6c;fill-opacity:1;fill-rule:nonzero;stroke:none"
         d="m -1199.7691,-462.54797 c -0.026,-0.41 -0.051,-0.805 -0.076,-1.18625 0.2175,-0.0713 0.4238,-0.14125 0.6313,-0.20875 0.14,-0.045 0.2787,-0.0913 0.42,-0.1325 0.1525,-0.0437 0.2987,-0.005 0.4212,0.0925 0.11,0.0863 0.1988,0.205 0.3025,0.30125 0.074,0.07 0.1525,0.13625 0.2375,0.1875 0.5325,0.325 1.055,0.275 1.5488,-0.095 0.2112,-0.1575 0.3938,-0.36125 0.5987,-0.53 0.1888,-0.15375 0.3975,-0.24 0.6463,-0.235 0.405,0.01 0.7113,0.24 1.0112,0.495 0.34,0.28875 0.7113,0.46125 1.145,0.37 0.27,-0.0575 0.5,-0.22 0.6975,-0.4325 0.2338,-0.2525 0.4588,-0.52375 0.7713,-0.655 0.33,-0.13875 0.6613,-0.13875 0.9712,0.0875 0.3013,0.22 0.5975,0.45625 0.9601,0.5375 0.5412,0.1225 1.0112,-0.0125 1.3837,-0.4875 0.135,-0.1725 0.2437,-0.3775 0.4437,-0.47625 0.041,-0.02 0.086,-0.0437 0.1288,-0.04 0.2,0.0175 0.4013,0.0375 0.6012,0.0662 0.1875,0.0275 0.375,0.065 0.5788,0.10125 0.025,0.3775 0.05,0.77875 0.076,1.18625 -4.4976,0.35125 -8.9938,0.7025 -13.4988,1.05375" />
      <path
         id="path46"
         style="fill:#6e6b6c;fill-opacity:1;fill-rule:nonzero;stroke:none"
         d="m -1194.1541,-460.74172 c -0.033,0.002 -0.064,0.005 -0.096,0.007 -1.68,0.13 -3.36,0.2625 -5.0387,0.3925 -0.4075,0.0312 -0.7813,-0.27 -0.89,-0.65625 -0.1275,-0.455 0.1062,-0.93875 0.455,-1.11625 0.036,-0.0188 0.081,-0.0188 0.1225,-0.0213 0.845,-0.0675 1.6913,-0.12875 2.5363,-0.20375 0.1424,-0.0125 0.2487,0.0563 0.3599,0.1175 0.5488,0.3075 1.0963,0.61875 1.6425,0.93 0.3038,0.17375 0.6063,0.35 0.9088,0.52375 0,0.009 0,0.0175 0,0.0263" />
      <path
         id="path48"
         style="fill:#6e6b6c;fill-opacity:1;fill-rule:nonzero;stroke:none"
         d="m -1191.6216,-460.96422 c 0.1637,-0.1275 0.3275,-0.25375 0.4912,-0.38125 0.5875,-0.45625 1.1738,-0.91375 1.7613,-1.37125 0.081,-0.0637 0.1637,-0.13 0.25,-0.18625 0.05,-0.0312 0.11,-0.0588 0.1675,-0.0625 0.86,-0.0713 1.7212,-0.14 2.5825,-0.2 0.077,-0.006 0.1675,0.025 0.2362,0.0688 0.2625,0.1675 0.4588,0.4 0.4688,0.7525 0.015,0.55875 -0.3288,0.95875 -0.8038,0.99875 -1.6675,0.13875 -3.3375,0.26375 -5.005,0.39375 -0.048,0.004 -0.095,0.008 -0.1425,0.0113 0,-0.009 0,-0.0163 -0.01,-0.0238" />
      <path
         id="path50"
         style="fill:#6e6b6c;fill-opacity:1;fill-rule:nonzero;stroke:none"
         d="m -1196.2004,-462.39297 c 2.1488,-0.16875 4.2725,-0.33375 6.3963,-0.5 0,0.009 0.01,0.0175 0.013,0.0263 -0.1488,0.11375 -0.3,0.22625 -0.4488,0.34 -0.4662,0.36125 -0.9325,0.725 -1.4,1.08375 -0.3025,0.2325 -0.6087,0.45875 -0.9125,0.69 -0.086,0.065 -0.1662,0.14125 -0.2525,0.205 -0.024,0.0175 -0.07,0.0225 -0.095,0.009 -0.695,-0.38625 -1.3887,-0.7775 -2.0837,-1.16375 -0.3513,-0.195 -0.705,-0.385 -1.0575,-0.57875 -0.049,-0.0263 -0.091,-0.0637 -0.1588,-0.11125" />
      <path
         id="path52"
         style="fill:#9c0054;fill-opacity:1;fill-rule:nonzero;stroke:none"
         d="m -1127.5341,-443.10922 c 0.7787,-4.37375 1.9175,-8.68625 3.4162,-12.94375 1.4975,-4.25375 3.2201,-8.3425 5.1675,-12.2675 1.9463,-3.92375 4.045,-7.64125 6.29,-11.145 2.2488,-3.50625 4.4975,-6.68125 6.7425,-9.5275 2.2488,-2.845 4.4325,-5.35 6.5613,-7.505 2.1262,-2.1575 4.03,-3.86625 5.7087,-5.12375 1.0775,-0.7775 2.3213,-1.37875 3.7288,-1.79875 1.4075,-0.41875 2.7862,-0.6875 4.135,-0.80875 1.3487,-0.1175 2.5612,-0.0587 3.6412,0.18 1.0775,0.24 1.795,0.62875 2.155,1.16875 0.3613,0.54 0.2713,1.22875 -0.2687,2.0675 -0.54,0.84 -1.7375,1.7975 -3.595,2.87625 -3.775,2.2775 -7.4313,5.1675 -10.965,8.675 -3.5375,3.50375 -6.8025,7.30875 -9.7988,11.41375 -2.9962,4.105 -5.6912,8.3275 -8.0887,12.6725 -2.3975,4.345 -4.3738,8.465 -5.93,12.3575 1.1975,-0.9575 2.35,-1.705 3.46,-2.245 1.1062,-0.54 2.17,-0.80875 3.1887,-0.80875 1.08,0 2.0375,0.315 2.8763,0.9425 0.8387,0.62875 1.6025,1.32 2.2925,2.0675 0.6888,0.75 1.3487,1.4375 1.9762,2.0675 0.6313,0.6275 1.305,0.94375 2.0238,0.94375 1.1387,0 2.3362,-0.26875 3.595,-0.80875 1.2575,-0.54 2.4725,-1.24375 3.64,-2.11125 1.1687,-0.8675 2.2612,-1.79875 3.28,-2.78625 1.0187,-0.99 1.8887,-1.9325 2.6075,-2.8325 0.7187,-0.89875 1.3925,-1.5125 2.0237,-1.8425 0.6275,-0.33 1.1363,-0.435 1.5263,-0.315 0.3887,0.1225 0.585,0.45 0.585,0.99 0,0.5375 -0.3013,1.2875 -0.9,2.245 -0.5988,0.96125 -1.6788,2.31 -3.235,4.045 -1.5588,1.74 -3.2963,3.4775 -5.2125,5.215 -1.9188,1.73625 -3.88,3.25 -5.8863,4.5375 -2.0087,1.29 -3.7612,1.9325 -5.2587,1.9325 -1.9188,0 -3.3113,-0.45 -4.1788,-1.34875 -0.87,-0.89875 -1.5449,-1.87125 -2.0237,-2.92 -0.4813,-1.04875 -0.87,-2.02375 -1.1675,-2.92 -0.3013,-0.9 -0.81,-1.34875 -1.5275,-1.34875 -0.78,0 -1.74,0.46375 -2.8763,1.3925 -1.1412,0.92875 -2.2187,1.90375 -3.2387,2.92 -0.5375,1.4975 -1.2263,2.7275 -2.0663,3.685 -0.8387,0.9575 -1.6325,1.58875 -2.38,1.88875 -0.7512,0.29875 -1.335,0.2375 -1.7525,-0.18 -0.42,-0.42125 -0.5112,-1.3175 -0.2712,-2.69625" />
      <path
         id="path54"
         style="fill:#9c0054;fill-opacity:1;fill-rule:nonzero;stroke:none"
         d="m -1064.8891,-482.02922 c -1.1388,1.2 -2.3825,1.93375 -3.7288,2.205 -1.3487,0.26875 -2.4437,0.0138 -3.2812,-0.765 -0.78,-0.7775 -1.0488,-1.8425 -0.8088,-3.1925 0.2388,-1.34875 0.9275,-2.61875 2.0663,-3.81875 1.1387,-1.1975 2.3837,-1.9325 3.73,-2.20125 1.3487,-0.26875 2.4412,-0.015 3.2812,0.76375 0.7775,0.7775 1.0488,1.8425 0.8088,3.19 -0.2388,1.34875 -0.9288,2.62125 -2.0675,3.81875 z m -6.47,23.64 c 0.7175,-0.89875 1.4075,-1.5125 2.0675,-1.8425 0.6562,-0.33 1.1825,-0.435 1.5712,-0.315 0.39,0.1225 0.5838,0.45 0.5838,0.99 0,0.5375 -0.3013,1.2875 -0.8975,2.245 -0.6013,0.96125 -1.6788,2.31 -3.235,4.045 -1.5588,1.74 -3.3138,3.4775 -5.2588,5.215 -1.9475,1.73625 -3.925,3.25 -5.9337,4.5375 -2.0075,1.29 -3.76,1.9325 -5.2563,1.9325 -1.0187,0 -1.7375,-0.5525 -2.1575,-1.66125 -0.4175,-1.11 -0.5837,-2.5925 -0.4937,-4.45 0.089,-1.8575 0.435,-3.96875 1.0337,-6.33625 0.5988,-2.36875 1.4513,-4.81 2.5613,-7.32625 1.1075,-2.5175 2.47,-5.0175 4.0887,-7.505 1.6175,-2.485 3.445,-4.7475 5.4825,-6.78625 0.5413,-0.47875 1.1975,-0.70375 1.9775,-0.67375 0.78,0.0312 1.4975,0.18125 2.1575,0.45 0.6575,0.26875 1.1688,0.615 1.5275,1.03375 0.3588,0.42 0.3588,0.77875 0,1.0775 -0.5987,0.54 -1.2725,1.185 -2.0212,1.9325 -0.75,0.75 -1.5,1.57375 -2.2475,2.4725 -0.75,0.8975 -1.4688,1.82875 -2.1575,2.78625 -0.69,0.9575 -1.2738,1.88625 -1.7525,2.78625 -0.7188,1.3775 -1.3338,2.75625 -1.8425,4.13375 -0.5113,1.37875 -0.8525,2.6375 -1.0338,3.77625 -0.1787,1.13875 -0.195,2.09625 -0.044,2.87625 0.1487,0.77875 0.4937,1.2575 1.0337,1.43625 0.4175,0.1225 1.045,0 1.8863,-0.35875 0.8375,-0.36 1.7525,-0.8675 2.7412,-1.5275 0.99,-0.66 1.9925,-1.4225 3.0113,-2.2925 1.0187,-0.8675 1.8887,-1.75125 2.6075,-2.65125" />
      <path
         id="path56"
         style="fill:#9c0054;fill-opacity:1;fill-rule:nonzero;stroke:none"
         d="m -1059.4954,-473.31047 c -0.6012,1.32 -1.1412,2.59375 -1.62,3.82 -0.4787,1.22875 -0.8674,2.44375 -1.1687,3.64125 2.1587,-2.57625 4.33,-5.2125 6.5175,-7.91 2.1875,-2.69625 4.135,-5.30375 5.8425,-7.82 1.7087,-2.5175 3.0837,-4.8825 4.135,-7.09875 1.0462,-2.21625 1.5425,-4.19375 1.4837,-5.93375 -1.08,0.24 -2.2337,0.96125 -3.4625,2.1575 -1.2275,1.2 -2.5025,2.7425 -3.82,4.62875 -1.3175,1.88625 -2.6512,4.07625 -4,6.56125 -1.3462,2.4875 -2.6512,5.13875 -3.9075,7.95375 z m -8.36,31.46 c -1.4387,0 -2.3825,-0.945 -2.8325,-2.8325 -0.4487,-1.88625 -0.4787,-4.35875 -0.09,-7.41375 0.3913,-3.0575 1.1563,-6.5025 2.2925,-10.33625 1.1388,-3.835 2.575,-7.7 4.3151,-11.595 1.1362,-2.6375 2.4262,-5.2275 3.8637,-7.77625 1.4387,-2.54625 2.9512,-4.95625 4.54,-7.23375 1.5862,-2.2775 3.2037,-4.33 4.8537,-6.1575 1.6463,-1.8275 3.25,-3.29375 4.8088,-4.40375 1.5562,-1.10875 3.04,-1.8125 4.45,-2.11375 1.405,-0.2975 2.68,-0.0588 3.8188,0.72125 1.4962,1.0775 1.7824,2.99625 0.8537,5.7525 -0.9288,2.75625 -2.6662,5.99125 -5.2125,9.70625 -2.5488,3.71625 -5.7088,7.76125 -9.4838,12.1325 -3.7737,4.37625 -7.73,8.71875 -11.8637,13.035 -0.66,3.05375 -0.78,5.36375 -0.36,6.92 0.4175,1.55875 1.0187,2.3975 1.7988,2.5175 0.4175,0.0575 1.0775,-0.12 1.9775,-0.54 0.8987,-0.41875 1.8862,-0.99 2.9662,-1.70875 1.0775,-0.71875 2.14,-1.5425 3.1912,-2.47 1.0463,-0.92875 1.93,-1.8425 2.6513,-2.7425 0.7187,-0.89875 1.405,-1.5125 2.0675,-1.8425 0.6575,-0.33 1.18,-0.435 1.5712,-0.315 0.3888,0.1225 0.5838,0.45 0.5838,0.99 0,0.5375 -0.3,1.2875 -0.8963,2.245 -0.6012,0.96125 -1.7087,2.2925 -3.3262,4.00125 -1.6175,1.7075 -3.4162,3.415 -5.3925,5.12375 -1.9775,1.70625 -3.9713,3.18875 -5.9775,4.4475 -2.0088,1.25875 -3.7313,1.88875 -5.1688,1.88875" />
      <path
         id="path58"
         style="fill:#9c0054;fill-opacity:1;fill-rule:nonzero;stroke:none"
         d="m -1030.5593,-489.03797 c 0.8387,0.53875 1.3025,1.3025 1.3937,2.29 0.087,0.99 -0.2862,2.11375 -1.125,3.3725 -0.54,0.78 -1.1987,1.58875 -1.9762,2.42625 -0.78,0.83875 -1.6175,1.6325 -2.5175,2.3825 -0.8988,0.74875 -1.8275,1.4375 -2.785,2.065 -0.9613,0.63125 -1.86,1.12375 -2.6988,1.48375 -0.8375,0.35875 -1.4537,0.45 -1.8425,0.27125 -0.39,-0.18125 -0.1662,-0.80875 0.675,-1.88875 0.66,-0.8975 1.1975,-1.7375 1.6175,-2.5175 0.4175,-0.7775 0.7938,-1.55625 1.1238,-2.33625 0.3275,-0.77625 0.6287,-1.54125 0.9,-2.2925 0.2687,-0.7475 0.6125,-1.4825 1.0337,-2.20125 0.8375,-1.4975 1.7375,-2.6075 2.695,-3.32625 0.9575,-0.7175 2.1263,-0.6275 3.5063,0.27125" />
      <path
         id="path60"
         style="fill:#9c0054;fill-opacity:1;fill-rule:nonzero;stroke:none"
         d="m -983.90785,-447.33422 c 0.7175,0.9 1.8425,1.11 3.37,0.62875 1.52875,-0.47875 3.22,-1.4375 5.0775,-2.87625 1.8575,-1.4375 3.805,-3.295 5.8425,-5.5725 2.03875,-2.2775 3.95625,-4.79125 5.7525,-7.55 -3.895,1.08 -7.1775,2.41375 -9.84,4 -2.66875,1.58875 -4.81,3.17625 -6.4275,4.765 -1.6175,1.58875 -2.7275,2.99625 -3.32625,4.2225 -0.5975,1.23 -0.75,2.02375 -0.44875,2.3825 z m 35.7725,-20.4925 c 0.71875,0 1.2725,0.16625 1.66125,0.49375 0.39125,0.33 0.57,0.68875 0.54,1.08 -0.0312,0.38875 -0.25375,0.7475 -0.67375,1.0775 -0.42125,0.33 -1.01875,0.49375 -1.79625,0.49375 -1.08,0 -2.1725,0.0175 -3.2825,0.0462 -1.10875,0.03 -2.1425,0.105 -3.1,0.225 -1.79625,2.99625 -3.91,5.84 -6.3375,8.53875 -2.42625,2.695 -4.9575,5.12125 -7.59375,7.27875 -2.6375,2.15875 -5.28875,3.98625 -7.955,5.48375 -2.66625,1.49875 -5.12375,2.57625 -7.37,3.23625 -2.2475,0.6575 -4.195,0.8375 -5.8425,0.54 -1.65,-0.30125 -2.74125,-1.17125 -3.28,-2.6075 -0.77875,-1.91875 -0.43625,-4.045 1.03375,-6.38375 1.46625,-2.335 3.66875,-4.6575 6.60625,-6.96375 2.93375,-2.30625 6.45625,-4.4325 10.56125,-6.3825 4.1025,-1.945 8.40375,-3.46 12.8975,-4.53875 1.67625,-2.51625 3.025,-5.4075 4.04375,-8.6725 1.02,-3.26625 1.48375,-6.3975 1.39375,-9.3925 -0.0913,-2.99625 -0.85375,-5.63375 -2.2925,-7.91 -1.4375,-2.27625 -3.805,-3.715 -7.10125,-4.31375 -0.83875,-0.12 -1.67625,-0.225 -2.515,-0.315 -0.84,-0.09 -1.67875,-0.135 -2.51625,-0.135 l -0.36,0.45 c -2.9975,4.015 -5.8275,8.255 -8.49375,12.71625 -2.66875,4.465 -5.125,8.98875 -7.37,13.5725 -2.24875,4.585 -4.2575,9.1225 -6.02375,13.61875 -1.76625,4.49375 -3.25,8.71625 -4.4475,12.6725 -0.54,1.7375 -1.24375,3.175 -2.11375,4.31375 -0.86745,1.13875 -1.69375,1.90125 -2.46995,2.29125 -0.78,0.38875 -1.41,0.375 -1.89,-0.0437 -0.4788,-0.42 -0.5988,-1.34875 -0.3588,-2.7875 1.1388,-6.47125 2.6513,-12.4925 4.54,-18.06625 1.88625,-5.57125 3.87875,-10.67875 5.9775,-15.32375 2.09625,-4.64375 4.2075,-8.8225 6.33625,-12.53875 2.12625,-3.715 4,-6.92125 5.61875,-9.61625 -2.69875,0.71875 -5.25875,1.67625 -7.68625,2.87625 -2.42625,1.1975 -4.555,2.54625 -6.3825,4.04375 -1.8275,1.49875 -3.31125,3.11625 -4.44755,4.85375 -1.1387,1.74 -1.7687,3.475 -1.8887,5.2125 -2.4562,-1.855 -3.61,-4.07375 -3.46,-6.65 0.1487,-2.575 1.2875,-5.12375 3.4162,-7.64125 2.1263,-2.51625 5.0463,-4.80875 8.76255,-6.87625 3.715,-2.0675 7.94,-3.51875 12.6725,-4.35875 4.375,-0.71875 8.72,-1.0175 13.035,-0.8975 4.3125,0.12 8.0275,0.92875 11.1425,2.42625 3.41625,1.7375 5.8725,3.955 7.37,6.6525 1.49875,2.695 2.2925,5.6475 2.38375,8.8525 0.09,3.20625 -0.40375,6.48625 -1.48375,9.84125 -1.0775,3.3575 -2.42625,6.53125 -4.045,9.5275 0.54125,0 1.16875,-0.015 1.89,-0.0462 0.7175,-0.0288 1.6175,-0.0125 2.695,0.0462" />
      <path
         id="path62"
         style="fill:#9c0054;fill-opacity:1;fill-rule:nonzero;stroke:none"
         d="m -931.6866,-471.78047 c -0.71875,-0.54 -1.6325,-0.68875 -2.7425,-0.45 -1.10875,0.24 -2.245,0.78 -3.41375,1.61875 -1.1675,0.8375 -2.2775,1.9475 -3.32625,3.325 -1.05,1.37875 -1.8425,2.90625 -2.3825,4.5825 0.59875,0.0613 1.48375,0.09 2.65125,0.09 1.16875,0 2.6225,-0.3275 4.36,-0.9875 1.67625,-0.66 2.96625,-1.3775 3.86625,-2.1575 0.89625,-0.78 1.5125,-1.55875 1.8425,-2.33625 0.3275,-0.77875 0.38875,-1.4975 0.1775,-2.1575 -0.21,-0.66 -0.55375,-1.1675 -1.0325,-1.5275 z m 6.56125,13.39125 c 0.5975,-0.89875 1.19625,-1.54125 1.7975,-1.9325 0.59875,-0.38875 1.1075,-0.52375 1.5275,-0.40375 0.4175,0.12 0.6425,0.465 0.675,1.03375 0.0288,0.57 -0.225,1.36375 -0.765,2.38 -0.36,0.66 -0.9725,1.635 -1.8425,2.9225 -0.8675,1.28875 -1.91875,2.66625 -3.145,4.135 -1.22875,1.46875 -2.6375,2.89125 -4.225,4.26875 -1.58875,1.37875 -3.29625,2.5175 -5.1225,3.41375 -1.83,0.9 -3.74625,1.44 -5.7525,1.61875 -2.00875,0.18 -4.09,-0.24 -6.2475,-1.25625 -1.7375,-0.84125 -2.965,-2.1725 -3.685,-4 -0.71875,-1.82875 -1.0175,-3.91 -0.8975,-6.24875 0.12,-2.33625 0.61375,-4.8075 1.48375,-7.41375 0.8675,-2.6075 1.98875,-5.07875 3.37,-7.415 1.31625,-2.21625 2.84375,-4.24 4.58375,-6.0675 1.7375,-1.8275 3.55125,-3.25 5.4375,-4.26875 1.88625,-1.01875 3.7875,-1.55875 5.7075,-1.6175 1.91625,-0.0587 3.74375,0.5375 5.48125,1.79625 1.25875,0.89875 2.15875,2.055 2.69875,3.46 0.5375,1.41 0.6125,2.9075 0.22375,4.49375 -0.39,1.58875 -1.29,3.1625 -2.6975,4.71875 -1.4075,1.55875 -3.40125,2.96625 -5.9775,4.225 -1.13875,0.54 -2.30625,0.91375 -3.50375,1.12375 -1.2,0.21 -2.33875,0.33 -3.41625,0.36 -1.0775,0.0312 -2.08125,-0.015 -3.01,-0.135 -0.93125,-0.12 -1.72375,-0.24 -2.3825,-0.35875 -0.17875,0.9575 -0.36,1.99125 -0.54,3.10125 -0.17875,1.10875 -0.27,2.17125 -0.27,3.18875 0,1.02125 0.135,1.9325 0.40625,2.74125 0.26875,0.80875 0.7625,1.3925 1.48375,1.755 1.55625,0.8375 3.29375,0.9725 5.2125,0.4025 1.915,-0.56875 3.7575,-1.43625 5.5275,-2.6075 1.76625,-1.1675 3.36875,-2.47 4.80875,-3.90875 1.43625,-1.4375 2.45625,-2.605 3.055,-3.505" />
      <path
         id="path64"
         style="fill:#9c0054;fill-opacity:1;fill-rule:nonzero;stroke:none"
         d="m -913.2616,-473.31047 c -0.60125,1.32 -1.14125,2.59375 -1.62,3.82 -0.48,1.22875 -0.8675,2.44375 -1.16875,3.64125 2.1575,-2.57625 4.33,-5.2125 6.5175,-7.91 2.1875,-2.69625 4.135,-5.30375 5.8425,-7.82 1.70875,-2.5175 3.08375,-4.8825 4.135,-7.09875 1.04625,-2.21625 1.54125,-4.19375 1.48375,-5.93375 -1.08125,0.24 -2.23375,0.96125 -3.46375,2.1575 -1.22625,1.2 -2.50125,2.7425 -3.81875,4.62875 -1.3175,1.88625 -2.65125,4.07625 -4,6.56125 -1.3475,2.4875 -2.65125,5.13875 -3.9075,7.95375 z m 14.91875,14.92125 c 0.5975,-0.89875 1.21375,-1.5275 1.8425,-1.88625 0.63,-0.36125 1.1525,-0.49625 1.57375,-0.40625 0.4175,0.0913 0.6425,0.435 0.67375,1.03375 0.03,0.59875 -0.25625,1.37875 -0.855,2.33625 -0.66,1.08 -1.4375,1.9775 -2.33625,2.69875 -0.89875,0.7175 -1.8575,1.2725 -2.87625,1.66125 -1.01875,0.39125 -2.0375,0.60125 -3.0575,0.63 -1.01875,0.03 -1.9475,-0.105 -2.785,-0.405 -1.01875,1.55875 -2.1575,3.0425 -3.41375,4.45 -1.25875,1.4075 -2.56375,2.62125 -3.91,3.63875 -1.34875,1.02125 -2.7125,1.78375 -4.09125,2.29125 -1.3775,0.51125 -2.72625,0.675 -4.04375,0.49625 -1.44,-0.18125 -2.3825,-1.22875 -2.8325,-3.1475 -0.45,-1.91625 -0.47875,-4.37125 -0.09,-7.37 0.39125,-2.99625 1.155,-6.38 2.2925,-10.15625 1.13875,-3.775 2.575,-7.60875 4.315,-11.50375 1.13625,-2.6375 2.42625,-5.2275 3.86375,-7.77625 1.43875,-2.54625 2.95125,-4.95625 4.54,-7.23375 1.58625,-2.2775 3.20375,-4.33 4.8525,-6.1575 1.6475,-1.8275 3.25125,-3.29375 4.81,-4.40375 1.55625,-1.10875 3.04,-1.8125 4.45,-2.11375 1.405,-0.2975 2.68,-0.0588 3.81875,0.72125 1.49625,1.0775 1.78125,2.99625 0.8525,5.7525 -0.9275,2.75625 -2.665,5.99125 -5.21125,9.70625 -2.54875,3.71625 -5.70875,7.76125 -9.48375,12.1325 -3.77375,4.37625 -7.73,8.71875 -11.865,13.035 -0.65875,3.05375 -0.8525,5.3925 -0.58375,7.01 0.27125,1.6175 0.855,2.57625 1.7525,2.87625 1.31875,0.36 2.63625,0.0587 3.95625,-0.89875 1.3175,-0.9575 2.395,-2.00625 3.235,-3.145 -1.0775,-1.25875 -1.58875,-2.8475 -1.5275,-4.765 0.0587,-1.91625 0.45,-3.72875 1.16875,-5.4375 0.71875,-1.7075 1.66125,-3.11625 2.83,-4.225 1.17,-1.1075 2.29125,-1.45125 3.37125,-1.03375 0.9,0.3 1.51375,0.885 1.8425,1.7525 0.3275,0.87 0.41875,1.9175 0.26875,3.1475 -0.14875,1.22875 -0.47875,2.5925 -0.98625,4.0875 -0.51125,1.49875 -1.185,3.0275 -2.02375,4.585 0.83875,0.54 1.78125,0.66 2.8325,0.35875 1.045,-0.2975 1.99125,-1.0775 2.83,-2.33625" />
      <path
         id="path66"
         style="fill:#9c0054;fill-opacity:1;fill-rule:nonzero;stroke:none"
         d="m -886.4766,-473.31047 c -0.60125,1.32 -1.14125,2.59375 -1.62,3.82 -0.48,1.22875 -0.8675,2.44375 -1.16875,3.64125 2.1575,-2.57625 4.33,-5.2125 6.5175,-7.91 2.1875,-2.69625 4.135,-5.30375 5.8425,-7.82 1.70875,-2.5175 3.08375,-4.8825 4.135,-7.09875 1.04625,-2.21625 1.54125,-4.19375 1.48375,-5.93375 -1.08125,0.24 -2.23375,0.96125 -3.46375,2.1575 -1.22625,1.2 -2.50125,2.7425 -3.81875,4.62875 -1.3175,1.88625 -2.65125,4.07625 -4,6.56125 -1.3475,2.4875 -2.6525,5.13875 -3.9075,7.95375 z m 14.91875,14.92125 c 0.5975,-0.89875 1.21375,-1.5275 1.8425,-1.88625 0.63,-0.36125 1.1525,-0.49625 1.57375,-0.40625 0.4175,0.0913 0.6425,0.435 0.67375,1.03375 0.0287,0.59875 -0.25625,1.37875 -0.855,2.33625 -0.66,1.08 -1.4375,1.9775 -2.33625,2.69875 -0.89875,0.7175 -1.8575,1.2725 -2.87625,1.66125 -1.01875,0.39125 -2.0375,0.60125 -3.0575,0.63 -1.01875,0.03 -1.9475,-0.105 -2.785,-0.405 -1.01875,1.55875 -2.1575,3.0425 -3.41375,4.45 -1.25875,1.4075 -2.56375,2.62125 -3.91,3.63875 -1.34875,1.02125 -2.7125,1.78375 -4.09125,2.29125 -1.3775,0.51125 -2.72625,0.675 -4.04375,0.49625 -1.44,-0.18125 -2.3825,-1.22875 -2.8325,-3.1475 -0.45,-1.91625 -0.47875,-4.37125 -0.09,-7.37 0.39125,-2.99625 1.155,-6.38 2.2925,-10.15625 1.1375,-3.775 2.575,-7.60875 4.315,-11.50375 1.13625,-2.6375 2.42625,-5.2275 3.86375,-7.77625 1.43875,-2.54625 2.95125,-4.95625 4.54,-7.23375 1.58625,-2.2775 3.20375,-4.33 4.8525,-6.1575 1.6475,-1.8275 3.25,-3.29375 4.81,-4.40375 1.55625,-1.10875 3.04,-1.8125 4.45,-2.11375 1.405,-0.2975 2.68,-0.0588 3.81875,0.72125 1.49625,1.0775 1.78125,2.99625 0.8525,5.7525 -0.9275,2.75625 -2.665,5.99125 -5.21125,9.70625 -2.54875,3.71625 -5.70875,7.76125 -9.48375,12.1325 -3.77375,4.37625 -7.73,8.71875 -11.865,13.035 -0.66,3.05375 -0.8525,5.3925 -0.58375,7.01 0.27125,1.6175 0.855,2.57625 1.7525,2.87625 1.31875,0.36 2.63625,0.0587 3.95625,-0.89875 1.31625,-0.9575 2.395,-2.00625 3.235,-3.145 -1.0775,-1.25875 -1.58875,-2.8475 -1.5275,-4.765 0.0588,-1.91625 0.45,-3.72875 1.16875,-5.4375 0.71875,-1.7075 1.66125,-3.11625 2.83,-4.225 1.17,-1.1075 2.29125,-1.45125 3.37125,-1.03375 0.9,0.3 1.5125,0.885 1.8425,1.7525 0.3275,0.87 0.41875,1.9175 0.26875,3.1475 -0.14875,1.22875 -0.47875,2.5925 -0.98625,4.0875 -0.51125,1.49875 -1.18625,3.0275 -2.02375,4.585 0.8375,0.54 1.78125,0.66 2.8325,0.35875 1.045,-0.2975 1.99125,-1.0775 2.83,-2.33625" />
      <path
         id="path68"
         style="fill:#9c0054;fill-opacity:1;fill-rule:nonzero;stroke:none"
         d="m -846.75035,-482.02922 c -1.13875,1.2 -2.3825,1.93375 -3.72875,2.205 -1.34875,0.26875 -2.44375,0.0138 -3.2825,-0.765 -0.77875,-0.7775 -1.0475,-1.8425 -0.80875,-3.1925 0.24,-1.34875 0.92875,-2.61875 2.0675,-3.81875 1.13875,-1.1975 2.3825,-1.9325 3.72875,-2.20125 1.34875,-0.26875 2.44125,-0.015 3.2825,0.76375 0.77625,0.7775 1.0475,1.8425 0.80875,3.19 -0.24,1.34875 -0.92875,2.62125 -2.0675,3.81875 z m -6.47125,23.64 c 0.71875,-0.89875 1.4075,-1.5125 2.0675,-1.8425 0.6575,-0.33 1.1825,-0.435 1.57125,-0.315 0.39125,0.1225 0.58375,0.45 0.58375,0.99 0,0.5375 -0.3,1.2875 -0.89625,2.245 -0.60125,0.96125 -1.67875,2.31 -3.235,4.045 -1.56,1.74 -3.31375,3.4775 -5.25875,5.215 -1.9475,1.73625 -3.925,3.25 -5.93375,4.5375 -2.00875,1.29 -3.76125,1.9325 -5.25625,1.9325 -1.01875,0 -1.7375,-0.5525 -2.1575,-1.66125 -0.41875,-1.11 -0.58375,-2.5925 -0.49375,-4.45 0.0875,-1.8575 0.435,-3.96875 1.03375,-6.33625 0.59875,-2.36875 1.45125,-4.81 2.56125,-7.32625 1.10625,-2.5175 2.47,-5.0175 4.0875,-7.505 1.6175,-2.485 3.44625,-4.7475 5.48375,-6.78625 0.54,-0.47875 1.1975,-0.70375 1.9775,-0.67375 0.77875,0.0312 1.4975,0.18125 2.1575,0.45 0.6575,0.26875 1.1675,0.615 1.5275,1.03375 0.35875,0.42 0.35875,0.77875 0,1.0775 -0.59875,0.54 -1.27375,1.185 -2.02125,1.9325 -0.75,0.75 -1.5,1.57375 -2.24875,2.4725 -0.75,0.8975 -1.46875,1.82875 -2.1575,2.78625 -0.68875,0.9575 -1.2725,1.88625 -1.7525,2.78625 -0.7175,1.3775 -1.33375,2.75625 -1.8425,4.13375 -0.51,1.37875 -0.8525,2.6375 -1.0325,3.77625 -0.17875,1.13875 -0.19625,2.09625 -0.045,2.87625 0.15,0.77875 0.49375,1.2575 1.03375,1.43625 0.41875,0.1225 1.04625,0 1.88625,-0.35875 0.83875,-0.36 1.7525,-0.8675 2.7425,-1.5275 0.99,-0.66 1.99125,-1.4225 3.01,-2.2925 1.02,-0.8675 1.89,-1.75125 2.6075,-2.65125" />
      <path
         id="path70"
         style="fill:#9c0054;fill-opacity:1;fill-rule:nonzero;stroke:none"
         d="m -831.38285,-471.78047 c -0.7175,-0.54 -1.63125,-0.68875 -2.74125,-0.45 -1.10875,0.24 -2.24625,0.78 -3.41375,1.61875 -1.1675,0.8375 -2.2775,1.9475 -3.32625,3.325 -1.05,1.37875 -1.8425,2.90625 -2.3825,4.5825 0.59875,0.0613 1.48375,0.09 2.65125,0.09 1.16875,0 2.6225,-0.3275 4.36,-0.9875 1.67625,-0.66 2.96625,-1.3775 3.86625,-2.1575 0.89625,-0.78 1.5125,-1.55875 1.8425,-2.33625 0.3275,-0.77875 0.38875,-1.4975 0.1775,-2.1575 -0.21,-0.66 -0.55375,-1.1675 -1.03375,-1.5275 z m 6.56125,13.39125 c 0.59875,-0.89875 1.1975,-1.54125 1.79875,-1.9325 0.59875,-0.38875 1.1075,-0.52375 1.5275,-0.40375 0.4175,0.12 0.6425,0.465 0.675,1.03375 0.0287,0.57 -0.225,1.36375 -0.765,2.38 -0.36,0.66 -0.9725,1.635 -1.8425,2.9225 -0.8675,1.28875 -1.91875,2.66625 -3.145,4.135 -1.23,1.46875 -2.6375,2.89125 -4.225,4.26875 -1.58875,1.37875 -3.29625,2.5175 -5.1225,3.41375 -1.83,0.9 -3.74625,1.44 -5.7525,1.61875 -2.00875,0.18 -4.09,-0.24 -6.2475,-1.25625 -1.7375,-0.84125 -2.965,-2.1725 -3.685,-4 -0.71875,-1.82875 -1.0175,-3.91 -0.8975,-6.24875 0.12,-2.33625 0.61375,-4.8075 1.48375,-7.41375 0.8675,-2.6075 1.98875,-5.07875 3.37,-7.415 1.31625,-2.21625 2.84375,-4.24 4.58375,-6.0675 1.7375,-1.8275 3.55,-3.25 5.4375,-4.26875 1.88625,-1.01875 3.7875,-1.55875 5.7075,-1.6175 1.91625,-0.0587 3.74375,0.5375 5.48125,1.79625 1.25875,0.89875 2.1575,2.055 2.69875,3.46 0.5375,1.41 0.6125,2.9075 0.22375,4.49375 -0.39,1.58875 -1.29,3.1625 -2.6975,4.71875 -1.4075,1.55875 -3.40125,2.96625 -5.9775,4.225 -1.13875,0.54 -2.30625,0.91375 -3.50375,1.12375 -1.2,0.21 -2.33875,0.33 -3.41625,0.36 -1.0775,0.0312 -2.0825,-0.015 -3.01,-0.135 -0.93125,-0.12 -1.72375,-0.24 -2.3825,-0.35875 -0.17875,0.9575 -0.36,1.99125 -0.54125,3.10125 -0.1775,1.10875 -0.26875,2.17125 -0.26875,3.18875 0,1.02125 0.135,1.9325 0.40625,2.74125 0.26875,0.80875 0.7625,1.3925 1.48375,1.755 1.55625,0.8375 3.29375,0.9725 5.21125,0.4025 1.91625,-0.56875 3.75875,-1.43625 5.52875,-2.6075 1.76625,-1.1675 3.36875,-2.47 4.80875,-3.90875 1.43625,-1.4375 2.45625,-2.605 3.05375,-3.505" />
      <path
         id="path72"
         style="fill:#9c0054;fill-opacity:1;fill-rule:nonzero;stroke:none"
         d="m -808.63387,-489.72739 c 0.84,0.54 1.305,1.3025 1.395,2.2925 0.0888,0.99 -0.28625,2.11125 -1.12375,3.37 -0.54,0.77875 -1.1975,1.58875 -1.9775,2.42625 -0.77875,0.83875 -1.6175,1.6325 -2.51625,2.3825 -0.9,0.7475 -1.8275,1.44 -2.78875,2.0675 -0.955,0.6275 -1.85375,1.12375 -2.695,1.48375 -0.83875,0.35875 -1.45125,0.44875 -1.8425,0.26875 -0.38875,-0.17875 -0.16375,-0.80875 0.675,-1.8875 0.65875,-0.89875 1.19875,-1.75125 1.6175,-2.56 0.42,-0.80875 0.79375,-1.58875 1.12375,-2.33875 0.33,-0.75 0.6275,-1.49875 0.89875,-2.24625 0.26875,-0.75 0.61375,-1.4825 1.03125,-2.20125 0.84125,-1.5 1.74,-2.6075 2.69875,-3.32625 0.9575,-0.72125 2.1275,-0.63 3.50375,0.26875" />
      <path
         id="path74"
         style="fill:#9c0054;fill-opacity:1;fill-rule:nonzero;stroke:none"
         d="m -783.11785,-458.38922 c 0.71875,-0.89875 1.4225,-1.5125 2.11375,-1.8425 0.6875,-0.33 1.2275,-0.4175 1.6175,-0.26875 0.38875,0.14875 0.585,0.49375 0.585,1.03375 0,0.5375 -0.33,1.25625 -0.99,2.155 -1.67875,2.21875 -3.53625,4.45 -5.57125,6.69625 -2.03875,2.2475 -4.1525,4.21 -6.33625,5.88875 -2.19,1.67625 -4.40625,2.935 -6.6525,3.77375 -2.2475,0.84 -4.39125,0.9275 -6.42625,0.27125 -2.1575,-0.66 -3.53625,-1.6325 -4.135,-2.92375 -0.59875,-1.2875 -0.67375,-2.56 -0.225,-3.81875 0.45,-1.25875 1.24375,-2.33625 2.3825,-3.235 1.13625,-0.9 2.36625,-1.28875 3.685,-1.16875 -0.3,0.66 -0.405,1.36375 -0.315,2.11125 0.09,0.75 0.58375,1.36375 1.48375,1.8425 1.01875,0.54 2.1575,0.5725 3.41625,0.0913 1.25875,-0.48 2.42625,-1.5575 3.50375,-3.23625 0.66,-1.0775 1.1075,-2.30625 1.34875,-3.685 0.2375,-1.3775 0.29875,-2.785 0.17875,-4.225 -0.12,-1.43625 -0.40375,-2.85875 -0.8525,-4.26875 -0.45,-1.4075 -0.975,-2.65125 -1.57375,-3.72875 -1.37875,1.55875 -2.75625,3.145 -4.135,4.7625 -1.37875,1.6175 -2.7275,3.235 -4.04375,4.8525 -0.9,1.13875 -1.69375,1.8425 -2.38375,2.11375 -0.68875,0.26875 -1.19625,0.28375 -1.52625,0.0437 -0.3275,-0.23875 -0.45,-0.65875 -0.36,-1.2575 0.0913,-0.59875 0.435,-1.25875 1.03375,-1.9775 1.67625,-2.035 3.355,-4.03 5.03375,-5.9775 1.67625,-1.9475 3.265,-3.76 4.76375,-5.43625 -0.59875,-1.56 -0.62875,-3.19125 -0.0913,-4.9 0.54,-1.7075 1.36375,-3.25 2.47375,-4.62875 1.10625,-1.3775 2.35,-2.44125 3.72875,-3.19125 1.3775,-0.7475 2.6075,-0.91125 3.685,-0.49375 1.01875,0.42125 1.43875,1.46875 1.25875,3.145 -0.17875,1.67875 -1.02,3.62625 -2.5175,5.84375 1.44,3.59375 2.21625,7.25 2.33875,10.96375 0.12,3.7175 -0.33,7.13375 -1.34875,10.24625 0.77625,-0.8375 1.55625,-1.67625 2.33625,-2.51625 0.77875,-0.83875 1.6175,-1.855 2.51625,-3.055" />
      <path
         id="path76"
         style="fill:#9c0054;fill-opacity:1;fill-rule:nonzero;stroke:none"
         d="m -1086.2779,-410.58797 c 1.495,-1.3175 2.365,-2.6375 2.605,-3.9575 0.2388,-1.31625 -0.03,-2.38 -0.8087,-3.18875 -0.78,-0.80875 -2.0063,-1.25875 -3.685,-1.34875 -1.6763,-0.09 -3.685,0.40375 -6.0212,1.48375 -3.2363,1.55875 -6.1126,3.445 -8.6288,5.66125 0.24,0.36 0.9288,0.93125 2.0675,1.70875 1.1387,0.78 2.5025,1.3925 4.09,1.8425 1.5862,0.45 3.3088,0.56875 5.1663,0.35875 1.8574,-0.21 3.5975,-1.0625 5.2149,-2.56 z m -8.0012,-14.83125 c 5.215,-1.67625 9.4375,-2.20125 12.6738,-1.57375 3.2374,0.63 5.3925,1.9325 6.4724,3.91 1.0775,1.97625 1.0175,4.435 -0.1799,7.37 -1.2001,2.9375 -3.6263,5.90375 -7.2801,8.9 -2.2775,1.91875 -4.7037,3.06875 -7.2799,3.46 -2.5775,0.38875 -4.9901,0.345 -7.235,-0.13625 -2.2488,-0.4775 -4.225,-1.2125 -5.9338,-2.2025 -1.7075,-0.9875 -2.8325,-1.93 -3.37,-2.83 -3.1762,3.41375 -5.7225,7.13125 -7.6413,11.14625 -1.9175,4.015 -3.265,7.84875 -4.0437,11.505 -0.78,3.655 -1.005,6.86125 -0.675,9.615 0.33,2.75625 1.1825,4.61625 2.5638,5.57375 1.2587,0.83875 2.6512,1.27375 4.1787,1.3025 1.5275,0.0325 3.1013,-0.23875 4.7188,-0.80875 1.6174,-0.56875 3.235,-1.33125 4.8525,-2.29125 1.6174,-0.95875 3.1312,-1.9775 4.5412,-3.0575 1.405,-1.0775 2.6625,-2.155 3.7725,-3.235 1.11,-1.0775 1.9912,-1.9775 2.6513,-2.69625 0.78,-0.89875 1.4974,-1.5125 2.1575,-1.8425 0.6599,-0.33 1.1687,-0.4175 1.5275,-0.26875 0.3612,0.15 0.525,0.50875 0.4962,1.0775 -0.031,0.57 -0.3475,1.27375 -0.9438,2.1125 -1.8587,2.6975 -4.0749,5.31875 -6.6512,7.865 -2.5775,2.54625 -5.32,4.71875 -8.225,6.515 -2.9062,1.79875 -5.8725,3.0725 -8.8975,3.82 -3.0275,0.75 -5.9188,0.67375 -8.6725,-0.2225 -2.2187,-0.72125 -3.9562,-2.09875 -5.215,-4.135 -1.2588,-2.0375 -2.0375,-4.525 -2.3362,-7.46 -0.3,-2.935 -0.1663,-6.15875 0.4037,-9.6625 0.5687,-3.50625 1.5738,-7.08625 3.0125,-10.7425 1.4375,-3.65375 3.2938,-7.21875 5.5713,-10.69625 2.2774,-3.4725 4.9737,-6.64875 8.0887,-9.525 -1.3175,-1.91875 -2.245,-4.04625 -2.785,-6.3825 -0.5412,-2.33625 -0.36,-4.6725 0.54,-7.01125 0.5975,-1.6175 1.5263,-2.8 2.785,-3.55 1.2588,-0.74875 2.5462,-1.1075 3.8663,-1.0775 1.3175,0.0312 2.5462,0.4025 3.685,1.12375 1.1362,0.71875 1.8862,1.7375 2.2449,3.05375 -0.8375,0.30125 -1.5262,0.81 -2.0662,1.53 -0.5375,0.71875 -0.9875,1.5275 -1.3475,2.42625 -0.3613,0.9 -0.6,1.785 -0.72,2.6525 -0.12,0.8675 -0.1788,1.57125 -0.1788,2.11125 1.6763,-1.1975 3.4138,-2.2775 5.2126,-3.23625 1.7987,-0.9575 3.6849,-1.76625 5.6612,-2.42625" />
      <path
         id="path78"
         style="fill:#9c0054;fill-opacity:1;fill-rule:nonzero;stroke:none"
         d="m -1081.2466,-373.01922 c 0.5988,0.18 1.32,0.13625 2.1575,-0.135 0.8388,-0.26875 1.6762,-0.6275 2.5175,-1.0775 0.8375,-0.45 1.6175,-0.99 2.3362,-1.6175 0.7201,-0.63125 1.2875,-1.215 1.7075,-1.7525 -0.8987,-1.01875 -1.3637,-2.2775 -1.3924,-3.775 -0.031,-1.49875 0.21,-2.98125 0.7187,-4.45 0.5075,-1.46875 1.2,-2.845 2.0675,-4.135 0.8675,-1.2875 1.7837,-2.23125 2.7412,-2.8325 0.78,-0.5375 1.215,-1.10625 1.3025,-1.705 0.09,-0.59875 -0.059,-1.11 -0.4475,-1.53 -0.3912,-0.4175 -0.975,-0.68625 -1.7537,-0.80875 -0.78,-0.12 -1.6475,0.0612 -2.605,0.54 -1.6187,0.84 -3.2525,2.09875 -4.9,3.775 -1.65,1.67875 -3.01,3.62625 -4.0888,5.84375 -0.7199,1.55875 -1.3049,3.1 -1.7537,4.6275 -0.45,1.5275 -0.69,2.9375 -0.7187,4.225 -0.031,1.28875 0.1199,2.36875 0.45,3.23625 0.3275,0.8675 0.8812,1.3925 1.6612,1.57125 z m 19.415,-8.44875 c 0.5988,-0.89875 1.215,-1.52625 1.8425,-1.88625 0.63,-0.36125 1.1387,-0.49625 1.5275,-0.405 0.3912,0.09 0.615,0.435 0.6737,1.03375 0.059,0.59875 -0.21,1.3775 -0.8087,2.33625 -0.66,1.08 -1.4363,1.97625 -2.3363,2.6975 -0.8987,0.7175 -1.8562,1.2725 -2.8762,1.66125 -1.0187,0.39125 -2.0375,0.60125 -3.0563,0.63 -1.0187,0.03 -1.9474,-0.105 -2.7862,-0.405 -1.0187,1.55875 -2.2012,3.07125 -3.55,4.54 -1.3463,1.46875 -2.74,2.71 -4.1788,3.72875 -1.4375,1.02 -2.92,1.785 -4.45,2.2925 -1.5274,0.51125 -2.9812,0.61375 -4.3599,0.315 -1.4975,-0.35875 -2.6801,-1.10875 -3.5476,-2.2475 -0.8699,-1.13625 -1.425,-2.57625 -1.665,-4.31375 -0.2387,-1.7375 -0.1025,-3.73125 0.4063,-5.97625 0.5087,-2.24875 1.4225,-4.66 2.7387,-7.23625 2.1,-4.135 4.345,-7.2825 6.7425,-9.4375 2.3975,-2.1575 4.7038,-3.71375 6.92,-4.675 1.56,-0.6575 3.1313,-1.03375 4.7188,-1.12375 1.5887,-0.0875 2.9525,0.15125 4.0912,0.72125 1.1363,0.56875 1.9013,1.45125 2.2925,2.65125 0.3875,1.1975 0.1638,2.75625 -0.675,4.6725 0.5988,1.2 0.5225,2.9375 -0.225,5.215 -0.75,2.27625 -1.7837,4.67125 -3.1012,7.18875 0.7775,0.54 1.7087,0.66 2.7862,0.35875 1.08,-0.2975 2.0375,-1.0775 2.8763,-2.33625" />
      <path
         id="path80"
         style="fill:#9c0054;fill-opacity:1;fill-rule:nonzero;stroke:none"
         d="m -1031.4541,-381.46797 c 0.72,-0.89875 1.395,-1.5125 2.0225,-1.8425 0.6287,-0.33 1.1387,-0.435 1.5275,-0.315 0.3887,0.1225 0.5837,0.45 0.5837,0.99 0,0.5375 -0.3,1.2875 -0.8962,2.24625 -0.3613,0.54 -1.1412,1.5875 -2.3388,3.14625 -1.2,1.56 -2.6225,3.4025 -4.2687,5.52875 -1.65,2.125 -3.46,4.435 -5.4375,6.92 -1.9763,2.485 -3.895,4.8975 -5.7525,7.235 -1.4975,1.855 -2.89,3.595 -4.1788,5.2125 -1.2899,1.6175 -2.4574,3.04 -3.5062,4.27 -1.0488,1.22625 -1.9475,2.17125 -2.695,2.83125 -0.75,0.6575 -1.335,0.92875 -1.755,0.80875 -0.4788,-0.12125 -0.6888,-0.75 -0.6275,-1.88875 0.059,-1.13875 0.3437,-2.5925 0.8525,-4.35875 0.5087,-1.7675 1.2,-3.77375 2.0675,-6.02125 0.8675,-2.24625 1.8425,-4.555 2.9225,-6.92125 1.0775,-2.365 2.245,-4.7325 3.5037,-7.10125 1.2588,-2.365 2.5463,-4.56625 3.8663,-6.605 l 2.3362,-3.685 c -1.2,1.37875 -2.6662,2.99625 -4.4037,4.85375 -1.74,1.85625 -3.5213,3.61125 -5.3488,5.25875 -1.8287,1.64625 -3.5362,2.995 -5.1225,4.04375 -1.5887,1.04875 -2.7712,1.45375 -3.55,1.2125 -1.1975,-0.36 -1.9337,-1.2275 -2.2025,-2.605 -0.2712,-1.37875 -0.1337,-3.0575 0.4038,-5.03375 0.54,-1.9775 1.38,-4.15 2.5162,-6.5175 1.1388,-2.36625 2.5025,-4.7025 4.0913,-7.01125 1.5862,-2.30375 3.3087,-4.49375 5.1687,-6.56125 1.8538,-2.0675 3.7438,-3.81875 5.6613,-5.25625 1.3175,-0.9575 2.5462,-1.6025 3.685,-1.9325 1.1362,-0.33 2.0362,-0.41875 2.6962,-0.26875 0.6588,0.14875 0.9888,0.46375 0.9888,0.9425 0,0.47875 -0.4813,1.0775 -1.4388,1.79625 -1.1975,0.84125 -2.4262,1.90375 -3.685,3.19125 -1.2587,1.29 -2.4562,2.66625 -3.595,4.135 -1.1387,1.46875 -2.1725,2.98125 -3.1012,4.5375 -0.9288,1.56 -1.6925,3.01375 -2.2913,4.36 -0.5987,1.34875 -0.9587,2.51625 -1.0787,3.50625 -0.1213,0.9875 0.091,1.6625 0.6287,2.02125 0.2388,0.18125 0.8088,-0.1025 1.7075,-0.8525 0.9,-0.74875 1.9775,-1.78125 3.2363,-3.10125 1.2575,-1.3175 2.6212,-2.80125 4.09,-4.45 1.4662,-1.6475 2.92,-3.29375 4.36,-4.94375 1.4362,-1.64625 2.7537,-3.18875 3.9537,-4.62875 1.1975,-1.43625 2.1875,-2.60375 2.9663,-3.50375 0.9,-1.01875 2.0062,-1.79875 3.3262,-2.33875 1.3175,-0.5375 2.5613,-0.89625 3.7288,-1.0775 1.1687,-0.18125 2.1137,-0.18125 2.8325,0 0.7187,0.18125 0.8675,0.48125 0.45,0.9 -1.3813,1.43625 -2.9525,3.27875 -4.7188,5.5275 -1.77,2.245 -3.5662,4.6275 -5.3937,7.145 -1.8275,2.51625 -3.6263,5.04875 -5.3925,7.595 -1.77,2.54875 -3.3263,4.8525 -4.675,6.92 -1.3463,2.0675 -2.4413,3.76125 -3.28,5.0775 -0.84,1.32 -1.2288,2.00875 -1.1675,2.0675 0.12,0.0613 0.5225,-0.1775 1.2112,-0.7175 0.69,-0.54125 1.5425,-1.28875 2.5638,-2.24875 1.0162,-0.955 2.1262,-2.035 3.3237,-3.235 1.2,-1.1975 2.35,-2.38 3.4625,-3.54875 1.1075,-1.17 2.1263,-2.2625 3.055,-3.28125 0.9275,-1.02 1.6325,-1.82875 2.1113,-2.4275" />
      <path
         id="path82"
         style="fill:#9c0054;fill-opacity:1;fill-rule:nonzero;stroke:none"
         d="m -1021.2078,-373.01922 c 0.5987,0.18 1.3187,0.13625 2.1575,-0.135 0.8375,-0.26875 1.6762,-0.6275 2.5162,-1.0775 0.8388,-0.45 1.6188,-0.99 2.3362,-1.6175 0.7213,-0.63125 1.2888,-1.215 1.7088,-1.7525 -0.9,-1.01875 -1.3637,-2.2775 -1.3925,-3.775 -0.032,-1.49875 0.21,-2.98125 0.7175,-4.45 0.5087,-1.46875 1.2,-2.845 2.0675,-4.135 0.8675,-1.2875 1.7837,-2.23125 2.7425,-2.8325 0.7787,-0.5375 1.2137,-1.10625 1.3025,-1.705 0.09,-0.59875 -0.059,-1.11 -0.4475,-1.53 -0.3913,-0.4175 -0.975,-0.68625 -1.755,-0.80875 -0.7788,-0.12 -1.6463,0.0612 -2.605,0.54 -1.6175,0.84 -3.2525,2.09875 -4.8988,3.775 -1.65,1.67875 -3.0112,3.62625 -4.0887,5.84375 -0.7213,1.55875 -1.305,3.1 -1.755,4.6275 -0.4488,1.5275 -0.6888,2.9375 -0.7175,4.225 -0.032,1.28875 0.1187,2.36875 0.4487,3.23625 0.3275,0.8675 0.8826,1.3925 1.6626,1.57125 z m 19.4149,-8.44875 c 0.5988,-0.89875 1.2138,-1.52625 1.84255,-1.88625 0.63,-0.36125 1.13875,-0.49625 1.52625,-0.405 0.39125,0.09 0.61625,0.435 0.675,1.03375 0.0588,0.59875 -0.21,1.3775 -0.80875,2.33625 -0.66,1.08 -1.4375,1.97625 -2.33625,2.6975 -0.8988,0.7175 -1.8575,1.2725 -2.8763,1.66125 -1.0187,0.39125 -2.0375,0.60125 -3.0575,0.63 -1.0187,0.03 -1.9475,-0.105 -2.785,-0.405 -1.0187,1.55875 -2.2025,3.07125 -3.5512,4.54 -1.3463,1.46875 -2.7388,2.71 -4.1788,3.72875 -1.4362,1.02 -2.92,1.785 -4.45,2.2925 -1.5262,0.51125 -2.9812,0.61375 -4.3587,0.315 -1.4975,-0.35875 -2.6813,-1.10875 -3.5488,-2.2475 -0.87,-1.13625 -1.4237,-2.57625 -1.6637,-4.31375 -0.24,-1.7375 -0.1025,-3.73125 0.4062,-5.97625 0.5075,-2.24875 1.4213,-4.66 2.7388,-7.23625 2.0987,-4.135 4.345,-7.2825 6.7425,-9.4375 2.3962,-2.1575 4.7037,-3.71375 6.92,-4.675 1.5587,-0.6575 3.13,-1.03375 4.7187,-1.12375 1.5888,-0.0875 2.9525,0.15125 4.0913,0.72125 1.1362,0.56875 1.9,1.45125 2.2912,2.65125 0.3888,1.1975 0.1638,2.75625 -0.6737,4.6725 0.5987,1.2 0.5225,2.9375 -0.225,5.215 -0.75,2.27625 -1.7838,4.67125 -3.1013,7.18875 0.7775,0.54 1.7088,0.66 2.7863,0.35875 1.08,-0.2975 2.0375,-1.0775 2.8762,-2.33625" />
      <path
         id="path84"
         style="fill:#9c0054;fill-opacity:1;fill-rule:nonzero;stroke:none"
         d="m -974.1091,-416.79047 c -1.55875,0.35875 -3.3575,1.6175 -5.39375,3.775 0.71875,-0.0588 1.39375,-0.105 2.02375,-0.13375 0.62875,-0.0325 1.27125,-0.0462 1.93125,-0.0462 0.42,-0.71875 0.7325,-1.37875 0.945,-1.9775 0.2075,-0.59875 0.37375,-1.13875 0.49375,-1.6175 z m -15.8175,20.4025 c -0.30125,0.65875 -0.5575,1.19875 -0.765,1.6175 -0.21,0.42 -0.40625,0.80875 -0.58375,1.1675 -0.18125,0.3625 -0.3475,0.75 -0.49625,1.17125 -0.15,0.4175 -0.3125,0.92875 -0.49375,1.52625 2.99625,-3.29375 5.7225,-6.53125 8.17875,-9.70625 2.45625,-3.17625 4.52375,-6.0525 6.2025,-8.63 -0.71875,-0.0588 -1.46875,-0.1025 -2.24625,-0.135 -0.78,-0.0288 -1.55875,-0.0438 -2.33875,-0.0438 -2.63625,3.53625 -5.12125,7.88125 -7.4575,13.0325 z m -4.31625,-15.64 c 1.37875,-0.12 2.78625,-0.225 4.225,-0.3125 1.4375,-0.0913 2.87625,-0.19625 4.31375,-0.315 1.6175,-2.15875 3.265,-4.12 4.94375,-5.8875 1.67625,-1.76625 3.31125,-3.19125 4.89875,-4.26875 1.58625,-1.08 3.08375,-1.755 4.49375,-2.02375 1.4075,-0.26875 2.6525,-0.0138 3.73,0.765 0.77875,0.5375 0.8675,1.7525 0.27125,3.63875 -0.60125,1.88875 -1.70875,4.21 -3.32625,6.9675 l 8.4475,-0.36 c 0.78,-0.0587 1.16875,0.26875 1.16875,0.9875 0,0.72125 -0.255,1.48375 -0.7625,2.2925 -0.51125,0.80875 -1.2,1.515 -2.0675,2.11375 -0.87,0.59875 -1.755,0.77625 -2.65125,0.5375 -0.66,-0.12 -1.58875,-0.28375 -2.78875,-0.49375 -1.1975,-0.21 -2.605,-0.40625 -4.2225,-0.58375 -2.45875,3.59375 -5.3925,7.445 -8.80875,11.54875 -3.41625,4.105 -7.1025,8.07625 -11.05625,11.91 -0.48125,1.7375 -0.77875,3.31125 -0.89875,4.71875 -0.12,1.4075 -0.12,2.605 0,3.595 0.12,0.98875 0.345,1.75125 0.675,2.29125 0.32875,0.54 0.67375,0.84125 1.03375,0.9 0.4175,0.0587 1.09125,-0.12 2.0225,-0.54 0.92875,-0.41875 1.93125,-0.99 3.01125,-1.70875 1.0775,-0.71875 2.14,-1.54125 3.19125,-2.47 1.045,-0.92875 1.93,-1.8425 2.65125,-2.7425 0.71875,-0.89875 1.3925,-1.5125 2.02125,-1.8425 0.63,-0.33 1.13875,-0.435 1.52625,-0.315 0.39125,0.1225 0.5875,0.45 0.5875,0.99 0,0.5375 -0.30125,1.2875 -0.9,2.24625 -0.60125,0.96 -1.69375,2.29125 -3.28125,4 -1.58875,1.7075 -3.37,3.41625 -5.3475,5.12375 -1.97625,1.70625 -3.97,3.18875 -5.97625,4.4475 -2.00875,1.25875 -3.7325,1.88875 -5.16875,1.88875 -1.44,0 -2.3825,-0.945 -2.8325,-2.83125 -0.45,-1.8875 -0.4787,-4.36 -0.09,-7.415 0.3913,-3.05625 1.1413,-6.5025 2.2475,-10.33625 1.1075,-3.83375 2.5325,-7.7 4.27,-11.595 0.89875,-2.0975 1.9175,-4.16375 3.05625,-6.2025 1.13625,-2.035 2.33625,-4.0125 3.595,-5.9325 -1.32,0.12125 -2.6075,0.24125 -3.86625,0.36125 -1.25875,0.12 -2.485,0.33 -3.685,0.6275 -0.47875,0.1225 -0.82375,0 -1.03375,-0.35875 -0.21,-0.35875 -0.25375,-0.7775 -0.13375,-1.25875 0.12,-0.47875 0.38875,-0.9425 0.80875,-1.3925 0.4175,-0.45 0.99,-0.70375 1.7075,-0.765" />
      <path
         id="path86"
         style="fill:#9c0054;fill-opacity:1;fill-rule:nonzero;stroke:none"
         d="m -959.9091,-394.85922 c -0.71875,-0.54 -1.6325,-0.68875 -2.74125,-0.44875 -1.11,0.23875 -2.24625,0.77875 -3.41375,1.6175 -1.16875,0.8375 -2.2775,1.9475 -3.32625,3.325 -1.05125,1.37875 -1.8425,2.90625 -2.3825,4.5825 0.59875,0.0612 1.48375,0.09 2.65125,0.09 1.1675,0 2.6225,-0.3275 4.36,-0.98625 1.67625,-0.66 2.96625,-1.37875 3.865,-2.15875 0.8975,-0.77875 1.5125,-1.55875 1.8425,-2.33625 0.3275,-0.77875 0.38875,-1.4975 0.17875,-2.1575 -0.21,-0.66 -0.555,-1.1675 -1.03375,-1.5275 z m 6.56125,13.39125 c 0.59875,-0.89875 1.1975,-1.54125 1.79875,-1.9325 0.59875,-0.38875 1.10625,-0.5225 1.5275,-0.40375 0.4175,0.12 0.6425,0.465 0.67375,1.03375 0.03,0.57 -0.225,1.36375 -0.765,2.38125 -0.35875,0.65875 -0.9725,1.63375 -1.8425,2.9225 -0.8675,1.2875 -1.9175,2.665 -3.145,4.13375 -1.22875,1.46875 -2.63625,2.89125 -4.225,4.27 -1.5875,1.3775 -3.29625,2.51625 -5.12125,3.41375 -1.83,0.89875 -3.74625,1.43875 -5.7525,1.6175 -2.00875,0.18 -4.09125,-0.24 -6.24875,-1.25625 -1.7375,-0.84125 -2.96375,-2.1725 -3.685,-4 -0.71875,-1.82875 -1.01625,-3.91 -0.89625,-6.24875 0.11875,-2.33625 0.6125,-4.80625 1.4825,-7.41375 0.8675,-2.6075 1.99,-5.07875 3.37,-7.415 1.3175,-2.21625 2.845,-4.23875 4.585,-6.0675 1.7375,-1.8275 3.55,-3.25 5.43625,-4.26875 1.8875,-1.01875 3.7875,-1.55875 5.70875,-1.6175 1.91625,-0.0588 3.74375,0.5375 5.48125,1.79625 1.25875,0.89875 2.1575,2.055 2.6975,3.46 0.5375,1.41 0.61375,2.9075 0.225,4.49375 -0.39125,1.58875 -1.29,3.1625 -2.6975,4.71875 -1.4075,1.55875 -3.40125,2.96625 -5.9775,4.225 -1.13875,0.54 -2.30625,0.91375 -3.50375,1.12375 -1.2,0.21125 -2.33875,0.33 -3.41625,0.36 -1.0775,0.0312 -2.0825,-0.015 -3.01125,-0.135 -0.93125,-0.11875 -1.7225,-0.23875 -2.3825,-0.35875 -0.17875,0.9575 -0.35875,1.99125 -0.54,3.10125 -0.17875,1.10875 -0.26875,2.1725 -0.26875,3.18875 0,1.02125 0.135,1.9325 0.40625,2.74125 0.26875,0.80875 0.76125,1.39375 1.4825,1.755 1.5575,0.83875 3.29375,0.9725 5.2125,0.40375 1.91625,-0.57 3.75875,-1.4375 5.5275,-2.6075 1.7675,-1.16875 3.37,-2.47125 4.80875,-3.91 1.4375,-1.4375 2.45625,-2.605 3.055,-3.505" />
      <path
         id="path88"
         style="fill:#9c0054;fill-opacity:1;fill-rule:nonzero;stroke:none"
         d="m -883.2416,-409.33047 c 1.495,-1.31625 2.365,-2.71 2.605,-4.18125 0.24,-1.46625 -0.0287,-2.68 -0.80875,-3.6375 -0.78,-0.95875 -2.00875,-1.5425 -3.685,-1.7525 -1.67875,-0.21 -3.685,0.2225 -6.02125,1.3025 -3.235,1.55875 -6.11125,3.445 -8.62875,5.66125 0.9575,1.49875 2.11125,2.7125 3.46,3.64125 1.34875,0.92875 2.77125,1.5125 4.26875,1.7525 1.49875,0.24 3.01125,0.13375 4.53875,-0.315 1.53,-0.45 2.95125,-1.27125 4.27125,-2.47125 z m -8,-16.08875 c 5.21125,-1.67625 9.4375,-2.1425 12.6725,-1.3925 3.235,0.75 5.3925,2.20125 6.47,4.35875 1.08125,2.15625 1.02,4.7625 -0.1775,7.82 -1.2,3.055 -3.62625,6.0825 -7.28,9.07875 -1.97875,1.6175 -4.09,2.73875 -6.33625,3.36875 -2.24875,0.62875 -4.465,0.81 -6.65125,0.54125 -2.19,-0.27125 -4.225,-0.99 -6.1125,-2.15875 -1.88875,-1.1675 -3.4625,-2.74125 -4.71875,-4.71875 -3.17625,3.41375 -5.7225,7.13125 -7.64125,11.14625 -1.9175,4.015 -3.26625,7.84875 -4.04375,11.505 -0.78,3.655 -1.005,6.86125 -0.675,9.615 0.33,2.75625 1.18375,4.61625 2.56125,5.57375 1.4975,1.02 3.0575,1.13875 4.675,0.36 1.6175,-0.78 3.22,-2.03875 4.80875,-3.77625 1.58625,-1.7375 3.10125,-3.71375 4.5375,-5.9325 1.44,-2.21375 2.7575,-4.28125 3.9575,-6.2025 0.77625,-1.915 1.495,-3.6525 2.155,-5.2125 0.66,-1.55625 1.22875,-2.665 1.7075,-3.325 0.59875,-0.71875 1.44,-1.1975 2.5175,-1.4375 1.08,-0.23875 2.11125,-0.315 3.10125,-0.225 0.98875,0.0913 1.7975,0.31625 2.42625,0.675 0.63,0.35875 0.79375,0.80875 0.49375,1.34625 -0.41875,0.78 -1.13875,2.02375 -2.155,3.73125 -1.0225,1.70875 -2.19,3.595 -3.5075,5.6625 -1.3175,2.0675 -2.68,4.21 -4.0875,6.42625 -1.41,2.21625 -2.68375,4.24 -3.8225,6.0675 -1.13875,1.82875 -2.08125,3.35625 -2.83,4.5825 -0.75,1.22875 -1.095,1.87375 -1.03375,1.9325 0.12,0.0613 0.52375,-0.1775 1.2125,-0.7175 0.68875,-0.54125 1.5425,-1.28875 2.56375,-2.24875 1.01625,-0.955 2.125,-2.035 3.325,-3.235 1.1975,-1.1975 2.35125,-2.38 3.46125,-3.54875 1.10625,-1.17 2.125,-2.2625 3.05375,-3.28125 0.92875,-1.02 1.6325,-1.82875 2.11375,-2.4275 0.71875,-0.89875 1.39375,-1.5125 2.02125,-1.8425 0.63,-0.33 1.13875,-0.435 1.5275,-0.315 0.39125,0.1225 0.58625,0.45 0.58625,0.99 0,0.5375 -0.3,1.2875 -0.89875,2.24625 -0.36,0.54 -1.13875,1.5875 -2.33875,3.14625 -1.1975,1.56 -2.6225,3.41375 -4.27,5.5725 -1.64625,2.1575 -3.46,4.46375 -5.43625,6.92 -1.9775,2.45625 -3.895,4.85375 -5.7525,7.19125 -2.9375,3.715 -5.2,6.305 -6.78625,7.77375 -1.58875,1.46875 -2.77125,2.0525 -3.55125,1.755 -0.59875,-0.18125 -0.79375,-0.975 -0.58375,-2.3825 0.21,-1.41 0.73375,-3.22375 1.57375,-5.4375 0.83875,-2.21875 1.9775,-4.75 3.41625,-7.595 1.4375,-2.8475 3.08375,-5.82875 4.94125,-8.94375 -1.3775,1.7375 -2.77125,3.32625 -4.17875,4.7625 -1.4075,1.44 -2.84625,2.6225 -4.3125,3.55125 -1.47125,0.9275 -2.9675,1.55625 -4.49375,1.88625 -1.53,0.33 -3.0725,0.25625 -4.63125,-0.2225 -2.155,-0.6625 -3.805,-2.055 -4.94375,-4.18125 -1.13875,-2.12625 -1.79625,-4.70125 -1.97625,-7.72875 -0.17875,-3.02625 0.09,-6.35125 0.80875,-9.9775 0.7175,-3.625 1.85625,-7.31 3.41625,-11.055 1.55625,-3.74375 3.50375,-7.4 5.8425,-10.965 2.33625,-3.565 5.0025,-6.78625 7.9975,-9.6625 -0.89875,-2.6975 -1.31625,-5.01875 -1.2575,-6.9675 0.0588,-1.945 0.34375,-3.57875 0.855,-4.89625 0.5075,-1.3175 1.12125,-2.33875 1.8425,-3.0575 0.71875,-0.71875 1.3175,-1.1975 1.79625,-1.43625 1.43875,-0.66 2.87625,-0.72125 4.315,-0.18125 1.4375,0.54 2.36625,1.8275 2.78625,3.86625 -0.84125,0.12 -1.7675,0.9425 -2.78625,2.47 -1.01875,1.53 -1.74,3.43125 -2.1575,5.70875 3.17625,-2.1575 6.47125,-3.805 9.8875,-4.94375" />
      <path
         id="path90"
         style="fill:#9c0054;fill-opacity:1;fill-rule:nonzero;stroke:none"
         d="m -859.6041,-381.46797 c 0.71875,-0.89875 1.3925,-1.5125 2.02125,-1.8425 0.63,-0.33 1.13875,-0.435 1.53,-0.315 0.3875,0.1225 0.58375,0.45 0.58375,0.99 0,0.5375 -0.30125,1.2875 -0.9,2.24625 -0.59875,0.96 -1.67875,2.30875 -3.235,4.04375 -1.55875,1.74 -3.29625,3.4775 -5.215,5.215 -1.9175,1.7375 -3.8775,3.25 -5.88625,4.5375 -2.00875,1.29 -3.76125,1.9325 -5.25625,1.9325 -1.38125,0 -2.31,-0.80875 -2.78875,-2.42625 -0.47875,-1.6175 -0.35875,-3.775 0.36125,-6.47 0.71875,-2.69875 2.08,-5.81125 4.08875,-9.35 2.00625,-3.53375 4.7775,-7.2475 8.31375,-11.14375 -0.78,0.12 -1.56,0.15 -2.33625,0.0888 -0.78,-0.0587 -1.58875,-0.17875 -2.42625,-0.36 -1.02,1.9775 -2.2775,4.22625 -3.77625,6.7425 -1.4975,2.5175 -3.145,4.91375 -4.94375,7.19 -0.89875,1.13875 -1.67875,1.8425 -2.335,2.11375 -0.66,0.26875 -1.15375,0.2825 -1.48375,0.0437 -0.33,-0.24 -0.465,-0.66 -0.40625,-1.25875 0.0613,-0.59875 0.39125,-1.25875 0.99,-1.9775 2.09625,-2.51625 3.87875,-4.9875 5.34625,-7.41625 1.46875,-2.42625 2.655,-4.5675 3.55125,-6.42375 -1.67625,-0.9 -2.605,-2.12875 -2.78625,-3.685 -0.1775,-1.56 0.0762,-3.0425 0.765,-4.45 0.6875,-1.4075 1.67625,-2.54625 2.9675,-3.41625 1.2875,-0.8675 2.56,-1.06375 3.81875,-0.58375 0.9,0.3 1.5275,0.75 1.88625,1.34875 0.36,0.59875 0.54,1.2725 0.54,2.02 0,0.75125 -0.15125,1.545 -0.44875,2.3825 -0.30125,0.84125 -0.66,1.65 -1.0775,2.4275 0.35875,0.42 0.82,0.65875 1.3925,0.7175 0.56625,0.0612 1.1675,0.0475 1.79625,-0.0437 0.63,-0.09 1.24375,-0.25375 1.8425,-0.49375 0.59875,-0.23875 1.08,-0.44875 1.43875,-0.63 0.17875,-0.0587 0.45,0 0.80875,0.18125 0.36,0.1775 0.70375,0.42 1.03375,0.7175 0.3275,0.30125 0.58375,0.61625 0.7625,0.94375 0.18125,0.33 0.18125,0.58375 0,0.765 -0.8375,0.84 -1.7375,1.9325 -2.695,3.27875 -0.9575,1.34875 -1.90375,2.80375 -2.8325,4.36 -0.92875,1.55875 -1.78125,3.1325 -2.56125,4.71875 -0.77875,1.58875 -1.43625,3.07125 -1.97625,4.45 -0.54,1.3775 -0.9,2.5775 -1.0775,3.595 -0.18125,1.02125 -0.0912,1.7075 0.26875,2.06625 0.2975,0.30125 0.8675,0.28625 1.7075,-0.0437 0.83875,-0.33 1.78125,-0.855 2.83,-1.57375 1.04875,-0.71875 2.09625,-1.54125 3.1475,-2.47 1.04625,-0.92875 1.9325,-1.8425 2.65125,-2.7425" />
      <path
         id="path92"
         style="fill:#9c0054;fill-opacity:1;fill-rule:nonzero;stroke:none"
         d="m -834.7991,-405.10797 c -1.13875,1.2 -2.3825,1.93375 -3.72875,2.205 -1.34875,0.26875 -2.44375,0.0137 -3.28125,-0.765 -0.78,-0.7775 -1.04875,-1.8425 -0.80875,-3.19125 0.23875,-1.34875 0.92875,-2.62 2.0675,-3.82 1.13875,-1.1975 2.3825,-1.9325 3.72875,-2.20125 1.34875,-0.26875 2.44125,-0.015 3.28125,0.765 0.7775,0.77625 1.04875,1.8425 0.80875,3.18875 -0.23875,1.34875 -0.9275,2.6225 -2.0675,3.81875 z m -6.47,23.64 c 0.71875,-0.89875 1.4075,-1.5125 2.0675,-1.8425 0.6575,-0.33 1.1825,-0.435 1.57125,-0.315 0.39125,0.1225 0.58375,0.45 0.58375,0.99 0,0.5375 -0.30125,1.2875 -0.89625,2.24625 -0.60125,0.96 -1.68,2.30875 -3.23625,4.04375 -1.55875,1.74 -3.31375,3.4775 -5.25875,5.215 -1.9475,1.7375 -3.92375,3.25 -5.9325,4.5375 -2.00875,1.29 -3.76125,1.9325 -5.25625,1.9325 -1.02,0 -1.7375,-0.55125 -2.15875,-1.66125 -0.4175,-1.10875 -0.58375,-2.5925 -0.49375,-4.45 0.0888,-1.8575 0.435,-3.96875 1.03375,-6.33625 0.59875,-2.3675 1.4525,-4.80875 2.56125,-7.32625 1.1075,-2.51625 2.47125,-5.01625 4.08875,-7.505 1.6175,-2.485 3.445,-4.7475 5.48375,-6.785 0.54,-0.48 1.1975,-0.70375 1.97625,-0.675 0.78,0.0325 1.49875,0.18125 2.1575,0.45 0.6575,0.26875 1.16875,0.615 1.5275,1.03375 0.36,0.42 0.36,0.77875 0,1.0775 -0.59875,0.54 -1.2725,1.185 -2.02125,1.9325 -0.75,0.75 -1.5,1.57375 -2.2475,2.47375 -0.75,0.89625 -1.46875,1.8275 -2.1575,2.785 -0.69,0.95875 -1.27375,1.88625 -1.7525,2.78625 -0.71875,1.3775 -1.33375,2.75625 -1.8425,4.135 -0.51125,1.3775 -0.8525,2.63625 -1.03375,3.775 -0.17875,1.13875 -0.195,2.09625 -0.0437,2.87625 0.14875,0.78 0.49375,1.25875 1.03375,1.43625 0.4175,0.1225 1.04625,0 1.88625,-0.35875 0.83875,-0.35875 1.7525,-0.8675 2.74125,-1.5275 0.99,-0.66 1.9925,-1.4225 3.01125,-2.2925 1.01875,-0.8675 1.88875,-1.75125 2.6075,-2.65125" />
      <path
         id="path94"
         style="fill:#9c0054;fill-opacity:1;fill-rule:nonzero;stroke:none"
         d="m -829.40535,-396.38797 c -0.60125,1.31875 -1.14125,2.5925 -1.62,3.81875 -0.47875,1.23 -0.8675,2.44375 -1.16875,3.64125 2.15875,-2.575 4.33125,-5.2125 6.5175,-7.91 2.1875,-2.695 4.135,-5.3025 5.8425,-7.82 1.70875,-2.51625 3.085,-4.8825 4.135,-7.09875 1.04625,-2.21625 1.5425,-4.19375 1.48375,-5.93375 -1.08,0.24 -2.23375,0.96125 -3.4625,2.15875 -1.2275,1.2 -2.5025,2.74125 -3.82,4.6275 -1.3175,1.8875 -2.65125,4.07625 -4,6.56125 -1.34625,2.4875 -2.65125,5.13875 -3.9075,7.955 z m -8.36,31.45875 c -1.43875,0 -2.3825,-0.945 -2.8325,-2.83125 -0.44875,-1.8875 -0.47875,-4.36 -0.09,-7.415 0.39125,-3.05625 1.15625,-6.5025 2.2925,-10.33625 1.13875,-3.83375 2.575,-7.7 4.315,-11.595 1.13625,-2.6375 2.42625,-5.2275 3.86375,-7.77625 1.43875,-2.54625 2.9525,-4.955 4.54,-7.2325 1.58625,-2.2775 3.20375,-4.33 4.85375,-6.15875 1.64625,-1.8275 3.25,-3.29375 4.80875,-4.40375 1.55625,-1.10875 3.04,-1.8125 4.45,-2.11375 1.405,-0.2975 2.68,-0.0575 3.81875,0.72125 1.49625,1.0775 1.7825,2.99625 0.85375,5.7525 -0.92875,2.75625 -2.66625,5.9925 -5.2125,9.70625 -2.54875,3.7175 -5.70875,7.76125 -9.48375,12.1325 -3.77375,4.3775 -7.73,8.71875 -11.86375,13.035 -0.66,3.055 -0.78,5.36375 -0.36,6.92 0.41875,1.55875 1.01875,2.3975 1.79875,2.5175 0.4175,0.0587 1.0775,-0.12 1.9775,-0.54 0.89875,-0.41875 1.88625,-0.99 2.96625,-1.70875 1.0775,-0.71875 2.14,-1.54125 3.19125,-2.47 1.04625,-0.92875 1.93,-1.8425 2.65125,-2.7425 0.71875,-0.89875 1.405,-1.5125 2.0675,-1.8425 0.6575,-0.33 1.18,-0.435 1.57125,-0.315 0.38875,0.1225 0.58375,0.45 0.58375,0.99 0,0.5375 -0.3,1.2875 -0.89625,2.24625 -0.60125,0.96 -1.70875,2.29125 -3.32625,4 -1.6175,1.7075 -3.41625,3.41625 -5.3925,5.12375 -1.9775,1.70625 -3.97125,3.18875 -5.9775,4.4475 -2.00875,1.25875 -3.73125,1.88875 -5.16875,1.88875" />
      <path
         id="path96"
         style="fill:#9c0054;fill-opacity:1;fill-rule:nonzero;stroke:none"
         d="m -809.36285,-396.38797 c -0.60125,1.31875 -1.14125,2.5925 -1.62,3.81875 -0.47875,1.23 -0.8675,2.44375 -1.1675,3.64125 2.1575,-2.575 4.33,-5.2125 6.5175,-7.91 2.18625,-2.695 4.13375,-5.3025 5.8425,-7.82 1.7075,-2.51625 3.08375,-4.8825 4.135,-7.09875 1.045,-2.21625 1.54125,-4.19375 1.4825,-5.93375 -1.08,0.24 -2.23375,0.96125 -3.4625,2.15875 -1.22625,1.2 -2.5025,2.74125 -3.82,4.6275 -1.31625,1.8875 -2.65125,4.07625 -4,6.56125 -1.34625,2.4875 -2.65125,5.13875 -3.9075,7.955 z m -8.35875,31.45875 c -1.44,0 -2.38375,-0.945 -2.8325,-2.83125 -0.45,-1.8875 -0.47875,-4.36 -0.0913,-7.415 0.39125,-3.05625 1.15625,-6.5025 2.2925,-10.33625 1.13875,-3.83375 2.57625,-7.7 4.31625,-11.595 1.13625,-2.6375 2.42625,-5.2275 3.8625,-7.77625 1.44,-2.54625 2.9525,-4.955 4.54125,-7.2325 1.585,-2.2775 3.2025,-4.33 4.8525,-6.15875 1.6475,-1.8275 3.25,-3.29375 4.80875,-4.40375 1.5575,-1.10875 3.04,-1.8125 4.45,-2.11375 1.405,-0.2975 2.68125,-0.0575 3.82,0.72125 1.495,1.0775 1.78125,2.99625 0.8525,5.7525 -0.92875,2.75625 -2.66625,5.9925 -5.2125,9.70625 -2.54875,3.7175 -5.7075,7.76125 -9.48375,12.1325 -3.7725,4.3775 -7.72875,8.71875 -11.86375,13.035 -0.66,3.055 -0.78,5.36375 -0.35875,6.92 0.4175,1.55875 1.01875,2.3975 1.7975,2.5175 0.41875,0.0587 1.07875,-0.12 1.9775,-0.54 0.89875,-0.41875 1.88625,-0.99 2.96625,-1.70875 1.0775,-0.71875 2.14125,-1.54125 3.19125,-2.47 1.04625,-0.92875 1.93125,-1.8425 2.6525,-2.7425 0.7175,-0.89875 1.405,-1.5125 2.06625,-1.8425 0.6575,-0.33 1.18125,-0.435 1.57125,-0.315 0.38875,0.1225 0.585,0.45 0.585,0.99 0,0.5375 -0.30125,1.2875 -0.8975,2.24625 -0.60125,0.96 -1.7075,2.29125 -3.325,4 -1.61875,1.7075 -3.4175,3.41625 -5.39375,5.12375 -1.9775,1.70625 -3.97125,3.18875 -5.9775,4.4475 -2.00875,1.25875 -3.73125,1.88875 -5.1675,1.88875" />
    </g>
  </g>
</svg>
