<?xml version="1.0" encoding="UTF-8" standalone="no"?>
<svg
   xmlns:dc="http://purl.org/dc/elements/1.1/"
   xmlns:cc="http://creativecommons.org/ns#"
   xmlns:rdf="http://www.w3.org/1999/02/22-rdf-syntax-ns#"
   xmlns:svg="http://www.w3.org/2000/svg"
   xmlns="http://www.w3.org/2000/svg"
   viewBox="0 0 200.00001 200"
   height="200"
   width="200"
   xml:space="preserve"
   id="svg2"
   version="1.1"><metadata
     id="metadata8"><rdf:RDF><cc:Work
         rdf:about=""><dc:format>image/svg+xml</dc:format><dc:type
           rdf:resource="http://purl.org/dc/dcmitype/StillImage" /><dc:title></dc:title></cc:Work></rdf:RDF></metadata><defs
     id="defs6"><clipPath
       id="clipPath44"
       clipPathUnits="userSpaceOnUse"><path
         id="path42"
         d="M 0,500 H 1024 V 0 H 0 Z" /></clipPath><clipPath
       id="clipPath56"
       clipPathUnits="userSpaceOnUse"><path
         id="path54"
         d="M 0,500 H 1024 V 0 H 0 Z" /></clipPath><clipPath
       id="clipPath44-3"
       clipPathUnits="userSpaceOnUse"><path
         id="path42-6"
         d="M 0,500 H 1024 V 0 H 0 Z" /></clipPath></defs><g
     transform="matrix(1.3333333,0,0,-1.3333333,-769.03959,465.41419)"
     id="g10"><g
       id="g40"
       clip-path="url(#clipPath44-3)"
       transform="matrix(0.56202089,0,0,0.56201879,219.58576,131.30799)"><g
         id="g46"
         transform="translate(887.7168,387.4473)"><path
           d="m 0,0 h -237.434 c -8.136,0 -14.73,-6.594 -14.73,-14.73 v -237.434 c 0,-8.135 6.594,-14.731 14.73,-14.731 h 127.827 v 103.356 h -34.782 v 40.28 h 34.782 v 29.705 c 0,34.472 21.054,53.243 51.806,53.243 14.731,0 27.391,-1.096 31.08,-1.586 v -36.026 l -21.328,-0.01 c -16.724,0 -19.963,-7.947 -19.963,-19.609 v -25.717 h 39.887 l -5.193,-40.28 H -68.012 V -266.895 H 0 c 8.135,0 14.73,6.596 14.73,14.731 V -14.73 C 14.73,-6.594 8.135,0 0,0"
           style="fill:#ffffff;fill-opacity:1;fill-rule:nonzero;stroke:none"
           id="path48" /></g></g></g></svg>