<?xml version="1.0" encoding="UTF-8" standalone="no"?>
<svg
   xmlns:dc="http://purl.org/dc/elements/1.1/"
   xmlns:cc="http://creativecommons.org/ns#"
   xmlns:rdf="http://www.w3.org/1999/02/22-rdf-syntax-ns#"
   xmlns:svg="http://www.w3.org/2000/svg"
   xmlns="http://www.w3.org/2000/svg"
   height="9.485302"
   width="9.4853516"
   id="svg10"
   version="1.1"
   y="0px"
   x="0px"
   viewBox="0 0 9.4853516 9.485302">
  <metadata
     id="metadata16">
    <rdf:RDF>
      <cc:Work
         rdf:about="">
        <dc:format>image/svg+xml</dc:format>
        <dc:type
           rdf:resource="http://purl.org/dc/dcmitype/StillImage" />
        <dc:title>finite-icons</dc:title>
      </cc:Work>
    </rdf:RDF>
  </metadata>
  <defs
     id="defs14" />
  <title
     id="title2">finite-icons</title>
  <path
     style="fill:#ffffff"
     id="path4"
     d="m 6.1569182,4.7426282 3.18195,-3.18195 a 0.49989,0.49989 0 0 0 0,-0.70708998 l -0.70709,-0.70715 a 0.5,0.5 0 0 0 -0.70709,0 l -3.182,3.18199998 -3.18195,-3.18199998 a 0.5,0.5 0 0 0 -0.70708998,0 l -0.70711,0.70715 a 0.5,0.5 0 0 0 0,0.70708998 l 3.18189998,3.18195 -3.18199998,3.182 a 0.5,0.5 0 0 0 0,0.70709 l 0.70719,0.7071 a 0.5,0.5 0 0 0 0.70708998,0 l 3.182,-3.182 3.18195,3.182 a 0.49989,0.49989 0 0 0 0.70709,0 l 0.70709,-0.70709 a 0.49989,0.49989 0 0 0 0,-0.70709 z" />
</svg>
