<?xml version="1.0" encoding="UTF-8" standalone="no"?>
<svg
   xmlns:dc="http://purl.org/dc/elements/1.1/"
   xmlns:cc="http://creativecommons.org/ns#"
   xmlns:rdf="http://www.w3.org/1999/02/22-rdf-syntax-ns#"
   xmlns:svg="http://www.w3.org/2000/svg"
   xmlns="http://www.w3.org/2000/svg"
   viewBox="0 0 325.79999 190.79999"
   height="2.1199999in"
   width="3.6199999in"
   xml:space="preserve"
   version="1.1"
   id="coyote-grill-business-card"><metadata
     id="metadata3361"><rdf:RDF><cc:Work
         rdf:about=""><dc:format>image/svg+xml</dc:format><dc:type
           rdf:resource="http://purl.org/dc/dcmitype/StillImage" /><dc:title></dc:title></cc:Work></rdf:RDF></metadata><defs
     id="defs3359" /><g
     transform="matrix(1.25,0,0,-1.25,0,190.8)"
     id="g3363"><g
       transform="translate(12.701523,0.55955302)"
       id="g3837"><path
         id="path16"
         style="fill:#6e6b6c;fill-opacity:1;fill-rule:nonzero;stroke:none"
         d="m 43.945642,93.008323 c 0,0 -6.710007,6.345531 -13.713864,-1.124956 -7.003858,-7.471118 -5.195984,-8.199438 -9.031174,-11.732581 -3.835191,-3.533142 -7.218886,-2.635826 -9.880566,0.81408 -2.8142808,3.647277 -0.450865,12.234523 1.035413,15.320584 1.528527,3.176234 6.31e-4,5.2521 0.187283,8.00963 0.186021,2.75753 2.807975,3.86924 2.807975,3.86924 0,0 -8.3400582,0.8866 -12.7900648,-7.42256 -2.8483321,-5.318314 -2.73861109,-9.507891 -2.3728744,-11.086234 0.3007869,-1.295843 -0.7308428,-8.507792 5.0099621,-15.607498 0.8588506,-1.061897 4.3024507,-5.10581 11.3472961,-5.793773 3.086061,-0.300787 6.559298,1.091534 9.42844,6.238332 3.784113,6.786938 1.766886,10.450611 6.775587,16.341494 4.762775,5.601447 11.016872,0.08198 11.016872,0.08198 l 0.179715,2.092266" /><path
         id="path18"
         style="fill:#9c0054;fill-opacity:1;fill-rule:nonzero;stroke:none"
         d="m 35.666751,94.163546 c -0.0013,1.2599 0.07378,2.558896 0.300787,3.792311 0.201786,1.095319 -0.03342,2.625103 0.59779,3.574133 0.31466,0.47356 0.21692,0.95848 0.381501,1.51654 0.100263,0.34115 0.190436,0.65076 0.110983,1.01209 -0.04036,0.18223 -0.189175,0.56815 -0.289437,0.8311 2.158477,0.38529 4.451899,0.22575 6.628032,0.4206 2.391792,0.2144 4.817635,0.17845 7.199968,0.49942 1.019649,-2.09101 2.27072,-4.2375 2.838873,-6.542275 0.51014,-2.066413 0.652651,-4.222998 1.322328,-6.262926 0.678504,-2.067043 0.943348,-4.307495 0.767416,-6.489304 -0.09459,-1.175402 -0.138728,-2.372874 -0.208091,-3.553321 -0.0309,-0.529687 0.02964,-1.145765 -0.138728,-1.649598 -0.194849,-0.583918 -0.742193,-0.873354 -1.058114,-1.360163 -0.237729,-0.365736 -1.935252,-1.013342 -2.405034,-1.160268 -0.471674,-0.147556 -0.931368,-0.266735 -1.42259,-0.297003 -0.332946,-0.02081 -2.195051,-0.349342 -2.545023,-0.414291 -0.518967,-0.09711 -1.044872,-0.09774 -1.565101,-0.187283 -1.073878,-0.18476 -2.234146,-0.424381 -3.321898,-0.368259 -1.080815,0.05612 -2.126317,0.387177 -3.162361,0.70562 -1.013973,0.312137 -1.982545,0.512662 -2.539978,1.587171 -0.495006,0.953437 -0.594637,1.846339 -0.745977,2.902562 -0.08135,0.567522 -0.290697,1.101624 -0.313398,1.681758 -0.02712,0.698683 -0.07567,1.395475 -0.131161,2.092266 -0.03846,0.471674 -0.278086,2.001463 -0.447712,3.66052 -0.01955,0.189174 0.147556,3.307395 0.146925,4.0086" /><path
         id="path20"
         style="fill:#6e6b6c;fill-opacity:1;fill-rule:nonzero;stroke:none"
         d="m 35.942945,86.792691 c 0.05801,-0.696161 0.109721,-1.392953 0.142512,-2.091005 0.03279,-0.690486 0.230161,-1.305932 0.32664,-1.981284 0.170257,-1.188014 0.281239,-2.318645 0.984336,-3.313701 0.670938,-0.949023 2.086591,-1.11928 3.077233,-1.407455 1.225849,-0.356909 2.462417,-0.614186 3.731776,-0.400419 1.17351,0.198002 2.371613,0.263583 3.54197,0.481764 0.459063,0.08513 1.730944,0.286914 1.86778,0.324748 0.296373,0.08134 0.603465,0.08008 0.906144,0.105307 0.568153,0.04666 1.141981,0.247188 1.679236,0.445821 0.285653,0.105937 1.422589,0.665262 1.422589,0.665262 0,0 0.165212,-2.561418 0.159537,-3.722947 -0.0025,-0.554911 0.02081,-1.071987 0.102154,-1.619961 0.04982,-0.333577 0.198633,-0.946502 -0.223856,-1.06442 -0.384023,-0.107829 -0.810926,-0.17404 -1.203147,-0.253494 -0.348711,-0.06999 -0.185391,-0.798314 -0.185391,-1.070725 0,-1.288276 0.117288,-2.477551 0.257907,-3.755107 0.539147,-4.909069 -1.13,-9.45051 -2.245497,-14.096627 -0.256015,-1.066942 -0.245926,-2.116859 -0.327271,-3.208394 -0.09396,-1.254224 0.223856,-2.404403 0.401049,-3.637819 0.153862,-1.070095 0.404202,-2.23856 0.264844,-3.32379 -0.118549,-0.922539 -0.650759,-2.109291 -1.491323,-2.465569 -0.650128,-0.275564 -2.039297,-0.310246 -2.615017,0.172779 -0.73841,0.61986 -0.659587,2.091005 -0.597791,2.97634 0.179716,2.574029 0.34682,5.14932 0.581396,7.717674 0.05045,0.547344 0.27178,0.975509 0.416183,1.495107 0.148817,0.535993 0.226378,1.092165 0.262952,1.650229 0.08324,1.257378 0.01829,2.53115 -0.02585,3.788528 -0.04288,1.204408 -0.102154,2.410078 -0.101523,3.616379 6.3e-4,1.318544 0.235206,2.600514 0.277455,3.911491 0.0391,1.225218 -0.133683,2.410078 -0.471674,3.575391 -0.149448,0.515184 -0.302048,1.024063 -0.355648,1.565101 -0.06495,0.659587 0.04666,0.873354 -0.627427,0.872093 -1.119911,-0.0013 -2.241083,0.03973 -3.361625,-0.01135 -0.560586,-0.02522 -1.120541,-0.07378 -1.676713,-0.161428 -0.355017,-0.05612 -1.06379,0.117918 -1.29206,-0.266105 -0.501942,-0.844348 -0.593376,-2.046234 -0.984336,-2.966882 -0.402941,-0.949654 -0.983075,-1.800937 -1.531049,-2.635826 -1.239722,-1.88985 -1.469253,-4.224259 -2.318014,-6.31085 -0.431948,-1.060636 -0.921909,-2.096049 -1.399259,-3.132724 -0.50005,-1.085229 -1.073248,-2.138298 -1.318543,-3.337662 -0.220073,-1.078293 -0.230793,-2.1074 -0.657696,-3.127679 -0.452126,-1.080185 -0.965419,-2.118751 -1.452227,-3.179387 -0.872093,-1.899309 -1.990742,-5.749003 -4.557205,-5.250844 -0.735887,0.143142 -1.732835,0.856328 -1.659688,2.003985 0.122963,1.911289 1.320436,3.483957 2.434041,4.851055 0.563739,0.693008 1.252963,1.345659 1.718332,2.124426 0.46726,0.78192 0.668415,1.833098 0.990011,2.700776 0.351233,0.949024 0.26106,2.138929 0.377718,3.152272 0.134944,1.17288 0.273672,2.343868 0.389068,3.51927 0.216289,2.192529 0.556172,4.330827 1.420698,6.339226 0.403571,0.937673 0.914342,1.802199 1.362684,2.712127 0.197372,0.401049 0.376457,0.814079 0.518338,1.242874 0.116026,0.352494 0.385915,0.866417 0.375825,1.24918 -0.01009,0.401049 -0.219442,0.40168 -0.12044,0.839933 0.112874,0.501942 0.160798,1.03163 0.252232,1.539878 0.205569,1.143873 0.43447,2.284593 0.600943,3.436663 0.30394,2.106139 0.433209,4.253896 0.679135,6.371386 0.220703,1.898047 0.731474,3.879961 0.854437,5.708645 0.219442,-0.03531 0.385915,-2.917696 0.423119,-3.362255" /><path
         id="path22"
         style="fill:#6e6b6c;fill-opacity:1;fill-rule:nonzero;stroke:none"
         d="m 50.596375,105.80974 c -2.475028,-0.33358 -4.992936,-0.28124 -7.476162,-0.52528 -2.431519,-0.23899 -4.900242,-0.24908 -7.32104,-0.47482 -0.160167,-0.0145 -0.11918,-0.40168 -0.246557,-0.51014 -0.204939,-0.17467 -0.542299,-0.19044 -0.783181,-0.26106 -0.728951,-0.21314 -1.441507,-0.49249 -2.179917,-0.66716 -0.26106,-0.0612 -0.33736,-0.29448 -0.454018,-0.52149 -0.168995,-0.32853 -0.416183,-0.59274 -0.713186,-0.77813 -0.558064,-0.34935 -1.10793,-0.52276 -1.659058,-0.10027 -0.995686,0.76364 -1.746708,2.09605 -1.504565,3.47387 0.136206,0.77435 0.661479,1.31035 0.959113,2.00336 0.299526,0.69742 0.453388,1.45664 0.568784,2.21333 0.244665,1.61177 0.718231,3.16804 0.930737,4.79431 0.224486,1.72085 0.412399,3.59809 1.06442,5.20166 0.245926,0.60535 0.636255,1.21449 1.056853,1.68932 0.468521,0.52906 1.078292,0.60914 1.693108,0.80084 0.720754,0.22448 1.389169,0.58707 2.090375,0.87146 0.616077,0.24971 1.269358,0.44834 1.794001,0.91119 0.339252,-0.16269 -0.174671,-1.0083 -0.262321,-1.26495 -0.214398,-0.62868 -0.373304,-1.28449 -0.528427,-1.93336 -0.342405,-1.42763 -0.751652,-2.76635 -1.23846,-4.14165 -0.479872,-1.35764 -0.821016,-2.75185 -0.720754,-4.22047 0.04666,-0.68607 0.161429,-1.36395 0.294482,-2.03489 0.143141,-0.72706 0.447712,-1.68491 0.302048,-2.43845 -0.362584,0.50951 -0.464738,1.78769 -0.619861,2.41638 -0.101523,0.41114 -0.244665,0.80715 -0.351233,1.21639 -0.0025,0.0107 -0.245927,0.94903 -0.366368,0.55113 -0.496266,-1.64392 -0.931998,-3.34082 -1.420067,-4.99798 -0.09522,-0.32223 1.502043,-0.14377 1.703829,-0.13053 0.789486,0.0523 1.558795,0.12801 2.352695,0.16773 1.725269,0.0864 3.449906,0.19801 5.175175,0.29512 3.265145,0.18349 6.531552,0.46347 9.783456,0.56184 0.208722,0.006 0.276825,0.15765 0.193588,0.36322 -0.324749,0.8002 -0.670937,1.59474 -1.000731,2.39431 -0.362584,0.87777 -0.835519,1.72842 -1.009559,2.68438 -0.07441,0.41051 -0.218181,-0.0687 -0.240882,-0.18665 -0.08134,-0.41997 -0.07756,-0.76679 -0.105938,-1.19306 -0.02964,-0.44645 -0.170256,-0.86642 -0.180976,-1.32043 -0.01072,-0.47357 0.232053,-1.06379 0.159537,-1.50394 -0.382132,0.0587 -0.467891,0.91056 -0.537886,1.23216 -0.06936,0.31592 -0.0063,0.63499 -0.04792,0.95533 -0.05927,0.45401 -0.148186,0.88533 -0.165842,1.34629 -0.06306,1.61491 -0.537885,3.24812 -1.283232,4.63476 -0.748499,1.39295 -1.410608,2.74366 -1.960474,4.24822 -0.448974,1.2309 -0.943349,2.4063 -1.48817,3.58927 0.91245,-0.61671 2.114336,-0.78381 3.162991,-0.89164 0.722646,-0.0744 1.443399,-0.17152 2.166675,-0.23584 0.591485,-0.053 1.118019,-0.0624 1.573298,-0.53726 0.903622,-0.94271 1.338723,-2.37918 1.790849,-3.61764 0.421858,-1.15459 0.599682,-2.36909 0.897316,-3.56088 0.485547,-1.94219 1.203778,-3.82889 1.981915,-5.64937 0.290067,-0.67851 0.292589,-0.91624 1.030368,-0.88975 0.522751,0.0189 0.978661,-0.0322 1.331156,-0.50762 0.160798,-0.21755 0.223856,-0.50005 0.382762,-0.71319 0.102154,-0.13746 0.516445,-0.21881 0.508248,-0.40609 -0.01577,-0.34241 -0.375826,-0.19485 -0.408616,-0.54987 -0.04792,-0.52338 -0.334839,-0.91245 -0.406725,-1.39926 -0.06999,-0.47924 -0.388437,-1.20251 -0.766155,-1.48249 -0.389068,-0.28944 -1.193689,-0.16143 -1.647076,-0.19422 -0.539777,-0.0385 -1.077662,0.0794 -1.564471,0.33736 -0.209983,0.11161 -0.409246,0.24656 -0.597159,0.3979 -0.22764,0.18413 -0.513923,0.0517 -0.764895,0.14062 -0.173409,0.0618 -0.216289,0.22701 -0.35943,0.32538 -0.207461,0.14314 -0.567523,0.0555 -0.794532,0.0511 -0.590854,-0.012 -1.181077,-0.0189 -1.771931,-0.0284 -1.015235,-0.13684 0.759219,0.012 0,0" /><path
         id="path24"
         style="fill:#6e6b6c;fill-opacity:1;fill-rule:nonzero;stroke:none"
         d="m 39.206199,124.95353 c 0.05486,0.33862 0.136206,0.67661 0.0076,1.0165 0.121072,0.0795 -0.655173,-0.005 -0.752913,-0.007 0.08324,0.22827 -0.104046,0.16143 0.1299,0.4124 0.06999,0.0757 0.231423,0.5032 0.228901,0.50699 0.02838,-0.0391 -0.756697,-0.34556 -0.910559,-0.29575 -0.252862,0.082 -0.472935,0.28377 -0.618599,0.52212 -0.0681,0.1154 -0.121072,0.23836 -0.158276,0.37016 -0.04982,0.13431 -0.0044,0.28187 -0.0681,0.3506 0.148187,0.0574 0.718862,-0.22575 0.693008,-0.0933 -0.02144,0.10783 -0.206199,0.15008 -0.288175,0.15576 0.0069,0.0473 0.01955,0.0933 0.03784,0.13683 -0.27115,0.0359 -0.302679,0.32223 -0.454018,0.52464 0.0025,0.002 0.112243,0.14756 0.0088,0.0933 -0.186021,0.66526 -0.09396,1.14261 0.306462,1.42827 -0.06306,-0.20999 -0.177193,-0.36259 -0.157645,-0.5669 0.06243,-0.66211 0.684811,-0.38465 0.588962,0.24593 -0.112243,0.73904 -0.515184,1.50961 -0.733365,2.22217 -0.481763,1.57708 -0.758588,3.36036 -0.452757,5.00807 0.275564,1.48754 0.842456,2.80734 1.81418,3.89761 0.451496,0.50636 1.012713,0.8866 1.643293,1.04992 0.285023,0.0738 0.578873,0.10405 0.871463,0.0959 0.377717,-0.0101 0.69553,-0.24088 1.083967,-0.21944 0.331686,0.0183 0.631211,0.18413 0.960374,0.22196 0.385285,0.0441 0.77057,-0.0277 1.143243,-0.13368 0.641931,-0.18287 1.252333,-0.46978 1.780759,-0.9175 1.051178,-0.89164 1.665994,-2.24234 1.744817,-3.69205 0.09648,-1.76877 -0.01829,-3.46756 -0.517707,-5.16067 -0.22827,-0.77309 -0.636886,-1.49069 -0.814079,-2.27702 -0.189805,-0.8475 0.196741,-1.15081 0.867048,-0.69427 0.179085,-0.45402 0.05045,-0.81976 -0.377718,-1.08964 -0.04414,0 -0.66274,0.0479 -0.450865,-0.1835 0.201786,-0.21945 0.815341,-0.0612 1.057483,-0.046 0.03027,-0.053 0.06117,-0.10593 0.0927,-0.1589 -0.256647,-0.1608 -0.464108,-0.30268 -0.773723,-0.42943 -0.534101,-0.21818 -0.843086,0.19107 -1.348181,0.12234 0.133683,-0.13306 0.896055,-0.70499 0.729582,-0.94777 -0.06117,-0.0889 -0.795793,0.20936 -0.947762,0.23458 -0.356909,0.0599 -0.496267,-0.11981 -0.549236,-0.51834 -0.07882,-0.58896 0.145664,-1.13378 0.318443,-1.67419 0.240882,-0.75165 0.517076,-1.4888 0.734626,-2.24928 0.171518,-0.59842 0.353756,-1.20315 0.501942,-1.80914 0.110983,-0.45591 -0.124855,-0.55428 -0.503203,-0.55491 -1.454749,-0.004 -2.90067,-0.0517 -4.348483,-0.24403 -0.70625,-0.0946 -1.403672,-0.25476 -2.109292,-0.35817 -0.360692,-0.053 -1.462946,-0.49248 -1.451596,0.20115 0.01387,0.85318 0.352494,1.89553 0.576981,2.71213 0.145664,0.52969 0.349972,1.03668 0.495006,1.56636 0.05297,0.19044 0.403571,1.15523 0.368889,1.22522 0.05486,0.33862 0.05612,-0.1135 0,0" /><path
         id="path26"
         style="fill:#9c0054;fill-opacity:1;fill-rule:nonzero;stroke:none"
         d="m 44.680899,125.30161 c 0.295743,-1.23404 0.816602,-2.40251 1.144504,-3.62962 0.166473,-0.62491 0.82606,-1.81922 -0.150709,-1.82112 -1.454749,-0.004 -2.90067,-0.0517 -4.348483,-0.24403 -0.70625,-0.0946 -1.403672,-0.25476 -2.109292,-0.35817 -0.360692,-0.053 -1.462946,-0.49248 -1.451596,0.20115 0.01261,0.78003 0.321596,1.69942 0.508878,2.45233 0.222595,0.8948 0.583287,1.73284 0.752283,2.64655 -0.203678,-0.2062 -0.406724,-0.4124 -0.610402,-0.61797 0.339252,-0.16269 -0.174671,-1.0083 -0.262321,-1.26495 -0.246557,-0.72201 -0.425012,-1.47808 -0.59716,-2.22531 -0.350603,-1.51844 -0.875877,-2.91518 -1.351334,-4.38632 -0.486178,-1.50268 -0.669677,-2.97571 -0.445821,-4.5591 0.10783,-0.76111 0.305201,-1.49637 0.435101,-2.25117 0.118549,-0.69238 0.04351,-1.50646 0.06999,-2.21208 2.345129,-0.0423 4.695303,0.28061 7.037279,0.41555 1.218281,0.07 2.435302,0.1608 3.652953,0.23017 0.610402,0.0347 1.220803,0.046 1.831205,0.0744 0.534102,0.0252 1.24918,-0.0517 1.744186,0.19863 0.04225,0.34682 -0.03468,0.68796 -0.125486,1.01649 -0.09017,0.32791 -0.346819,0.34619 -0.414291,0.71445 -0.04792,0.26106 -0.136836,0.50699 -0.192958,0.76553 -0.08639,0.39348 -0.01513,0.80399 -0.08828,1.20567 -0.1526,0.83741 -0.139358,1.67986 -0.311507,2.51475 -0.19548,0.95029 -0.416183,1.87976 -0.848761,2.73924 -0.79264,1.57645 -1.595369,3.04508 -2.208923,4.72494 -0.287545,0.78886 -0.559956,1.57582 -0.902992,2.33883 -0.113504,0.25223 -0.457171,1.26872 -0.756066,1.33115" /><path
         id="path28"
         style="fill:#6e6b6c;fill-opacity:1;fill-rule:nonzero;stroke:none"
         d="m 36.823866,139.03629 c -0.05612,0.1362 -0.969202,2.37287 -0.928214,3.27586 l 0.105937,0 -0.02144,0.13936 0.105937,0.13936 c 0,0 0.105938,-0.30268 0.105938,-0.13936 0,0.16269 0.168365,0.4887 0.168365,0.4887 l 0.233314,0 c 0,0 0.02081,0.25601 0.824169,-0.60473 -0.04414,0.0233 -2.095419,1.09154 -0.594007,-3.29919 z m 2.623215,2.57781 c -0.07315,0.0958 -0.153231,0.0656 -0.317182,0.19106 -0.16332,0.12423 -0.164581,0.0725 -0.07062,0.1318 0.09333,0.0593 -0.09396,-0.0593 -0.200524,-6.4e-4 -0.107199,0.0587 -0.221334,0.28629 -0.242143,0.3525 -0.02018,0.0662 0.0013,-0.36826 0.0013,-0.36826 -0.964788,0.52717 -2.73735,3.70277 -3.212808,1.02217 -0.474827,-2.68123 1.610503,-5.27291 1.610503,-5.27291 l 0.08071,0.029 c 0.950915,2.21839 2.913282,3.75511 2.859683,3.71097 -0.05297,-0.0448 -0.43447,0.10909 -0.508879,0.20431" /><path
         id="path30"
         style="fill:#6e6b6c;fill-opacity:1;fill-rule:nonzero;stroke:none"
         d="m 47.486352,141.88651 c 0.872723,0.77372 0.872093,0.51707 0.872093,0.51707 l 0.232053,-0.0246 c 0,0 0.139989,-0.34177 0.126117,-0.50383 -0.01387,-0.16269 0.117287,0.12801 0.117287,0.12801 l 0.09333,-0.15008 -0.03279,-0.13684 0.105307,-0.0107 c -0.03594,-0.90299 -1.136936,-3.03561 -1.203778,-3.16551 1.869671,4.21606 -0.264213,3.36478 -0.309615,3.34649 z m -2.606189,-0.65959 c -0.04919,0.0492 1.773192,-1.68302 2.530519,-3.99031 l 0.07756,-0.0372 c 0,0 2.297835,2.36531 2.0538,5.08311 -0.244665,2.71781 -2.280809,-0.2598 -3.285324,-0.68481 0,0 0.05738,0.43006 0.03153,0.36574 -0.02585,-0.0637 -0.158906,-0.27809 -0.270519,-0.32601 -0.110982,-0.0473 -0.287545,0.0902 -0.199894,0.0214 0.08891,-0.0687 0.09206,-0.017 -0.08198,-0.12359 -0.173409,-0.10783 -0.25034,-0.0694 -0.331685,-0.15702 -0.08197,-0.0877 -0.474827,-0.20115 -0.524012,-0.15134" /><path
         id="path32"
         style="fill:#9c0054;fill-opacity:1;fill-rule:nonzero;stroke:none"
         d="m 41.133884,130.58398 c 0.01009,-0.0107 0.01324,-0.0164 0.01766,-0.0189 0.157015,-0.082 0.311507,-0.17089 0.472936,-0.24341 0.199894,-0.0902 0.410508,-0.12107 0.629319,-0.0681 0.26043,0.0631 0.497528,0.17972 0.72832,0.31214 0.0038,0.003 0.0057,0.009 0.01135,0.0177 -0.01513,0.001 -0.02459,0.004 -0.03468,0.003 -0.167104,-0.006 -0.334208,-0.008 -0.500681,-0.0189 -0.109721,-0.008 -0.219442,-0.0252 -0.327902,-0.0435 -0.06873,-0.0113 -0.134944,-0.0126 -0.201155,0.0113 -0.0309,0.0114 -0.06369,0.0208 -0.09648,0.0252 -0.08261,0.009 -0.165212,0.0202 -0.248449,0.0221 -0.146925,0.004 -0.294481,0.001 -0.450234,0.001 z m -0.439515,0.0618 c 0.07756,0.0221 0.159537,0.0334 0.228901,0.0694 0.102154,0.0542 0.196111,0.12549 0.292589,0.19107 0.04477,0.0309 0.08891,0.0637 0.130531,0.099 0.158275,0.13495 0.33736,0.15071 0.519598,0.0713 0.114135,-0.0492 0.214397,-0.0612 0.329163,-0.008 0.06117,0.0284 0.134944,0.0315 0.203677,0.0422 0.107199,0.017 0.204939,-0.0151 0.293851,-0.0713 0.09396,-0.0586 0.186021,-0.12044 0.276825,-0.18413 0.133683,-0.0933 0.269888,-0.18097 0.433209,-0.21376 0.02018,-0.004 0.04099,-0.005 0.07504,-0.009 -0.07567,-0.10279 -0.141881,-0.20494 -0.219442,-0.297 -0.215028,-0.25665 -0.472305,-0.45528 -0.797054,-0.55302 -0.462216,-0.13936 -0.88029,-0.0517 -1.253594,0.25286 -0.201155,0.16458 -0.364476,0.36132 -0.49942,0.58203 -0.005,0.008 -0.0095,0.0158 -0.01324,0.024 -0.0013,0.002 -6.31e-4,0.006 -6.31e-4,0.004" /><path
         id="path34"
         style="fill:#6e6b6c;fill-opacity:1;fill-rule:nonzero;stroke:none"
         d="m 42.941758,113.51291 c -1.111713,-0.087 -2.223427,-0.17215 -3.334509,-0.26295 -0.07945,-0.006 -0.129269,0.0284 -0.172149,0.0845 -0.07504,0.099 -0.107829,0.21819 -0.122332,0.34556 -0.02144,0.18602 0.0164,0.35817 0.07378,0.53284 0.09963,0.3052 0.285653,0.54041 0.483656,0.76931 0.159537,0.18413 0.344927,0.33295 0.542929,0.46033 0.329794,0.21313 0.682289,0.37456 1.049917,0.48996 0.165212,0.0523 0.335469,0.0851 0.504464,0.11855 0.130531,0.0258 0.263583,0.0397 0.395374,0.058 0.153231,0.0208 0.305832,0.0479 0.459694,0.0593 0.178454,0.0139 0.358169,0.017 0.537254,0.0177 0.310246,0 0.620491,-0.0145 0.925062,-0.0845 0.235206,-0.0536 0.474196,-0.0971 0.697422,-0.20494 0.16269,-0.0782 0.331055,-0.14377 0.48933,-0.23205 0.174671,-0.0971 0.340514,-0.21503 0.483025,-0.36574 0.187913,-0.19863 0.366998,-0.40483 0.473566,-0.6703 0.100893,-0.24971 0.122332,-0.50384 -0.0019,-0.75418 -0.02838,-0.058 -0.06747,-0.0971 -0.138097,-0.10215 -1.115497,-0.0845 -2.230994,-0.17215 -3.346491,-0.25917" /><path
         id="path36"
         style="fill:#6e6b6c;fill-opacity:1;fill-rule:nonzero;stroke:none"
         d="m 39.867048,108.59249 c 0.136205,0.0517 0.26106,0.10404 0.389068,0.14692 0.133052,0.0441 0.265474,0.0612 0.377087,-0.0675 0.102785,-0.11918 0.219442,-0.21376 0.363845,-0.26989 0.111613,-0.0435 0.219442,-0.0353 0.331685,-0.0145 0.247818,0.0448 0.419967,0.22575 0.600313,0.39474 0.05297,0.0498 0.122963,0.0883 0.190435,0.10531 0.167735,0.0422 0.32538,0.006 0.474827,-0.0933 0.139989,-0.0927 0.256016,-0.22322 0.414292,-0.28502 0.22827,-0.0895 0.431317,-0.0473 0.614816,0.11792 0.10846,0.0971 0.20683,0.20809 0.317812,0.30079 0.182238,0.15197 0.384654,0.18539 0.594638,0.075 0.09333,-0.0498 0.176562,-0.12044 0.266105,-0.18035 0.180976,-0.12044 0.378348,-0.16269 0.585809,-0.12359 0.125486,0.0233 0.232684,0.10026 0.324118,0.19674 0.05549,0.058 0.101524,0.12675 0.15134,0.19043 0.07126,0.0921 0.154492,0.1463 0.270519,0.12044 0.105307,-0.0227 0.211244,-0.0385 0.317182,-0.0555 0.02964,-0.005 0.06054,-0.007 0.0908,-0.004 0.04288,0.003 0.06117,-0.0132 0.06432,-0.0631 0.01198,-0.21692 0.01829,-0.4351 0.04351,-0.65013 0.02207,-0.18728 -0.01009,-0.35691 -0.08639,-0.51896 -0.05234,-0.11162 -0.145664,-0.18035 -0.245296,-0.23332 -0.106568,-0.0567 -0.220703,-0.0845 -0.340513,-0.0933 -1.783282,-0.13746 -3.566563,-0.27745 -5.349845,-0.41555 -0.187913,-0.0145 -0.364476,0.0378 -0.504465,0.17846 -0.06621,0.0668 -0.119179,0.16079 -0.1526,0.25349 -0.03594,0.10089 -0.04919,0.21377 -0.05927,0.32286 -0.01955,0.22448 -0.03027,0.45023 -0.04414,0.66526" /><path
         id="path38"
         style="fill:#6e6b6c;fill-opacity:1;fill-rule:nonzero;stroke:none"
         d="m 46.532284,110.89537 c 0.0164,-0.25854 0.03279,-0.51014 0.04919,-0.76679 -2.268198,-0.17719 -4.537027,-0.35438 -6.810269,-0.53158 -0.0164,0.25287 -0.03279,0.50573 -0.04919,0.76679 0.02396,0.002 0.04666,0.004 0.06873,0.006 0.935781,0.0731 1.871562,0.1444 2.807344,0.22133 0.116027,0.009 0.218181,-0.004 0.315921,-0.0731 0.05675,-0.041 0.120441,-0.0719 0.179715,-0.10972 0.03405,-0.0221 0.0618,-0.0183 0.09206,0.007 0.0845,0.0687 0.167734,0.13936 0.254124,0.20367 0.03027,0.0227 0.06873,0.0397 0.104676,0.0423 0.975508,0.0782 1.951647,0.15386 2.927786,0.23017 0.01829,10e-4 0.0372,0.003 0.05991,0.004" /><path
         id="path40"
         style="fill:#6e6b6c;fill-opacity:1;fill-rule:nonzero;stroke:none"
         d="m 42.963198,113.32184 c 1.125586,0.0883 2.250542,0.17593 3.375497,0.26232 0.0391,0.003 0.08576,-0.008 0.117919,-0.0303 0.09585,-0.0669 0.194849,-0.13432 0.22764,-0.26863 0.01387,-0.0561 -0.01198,-0.15323 -0.0536,-0.18981 -0.09711,-0.087 -0.20683,-0.11539 -0.330424,-0.0933 -0.134944,0.024 -0.270519,0.0542 -0.407355,0.0631 -0.143142,0.009 -0.280608,-0.0208 -0.378979,-0.15765 -0.05612,-0.0776 -0.112243,-0.15638 -0.177193,-0.22512 -0.131161,-0.13872 -0.286284,-0.17404 -0.464107,-0.12359 -0.15134,0.0422 -0.279347,0.13053 -0.406094,0.2226 -0.107199,0.0782 -0.220703,0.12863 -0.351233,0.13872 -0.263583,0.0202 -0.467261,-0.10846 -0.652651,-0.29196 -0.06558,-0.0643 -0.125486,-0.1362 -0.19548,-0.19295 -0.191066,-0.1545 -0.331686,-0.15513 -0.529057,-0.0202 -0.150709,0.10341 -0.286284,0.23647 -0.459063,0.29511 -0.07693,0.0259 -0.158276,0.0322 -0.238359,0.0467 -0.09837,0.0177 -0.190436,-0.0132 -0.2825,-0.0448 -0.119811,-0.0416 -0.208092,-0.13242 -0.296373,-0.22512 -0.141881,-0.15007 -0.305201,-0.26295 -0.507617,-0.26673 -0.156384,-0.003 -0.283762,0.0826 -0.387177,0.21061 -0.09585,0.11855 -0.211244,0.19485 -0.359431,0.19485 -0.154492,0 -0.294481,-0.0668 -0.438884,-0.11602 -0.13053,-0.0442 -0.257277,-0.0687 -0.392221,-0.003 -0.08008,0.0391 -0.111613,0.13495 -0.101523,0.20305 0.02396,0.15638 0.125485,0.25475 0.23962,0.33673 0.01387,0.0107 0.03657,0.009 0.05549,0.0101 1.131262,0.0883 2.261893,0.17656 3.393154,0.26484" /><path
         id="path42"
         style="fill:#6e6b6c;fill-opacity:1;fill-rule:nonzero;stroke:none"
         d="m 43.194621,109.66195 c 1.128739,0.0876 2.257478,0.17657 3.386848,0.26233 0.03657,0.003 0.08071,-0.009 0.112243,-0.0296 0.09648,-0.0656 0.193588,-0.13305 0.226379,-0.26611 0.01324,-0.0517 -0.01261,-0.15323 -0.05045,-0.18665 -0.099,-0.0895 -0.209353,-0.12044 -0.33673,-0.0958 -0.135575,0.0259 -0.27178,0.053 -0.408616,0.0649 -0.142511,0.0126 -0.272411,-0.034 -0.370151,-0.15764 -0.05991,-0.075 -0.113504,-0.15576 -0.177823,-0.22512 -0.131792,-0.14188 -0.289437,-0.17467 -0.468522,-0.12675 -0.150708,0.041 -0.278086,0.12927 -0.404832,0.22197 -0.105307,0.0776 -0.217551,0.13053 -0.34682,0.14125 -0.264213,0.0233 -0.468521,-0.10909 -0.655803,-0.29196 -0.05864,-0.0567 -0.111613,-0.11981 -0.172149,-0.17341 -0.08197,-0.0725 -0.170257,-0.13368 -0.279347,-0.14062 -0.102785,-0.006 -0.191696,0.0435 -0.275564,0.0996 -0.113504,0.0757 -0.221964,0.16143 -0.33736,0.23395 -0.114135,0.0725 -0.237099,0.10909 -0.373934,0.11224 -0.235207,0.004 -0.4124,-0.10657 -0.571937,-0.2825 -0.139989,-0.15449 -0.310246,-0.26169 -0.513923,-0.25791 -0.150709,0.003 -0.279978,0.082 -0.378979,0.2144 -0.03027,0.041 -0.06873,0.0788 -0.110352,0.10594 -0.117288,0.075 -0.241512,0.11287 -0.377717,0.0681 -0.146926,-0.0486 -0.293851,-0.0977 -0.442037,-0.13999 -0.109721,-0.0309 -0.214398,0.004 -0.303309,0.0744 -0.05234,0.0404 -0.06243,0.11287 -0.05045,0.18098 0.02712,0.14629 0.124224,0.2352 0.22827,0.31529 0.01703,0.0126 0.04351,0.012 0.06621,0.0139 1.12937,0.0883 2.258109,0.17656 3.386848,0.26484" /><path
         id="path44"
         style="fill:#6e6b6c;fill-opacity:1;fill-rule:nonzero;stroke:none"
         d="m 39.636886,111.65585 c -0.01324,0.20683 -0.02585,0.40609 -0.03847,0.59842 0.109721,0.0359 0.213767,0.0713 0.318444,0.10531 0.07062,0.0227 0.140619,0.046 0.211875,0.0668 0.07693,0.0221 0.150708,0.003 0.212505,-0.0467 0.05549,-0.0435 0.100263,-0.10342 0.152601,-0.15197 0.0372,-0.0353 0.07693,-0.0687 0.11981,-0.0946 0.268627,-0.16395 0.53221,-0.13873 0.781289,0.0479 0.106568,0.0795 0.198633,0.18224 0.302048,0.26737 0.09522,0.0776 0.200525,0.12107 0.32601,0.11855 0.204309,-0.005 0.358801,-0.12107 0.51014,-0.24971 0.171518,-0.14567 0.3588,-0.23269 0.577612,-0.18665 0.136205,0.029 0.252232,0.11098 0.351864,0.21818 0.117918,0.12737 0.231423,0.26421 0.389068,0.33042 0.166473,0.07 0.333577,0.07 0.489961,-0.0441 0.15197,-0.11098 0.301417,-0.23016 0.484286,-0.27115 0.273041,-0.0618 0.510139,0.006 0.698052,0.24593 0.0681,0.087 0.122964,0.19043 0.223857,0.24025 0.02081,0.0101 0.04351,0.0221 0.06495,0.0202 0.100893,-0.009 0.202417,-0.0189 0.30331,-0.0334 0.09459,-0.0139 0.189174,-0.0328 0.291958,-0.0511 0.01261,-0.19044 0.02522,-0.39285 0.03847,-0.59842 -2.268829,-0.17719 -4.537027,-0.35439 -6.809639,-0.53158" /><path
         id="path46"
         style="fill:#6e6b6c;fill-opacity:1;fill-rule:nonzero;stroke:none"
         d="m 42.469453,110.74466 c -0.0164,-10e-4 -0.03216,-0.003 -0.04855,-0.004 -0.8475,-0.0656 -1.695001,-0.13242 -2.54187,-0.19801 -0.205569,-0.0158 -0.394113,0.13621 -0.448974,0.33106 -0.06432,0.22953 0.0536,0.47357 0.229532,0.56311 0.01829,0.009 0.04099,0.009 0.0618,0.0107 0.426272,0.034 0.853175,0.0649 1.279448,0.10278 0.07189,0.006 0.125485,-0.0284 0.181607,-0.0593 0.276825,-0.15513 0.553019,-0.31214 0.828582,-0.46915 0.153232,-0.0876 0.305832,-0.17657 0.458432,-0.26422 0,-0.004 0,-0.009 0,-0.0132" /><path
         id="path48"
         style="fill:#6e6b6c;fill-opacity:1;fill-rule:nonzero;stroke:none"
         d="m 43.74701,110.8569 c 0.08261,0.0643 0.165212,0.12801 0.247818,0.19233 0.296373,0.23016 0.592115,0.46096 0.888488,0.69175 0.04099,0.0322 0.08261,0.0656 0.126116,0.094 0.02522,0.0158 0.05549,0.0296 0.0845,0.0315 0.433839,0.0359 0.868309,0.0706 1.302779,0.1009 0.0391,0.003 0.0845,-0.0126 0.11918,-0.0347 0.132421,-0.0845 0.231423,-0.20178 0.236467,-0.37961 0.0076,-0.28186 -0.165842,-0.48365 -0.405463,-0.50383 -0.841194,-0.07 -1.68365,-0.13305 -2.524844,-0.19863 -0.02396,-0.002 -0.04792,-0.004 -0.07189,-0.006 -0.0013,0.004 -0.0019,0.008 -0.0032,0.012" /><path
         id="path50"
         style="fill:#6e6b6c;fill-opacity:1;fill-rule:nonzero;stroke:none"
         d="m 41.437193,111.57766 c 1.083968,0.0851 2.155324,0.16836 3.226681,0.25223 0.0019,-0.004 0.0044,-0.009 0.0063,-0.0132 -0.07504,-0.0574 -0.151339,-0.11414 -0.226378,-0.17152 -0.235206,-0.18224 -0.470413,-0.36574 -0.70625,-0.54671 -0.152601,-0.11729 -0.307093,-0.23143 -0.460324,-0.34808 -0.04351,-0.0328 -0.08387,-0.0713 -0.127377,-0.10342 -0.01198,-0.009 -0.03531,-0.0113 -0.04792,-0.004 -0.350603,0.19485 -0.700575,0.39222 -1.051178,0.58707 -0.177193,0.0984 -0.355647,0.19422 -0.533471,0.29196 -0.02459,0.0132 -0.04603,0.0322 -0.08008,0.0561" /></g><g
       transform="translate(8.9368203,0.55955302)"
       id="g4707"><path
         id="path52"
         style="fill:#9c0054;fill-opacity:1;fill-rule:nonzero;stroke:none"
         d="m 84.387063,116.40903 c 0.346338,1.94517 0.852783,3.8631 1.519333,5.75657 0.665995,1.8918 1.432055,3.71022 2.29818,5.45581 0.865571,1.74504 1.798963,3.39835 2.797398,4.9566 1.000104,1.55936 2.000207,2.9714 2.998641,4.23724 1.000104,1.26527 1.971299,2.37934 2.918033,3.33775 0.945623,0.95952 1.792292,1.71946 2.538895,2.27873 0.479204,0.34578 1.032347,0.61318 1.658317,0.79996 0.62596,0.18623 1.23915,0.30576 1.83899,0.35969 0.59984,0.0523 1.13908,0.0261 1.6194,-0.08 0.4792,-0.10674 0.7983,-0.27963 0.9584,-0.51979 0.16067,-0.24015 0.12064,-0.54647 -0.11952,-0.91949 -0.24016,-0.37358 -0.77273,-0.79942 -1.59883,-1.27918 -1.67888,-1.01288 -3.30495,-2.29818 -4.876544,-3.85809 -1.573258,-1.55825 -3.025325,-3.25048 -4.35787,-5.07613 -1.332544,-1.82564 -2.531111,-3.70354 -3.597369,-5.63593 -1.066258,-1.93238 -1.94517,-3.7647 -2.637292,-5.49584 0.532573,0.42584 1.045132,0.75828 1.538791,0.99843 0.491991,0.24016 0.96508,0.35969 1.418156,0.35969 0.480316,0 0.906152,-0.1401 1.279175,-0.41917 0.373024,-0.27962 0.712693,-0.58705 1.019561,-0.91949 0.306313,-0.33356 0.599839,-0.63931 0.878912,-0.9195 0.280741,-0.27907 0.580383,-0.41972 0.900038,-0.41972 0.506444,0 1.039017,0.11953 1.59883,0.35969 0.559257,0.24015 1.099613,0.55314 1.618844,0.93895 0.519786,0.3858 1.005662,0.79996 1.458738,1.23914 0.45308,0.44029 0.84,0.85946 1.15965,1.25973 0.31966,0.39971 0.6193,0.67266 0.90004,0.81942 0.27907,0.14677 0.50533,0.19347 0.67878,0.1401 0.17289,-0.0545 0.26017,-0.20014 0.26017,-0.4403 0,-0.23904 -0.13398,-0.5726 -0.40026,-0.99843 -0.26629,-0.42751 -0.7466,-1.02735 -1.43873,-1.79896 -0.69323,-0.77385 -1.465962,-1.54658 -2.31819,-2.31931 -0.85334,-0.77217 -1.725581,-1.44539 -2.617836,-2.01799 -0.893365,-0.57372 -1.672768,-0.85946 -2.338762,-0.85946 -0.85334,0 -1.472636,0.20013 -1.858446,0.59984 -0.386921,0.39971 -0.687119,0.83222 -0.900037,1.29863 -0.21403,0.46642 -0.386922,0.90004 -0.519231,1.29864 -0.133977,0.40026 -0.360238,0.59984 -0.679337,0.59984 -0.346894,0 -0.773842,-0.20625 -1.279175,-0.6193 -0.507556,-0.41305 -0.986761,-0.84667 -1.440393,-1.29864 -0.239046,-0.66599 -0.545359,-1.21301 -0.918938,-1.63885 -0.373024,-0.42584 -0.726034,-0.70657 -1.058475,-0.83999 -0.334109,-0.13287 -0.593724,-0.10563 -0.779402,0.08 -0.18679,0.18735 -0.227373,0.58594 -0.120635,1.19913" /><path
         id="path54"
         style="fill:#9c0054;fill-opacity:1;fill-rule:nonzero;stroke:none"
         d="m 112.24763,133.71821 c -0.50644,-0.53369 -1.05958,-0.86001 -1.65831,-0.98065 -0.59984,-0.11952 -1.08683,-0.006 -1.4593,0.34023 -0.34689,0.34578 -0.46642,0.81942 -0.35968,1.41982 0.10618,0.59984 0.41249,1.16466 0.91894,1.69834 0.50644,0.53257 1.06014,0.85945 1.65887,0.97898 0.59984,0.11952 1.08572,0.007 1.4593,-0.33967 0.34578,-0.34578 0.46642,-0.81943 0.35967,-1.41871 -0.10618,-0.59985 -0.41305,-1.16577 -0.91949,-1.69834 z m -2.87745,-10.51359 c 0.3191,0.39971 0.62597,0.67266 0.9195,0.81942 0.29185,0.14677 0.5259,0.19347 0.69879,0.1401 0.17345,-0.0545 0.25961,-0.20014 0.25961,-0.44029 0,-0.23905 -0.13397,-0.57261 -0.39915,-0.99844 -0.2674,-0.4275 -0.7466,-1.02735 -1.43872,-1.79896 -0.69323,-0.77385 -1.47375,-1.54658 -2.33876,-2.3193 -0.86613,-0.77218 -1.7456,-1.4454 -2.63896,-2.018 -0.89281,-0.57371 -1.67222,-0.85946 -2.33766,-0.85946 -0.45307,0 -0.77273,0.24572 -0.95952,0.73882 -0.18567,0.49366 -0.25961,1.15299 -0.21958,1.97908 0.0395,0.8261 0.19346,1.76505 0.45974,2.81797 0.26629,1.05347 0.64543,2.13919 1.13909,3.25826 0.49254,1.11962 1.0985,2.23147 1.81842,3.33775 0.71936,1.10517 1.53212,2.1114 2.43827,3.0181 0.24071,0.21291 0.53257,0.31298 0.87946,0.29965 0.3469,-0.0139 0.666,-0.0806 0.95953,-0.20014 0.29241,-0.11952 0.51978,-0.27351 0.67934,-0.45974 0.15954,-0.1868 0.15954,-0.34635 0,-0.47921 -0.26629,-0.24016 -0.56594,-0.52701 -0.89893,-0.85946 -0.33355,-0.33355 -0.66711,-0.6999 -0.99955,-1.09961 -0.33356,-0.39915 -0.65321,-0.81331 -0.95952,-1.23915 -0.30687,-0.42584 -0.56648,-0.83889 -0.7794,-1.23915 -0.31966,-0.61263 -0.59317,-1.22581 -0.81943,-1.83843 -0.22737,-0.61319 -0.37914,-1.17299 -0.45975,-1.67944 -0.0795,-0.50645 -0.0867,-0.93228 -0.0195,-1.27918 0.0662,-0.34634 0.21959,-0.55925 0.45975,-0.63875 0.18568,-0.0545 0.46475,0 0.83889,0.15955 0.37247,0.1601 0.7794,0.38581 1.21913,0.67933 0.44029,0.29353 0.88615,0.63264 1.33922,1.01957 0.45307,0.38581 0.84,0.77884 1.15965,1.17911" /><path
         id="path56"
         style="fill:#9c0054;fill-opacity:1;fill-rule:nonzero;stroke:none"
         d="m 114.64644,129.84065 c -0.2674,-0.58705 -0.50756,-1.15354 -0.72048,-1.6989 -0.21292,-0.54647 -0.38581,-1.08682 -0.51979,-1.6194 0.96008,1.14576 1.92571,2.3182 2.89858,3.51788 0.97286,1.19912 1.83899,2.35877 2.59837,3.47785 0.75995,1.11962 1.37147,2.17142 1.83899,3.15707 0.46531,0.98565 0.68601,1.86512 0.65988,2.63896 -0.48031,-0.10673 -0.99342,-0.4275 -1.53989,-0.95952 -0.54592,-0.53368 -1.11297,-1.21969 -1.69891,-2.05857 -0.58594,-0.83889 -1.17911,-1.81286 -1.77895,-2.91804 -0.59872,-1.10628 -1.17911,-2.2854 -1.7378,-3.53733 z m -3.71801,-13.99143 c -0.63986,0 -1.05959,0.42028 -1.25972,1.25971 -0.19958,0.83889 -0.21292,1.93851 -0.04,3.29718 0.174,1.35978 0.51423,2.8919 1.01955,4.59692 0.50645,1.70556 1.1452,3.42447 1.91905,5.15672 0.50533,1.173 1.07904,2.32487 1.71835,3.45839 0.63987,1.13241 1.31253,2.20423 2.01911,3.21712 0.70547,1.01289 1.42483,1.92571 2.15864,2.73847 0.73215,0.81276 1.4454,1.46485 2.13863,1.95851 0.69212,0.4931 1.352,0.80609 1.97908,0.94007 0.62486,0.13231 1.1919,0.0261 1.69835,-0.32077 0.66543,-0.47921 0.79274,-1.33255 0.37969,-2.55836 -0.41305,-1.2258 -1.18578,-2.66453 -2.3182,-4.31673 -1.13352,-1.65275 -2.53889,-3.45171 -4.21777,-5.39577 -1.67833,-1.94628 -3.43782,-3.87756 -5.27625,-5.79715 -0.29353,-1.35812 -0.3469,-2.38547 -0.16011,-3.07759 0.18568,-0.69323 0.45308,-1.06625 0.79997,-1.11962 0.18568,-0.0256 0.47921,0.0533 0.87947,0.24015 0.3997,0.18624 0.83888,0.44029 1.3192,0.75995 0.4792,0.31966 0.95174,0.68601 1.41927,1.0985 0.4653,0.41306 0.85834,0.81943 1.17911,1.2197 0.31965,0.39971 0.62486,0.67266 0.9195,0.81942 0.29241,0.14677 0.52479,0.19347 0.69879,0.1401 0.17289,-0.0545 0.25961,-0.20014 0.25961,-0.44029 0,-0.23905 -0.13342,-0.57261 -0.39859,-0.99844 -0.2674,-0.4275 -0.75995,-1.01956 -1.47931,-1.7795 -0.71936,-0.75939 -1.51933,-1.51879 -2.39825,-2.27873 -0.87947,-0.75883 -1.76616,-1.41815 -2.65841,-1.97797 -0.89337,-0.55981 -1.65943,-0.83999 -2.29874,-0.83999" /><path
         id="path58"
         style="fill:#9c0054;fill-opacity:1;fill-rule:nonzero;stroke:none"
         d="m 128.21378,136.83526 c 0.37302,-0.2396 0.57927,-0.57927 0.61985,-1.01845 0.0389,-0.44029 -0.1273,-0.94006 -0.50032,-1.49988 -0.24016,-0.34689 -0.53314,-0.70658 -0.87892,-1.07904 -0.34689,-0.37302 -0.71936,-0.72603 -1.11963,-1.05959 -0.39971,-0.33299 -0.81275,-0.63931 -1.23859,-0.91838 -0.4275,-0.28074 -0.82721,-0.49977 -1.20024,-0.65988 -0.37246,-0.15955 -0.64653,-0.20013 -0.81942,-0.12064 -0.17345,0.0806 -0.074,0.35969 0.30019,0.84 0.29353,0.39916 0.53258,0.77274 0.71937,1.11963 0.18568,0.34578 0.35301,0.69212 0.49978,1.03902 0.14565,0.34523 0.27962,0.68545 0.40025,1.01956 0.11953,0.33244 0.27241,0.65932 0.45975,0.97897 0.37247,0.666 0.77273,1.15966 1.19857,1.47932 0.42584,0.31909 0.94562,0.27907 1.55936,-0.12064" /><path
         id="path60"
         style="fill:#9c0054;fill-opacity:1;fill-rule:nonzero;stroke:none"
         d="m 148.26302,118.28804 c 0.3191,-0.40026 0.81943,-0.49365 1.49876,-0.27963 0.6799,0.21292 1.43205,0.63932 2.25815,1.27918 0.82611,0.63932 1.69223,1.46541 2.59839,2.4783 0.9067,1.01289 1.75949,2.13085 2.55835,3.35777 -1.73226,-0.48032 -3.1921,-1.07349 -4.37622,-1.77896 -1.18689,-0.70657 -2.13918,-1.41259 -2.85855,-2.11917 -0.71937,-0.70658 -1.21302,-1.33254 -1.47931,-1.8779 -0.26573,-0.54703 -0.33355,-0.90004 -0.19957,-1.05959 z m 15.90936,9.11378 c 0.31966,0 0.56594,-0.074 0.73883,-0.21959 0.174,-0.14676 0.25349,-0.30631 0.24015,-0.48031 -0.0139,-0.17289 -0.11285,-0.33245 -0.29964,-0.47921 -0.18734,-0.14676 -0.45308,-0.21959 -0.79886,-0.21959 -0.48031,0 -0.96619,-0.008 -1.45985,-0.0205 -0.4931,-0.0133 -0.95285,-0.0467 -1.37868,-0.10007 -0.79887,-1.33254 -1.73893,-2.59726 -2.81853,-3.79749 -1.07904,-1.19857 -2.20478,-2.27762 -3.37722,-3.23714 -1.173,-0.96007 -2.35211,-1.77283 -3.53789,-2.43883 -1.18578,-0.66654 -2.27872,-1.14575 -3.27771,-1.43927 -0.99955,-0.29242 -1.86568,-0.37247 -2.59838,-0.24016 -0.73382,0.13397 -1.21914,0.52089 -1.45874,1.15965 -0.34634,0.85334 -0.19402,1.79896 0.45975,2.83909 0.65209,1.03846 1.63163,2.07137 2.93804,3.09704 1.30475,1.02568 2.87134,1.9713 4.69699,2.83853 1.82453,0.86502 3.73746,1.5388 5.73599,2.01856 0.74549,1.11907 1.34534,2.40491 1.79841,3.85698 0.45364,1.45262 0.65988,2.84521 0.61986,4.1772 -0.0406,1.33254 -0.3797,2.50554 -1.01956,3.51787 -0.63931,1.01233 -1.69223,1.6522 -3.15819,1.91849 -0.37303,0.0533 -0.7455,0.10006 -1.11852,0.14009 -0.37358,0.04 -0.7466,0.06 -1.11907,0.06 l -0.16011,-0.20012 c -1.3331,-1.78563 -2.5917,-3.67131 -3.77748,-5.6554 -1.1869,-1.98574 -2.27928,-3.99762 -3.27771,-6.03619 -1.00011,-2.03912 -1.89348,-4.05712 -2.67899,-6.05677 -0.78552,-1.99853 -1.4454,-3.87645 -1.97798,-5.63593 -0.24015,-0.77273 -0.55313,-1.41205 -0.94006,-1.91849 -0.38581,-0.50644 -0.75327,-0.84556 -1.09849,-1.019 -0.34691,-0.17289 -0.62709,-0.16678 -0.84056,0.0195 -0.21292,0.18679 -0.26629,0.59984 -0.15955,1.2397 0.50644,2.87802 1.17911,5.55589 2.01911,8.03474 0.83889,2.47775 1.72502,4.74924 2.65842,6.81505 0.93228,2.06525 1.87123,3.9237 2.81796,5.57645 0.94563,1.6522 1.77895,3.07814 2.49887,4.2767 -1.20024,-0.31965 -2.33876,-0.74549 -3.41836,-1.27918 -1.07905,-0.53256 -2.02578,-1.13241 -2.83854,-1.7984 -0.81276,-0.66655 -1.47263,-1.38591 -1.97797,-2.15864 -0.50644,-0.77385 -0.78663,-1.54546 -0.84,-2.3182 -1.09238,0.82499 -1.6055,1.81175 -1.53879,2.95751 0.0661,1.1452 0.5726,2.27872 1.51934,3.39835 0.94562,1.11907 2.24425,2.13863 3.89701,3.05812 1.6522,0.91949 3.53121,1.56493 5.63593,1.9385 1.94573,0.31966 3.87811,0.45252 5.79715,0.39915 1.91793,-0.0533 3.57013,-0.41305 4.95548,-1.07904 1.51934,-0.77273 2.61173,-1.75894 3.27773,-2.95861 0.66654,-1.19857 1.01955,-2.51166 1.06013,-3.93704 0.04,-1.42594 -0.17955,-2.88468 -0.65988,-4.37677 -0.4792,-1.49321 -1.07904,-2.9047 -1.79895,-4.23724 0.24071,0 0.51978,0.007 0.84054,0.0205 0.31911,0.0128 0.71937,0.005 1.19857,-0.0205" /><path
         id="path62"
         style="fill:#9c0054;fill-opacity:1;fill-rule:nonzero;stroke:none"
         d="m 171.48775,129.16021 c -0.31965,0.24015 -0.72602,0.30631 -1.21969,0.20013 -0.4931,-0.10674 -0.99843,-0.3469 -1.51822,-0.71993 -0.51923,-0.37246 -1.01288,-0.86612 -1.47931,-1.47874 -0.46697,-0.61319 -0.81943,-1.29252 -1.05958,-2.03801 0.26628,-0.0272 0.65987,-0.04 1.1791,-0.04 0.5198,0 1.16633,0.14565 1.93906,0.43918 0.7455,0.29353 1.31921,0.61263 1.71946,0.95952 0.3986,0.34689 0.67268,0.69323 0.81944,1.03902 0.14565,0.34634 0.17289,0.66599 0.0789,0.95952 -0.0934,0.29352 -0.24627,0.51923 -0.45919,0.67934 z m 2.91804,-5.95559 c 0.26573,0.39971 0.53202,0.68544 0.79942,0.85945 0.26628,0.1729 0.49254,0.23293 0.67933,0.17956 0.18568,-0.0533 0.28574,-0.2068 0.3002,-0.45975 0.0128,-0.25349 -0.10007,-0.6065 -0.34023,-1.05847 -0.1601,-0.29353 -0.4325,-0.72714 -0.81942,-1.29974 -0.38582,-0.57316 -0.85334,-1.18579 -1.3987,-1.83899 -0.54647,-0.65321 -1.173,-1.28585 -1.87902,-1.89847 -0.70657,-0.61318 -1.46597,-1.11963 -2.27816,-1.51823 -0.81387,-0.40026 -1.6661,-0.64042 -2.55836,-0.71992 -0.89336,-0.08 -1.81898,0.10674 -2.7785,0.5587 -0.77272,0.37414 -1.31864,0.96619 -1.63885,1.77895 -0.31965,0.81332 -0.45252,1.73893 -0.39916,2.77905 0.0533,1.03903 0.27297,2.13809 0.65988,3.29718 0.38582,1.15965 0.88448,2.2587 1.49877,3.29773 0.58539,0.98565 1.26472,1.88568 2.03857,2.69844 0.77272,0.81276 1.57937,1.4454 2.41825,1.89847 0.83889,0.45308 1.68445,0.69323 2.53834,0.71936 0.85223,0.0261 1.66499,-0.23904 2.43772,-0.79885 0.55981,-0.39971 0.96008,-0.91394 1.20023,-1.5388 0.23905,-0.62707 0.27241,-1.29307 0.0995,-1.99854 -0.17346,-0.70657 -0.57371,-1.40648 -1.19969,-2.0986 -0.62596,-0.69323 -1.51266,-1.3192 -2.65841,-1.87901 -0.50644,-0.24016 -1.02567,-0.40638 -1.55825,-0.49978 -0.53369,-0.0934 -1.04013,-0.14676 -1.51934,-0.1601 -0.4792,-0.0139 -0.9256,0.007 -1.33865,0.06 -0.41417,0.0533 -0.76661,0.10674 -1.05959,0.15956 -0.0795,-0.42584 -0.16011,-0.88558 -0.24016,-1.37925 -0.0795,-0.4931 -0.12008,-0.96563 -0.12008,-1.41815 0,-0.45419 0.06,-0.85946 0.18068,-1.21913 0.11952,-0.35969 0.33911,-0.6193 0.65988,-0.78052 0.69212,-0.37247 1.46485,-0.43251 2.31819,-0.17901 0.85167,0.25295 1.6711,0.63875 2.45829,1.15965 0.78551,0.51924 1.4982,1.0985 2.13863,1.73837 0.63875,0.63931 1.09238,1.15854 1.35867,1.55881" /><path
         id="path64"
         style="fill:#9c0054;fill-opacity:1;fill-rule:nonzero;stroke:none"
         d="m 179.68204,129.84065 c -0.2674,-0.58705 -0.50755,-1.15354 -0.72047,-1.6989 -0.21348,-0.54647 -0.38582,-1.08682 -0.51979,-1.6194 0.95952,1.14576 1.92572,2.3182 2.89857,3.51788 0.97287,1.19912 1.83899,2.35877 2.59838,3.47785 0.75995,1.11962 1.37147,2.17142 1.839,3.15707 0.4653,0.98565 0.68544,1.86512 0.65987,2.63896 -0.48087,-0.10673 -0.99343,-0.4275 -1.54045,-0.95952 -0.54536,-0.53368 -1.11241,-1.21969 -1.69835,-2.05857 -0.58594,-0.83889 -1.17911,-1.81286 -1.77895,-2.91804 -0.59928,-1.10628 -1.17911,-2.2854 -1.73781,-3.53733 z m 6.63493,-6.63603 c 0.26573,0.39971 0.53979,0.67933 0.81942,0.83888 0.28019,0.16066 0.51257,0.2207 0.69991,0.18067 0.18568,-0.0405 0.28574,-0.19346 0.29964,-0.45974 0.0133,-0.26629 -0.11396,-0.61319 -0.38025,-1.03902 -0.29353,-0.48031 -0.63931,-0.87947 -1.03901,-1.20024 -0.39971,-0.31909 -0.82611,-0.56593 -1.27918,-0.73882 -0.45307,-0.174 -0.90616,-0.2674 -1.35979,-0.28018 -0.45307,-0.0133 -0.86612,0.0467 -1.23859,0.18012 -0.45308,-0.69324 -0.95952,-1.35311 -1.51822,-1.97908 -0.55981,-0.62597 -1.1402,-1.16577 -1.73892,-1.61829 -0.59984,-0.45418 -1.20635,-0.7933 -1.81953,-1.019 -0.61263,-0.22738 -1.21247,-0.3002 -1.79841,-0.2207 -0.64042,0.0806 -1.05959,0.54647 -1.25972,1.39981 -0.20014,0.85223 -0.21292,1.94406 -0.04,3.27771 0.174,1.33254 0.51368,2.83742 1.01957,4.51687 0.50643,1.67888 1.14519,3.38389 1.91904,5.11614 0.50533,1.173 1.07904,2.32487 1.71835,3.45839 0.63986,1.13241 1.31253,2.20423 2.0191,3.21712 0.70547,1.01289 1.42483,1.92571 2.1581,2.73847 0.7327,0.81276 1.44594,1.46485 2.13918,1.95851 0.69212,0.4931 1.352,0.80609 1.97909,0.94007 0.62485,0.13231 1.19189,0.0261 1.69833,-0.32077 0.66544,-0.47921 0.79219,-1.33255 0.37914,-2.55836 -0.4125,-1.2258 -1.18522,-2.66453 -2.31764,-4.31673 -1.13352,-1.65275 -2.53889,-3.45171 -4.21777,-5.39577 -1.67833,-1.94628 -3.43782,-3.87756 -5.27681,-5.79715 -0.29298,-1.35812 -0.37915,-2.39825 -0.25962,-3.11761 0.12064,-0.71936 0.38026,-1.14576 0.7794,-1.27918 0.58651,-0.1601 1.17245,-0.0261 1.7595,0.39971 0.58594,0.42584 1.06514,0.89225 1.43872,1.3987 -0.47921,0.55982 -0.70658,1.26638 -0.67934,2.11918 0.0261,0.85223 0.20013,1.65831 0.5198,2.41825 0.31965,0.75939 0.73881,1.38592 1.2586,1.87902 0.52034,0.49255 1.019,0.64543 1.49932,0.45974 0.40026,-0.13342 0.67322,-0.39359 0.81943,-0.7794 0.14565,-0.38692 0.18623,-0.85278 0.11952,-1.39981 -0.0661,-0.54647 -0.21292,-1.15298 -0.43862,-1.81786 -0.22737,-0.66655 -0.52701,-1.34645 -0.90004,-2.03912 0.37303,-0.24016 0.79219,-0.29353 1.25972,-0.15955 0.46475,0.13231 0.88558,0.4792 1.25861,1.03902" /><path
         id="path66"
         style="fill:#9c0054;fill-opacity:1;fill-rule:nonzero;stroke:none"
         d="m 191.59433,129.84065 c -0.2674,-0.58705 -0.50755,-1.15354 -0.72047,-1.6989 -0.21348,-0.54647 -0.38582,-1.08682 -0.51979,-1.6194 0.95952,1.14576 1.92571,2.3182 2.89857,3.51788 0.97287,1.19912 1.83899,2.35877 2.59838,3.47785 0.75995,1.11962 1.37147,2.17142 1.83899,3.15707 0.46531,0.98565 0.68545,1.86512 0.65988,2.63896 -0.48087,-0.10673 -0.99343,-0.4275 -1.54046,-0.95952 -0.54535,-0.53368 -1.1124,-1.21969 -1.69834,-2.05857 -0.58594,-0.83889 -1.17911,-1.81286 -1.77895,-2.91804 -0.59928,-1.10628 -1.17967,-2.2854 -1.73781,-3.53733 z m 6.63493,-6.63603 c 0.26572,0.39971 0.5398,0.67933 0.81942,0.83888 0.28019,0.16066 0.51257,0.2207 0.69991,0.18067 0.18568,-0.0405 0.28574,-0.19346 0.29964,-0.45974 0.0128,-0.26629 -0.11396,-0.61319 -0.38025,-1.03902 -0.29353,-0.48031 -0.63931,-0.87947 -1.03902,-1.20024 -0.3997,-0.31909 -0.8261,-0.56593 -1.27917,-0.73882 -0.45307,-0.174 -0.90616,-0.2674 -1.35979,-0.28018 -0.45307,-0.0133 -0.86613,0.0467 -1.23859,0.18012 -0.45308,-0.69324 -0.95952,-1.35311 -1.51822,-1.97908 -0.55981,-0.62597 -1.1402,-1.16577 -1.73893,-1.61829 -0.59983,-0.45418 -1.20635,-0.7933 -1.81953,-1.019 -0.61263,-0.22738 -1.21246,-0.3002 -1.7984,-0.2207 -0.64042,0.0806 -1.05959,0.54647 -1.25972,1.39981 -0.20014,0.85223 -0.21292,1.94406 -0.04,3.27771 0.174,1.33254 0.51368,2.83742 1.01956,4.51687 0.50589,1.67888 1.1452,3.38389 1.91905,5.11614 0.50533,1.173 1.07903,2.32487 1.71835,3.45839 0.63986,1.13241 1.31253,2.20423 2.0191,3.21712 0.70547,1.01289 1.42483,1.92571 2.15809,2.73847 0.73271,0.81276 1.4454,1.46485 2.13919,1.95851 0.69212,0.4931 1.352,0.80609 1.97908,0.94007 0.62486,0.13231 1.1919,0.0261 1.69834,-0.32077 0.66544,-0.47921 0.79219,-1.33255 0.37914,-2.55836 -0.4125,-1.2258 -1.18522,-2.66453 -2.31764,-4.31673 -1.13352,-1.65275 -2.53889,-3.45171 -4.21777,-5.39577 -1.67833,-1.94628 -3.43782,-3.87756 -5.27681,-5.79715 -0.29353,-1.35812 -0.37914,-2.39825 -0.25962,-3.11761 0.12063,-0.71936 0.38026,-1.14576 0.7794,-1.27918 0.5865,-0.1601 1.17245,-0.0261 1.7595,0.39971 0.58538,0.42584 1.06514,0.89225 1.43872,1.3987 -0.4792,0.55982 -0.70658,1.26638 -0.67934,2.11918 0.0261,0.85223 0.20014,1.65831 0.5198,2.41825 0.31965,0.75939 0.73881,1.38592 1.2586,1.87902 0.52034,0.49255 1.019,0.64543 1.49931,0.45974 0.40027,-0.13342 0.67268,-0.39359 0.81944,-0.7794 0.14565,-0.38692 0.18624,-0.85278 0.11952,-1.39981 -0.0661,-0.54647 -0.21292,-1.15298 -0.43862,-1.81786 -0.22737,-0.66655 -0.52757,-1.34645 -0.90004,-2.03912 0.37247,-0.24016 0.79219,-0.29353 1.25972,-0.15955 0.46475,0.13231 0.88558,0.4792 1.25861,1.03902" /><path
         id="path68"
         style="fill:#9c0054;fill-opacity:1;fill-rule:nonzero;stroke:none"
         d="m 209.26208,133.71821 c -0.50645,-0.53369 -1.05959,-0.86001 -1.65831,-0.98065 -0.59985,-0.11952 -1.08684,-0.006 -1.45986,0.34023 -0.34634,0.34578 -0.46586,0.81942 -0.35968,1.41982 0.10674,0.59984 0.41305,1.16466 0.9195,1.69834 0.50644,0.53257 1.05958,0.85945 1.65831,0.97898 0.59984,0.11952 1.08571,0.007 1.45985,-0.33967 0.34523,-0.34578 0.46586,-0.81943 0.35968,-1.41871 -0.10673,-0.59985 -0.41305,-1.16577 -0.91949,-1.69834 z m -2.87801,-10.51359 c 0.31966,0.39971 0.62597,0.67266 0.91949,0.81942 0.29242,0.14677 0.52591,0.19347 0.6988,0.1401 0.174,-0.0545 0.25961,-0.20014 0.25961,-0.44029 0,-0.23905 -0.13342,-0.57261 -0.39859,-0.99844 -0.2674,-0.4275 -0.7466,-1.02735 -1.43873,-1.79896 -0.69379,-0.77385 -1.47374,-1.54658 -2.33876,-2.3193 -0.86612,-0.77218 -1.74559,-1.4454 -2.63896,-2.018 -0.89337,-0.57371 -1.67277,-0.85946 -2.33765,-0.85946 -0.45308,0 -0.77273,0.24572 -0.95952,0.73882 -0.18623,0.49366 -0.25962,1.15299 -0.21959,1.97908 0.039,0.8261 0.19346,1.76505 0.45974,2.81797 0.26629,1.05347 0.64543,2.13919 1.13909,3.25826 0.49199,1.11962 1.0985,2.23147 1.81786,3.33775 0.71936,1.10517 1.53268,2.1114 2.43883,3.0181 0.24016,0.21291 0.53258,0.31298 0.87947,0.29965 0.34634,-0.0139 0.66599,-0.0806 0.95952,-0.20014 0.29241,-0.11952 0.51923,-0.27351 0.67934,-0.45974 0.15955,-0.1868 0.15955,-0.34635 0,-0.47921 -0.26629,-0.24016 -0.56648,-0.52701 -0.89893,-0.85946 -0.33355,-0.33355 -0.66711,-0.6999 -1.0001,-1.09961 -0.33355,-0.39915 -0.65321,-0.81331 -0.95952,-1.23915 -0.30632,-0.42584 -0.56593,-0.83889 -0.7794,-1.23915 -0.3191,-0.61263 -0.59317,-1.22581 -0.81944,-1.83843 -0.22681,-0.61319 -0.37913,-1.17299 -0.45918,-1.67944 -0.0795,-0.50645 -0.0873,-0.93228 -0.02,-1.27918 0.0667,-0.34634 0.21959,-0.55925 0.45975,-0.63875 0.18623,-0.0545 0.46531,0 0.83889,0.15955 0.37302,0.1601 0.77939,0.38581 1.21968,0.67933 0.44029,0.29353 0.88559,0.63264 1.33867,1.01957 0.45363,0.38581 0.84055,0.77884 1.15965,1.17911" /><path
         id="path70"
         style="fill:#9c0054;fill-opacity:1;fill-rule:nonzero;stroke:none"
         d="m 216.09657,129.16021 c -0.31909,0.24015 -0.72547,0.30631 -1.21913,0.20013 -0.4931,-0.10674 -0.99899,-0.3469 -1.51822,-0.71993 -0.51923,-0.37246 -1.01289,-0.86612 -1.47931,-1.47874 -0.46698,-0.61319 -0.81942,-1.29252 -1.05959,-2.03801 0.26629,-0.0272 0.65988,-0.04 1.17912,-0.04 0.51978,0 1.16632,0.14565 1.93905,0.43918 0.74549,0.29353 1.3192,0.61263 1.71947,0.95952 0.39859,0.34689 0.67266,0.69323 0.81942,1.03902 0.14565,0.34634 0.17289,0.66599 0.0789,0.95952 -0.0934,0.29352 -0.24627,0.51923 -0.45975,0.67934 z m 2.91804,-5.95559 c 0.26629,0.39971 0.53258,0.68544 0.79998,0.85945 0.26627,0.1729 0.49254,0.23293 0.67933,0.17956 0.18568,-0.0533 0.28574,-0.2068 0.3002,-0.45975 0.0128,-0.25349 -0.10007,-0.6065 -0.34023,-1.05847 -0.1601,-0.29353 -0.43251,-0.72714 -0.81943,-1.29974 -0.3858,-0.57316 -0.85333,-1.18579 -1.39869,-1.83899 -0.54703,-0.65321 -1.173,-1.28585 -1.87902,-1.89847 -0.70658,-0.61318 -1.46596,-1.11963 -2.27817,-1.51823 -0.81386,-0.40026 -1.66609,-0.64042 -2.55835,-0.71992 -0.89337,-0.08 -1.81897,0.10674 -2.7785,0.5587 -0.77272,0.37414 -1.31864,0.96619 -1.63886,1.77895 -0.31965,0.81332 -0.45251,1.73893 -0.39914,2.77905 0.0533,1.03903 0.27295,2.13809 0.65988,3.29718 0.38581,1.15965 0.88447,2.2587 1.49876,3.29773 0.58538,0.98565 1.26472,1.88568 2.03857,2.69844 0.77273,0.81276 1.57881,1.4454 2.41825,1.89847 0.83889,0.45308 1.68444,0.69323 2.53834,0.71936 0.85223,0.0261 1.66498,-0.23904 2.43772,-0.79885 0.55981,-0.39971 0.95952,-0.91394 1.20023,-1.5388 0.23905,-0.62707 0.27241,-1.29307 0.0995,-1.99854 -0.17345,-0.70657 -0.57372,-1.40648 -1.19969,-2.0986 -0.62596,-0.69323 -1.51265,-1.3192 -2.65841,-1.87901 -0.50645,-0.24016 -1.02568,-0.40638 -1.55825,-0.49978 -0.53369,-0.0934 -1.04013,-0.14676 -1.51933,-0.1601 -0.47921,-0.0139 -0.92617,0.007 -1.33866,0.06 -0.41417,0.0533 -0.76662,0.10674 -1.05959,0.15956 -0.0795,-0.42584 -0.16011,-0.88558 -0.24072,-1.37925 -0.0789,-0.4931 -0.11952,-0.96563 -0.11952,-1.41815 0,-0.45419 0.06,-0.85946 0.18067,-1.21913 0.11953,-0.35969 0.33912,-0.6193 0.65988,-0.78052 0.69213,-0.37247 1.46486,-0.43251 2.31764,-0.17901 0.85223,0.25295 1.67166,0.63875 2.45884,1.15965 0.78552,0.51924 1.49821,1.0985 2.13863,1.73837 0.63876,0.63931 1.09239,1.15854 1.35812,1.55881" /><path
         id="path72"
         style="fill:#9c0054;fill-opacity:1;fill-rule:nonzero;stroke:none"
         d="m 226.84548,136.8359 c 0.37358,-0.24016 0.58038,-0.57928 0.62042,-1.01957 0.0395,-0.44029 -0.12732,-0.93895 -0.49979,-1.49876 -0.24015,-0.34634 -0.53256,-0.70658 -0.87946,-1.07905 -0.34634,-0.37302 -0.71936,-0.72603 -1.11907,-1.05958 -0.40026,-0.33244 -0.81276,-0.64042 -1.24026,-0.91949 -0.42472,-0.27908 -0.82443,-0.49978 -1.19857,-0.65988 -0.37302,-0.15955 -0.64542,-0.19958 -0.81942,-0.11953 -0.17289,0.0795 -0.0728,0.35969 0.30019,0.83944 0.29297,0.39971 0.53313,0.77885 0.71936,1.13853 0.1868,0.35968 0.35302,0.70658 0.49978,1.04013 0.14677,0.33355 0.27907,0.66655 0.39971,0.99899 0.11951,0.33356 0.27295,0.65933 0.45863,0.97898 0.37414,0.66711 0.77385,1.15965 1.20023,1.4793 0.42584,0.32078 0.94618,0.28019 1.55825,-0.11951" /><path
         id="path74"
         style="fill:#9c0054;fill-opacity:1;fill-rule:nonzero;stroke:none"
         d="m 237.56183,123.20462 c 0.31965,0.39971 0.63263,0.67266 0.94006,0.81942 0.30576,0.14677 0.54591,0.18568 0.71936,0.11953 0.17289,-0.0661 0.26017,-0.21959 0.26017,-0.45975 0,-0.23905 -0.14676,-0.55871 -0.44029,-0.95841 -0.7466,-0.98676 -1.5727,-1.97908 -2.47774,-2.97807 -0.90671,-0.99955 -1.84677,-1.87235 -2.81797,-2.61895 -0.97397,-0.74549 -1.95962,-1.3053 -2.95862,-1.67833 -0.99954,-0.37358 -1.95295,-0.41249 -2.85799,-0.12063 -0.95951,0.29352 -1.5727,0.72603 -1.83898,1.3003 -0.26629,0.5726 -0.29964,1.13853 -0.10007,1.69834 0.20013,0.55981 0.55314,1.03902 1.05959,1.43873 0.50533,0.40026 1.05236,0.57315 1.63885,0.51978 -0.13342,-0.29353 -0.18012,-0.60651 -0.14009,-0.93895 0.04,-0.33355 0.25962,-0.60651 0.65988,-0.81943 0.45308,-0.24016 0.95952,-0.25461 1.51933,-0.0406 0.55982,0.21348 1.07905,0.69269 1.55825,1.43929 0.29353,0.47921 0.49255,1.02568 0.59985,1.63886 0.10562,0.61262 0.13285,1.23859 0.0795,1.87901 -0.0533,0.63876 -0.17957,1.2714 -0.37915,1.89847 -0.20013,0.62597 -0.43361,1.17911 -0.6999,1.65831 -0.61318,-0.69323 -1.22581,-1.39869 -1.83899,-2.11806 -0.61318,-0.71936 -1.21302,-1.43872 -1.79841,-2.15808 -0.40025,-0.50645 -0.75327,-0.81943 -1.06013,-0.94006 -0.30632,-0.11953 -0.53202,-0.1262 -0.67878,-0.0195 -0.14565,0.10618 -0.20014,0.29297 -0.16011,0.55926 0.0405,0.26629 0.19346,0.55981 0.45974,0.87947 0.7455,0.90503 1.4921,1.79229 2.2387,2.65841 0.7455,0.86613 1.45206,1.67222 2.11862,2.41771 -0.26629,0.69378 -0.27963,1.41926 -0.0406,2.17921 0.24016,0.75939 0.60651,1.44539 1.10017,2.05857 0.49199,0.61263 1.04514,1.08572 1.65832,1.41928 0.61262,0.33243 1.15965,0.40526 1.63885,0.21958 0.45308,-0.18734 0.63987,-0.65321 0.55981,-1.3987 -0.0795,-0.7466 -0.45363,-1.61272 -1.11962,-2.59893 0.64042,-1.59828 0.98565,-3.22435 1.04013,-4.87599 0.0533,-1.65331 -0.14676,-3.17264 -0.59984,-4.55689 0.34523,0.37247 0.69212,0.74549 1.03902,1.11907 0.34634,0.37303 0.71936,0.82499 1.11907,1.35868" /><path
         id="path76"
         style="fill:#9c0054;fill-opacity:1;fill-rule:nonzero;stroke:none"
         d="m 102.73526,101.94562 c 0.66488,0.58594 1.0518,1.17299 1.15854,1.76004 0.10618,0.58539 -0.0133,1.05848 -0.35968,1.41816 -0.3469,0.35968 -0.89226,0.55981 -1.63886,0.59984 -0.74549,0.04 -1.63886,-0.17956 -2.677875,-0.65988 -1.439282,-0.69323 -2.718458,-1.53212 -3.837527,-2.51777 0.106736,-0.1601 0.413049,-0.41416 0.919494,-0.75994 0.506445,-0.3469 1.112955,-0.6193 1.818975,-0.81943 0.705465,-0.20013 1.471525,-0.25295 2.297623,-0.15955 0.8261,0.0934 1.59994,0.47253 2.31931,1.13853 z m -3.558458,6.59601 c 2.319308,0.74549 4.197208,0.97897 5.636488,0.6999 1.43984,-0.28018 2.39825,-0.85945 2.87857,-1.73892 0.4792,-0.87891 0.45252,-1.97241 -0.08,-3.27772 -0.53368,-1.30641 -1.61273,-2.62561 -3.23769,-3.95816 -1.01289,-0.853338 -2.09193,-1.364786 -3.23768,-1.53879 -1.146315,-0.172891 -2.219245,-0.153434 -3.217679,0.06059 -1.000104,0.212362 -1.879016,0.539244 -2.638961,0.979534 -0.759389,0.439186 -1.259718,0.858346 -1.498765,1.258606 -1.412597,-1.518221 -2.545009,-3.171532 -3.398348,-4.957153 -0.852784,-1.78562 -1.452068,-3.490632 -1.798407,-5.116703 -0.346896,-1.625514 -0.446961,-3.051453 -0.300198,-4.276149 0.146763,-1.225807 0.525902,-2.053019 1.140196,-2.478854 0.559812,-0.373024 1.179109,-0.566485 1.858445,-0.579271 0.679337,-0.01445 1.379243,0.106181 2.098605,0.359681 0.719363,0.252944 1.438725,0.592056 2.158087,1.019004 0.719363,0.426393 1.392584,0.879469 2.019664,1.359785 0.624856,0.479205 1.184114,0.958409 1.677772,1.438726 0.493658,0.479204 0.885579,0.879468 1.179109,1.199123 0.3469,0.399707 0.66599,0.672665 0.95952,0.819428 0.29353,0.146764 0.51979,0.185678 0.67934,0.119523 0.16066,-0.06671 0.23348,-0.22626 0.2207,-0.479204 -0.0139,-0.253501 -0.15455,-0.566485 -0.41972,-0.939508 -0.82666,-1.199679 -1.81231,-2.365446 -2.958062,-3.497859 -1.14631,-1.132412 -2.366003,-2.098604 -3.657964,-2.897463 -1.292518,-0.799972 -2.61172,-1.366456 -3.957051,-1.698897 -1.346442,-0.333554 -2.632288,-0.299642 -3.856984,0.09895 -0.986761,0.320767 -1.759492,0.933393 -2.319305,1.838988 -0.559814,0.906152 -0.906152,2.012437 -1.039018,3.317741 -0.133421,1.305304 -0.07394,2.739026 0.179563,4.297275 0.252945,1.55936 0.699905,3.15152 1.339772,4.77759 0.639309,1.62496 1.464853,3.210448 2.477742,4.757022 1.012889,1.544345 2.212013,2.956945 3.597369,4.236125 -0.585942,0.85334 -0.998435,1.79951 -1.238593,2.83853 -0.240714,1.03902 -0.160106,2.07804 0.240158,3.11817 0.26573,0.71936 0.67878,1.24526 1.238593,1.57881 0.559814,0.333 1.132412,0.49255 1.719466,0.47921 0.585941,-0.0139 1.132412,-0.17901 1.638857,-0.49978 0.505332,-0.31965 0.838886,-0.77273 0.998435,-1.35811 -0.372468,-0.13398 -0.67878,-0.36024 -0.918938,-0.68045 -0.239047,-0.31966 -0.439179,-0.67934 -0.599284,-1.07904 -0.160661,-0.40027 -0.266843,-0.79386 -0.32021,-1.17967 -0.05337,-0.38581 -0.07949,-0.69879 -0.07949,-0.93895 0.74549,0.53257 1.518221,1.01289 2.318192,1.43928 0.799972,0.42584 1.638858,0.78552 2.517769,1.07904" /><path
         id="path78"
         style="fill:#9c0054;fill-opacity:1;fill-rule:nonzero;stroke:none"
         d="m 104.97284,85.237389 c 0.26629,-0.08005 0.58705,-0.06059 0.95952,0.06004 0.37303,0.119523 0.74549,0.279072 1.11963,0.479204 0.37247,0.200132 0.71936,0.44029 1.03901,0.719362 0.32022,0.280741 0.5726,0.540357 0.7594,0.779403 -0.39971,0.453076 -0.60652,1.012889 -0.6193,1.678883 -0.0139,0.66655 0.0934,1.325873 0.31965,1.979081 0.22571,0.653208 0.53369,1.265278 0.91949,1.838989 0.38582,0.572599 0.79331,0.99232 1.21915,1.259719 0.34689,0.239046 0.54035,0.49199 0.57926,0.758276 0.04,0.266287 -0.0261,0.493659 -0.19902,0.680449 -0.174,0.185678 -0.43362,0.305201 -0.77995,0.359682 -0.3469,0.05337 -0.73271,-0.02724 -1.15854,-0.240159 -0.71992,-0.373579 -1.44651,-0.933393 -2.17922,-1.678883 -0.73381,-0.746603 -1.33865,-1.612729 -1.81842,-2.598934 -0.32021,-0.693234 -0.58038,-1.378686 -0.77996,-2.058022 -0.20013,-0.679337 -0.30686,-1.306416 -0.31965,-1.879015 -0.0139,-0.573156 0.0534,-1.053472 0.20013,-1.439281 0.14565,-0.38581 0.39193,-0.619297 0.73882,-0.698794 z m 8.63457,3.757475 c 0.26629,0.399708 0.54036,0.67878 0.81944,0.838886 0.28018,0.160661 0.50644,0.220701 0.67933,0.180119 0.174,-0.04002 0.27351,-0.193461 0.29964,-0.459747 0.0261,-0.266287 -0.0934,-0.612626 -0.35967,-1.039018 -0.29353,-0.480317 -0.63876,-0.878912 -1.03903,-1.199679 -0.39971,-0.319099 -0.82554,-0.565929 -1.27917,-0.73882 -0.45308,-0.174003 -0.90615,-0.267399 -1.35923,-0.280185 -0.45308,-0.01334 -0.86613,0.0467 -1.23915,0.180119 -0.45307,-0.693234 -0.97898,-1.365899 -1.57882,-2.019107 -0.59872,-0.653208 -1.21858,-1.205239 -1.85845,-1.658315 -0.6393,-0.453632 -1.29863,-0.793856 -1.97907,-1.01956 -0.67934,-0.227372 -1.32588,-0.272958 -1.93906,-0.140093 -0.66599,0.15955 -1.19189,0.493103 -1.5777,0.999548 -0.38693,0.505332 -0.63375,1.145754 -0.74049,1.918485 -0.10618,0.772731 -0.0456,1.659427 0.18067,2.657861 0.22626,1.000104 0.63264,2.072477 1.21803,3.218231 0.93395,1.838989 1.93238,3.2388 2.99864,4.197209 1.06626,0.959521 2.09193,1.651643 3.07758,2.079147 0.69379,0.292414 1.39258,0.459747 2.09861,0.499774 0.70658,0.03891 1.31308,-0.06727 1.81953,-0.320767 0.50533,-0.252944 0.84555,-0.645425 1.01955,-1.17911 0.17234,-0.532574 0.0728,-1.225807 -0.30019,-2.078035 0.26629,-0.533685 0.23237,-1.306417 -0.10007,-2.319305 -0.33355,-1.012334 -0.79329,-2.07748 -1.37924,-3.197106 0.34579,-0.240158 0.75995,-0.293526 1.23915,-0.159549 0.48032,0.132309 0.90615,0.479204 1.27917,1.039017" /><path
         id="path80"
         style="fill:#9c0054;fill-opacity:1;fill-rule:nonzero;stroke:none"
         d="m 127.11742,88.994864 c 0.32022,0.399708 0.62041,0.672665 0.89949,0.819428 0.27962,0.146764 0.50644,0.193461 0.67933,0.140093 0.17289,-0.05448 0.25962,-0.200132 0.25962,-0.44029 0,-0.239047 -0.13342,-0.572599 -0.3986,-0.998991 -0.16066,-0.240158 -0.50756,-0.706021 -1.04013,-1.399255 -0.53368,-0.69379 -1.16632,-1.513219 -1.89847,-2.458842 -0.73382,-0.945067 -1.53879,-1.97241 -2.41826,-3.077582 -0.87891,-1.105173 -1.73225,-2.178101 -2.55835,-3.217675 -0.666,-0.824987 -1.28529,-1.59883 -1.85845,-2.318193 -0.57371,-0.719362 -1.09294,-1.352001 -1.55936,-1.899028 -0.46642,-0.54536 -0.86612,-0.965637 -1.19856,-1.259163 -0.33356,-0.292414 -0.59373,-0.413049 -0.78052,-0.359681 -0.21292,0.05393 -0.30631,0.333553 -0.27907,0.839997 0.0261,0.506445 0.15288,1.152982 0.37914,1.9385 0.22625,0.786073 0.53369,1.678327 0.91949,2.677874 0.38581,0.998991 0.81943,2.025778 1.29975,3.078138 0.4792,1.051804 0.99843,2.10472 1.55824,3.158191 0.55982,1.051804 1.13242,2.030782 1.71947,2.93749 l 1.03902,1.638858 c -0.53368,-0.613183 -1.18578,-1.332545 -1.95851,-2.158644 -0.77385,-0.825544 -1.56604,-1.606058 -2.3788,-2.338763 -0.8133,-0.732149 -1.5727,-1.331988 -2.27816,-1.798406 -0.70657,-0.466419 -1.23248,-0.646538 -1.57881,-0.539245 -0.53258,0.160106 -0.86002,0.545915 -0.97954,1.158541 -0.12063,0.613182 -0.0595,1.359784 0.17956,2.238697 0.24016,0.879468 0.61374,1.845659 1.11907,2.898576 0.50645,1.052359 1.11296,2.091376 1.81953,3.118164 0.70547,1.024563 1.47153,1.998539 2.29874,2.918033 0.82443,0.919494 1.66499,1.69834 2.51777,2.337651 0.58594,0.425835 1.13241,0.712691 1.63886,0.859454 0.50533,0.146763 0.9056,0.186234 1.19912,0.119523 0.29297,-0.06615 0.43973,-0.206246 0.43973,-0.419165 0,-0.212918 -0.21403,-0.479204 -0.63987,-0.798859 -0.53256,-0.374136 -1.07903,-0.846669 -1.63885,-1.419268 -0.55981,-0.573711 -1.09239,-1.185781 -1.59883,-1.838989 -0.50645,-0.653208 -0.9662,-1.325873 -1.37924,-2.017995 -0.41305,-0.693791 -0.75272,-1.340328 -1.01901,-1.939055 -0.26628,-0.59984 -0.42639,-1.119071 -0.47975,-1.559361 -0.054,-0.439178 0.0405,-0.739376 0.27962,-0.898925 0.10618,-0.0806 0.35969,0.04559 0.75939,0.379139 0.40026,0.332996 0.87947,0.792188 1.43929,1.379241 0.55925,0.585942 1.16576,1.245821 1.81897,1.979081 0.6521,0.732706 1.29863,1.464854 1.93905,2.19867 0.63876,0.73215 1.2247,1.418157 1.75839,2.058579 0.53256,0.638754 0.97285,1.157984 1.31919,1.558248 0.40027,0.453076 0.89226,0.799971 1.47931,1.040129 0.58594,0.239047 1.13909,0.398596 1.65832,0.479205 0.51978,0.08061 0.94006,0.08061 1.25972,0 0.31965,-0.08061 0.38581,-0.21403 0.20012,-0.400263 -0.61429,-0.638754 -1.31308,-1.458183 -2.0986,-2.458286 -0.78718,-0.998436 -1.58604,-2.058022 -2.3988,-3.177648 -0.81276,-1.119071 -1.61273,-2.245368 -2.39825,-3.377781 -0.78718,-1.133524 -1.4793,-2.158087 -2.07914,-3.077582 -0.59873,-0.919494 -1.08572,-1.672768 -1.45874,-2.258153 -0.37358,-0.587054 -0.54647,-0.893367 -0.51923,-0.919495 0.0533,-0.02724 0.23237,0.07894 0.53869,0.319099 0.30687,0.240714 0.68601,0.573155 1.14019,1.000103 0.45196,0.424724 0.94563,0.90504 1.47819,1.438725 0.53369,0.532574 1.04514,1.058475 1.53991,1.578262 0.49255,0.520343 0.94562,1.006218 1.35867,1.459294 0.4125,0.453632 0.72604,0.813314 0.93895,1.0796" /><path
         id="path82"
         style="fill:#9c0054;fill-opacity:1;fill-rule:nonzero;stroke:none"
         d="m 131.67432,85.237389 c 0.26628,-0.08005 0.58649,-0.06059 0.95951,0.06004 0.37247,0.119523 0.7455,0.279072 1.11908,0.479204 0.37302,0.200132 0.71991,0.44029 1.03902,0.719362 0.32076,0.280741 0.57315,0.540357 0.75994,0.779403 -0.40027,0.453076 -0.60651,1.012889 -0.6193,1.678883 -0.0145,0.66655 0.0934,1.325873 0.3191,1.979081 0.22626,0.653208 0.53368,1.265278 0.9195,1.838989 0.38581,0.572599 0.79329,0.99232 1.21969,1.259719 0.34634,0.239046 0.53979,0.49199 0.57926,0.758276 0.04,0.266287 -0.0261,0.493659 -0.19901,0.680449 -0.17401,0.185678 -0.43362,0.305201 -0.78052,0.359682 -0.34634,0.05337 -0.73214,-0.02724 -1.15854,-0.240159 -0.71936,-0.373579 -1.44651,-0.933393 -2.17865,-1.678883 -0.73382,-0.746603 -1.33922,-1.612729 -1.81842,-2.598934 -0.32077,-0.693234 -0.58039,-1.378686 -0.78052,-2.058022 -0.19958,-0.679337 -0.30631,-1.306416 -0.3191,-1.879015 -0.0144,-0.573156 0.0528,-1.053472 0.19958,-1.439281 0.14565,-0.38581 0.39248,-0.619297 0.73938,-0.698794 z m 8.63457,3.757475 c 0.26628,0.399708 0.5398,0.67878 0.81943,0.838886 0.28018,0.160661 0.50644,0.220701 0.67878,0.180119 0.174,-0.04002 0.27407,-0.193461 0.30019,-0.459747 0.0261,-0.266287 -0.0934,-0.612626 -0.35967,-1.039018 -0.29353,-0.480317 -0.63932,-0.878912 -1.03903,-1.199679 -0.3997,-0.319099 -0.82609,-0.565929 -1.27917,-0.73882 -0.45308,-0.174003 -0.90615,-0.267399 -1.35978,-0.280185 -0.45308,-0.01334 -0.86613,0.0467 -1.2386,0.180119 -0.45307,-0.693234 -0.97953,-1.365899 -1.57937,-2.019107 -0.59873,-0.653208 -1.21803,-1.205239 -1.85845,-1.658315 -0.63875,-0.453632 -1.29863,-0.793856 -1.97907,-1.01956 -0.67879,-0.227372 -1.32588,-0.272958 -1.93851,-0.140093 -0.66599,0.15955 -1.19245,0.493103 -1.57825,0.999548 -0.38693,0.505332 -0.63321,1.145754 -0.73994,1.918485 -0.10674,0.772731 -0.0456,1.659427 0.18067,2.657861 0.22571,1.000104 0.63209,2.072477 1.21803,3.218231 0.93339,1.838989 1.93238,3.2388 2.99864,4.197209 1.06571,0.959521 2.09194,1.651643 3.07759,2.079147 0.69323,0.292414 1.39202,0.459747 2.0986,0.499774 0.70658,0.03891 1.31308,-0.06727 1.81953,-0.320767 0.50533,-0.252944 0.845,-0.645425 1.019,-1.17911 0.17289,-0.532574 0.0728,-1.225807 -0.29964,-2.078035 0.26629,-0.533685 0.23237,-1.306417 -0.10006,-2.319305 -0.33355,-1.012334 -0.7933,-2.07748 -1.37924,-3.197106 0.34578,-0.240158 0.75994,-0.293526 1.23914,-0.159549 0.48032,0.132309 0.90616,0.479204 1.27918,1.039017" /><path
         id="path84"
         style="fill:#9c0054;fill-opacity:1;fill-rule:nonzero;stroke:none"
         d="m 152.62088,104.7041 c -0.69323,-0.15955 -1.4932,-0.71936 -2.39879,-1.67889 0.31965,0.0261 0.61984,0.0467 0.90003,0.0595 0.27963,0.0144 0.56538,0.0206 0.8589,0.0206 0.18679,0.31966 0.32577,0.61319 0.42028,0.87947 0.0923,0.26629 0.16622,0.50645 0.21958,0.71936 z m -7.03462,-9.073755 c -0.13398,-0.29297 -0.24794,-0.533129 -0.34023,-0.719363 -0.0934,-0.18679 -0.18068,-0.359681 -0.25962,-0.519231 -0.0806,-0.161217 -0.15454,-0.333552 -0.2207,-0.520898 -0.0667,-0.185678 -0.13898,-0.41305 -0.21959,-0.678781 1.33255,1.464854 2.54502,2.904692 3.6374,4.316732 1.09239,1.412597 2.01188,2.691776 2.75848,3.838086 -0.31965,0.0261 -0.6532,0.0456 -0.99898,0.06 -0.34691,0.0128 -0.69324,0.0195 -1.04014,0.0195 -1.17243,-1.5727 -2.27761,-3.505084 -3.31662,-5.796037 z m -1.91961,6.955695 c 0.61319,0.0534 1.23916,0.10006 1.87902,0.13898 0.63931,0.0406 1.27918,0.0873 1.91849,0.14009 0.71936,0.96008 1.45206,1.83232 2.19866,2.61839 0.7455,0.78552 1.47264,1.41927 2.17867,1.89847 0.70546,0.48032 1.37145,0.78052 1.99854,0.90004 0.62596,0.11952 1.17966,0.006 1.65887,-0.34022 0.34633,-0.23905 0.3858,-0.77941 0.12063,-1.61829 -0.2674,-0.84 -0.75995,-1.87235 -1.47931,-3.09871 l 3.75692,0.16011 c 0.34689,0.0261 0.51978,-0.11953 0.51978,-0.43918 0,-0.32077 -0.1134,-0.65988 -0.33911,-1.01956 -0.22737,-0.35968 -0.53368,-0.67378 -0.91949,-0.94007 -0.38692,-0.26628 -0.78051,-0.34522 -1.17911,-0.23904 -0.29353,0.0534 -0.70658,0.12619 -1.24027,0.21959 -0.53256,0.0934 -1.15854,0.18067 -1.8779,0.25961 -1.09349,-1.598272 -2.39824,-3.311067 -3.91758,-5.136157 -1.51933,-1.825648 -3.15875,-3.591811 -4.91712,-5.296822 -0.21404,-0.772731 -0.34634,-1.472637 -0.39971,-2.098605 -0.0533,-0.625967 -0.0533,-1.158541 0,-1.59883 0.0533,-0.439734 0.15343,-0.778847 0.30019,-1.019004 0.14622,-0.240159 0.29965,-0.374136 0.45975,-0.400264 0.18569,-0.02613 0.48532,0.05337 0.89948,0.240157 0.41305,0.186235 0.85891,0.440291 1.33922,0.759946 0.4792,0.319655 0.95174,0.685451 1.41927,1.098501 0.46475,0.413049 0.85834,0.819429 1.17911,1.219692 0.31966,0.399708 0.6193,0.672665 0.89892,0.819428 0.28019,0.146764 0.50645,0.193461 0.67878,0.140093 0.17401,-0.05448 0.26129,-0.200132 0.26129,-0.44029 0,-0.239047 -0.13397,-0.572599 -0.40026,-0.998991 -0.2674,-0.426948 -0.75328,-1.019004 -1.4593,-1.77895 -0.70657,-0.759389 -1.49876,-1.519333 -2.37823,-2.278722 -0.87892,-0.758834 -1.76561,-1.418156 -2.65787,-1.97797 -0.89336,-0.559813 -1.65998,-0.839998 -2.29873,-0.839998 -0.64042,0 -1.05958,0.420277 -1.25972,1.259163 -0.20013,0.839441 -0.21291,1.939055 -0.04,3.297727 0.174,1.359229 0.50755,2.891905 0.99954,4.596917 0.49255,1.705011 1.1263,3.424477 1.89903,5.156729 0.39971,0.932836 0.85278,1.851775 1.35923,2.758483 0.50533,0.905041 1.03902,1.784507 1.59883,2.638407 -0.58705,-0.0539 -1.15965,-0.1073 -1.71946,-0.16066 -0.55982,-0.0534 -1.10518,-0.14677 -1.63886,-0.27908 -0.21292,-0.0545 -0.36636,0 -0.45975,0.15955 -0.0934,0.15955 -0.11285,0.34579 -0.0595,0.55982 0.0533,0.21291 0.17289,0.41916 0.35968,0.61929 0.18568,0.20013 0.44029,0.31299 0.75939,0.34023" /><path
         id="path86"
         style="fill:#9c0054;fill-opacity:1;fill-rule:nonzero;stroke:none"
         d="m 158.93616,94.950453 c -0.31966,0.240158 -0.72604,0.306312 -1.21914,0.199576 -0.49366,-0.106181 -0.99899,-0.34634 -1.51822,-0.719363 -0.51978,-0.372467 -1.01289,-0.866126 -1.47931,-1.478751 -0.46752,-0.613182 -0.81943,-1.292518 -1.05958,-2.038009 0.26629,-0.02724 0.65988,-0.04002 1.17911,-0.04002 0.51922,0 1.16632,0.145652 1.93905,0.438622 0.74549,0.293527 1.3192,0.613182 1.71891,0.960077 0.39916,0.346339 0.67266,0.693234 0.81942,1.039017 0.14566,0.34634 0.1729,0.665995 0.0795,0.959521 -0.0934,0.293527 -0.24683,0.519231 -0.45974,0.679337 z m 2.91803,-5.955589 c 0.26628,0.399708 0.53257,0.685451 0.79997,0.859455 0.26629,0.172892 0.49199,0.232375 0.67934,0.179563 0.18567,-0.05337 0.28574,-0.206803 0.29964,-0.459747 0.0133,-0.253501 -0.10006,-0.606511 -0.34022,-1.059031 -0.15955,-0.292971 -0.43252,-0.72659 -0.81943,-1.299746 -0.38581,-0.572598 -0.85279,-1.185224 -1.3987,-1.838432 -0.54647,-0.653208 -1.17244,-1.285847 -1.87902,-1.899028 -0.70602,-0.612626 -1.46596,-1.119071 -2.27761,-1.518223 -0.81387,-0.399707 -1.6661,-0.639866 -2.55835,-0.719362 -0.89336,-0.08005 -1.81953,0.106737 -2.77905,0.558701 -0.77273,0.374135 -1.31809,0.966192 -1.63886,1.778949 -0.31966,0.813314 -0.45197,1.738923 -0.39859,2.779053 0.0528,1.039017 0.27239,2.137518 0.65932,3.297171 0.38581,1.159653 0.88502,2.25871 1.49876,3.297728 0.58594,0.985649 1.26528,1.88513 2.03912,2.698443 0.77274,0.812758 1.57882,1.445397 2.41771,1.898473 0.83944,0.453076 1.68444,0.693234 2.53889,0.719362 0.85223,0.02613 1.66499,-0.239046 2.43771,-0.798859 0.55982,-0.399708 0.95952,-0.913936 1.19969,-1.538791 0.23905,-0.62708 0.27295,-1.293074 0.10006,-1.998539 -0.174,-0.706576 -0.57371,-1.406482 -1.19967,-2.098604 -0.62598,-0.693234 -1.51267,-1.319202 -2.65843,-1.879015 -0.50644,-0.240158 -1.02567,-0.406379 -1.55825,-0.499774 -0.53367,-0.09395 -1.04012,-0.146763 -1.51932,-0.160105 -0.47921,-0.0139 -0.92617,0.0067 -1.33922,0.06004 -0.41416,0.05282 -0.76606,0.106182 -1.05959,0.15955 -0.0795,-0.425836 -0.15954,-0.885583 -0.24016,-1.379241 -0.0795,-0.493103 -0.11952,-0.966192 -0.11952,-1.418156 0,-0.454188 0.06,-0.859456 0.18068,-1.219137 0.11952,-0.359681 0.33855,-0.619853 0.65931,-0.780514 0.69269,-0.373024 1.46486,-0.432507 2.31821,-0.179563 0.85221,0.253501 1.67165,0.639311 2.45827,1.159653 0.78608,0.519787 1.49877,1.099057 2.13864,1.738923 0.6393,0.63931 1.09239,1.158541 1.35867,1.558805" /><path
         id="path88"
         style="fill:#9c0054;fill-opacity:1;fill-rule:nonzero;stroke:none"
         d="m 193.03306,101.38636 c 0.66488,0.58538 1.0518,1.20524 1.15854,1.85956 0.10673,0.65209 -0.0128,1.19189 -0.35968,1.61773 -0.3469,0.42639 -0.89337,0.686 -1.63887,0.7794 -0.7466,0.0934 -1.63885,-0.099 -2.67786,-0.57927 -1.43873,-0.69323 -2.71791,-1.53212 -3.83753,-2.51777 0.42584,-0.66655 0.93895,-1.20635 1.53879,-1.6194 0.59983,-0.41305 1.23247,-0.67266 1.89847,-0.7794 0.66655,-0.10674 1.33922,-0.0595 2.01855,0.14009 0.68045,0.20013 1.31253,0.56537 1.89959,1.09906 z m -3.5579,7.15527 c 2.31764,0.74549 4.19721,0.95285 5.63593,0.61929 1.43872,-0.33355 2.39825,-0.97898 2.87746,-1.9385 0.48087,-0.95896 0.45362,-2.11806 -0.079,-3.47784 -0.53367,-1.35867 -1.61272,-2.70512 -3.23768,-4.037662 -0.88003,-0.719362 -1.81898,-1.218024 -2.81797,-1.498208 -1.0001,-0.279629 -1.98575,-0.360237 -2.95806,-0.240714 -0.97398,0.120634 -1.87901,0.440289 -2.71846,0.960076 -0.83999,0.519231 -1.5399,1.219138 -2.0986,2.098608 -1.41259,-1.518226 -2.54501,-3.171536 -3.39835,-4.957157 -0.85278,-1.78562 -1.45262,-3.490632 -1.79841,-5.116703 -0.34689,-1.625515 -0.44695,-3.051454 -0.30019,-4.276149 0.14676,-1.225808 0.52646,-2.053019 1.13908,-2.478855 0.666,-0.453632 1.35979,-0.506444 2.07915,-0.160106 0.71936,0.346896 1.43206,0.906709 2.13863,1.67944 0.70546,0.772731 1.37925,1.651643 2.01799,2.638404 0.64043,0.984537 1.22637,1.904032 1.76005,2.758484 0.34523,0.851672 0.66488,1.624403 0.95841,2.318193 0.29353,0.692122 0.54647,1.185225 0.75939,1.478751 0.26629,0.319655 0.64042,0.532573 1.11962,0.63931 0.48032,0.106181 0.93896,0.140092 1.37925,0.100066 0.43973,-0.04058 0.79942,-0.140648 1.07904,-0.300197 0.28019,-0.15955 0.35301,-0.359682 0.21959,-0.598728 -0.18624,-0.346895 -0.50644,-0.900037 -0.95841,-1.659426 -0.45474,-0.759946 -0.97397,-1.598831 -1.55991,-2.518326 -0.58594,-0.919494 -1.1919,-1.872344 -1.81787,-2.857993 -0.62707,-0.985649 -1.19356,-1.885686 -1.7,-2.698444 -0.50645,-0.813313 -0.92561,-1.492649 -1.25861,-2.038008 -0.33356,-0.546472 -0.48699,-0.833327 -0.45975,-0.859455 0.0533,-0.02724 0.23293,0.07894 0.53924,0.319099 0.30631,0.240714 0.68601,0.573155 1.1402,1.000103 0.45197,0.424724 0.94507,0.90504 1.47875,1.438725 0.53258,0.532574 1.04569,1.058475 1.53935,1.578262 0.49199,0.520343 0.94506,1.006218 1.35812,1.459294 0.41305,0.453632 0.72603,0.813314 0.94006,1.0796 0.31965,0.399708 0.61985,0.672665 0.89893,0.819428 0.28018,0.146764 0.50644,0.193461 0.67933,0.140093 0.17401,-0.05448 0.26073,-0.200132 0.26073,-0.44029 0,-0.239047 -0.13342,-0.572599 -0.39971,-0.998991 -0.16011,-0.240158 -0.50645,-0.706021 -1.04013,-1.399255 -0.53257,-0.69379 -1.16632,-1.518222 -1.89903,-2.478299 -0.73214,-0.959521 -1.53879,-1.985196 -2.4177,-3.077582 -0.87947,-1.092387 -1.73225,-2.158644 -2.55836,-3.198218 -1.30641,-1.652199 -2.31263,-2.804069 -3.01809,-3.457277 -0.70657,-0.653208 -1.23248,-0.912823 -1.57938,-0.780514 -0.26628,0.08061 -0.353,0.433619 -0.25961,1.059588 0.0934,0.627079 0.32632,1.433721 0.6999,2.418259 0.37303,0.98676 0.87947,2.112502 1.51934,3.37778 0.63931,1.266389 1.37146,2.592262 2.19755,3.977619 -0.61262,-0.772731 -1.23247,-1.479307 -1.85844,-2.118061 -0.62597,-0.640422 -1.26583,-1.166324 -1.91793,-1.579374 -0.65432,-0.412494 -1.31976,-0.692122 -1.99854,-0.838885 -0.68045,-0.146764 -1.36645,-0.113964 -2.05969,0.09895 -0.95841,0.294639 -1.69222,0.913935 -2.19866,1.859559 -0.50645,0.945622 -0.79887,2.090821 -0.87892,3.437263 -0.0795,1.345886 0.04,2.824637 0.35969,4.437367 0.31909,1.612172 0.82554,3.251029 1.51932,4.91657 0.69212,1.664986 1.55826,3.291057 2.59839,4.876546 1.03901,1.58549 2.22479,3.0181 3.55678,4.29728 -0.39971,1.19968 -0.58538,2.23202 -0.55925,3.0987 0.0261,0.86502 0.15288,1.59161 0.38024,2.17755 0.22571,0.58594 0.49866,1.04013 0.81943,1.35978 0.31966,0.31966 0.58594,0.53258 0.79886,0.63876 0.63987,0.29352 1.27918,0.32076 1.91905,0.0806 0.6393,-0.24015 1.05236,-0.81275 1.23914,-1.71946 -0.37413,-0.0534 -0.78607,-0.41917 -1.23914,-1.0985 -0.45308,-0.68045 -0.77385,-1.52601 -0.95953,-2.5389 1.4126,0.95952 2.87801,1.69223 4.39735,2.19867" /><path
         id="path90"
         style="fill:#9c0054;fill-opacity:1;fill-rule:nonzero;stroke:none"
         d="m 203.54554,88.994864 c 0.31965,0.399708 0.6193,0.672665 0.89892,0.819428 0.28018,0.146764 0.50645,0.193461 0.68045,0.140093 0.17234,-0.05448 0.25961,-0.200132 0.25961,-0.44029 0,-0.239047 -0.13397,-0.572599 -0.40026,-0.998991 -0.26629,-0.426948 -0.7466,-1.026787 -1.43872,-1.798407 -0.69324,-0.773843 -1.46597,-1.546574 -2.31931,-2.319305 -0.85278,-0.772731 -1.72447,-1.445396 -2.61784,-2.017995 -0.89336,-0.573712 -1.67276,-0.859456 -2.33765,-0.859456 -0.61429,0 -1.02734,0.359682 -1.24025,1.079044 -0.21293,0.719363 -0.15956,1.678884 0.16065,2.877451 0.31966,1.200235 0.92506,2.584479 1.81842,4.158294 0.89226,1.571591 2.12473,3.223234 3.69743,4.956042 -0.34689,-0.05337 -0.69378,-0.06671 -1.03901,-0.03947 -0.34689,0.02613 -0.70658,0.07949 -1.07905,0.160105 -0.45362,-0.879467 -1.01288,-1.879571 -1.67943,-2.998641 -0.666,-1.119626 -1.3987,-2.185328 -2.19868,-3.197661 -0.3997,-0.506445 -0.7466,-0.819429 -1.03845,-0.940064 -0.29353,-0.119523 -0.51312,-0.125638 -0.65988,-0.01946 -0.14676,0.106737 -0.20681,0.293526 -0.18068,0.559813 0.0272,0.266286 0.174,0.559813 0.44029,0.879468 0.93228,1.11907 1.72503,2.218127 2.37768,3.298283 0.65321,1.079045 1.18078,2.031338 1.57937,2.856882 -0.74549,0.400263 -1.15854,0.946735 -1.23915,1.638856 -0.0789,0.693791 0.034,1.353114 0.34022,1.979082 0.30576,0.625968 0.7455,1.132412 1.31976,1.519335 0.5726,0.38581 1.13853,0.47309 1.69835,0.25962 0.40026,-0.13342 0.67934,-0.33356 0.83888,-0.599846 0.16011,-0.266286 0.24016,-0.565928 0.24016,-0.898369 0,-0.334109 -0.0673,-0.687119 -0.19958,-1.059586 -0.13398,-0.374136 -0.29352,-0.733817 -0.4792,-1.079601 0.15955,-0.186789 0.36468,-0.29297 0.6193,-0.319098 0.25183,-0.02724 0.51923,-0.02112 0.79885,0.01946 0.28019,0.04002 0.55315,0.112852 0.81943,0.219589 0.26629,0.106181 0.48032,0.199576 0.63987,0.280184 0.0795,0.02613 0.20013,0 0.35968,-0.0806 0.16011,-0.07894 0.31298,-0.186789 0.45975,-0.319099 0.14565,-0.133977 0.25962,-0.274069 0.33911,-0.41972 0.0806,-0.146764 0.0806,-0.259616 0,-0.340225 -0.37247,-0.373579 -0.77273,-0.859454 -1.19856,-1.458182 -0.42584,-0.59984 -0.84668,-1.246932 -1.25973,-1.939055 -0.41304,-0.693234 -0.79219,-1.39314 -1.13908,-2.098605 -0.34634,-0.706575 -0.63876,-1.365899 -0.87891,-1.97908 -0.24016,-0.612626 -0.40026,-1.146311 -0.47921,-1.598831 -0.0806,-0.454188 -0.0405,-0.759389 0.11953,-0.918938 0.13231,-0.133978 0.38581,-0.127306 0.75939,0.01946 0.37302,0.146763 0.79219,0.38025 1.25861,0.699905 0.46641,0.319655 0.93228,0.685452 1.39981,1.098501 0.4653,0.41305 0.85945,0.819429 1.17911,1.219693" /><path
         id="path92"
         style="fill:#9c0054;fill-opacity:1;fill-rule:nonzero;stroke:none"
         d="m 214.57725,99.508454 c -0.50645,-0.533684 -1.05959,-0.86001 -1.65832,-0.980645 -0.59984,-0.119524 -1.08683,-0.0061 -1.4593,0.340223 -0.34689,0.345784 -0.46641,0.819429 -0.35967,1.419268 0.10618,0.59984 0.41305,1.16521 0.91949,1.6989 0.50645,0.53257 1.05958,0.85945 1.65831,0.97898 0.59985,0.11952 1.08572,0.007 1.4593,-0.34023 0.34578,-0.34523 0.46642,-0.81943 0.35968,-1.41815 -0.10618,-0.59984 -0.41249,-1.16633 -0.91949,-1.698346 z m -2.87746,-10.51359 c 0.31966,0.399708 0.62597,0.672665 0.9195,0.819428 0.29241,0.146764 0.5259,0.193461 0.69879,0.140093 0.174,-0.05448 0.25961,-0.200132 0.25961,-0.44029 0,-0.239047 -0.13397,-0.572599 -0.39859,-0.998991 -0.2674,-0.426948 -0.74716,-1.026787 -1.43928,-1.798407 -0.69324,-0.773843 -1.47374,-1.546574 -2.33876,-2.319305 -0.86613,-0.772731 -1.74504,-1.445396 -2.6384,-2.017995 -0.89338,-0.573712 -1.67278,-0.859456 -2.33765,-0.859456 -0.45364,0 -0.77274,0.245162 -0.96009,0.738821 -0.18567,0.493102 -0.25961,1.152981 -0.21958,1.97908 0.0395,0.8261 0.19346,1.765051 0.45975,2.817967 0.26628,1.052916 0.64598,2.138631 1.13907,3.258257 0.49256,1.119071 1.09906,2.230914 1.81842,3.337754 0.71937,1.105172 1.53212,2.11139 2.43884,3.017542 0.24015,0.213474 0.53257,0.312984 0.87891,0.300198 0.34689,-0.01446 0.66654,-0.08061 0.95952,-0.200131 0.29242,-0.119524 0.51978,-0.273514 0.67934,-0.459748 0.1601,-0.186789 0.1601,-0.346339 0,-0.479204 -0.26629,-0.240158 -0.56593,-0.527014 -0.89893,-0.859455 -0.33356,-0.333553 -0.66711,-0.699906 -0.99954,-1.100169 -0.33356,-0.398596 -0.65322,-0.812757 -0.95953,-1.238593 -0.30687,-0.426392 -0.56649,-0.838886 -0.7794,-1.23915 -0.31965,-0.612626 -0.59317,-1.225807 -0.81942,-1.838988 -0.22738,-0.612626 -0.37915,-1.17244 -0.45975,-1.678884 -0.0795,-0.506445 -0.0867,-0.932281 -0.0195,-1.279176 0.0661,-0.346895 0.21959,-0.559813 0.45975,-0.638754 0.18569,-0.05448 0.46531,0 0.83889,0.159549 0.37303,0.15955 0.7794,0.38581 1.21913,0.679337 0.44029,0.293526 0.88615,0.632638 1.33922,1.01956 0.45308,0.38581 0.84,0.778847 1.15965,1.17911" /><path
         id="path94"
         style="fill:#9c0054;fill-opacity:1;fill-rule:nonzero;stroke:none"
         d="m 216.97604,95.630345 c -0.2674,-0.586497 -0.50755,-1.152981 -0.72047,-1.698341 -0.21291,-0.547026 -0.38581,-1.086827 -0.51978,-1.6194 0.96007,1.145199 1.92626,2.318194 2.89857,3.517873 0.97286,1.198567 1.83899,2.358219 2.59838,3.477846 0.75994,1.119067 1.37201,2.171427 1.83899,3.157077 0.4653,0.98565 0.686,1.86512 0.65988,2.63896 -0.48032,-0.10673 -0.99344,-0.4275 -1.53991,-0.96007 -0.54591,-0.53369 -1.11295,-1.21914 -1.69889,-2.05803 -0.58595,-0.83944 -1.17912,-1.81286 -1.77895,-2.918029 -0.59873,-1.106284 -1.17911,-2.285395 -1.73782,-3.537886 z m -3.718,-13.990881 c -0.63987,0 -1.05959,0.420277 -1.25971,1.259163 -0.19958,0.839441 -0.21293,1.939055 -0.04,3.297727 0.17401,1.359229 0.51423,2.891905 1.01957,4.596917 0.50644,1.705011 1.14519,3.424477 1.91904,5.156729 0.50533,1.172995 1.07904,2.324864 1.71836,3.458389 0.63985,1.132411 1.31308,2.203671 2.0191,3.216561 0.70546,1.01289 1.42482,1.92571 2.15864,2.73903 0.73215,0.81275 1.4454,1.46485 2.13863,1.95851 0.69212,0.4931 1.352,0.80609 1.97909,0.94006 0.62485,0.13231 1.19189,0.0256 1.69833,-0.32076 0.66545,-0.47921 0.79275,-1.33255 0.3797,-2.55836 -0.41305,-1.2258 -1.18578,-2.66508 -2.31819,-4.31673 -1.13353,-1.653308 -2.53889,-3.451715 -4.21778,-5.395773 -1.67833,-1.946837 -3.43782,-3.877553 -5.27626,-5.797151 -0.29352,-1.358672 -0.34689,-2.385459 -0.1601,-3.077582 0.18623,-0.693234 0.45308,-1.066258 0.79997,-1.119626 0.18568,-0.02613 0.4792,0.05337 0.87947,0.240157 0.39971,0.186235 0.83889,0.440291 1.3192,0.759946 0.47921,0.319655 0.95174,0.685451 1.41927,1.098501 0.46531,0.413049 0.85835,0.819429 1.17911,1.219692 0.31965,0.399708 0.62485,0.672665 0.91949,0.819428 0.29242,0.146764 0.5248,0.193461 0.6988,0.140093 0.17289,-0.05448 0.25961,-0.200132 0.25961,-0.44029 0,-0.239047 -0.13342,-0.572599 -0.39859,-0.998991 -0.2674,-0.426948 -0.75995,-1.019004 -1.47931,-1.77895 -0.71936,-0.759389 -1.51934,-1.519333 -2.39824,-2.278722 -0.87947,-0.758834 -1.76617,-1.418156 -2.65842,-1.97797 -0.89337,-0.559813 -1.65943,-0.839998 -2.29874,-0.839998" /><path
         id="path96"
         style="fill:#9c0054;fill-opacity:1;fill-rule:nonzero;stroke:none"
         d="m 225.88969,95.630345 c -0.2674,-0.586497 -0.50755,-1.152981 -0.72047,-1.698341 -0.21291,-0.547026 -0.38581,-1.086827 -0.51923,-1.6194 0.95952,1.145199 1.92571,2.318194 2.89857,3.517873 0.97231,1.198567 1.83844,2.358219 2.59839,3.477846 0.75938,1.119067 1.37145,2.171427 1.83898,3.157077 0.46475,0.98565 0.68545,1.86512 0.65932,2.63896 -0.48032,-0.10673 -0.99343,-0.4275 -1.5399,-0.96007 -0.54536,-0.53369 -1.11296,-1.21914 -1.6989,-2.05803 -0.58538,-0.83944 -1.17911,-1.81286 -1.77894,-2.918029 -0.59873,-1.106284 -1.17912,-2.285395 -1.73782,-3.537886 z m -3.71744,-13.990881 c -0.64043,0 -1.06015,0.420277 -1.25973,1.259163 -0.20013,0.839441 -0.21291,1.939055 -0.0405,3.297727 0.174,1.359229 0.51423,2.891905 1.01957,4.596917 0.50643,1.705011 1.14574,3.424477 1.91959,5.156729 0.50533,1.172995 1.07905,2.324864 1.71779,3.458389 0.64043,1.132411 1.31309,2.203671 2.01967,3.216561 0.70491,1.01289 1.42427,1.92571 2.15809,2.73903 0.7327,0.81275 1.4454,1.46485 2.13863,1.95851 0.69268,0.4931 1.352,0.80609 1.97908,0.94006 0.62486,0.13231 1.19245,0.0256 1.6989,-0.32076 0.66488,-0.47921 0.79219,-1.33255 0.37914,-2.55836 -0.41306,-1.2258 -1.18578,-2.66508 -2.31819,-4.31673 -1.13353,-1.653308 -2.53835,-3.451715 -4.21779,-5.395773 -1.67777,-1.946837 -3.43726,-3.877553 -5.27625,-5.797151 -0.29353,-1.358672 -0.34689,-2.385459 -0.15955,-3.077582 0.18568,-0.693234 0.45308,-1.066258 0.79942,-1.119626 0.18623,-0.02613 0.47976,0.05337 0.87947,0.240157 0.39971,0.186235 0.83888,0.440291 1.3192,0.759946 0.47921,0.319655 0.95229,0.685451 1.41927,1.098501 0.4653,0.413049 0.85889,0.819429 1.17966,1.219692 0.3191,0.399708 0.62486,0.672665 0.91894,0.819428 0.29241,0.146764 0.52535,0.193461 0.6988,0.140093 0.17289,-0.05448 0.26017,-0.200132 0.26017,-0.44029 0,-0.239047 -0.13398,-0.572599 -0.39916,-0.998991 -0.2674,-0.426948 -0.75939,-1.019004 -1.47875,-1.77895 -0.71991,-0.759389 -1.51989,-1.519333 -2.3988,-2.278722 -0.87946,-0.758834 -1.76616,-1.418156 -2.65842,-1.97797 -0.89336,-0.559813 -1.65942,-0.839998 -2.29818,-0.839998" /></g></g><g
     transform="translate(0,10.8)"
     id="layer2"><flowRoot
       style="font-style:normal;font-weight:normal;font-size:22.5px;line-height:125%;font-family:sans-serif;letter-spacing:0px;word-spacing:0px;fill:#000000;fill-opacity:1;stroke:none;stroke-width:1px;stroke-linecap:butt;stroke-linejoin:miter;stroke-opacity:1"
       id="flowRoot3716"
       xml:space="preserve"><flowRegion
         id="flowRegion3718"><rect
           style="font-size:22.5px"
           y="124.61114"
           x="0"
           height="94.161064"
           width="183.24483"
           id="rect3720" /></flowRegion><flowPara
         id="flowPara3722" /></flowRoot><text
       id="text3724"
       y="113.09954"
       x="310.75464"
       style="font-style:normal;font-variant:normal;font-weight:normal;font-stretch:normal;font-size:12.5px;line-height:114.99999762%;font-family:Roboto;-inkscape-font-specification:Roboto;text-align:end;letter-spacing:0px;word-spacing:0px;writing-mode:lr-tb;text-anchor:end;fill:#ffffff;fill-opacity:1;stroke:none;stroke-width:1px;stroke-linecap:butt;stroke-linejoin:miter;stroke-opacity:1"
       xml:space="preserve"><tspan
         style="font-style:normal;font-variant:normal;font-weight:normal;font-stretch:normal;font-size:12.5px;line-height:114.99999762%;font-family:Roboto;-inkscape-font-specification:Roboto;text-align:end;writing-mode:lr-tb;text-anchor:end;fill:#ffffff;fill-opacity:1"
         y="113.09954"
         x="310.75464"
         id="tspan3726">132 W Center St</tspan><tspan
         style="font-style:normal;font-variant:normal;font-weight:normal;font-stretch:normal;font-size:12.5px;line-height:114.99999762%;font-family:Roboto;-inkscape-font-specification:Roboto;text-align:end;writing-mode:lr-tb;text-anchor:end;fill:#ffffff;fill-opacity:1"
         id="tspan3728"
         y="127.47454"
         x="310.75464">Whitewater, WI 53190</tspan></text>
<flowRoot
       style="font-style:normal;font-weight:normal;font-size:15px;line-height:125%;font-family:sans-serif;letter-spacing:0px;word-spacing:0px;fill:#000000;fill-opacity:1;stroke:none;stroke-width:1px;stroke-linecap:butt;stroke-linejoin:miter;stroke-opacity:1"
       id="flowRoot3730"
       xml:space="preserve"><flowRegion
         id="flowRegion3732"><rect
           y="132.45789"
           x="199.86148"
           height="47.542107"
           width="108.46986"
           id="rect3734" /></flowRegion><flowPara
         id="flowPara3736" /></flowRoot><text
       id="text3738"
       y="149.08403"
       x="14.639458"
       style="font-style:normal;font-variant:normal;font-weight:normal;font-stretch:normal;font-size:15px;line-height:125%;font-family:Roboto;-inkscape-font-specification:Roboto;letter-spacing:0px;word-spacing:0px;fill:#ffffff;fill-opacity:1;stroke:none;stroke-width:1px;stroke-linecap:butt;stroke-linejoin:miter;stroke-opacity:1"
       xml:space="preserve"><tspan
         style="font-style:normal;font-variant:normal;font-weight:normal;font-stretch:normal;font-size:15px;font-family:Roboto;-inkscape-font-specification:Roboto;fill:#ffffff;fill-opacity:1"
         y="149.08403"
         x="14.639458"
         id="tspan3740">Debbie Mischka</tspan></text>
<text
       id="text3742"
       y="147.08473"
       x="225.82729"
       style="font-style:normal;font-variant:normal;font-weight:normal;font-stretch:normal;font-size:12.5px;line-height:125%;font-family:Roboto;-inkscape-font-specification:Roboto;letter-spacing:0px;word-spacing:0px;fill:#ffffff;fill-opacity:1;stroke:none;stroke-width:1px;stroke-linecap:butt;stroke-linejoin:miter;stroke-opacity:1"
       xml:space="preserve"><tspan
         style="font-style:normal;font-variant:normal;font-weight:normal;font-stretch:normal;font-size:12.5px;font-family:Roboto;-inkscape-font-specification:Roboto;fill:#ffffff;fill-opacity:1"
         y="147.08473"
         x="225.82729"
         id="tspan3744">(262) 472-0510</tspan></text>
<text
       id="text3746"
       y="167.14047"
       x="201.16298"
       style="font-style:normal;font-variant:normal;font-weight:normal;font-stretch:normal;font-size:12.5px;line-height:125%;font-family:Roboto;-inkscape-font-specification:Roboto;letter-spacing:0px;word-spacing:0px;fill:#ffffff;fill-opacity:1;stroke:none;stroke-width:1px;stroke-linecap:butt;stroke-linejoin:miter;stroke-opacity:1"
       xml:space="preserve"><tspan
         style="font-style:normal;font-variant:normal;font-weight:normal;font-stretch:normal;font-size:12.5px;font-family:Roboto;-inkscape-font-specification:Roboto;fill:#ffffff;fill-opacity:1"
         y="167.14047"
         x="201.16298"
         id="tspan3748">www.coyotegrill.bar</tspan></text>
<text
       id="text3750"
       y="167.14047"
       x="14.639458"
       style="font-style:normal;font-variant:normal;font-weight:normal;font-stretch:normal;font-size:12.5px;line-height:125%;font-family:Roboto;-inkscape-font-specification:Roboto;text-align:start;letter-spacing:0px;word-spacing:0px;writing-mode:lr-tb;text-anchor:start;fill:#ffffff;fill-opacity:1;stroke:none;stroke-width:1px;stroke-linecap:butt;stroke-linejoin:miter;stroke-opacity:1"
       xml:space="preserve"><tspan
         style="font-style:normal;font-variant:normal;font-weight:normal;font-stretch:normal;font-size:12.5px;line-height:125%;font-family:Roboto;-inkscape-font-specification:Roboto;text-align:start;writing-mode:lr-tb;text-anchor:start;fill:#ffffff;fill-opacity:1"
         y="167.14047"
         x="14.639458"
         id="tspan3752">debbie@coyotegrill.bar</tspan></text>
<flowRoot
       style="font-style:normal;font-weight:normal;font-size:15px;line-height:125%;font-family:sans-serif;letter-spacing:0px;word-spacing:0px;fill:#000000;fill-opacity:1;stroke:none;stroke-width:1px;stroke-linecap:butt;stroke-linejoin:miter;stroke-opacity:1"
       id="flowRoot4197"
       xml:space="preserve"><flowRegion
         id="flowRegion4199"><rect
           y="105.16142"
           x="187.48758"
           height="74.838577"
           width="122.55795"
           id="rect4201" /></flowRegion><flowPara
         id="flowPara4203" /></flowRoot></g></svg>
