<?xml version="1.0" encoding="utf-8"?>
<!-- Generator: Adobe Illustrator 16.0.0, SVG Export Plug-In . SVG Version: 6.00 Build 0)  -->
<!DOCTYPE svg PUBLIC "-//W3C//DTD SVG 1.1//EN" "http://www.w3.org/Graphics/SVG/1.1/DTD/svg11.dtd">
<svg version="1.1" id="Layer_1" xmlns:x="&ns_extend;" xmlns:i="&ns_ai;" xmlns:graph="&ns_graphs;"
	 xmlns="http://www.w3.org/2000/svg" xmlns:xlink="http://www.w3.org/1999/xlink" xmlns:a="http://ns.adobe.com/AdobeSVGViewerExtensions/3.0/"
	 x="0px" y="0px" width="710px" height="430px" viewBox="75 47 710 430" enable-background="new 0 0 864 864" xml:space="preserve">
<g>
	<path fill-rule="evenodd" clip-rule="evenodd" d="M125.707,451.74c1.521-0.079,3.212-0.637,4.539-0.166
		c37.319,13.224,69.577,0.073,97.354-22.777c28.489-23.437,54.614-49.915,80.509-76.304
		c75.202-76.638,163.328-130.703,268.848-153.462c52.331-11.288,104.166-9.014,150.93,21.247
		c13.982,9.048,26.999,20.28,38.446,32.411c21.438,22.716,13.86,53.002-16.224,62.581c-14.855,4.73-31.69,6.976-47.145,5.448
		c-65.942-6.523-129.819,3.445-190.854,26.52c-70.294,26.576-138.568,58.45-208.334,86.493
		c-36.137,14.524-73.218,27.069-110.619,37.936c-20.798,6.041-42.708,4.817-60.965-10.785c-2.738-2.34-6.481-3.502-9.759-5.208
		C123.523,454.361,124.615,453.051,125.707,451.74z"/>
	<path fill-rule="evenodd" clip-rule="evenodd" d="M271.69,125.276c53.805-31.364,104.231-70.453,169.58-75.959
		c17.514-1.476,35.463-1.497,52.894,0.54c37.406,4.369,60.55,26.585,71.433,62.161c7.004,22.898,14.228,45.735,20.67,68.79
		c0.903,3.227-2.093,7.542-3.285,11.354c-1.55-0.268-3.1-0.535-4.649-0.801c-4.397-15.688-8.377-31.511-13.318-47.026
		c-4.328-13.593-9.879-26.794-14.641-40.257c-9.729-27.505-30.978-37.774-58.219-40.595c-59.138-6.123-112.397,9.088-161.611,41.64
		c-14.265,9.437-29.95,16.82-45.369,24.358c-3.57,1.745-8.72,0.257-13.143,0.257C271.918,128.25,271.804,126.763,271.69,125.276z"/>
	<path fill-rule="evenodd" clip-rule="evenodd" d="M340.872,305.958c-12.398,13.865-28.225,31.728-44.324,49.342
		c-1.798,1.968-5.131,3.537-7.771,3.565c-14.279,0.161-28.712,0.983-42.806-0.749c-15.127-1.857-22.13-11.592-22.541-27.088
		c-0.178-6.721-0.03-13.452-0.03-20.22C265.126,309.085,306.366,307.384,340.872,305.958z"/>
	<path fill-rule="evenodd" clip-rule="evenodd" d="M226.456,300.926c-0.701-5.169-2.04-10.344-2.003-15.509
		c0.29-40.006-0.18-80.055,1.543-120.005c3.132-72.613,65.561-102.511,120.546-93.382c-29.103,16.598-55.87,32.787-83.592,47.128
		c-8.669,4.485-15.355,8.829-16.703,18.33c-4.363,30.761-8.979,61.519-12.042,92.42c-2.071,20.914-1.653,42.07-2.458,63.113
		c-0.1,2.612-0.868,5.199-1.326,7.797C229.099,300.854,227.778,300.89,226.456,300.926z"/>
	<path fill-rule="evenodd" clip-rule="evenodd" d="M389.369,149.975c-16.56-3.474-33.564-5.588-49.543-10.833
		c-13.865-4.551-14.962-14.043-3.053-23.208c9.471-7.288,20.303-13.772,31.555-17.6c33.271-11.317,67.927-15.601,102.996-15.95
		c6.857-0.068,13.739,2.043,20.873,5.869c-42.903,9.035-84.275,20.083-122.976,45.296c9.087,4.587,15.516,7.831,21.944,11.075
		C390.566,146.407,389.968,148.191,389.369,149.975z"/>
	<path fill-rule="evenodd" clip-rule="evenodd" d="M114.304,446.227c-13.151-6.672-21.16-16.517-25.107-30.261
		c-10.669-37.151-10.427-73.815,8.534-107.802c25.57-45.834,66.396-74.562,113.212-95.367c1.19,1.137,2.38,2.273,3.57,3.41
		c-3.184,3.645-5.686,8.5-9.661,10.74c-28.01,15.789-54.627,33.343-76.346,57.411c-39.435,43.699-46.418,100.037-19.035,152.14
		C111.156,439.7,112.696,442.98,114.304,446.227z"/>
</g>
</svg>
