<?xml version="1.0"?><svg width="300" height="318" viewBox="0 0 300 318" xmlns="http://www.w3.org/2000/svg">
 <title>Cowgirl hat and boot</title>
 <metadata id="metadata8">image/svg+xml</metadata>
 <g>
  <title>Little Debbie</title>
  <g id="g4106">
   <path stroke="#ffffff" d="m167.171906,277.166107l-6.838272,-4.550598l0.651505,-23.107498l14.977432,-9.452087l-8.790665,37.110184z" id="path4022"/>
   <path stroke="#ffffff" d="m120.752502,167.310608c-0.240692,-6.959137 -1.226585,-13.865326 -1.865822,-20.795288c-1.187813,-12.87674 -2.573799,-25.732674 -3.659904,-38.619797c-1.750946,-20.775581 -4.60479,-62.385853 -4.60479,-62.385853l0.920959,-12.873283c0,0 23.236595,-14.944244 35.917259,-13.863527c6.985153,0.59531 11.416122,10.635983 18.419128,10.892756c9.471329,0.347288 16.314941,-12.540419 25.786743,-12.873272c10.199219,-0.358366 28.549622,11.883055 28.549622,11.883055c0,0 1.088394,31.088633 -0.189026,46.541803c-0.441406,5.340263 -2.753464,10.486198 -2.573883,15.844017c0.091187,2.720192 1.915207,5.20121 1.841904,7.922028c-0.148956,5.530876 -4.166977,10.330872 -4.604736,15.84404c-0.395157,4.976974 1.136826,9.916534 1.841904,14.85376c1.087784,7.616623 1.728455,15.362274 3.683838,22.775772c1.353195,5.130356 5.839447,9.531799 5.525726,14.85379c-0.399826,6.783249 -9.209564,17.824524 -9.209564,17.824524l-26.311447,25.169785l-13.289627,5.528015l-56.72126,-21.785507c0,0 0.851082,-17.828583 0.542976,-26.736816z" id="path2991"/>
   <path stroke="#ffffff" d="m20.577858,256.033722c0,0 1.814714,-7.153503 3.256527,-10.502304c0.351822,-0.817505 0.155397,-2.065857 1.303066,-2.308105c8.433243,-1.784225 15.6045,1.922684 23.442844,2.308105c3.267635,0.159912 6.600746,-0.558548 9.906116,-0.341309c3.494072,0.229141 6.957039,1.364105 10.281288,0.341309c1.067749,-0.328156 1.762581,-1.552628 2.826973,-1.893997c2.648293,-0.849701 5.672859,0.755478 8.287865,-0.204056c3.066742,-1.123032 5.222221,-4.121002 7.828323,-6.188034c2.0756,-1.646973 4.241058,-3.169739 6.216743,-4.95163c3.077843,-2.77594 6.399849,-5.408646 8.749557,-8.912598c8.272324,-12.337891 14.132751,-26.699814 17.957596,-41.343384c0.563843,-2.15773 1.057739,-4.476608 0.691475,-6.683273c-0.271927,-1.63504 -1.642708,-2.860687 -2.07225,-4.456329c-0.428421,-1.593262 -1.327454,-3.579147 -0.460632,-4.95163c0.314133,-0.49649 1.07,-0.640839 1.611656,-0.495255c3.106667,0.835373 4.901436,4.495697 6.907089,7.179749c0.733681,0.982239 1.51284,2.00975 1.842491,3.218719c1.186508,4.356094 -1.843613,9.66095 0.229752,13.616028c2.048904,3.908539 6.751678,5.420624 10.590942,7.178589c7.638535,3.49794 15.893097,5.815659 24.175415,6.437469c8.159073,0.610992 16.652267,0.077515 24.405151,-2.723434c7.99704,-2.890579 15.02623,-8.483032 21.642487,-14.111359c5.234436,-4.453918 10.067093,-9.584534 14.043976,-15.348877c0.573868,-0.830658 0.421768,-2.662598 1.381851,-2.723434c1.632721,-0.103867 0.283051,9.206238 1.381866,13.615982c0.541687,2.176895 1.869141,4.050583 2.531754,6.189255c0.748108,2.411926 1.434021,4.891891 1.611649,7.426758c0.220856,3.136414 -0.359665,6.282333 -0.690384,9.407974c-0.411819,3.895386 -0.539444,7.886261 -1.611649,11.634888c-0.675888,2.364258 -1.734818,4.613846 -2.993439,6.684479c-0.386276,0.636108 -1.380768,1.732895 -1.380768,1.732895l-35.456741,3.21756l-30.39212,23.27095l-28.779388,32.183731l-41.442566,7.179749l-48.119934,-13.369019l-19.704582,-21.316162z" id="path2989"/>
   <path stroke="#ffffff" d="m16.021849,255.576416c0,0 15.498579,15.529358 24.479914,21.420349c9.709057,6.368378 20.156105,12.051819 31.258255,14.704498c11.022346,2.633606 22.722481,2.883453 33.863106,0.907257c10.562767,-1.873779 21.028358,-5.875092 30.148331,-11.903656c9.027878,-5.967712 15.351196,-15.718872 23.25119,-23.314056c4.475693,-4.302979 13.675507,-12.603821 13.675507,-12.603821l-5.860931,32.703064l34.706818,0.20697l27.158524,-54.616699c0,0 -13.466049,-1.115631 -20.187683,-0.700165c-5.9151,0.365524 -11.88205,1.064865 -17.582733,2.800827c-6.362427,1.937485 -12.816849,4.324875 -18.233994,8.402603c-8.051468,6.060577 -13.119217,15.764313 -20.187637,23.106995c-6.227905,6.469574 -12.302109,13.294739 -19.536407,18.412537c-6.627342,4.688507 -13.751755,9.117584 -21.490082,10.996521c-9.316521,2.262024 -19.201775,1.478607 -28.653397,0c-8.291756,-1.297302 -16.517471,-3.856842 -24.094879,-7.702423c-10.88913,-5.526245 -20.476406,-13.723175 -29.95586,-21.706635c-2.441801,-2.056473 -6.897131,-6.715851 -6.897131,-6.715851c0,0 -3.411161,-0.134109 -4.558487,0.98645c-1.106741,1.080902 -1.302422,4.615234 -1.302422,4.615234z" id="path2987"/>
   <path stroke="#ffffff" id="path2993" d="m264.408691,224.544678c-1.99826,0.688614 -3.862335,-9.758636 -5.944031,-10.028992c-2.186035,-0.28389 -6.658783,9.177063 -8.632782,8.103653c-1.879791,-1.022217 3.750916,-9.863052 2.458054,-11.642517c-1.357635,-1.868683 -10.798019,1.587234 -11.493851,-0.666611c-0.662567,-2.146255 9.081131,-3.940933 9.33873,-6.182755c0.270538,-2.354141 -8.686462,-7.516235 -7.676971,-9.633148c0.961304,-2.015915 9.289917,4.07103 10.955826,2.687805c1.749451,-1.45253 -1.405457,-11.74054 0.688599,-12.486023c1.99411,-0.709854 3.647736,9.932785 5.735718,10.19574c2.192596,0.276123 7.028046,-9.181244 8.981842,-8.091766c1.860565,1.037491 -3.90976,9.695511 -2.611511,11.48053c1.363373,1.874405 11.000793,-1.316116 11.679932,0.94165c0.646698,2.149948 -9.266357,3.98172 -9.544006,6.218079c-0.291534,2.348389 8.716705,7.413254 7.70816,9.519135c-0.960358,2.005325 -9.174072,-4.187683 -10.821472,-2.784576c-1.730011,1.473419 1.276184,11.646759 -0.822235,12.369797z"/>
   <path stroke="#ffffff" d="m263.960236,222.813736c-1.823792,0.628403 -3.525146,-8.906662 -5.425079,-9.153366c-1.995148,-0.259094 -6.077377,8.375809 -7.879044,7.396103c-1.715668,-0.932968 3.423431,-9.001938 2.243439,-10.625992c-1.23909,-1.705566 -9.855225,1.448608 -10.490311,-0.608383c-0.604752,-1.958878 8.288269,-3.596848 8.523376,-5.642914c0.246872,-2.148651 -7.928055,-6.860031 -7.006729,-8.792145c0.87735,-1.83992 8.478821,3.715652 9.999268,2.45314c1.596725,-1.325668 -1.282761,-10.715515 0.628494,-11.395859c1.820007,-0.647873 3.329254,9.065536 5.234924,9.305557c2.001129,0.251999 6.414459,-8.379639 8.197662,-7.385239c1.698059,0.946854 -3.56842,8.848938 -2.383514,10.478088c1.244293,1.710785 10.040314,-1.201126 10.660126,0.859436c0.59021,1.962234 -8.457275,3.63414 -8.710693,5.675201c-0.266113,2.143356 7.955658,6.765976 7.035187,8.688049c-0.876556,1.830261 -8.373138,-3.822083 -9.876648,-2.541473c-1.578979,1.344772 1.164734,10.629837 -0.750458,11.289795z" id="path3124"/>
   <path stroke="#ffffff" d="m184.971878,220.784119c0,0 -13.637741,-2.110001 -20.013168,0c-4.435287,1.467926 -11.512207,8.417389 -11.512207,8.417389l-7.828308,-11.387863c0,0 8.637451,-5.341858 13.353531,-6.931503c6.526413,-2.199524 20.261795,-3.465759 20.261795,-3.465759l5.738358,13.367737z" id="path3003"/>
   <path stroke="#ffffff" d="m223.143494,219.266678c-6.307663,0.056946 -14.664459,0.291504 -19.97876,1.006943c-9.201431,1.238815 -18.959045,1.794815 -27.1586,6.452103c-6.336853,3.599274 -10.528076,10.453018 -15.643082,15.850449c-6.739838,7.111984 -12.877441,14.880463 -19.805328,21.780334c-5.435577,5.413696 -10.339813,11.943451 -17.030495,15.365631c-8.046478,4.115692 -17.349236,5.198181 -26.256798,5.445099c-7.746918,0.214752 -15.583939,-1.163574 -23.031052,-3.468445c-9.375511,-2.901672 -18.457138,-7.305634 -26.707706,-12.904114c-3.407265,-2.312012 -5.681488,-6.264771 -9.191612,-8.391418c-3.549358,-2.150421 -7.428583,-4.390137 -11.411472,-5.407806c0.665627,0.629456 1.299341,1.224396 1.838322,1.678284c9.479465,7.98349 19.078995,16.179535 29.968124,21.70578c7.577427,3.845642 15.814541,6.422882 24.106297,7.720154c9.451622,1.478638 19.333519,2.262054 28.650093,0c7.738312,-1.878906 14.842834,-6.31366 21.470215,-11.002075c7.234299,-5.117859 13.33461,-11.954285 19.562515,-18.423859c7.06839,-7.342712 12.135391,-17.025162 20.186859,-23.085724c5.417145,-4.077652 11.847382,-6.453934 18.209808,-8.391403c5.700684,-1.735992 11.670319,-2.468887 17.585464,-2.834412c5.020081,-0.310287 13.388535,0.225662 17.481384,0.522125c0.684784,-1.149689 1.309845,-2.371246 1.838333,-3.617645c-1.347916,-0.002396 -2.874619,-0.016388 -4.68251,0z" id="path3059"/>
   <path stroke="#ffffff" d="m97.355659,221.434677c0,0 13.09127,10.170914 20.721497,12.378082c8.005371,2.315811 16.69912,2.027206 24.865807,0.495148c3.397964,-0.637436 6.774811,-1.944931 9.670013,-3.961014c3.279633,-2.283707 7.662704,-4.765228 8.288605,-8.912216c0.494781,-3.278564 -1.951477,-6.572983 -4.144318,-8.912292c-6.188828,-6.602264 -15.786407,-7.978012 -23.484375,-12.378159c-7.346275,-4.199112 -21.642418,-13.368393 -21.642418,-13.368393c0,0 0.315681,4.720749 -0.920959,6.43663c-0.716064,0.993561 -2.436478,0.555862 -3.223366,1.485352c-3.038795,3.589645 -4.58622,9.032837 -4.144287,13.863525c0.154701,1.691086 2.543915,2.776886 2.302406,4.456192c-0.580811,4.038208 -8.288605,8.417145 -8.288605,8.417145z" id="path2995"/>
   <path stroke="#ffffff" d="m236.332794,198.998993l18.87883,-2.476379l7.828323,4.456314c0,0 1.746979,5.366913 0.460602,7.426834c-1.352997,2.167252 -6.907043,2.476379 -6.907043,2.476379l-3.683899,-5.446915l-17.958679,4.45636l1.381866,-10.892593z" id="path2999"/>
   <path stroke="#ffffff" d="m197.652267,200.484024c0,0 6.738678,-1.127792 10.130539,-1.485352c7.651718,-0.80661 15.904068,1.63475 23.023911,-1.485382c2.82135,-1.236465 6.907104,-6.436676 6.907104,-6.436676c0,0 0.685318,3.287354 0.921005,4.951309c0.441483,3.117188 1.238312,6.272797 0.920914,9.407364c-0.26265,2.594223 -2.302368,7.426895 -2.302368,7.426895c0,0 -8.294327,1.28009 -12.432922,1.98053c-2.766907,0.468231 -5.497162,1.236908 -8.288589,1.485382c-5.542252,0.493164 -16.683624,0 -16.683624,0c-4.699219,-7.958252 0.335663,-5.400894 -2.195969,-15.84407z" id="path2997"/>
   <path stroke="#ffffff" id="path3001" d="m203.026093,210.614166c0,7.57988 -5.714737,13.72464 -12.764191,13.72464c-7.049469,0 -12.764206,-6.14476 -12.764206,-13.72464c0,-7.57991 5.714737,-13.724655 12.764206,-13.724655c7.049454,0 12.764191,6.144745 12.764191,13.724655z"/>
   <path stroke="#ffffff" d="m102.333366,208.317352c0,0 8.10862,4.520813 12.432899,6.030197c4.323471,1.509079 8.992416,1.593765 13.353851,2.970749c6.153931,1.942902 12.490784,3.822342 17.958633,7.42691c3.521011,2.321091 9.209579,8.912262 9.209579,8.912262c0,0 5.202148,0.761383 7.367615,-0.495117c0.6754,-0.391922 1.348862,-1.156021 1.381439,-1.98053c0.122894,-3.111191 -4.604782,-7.921997 -4.604782,-7.921997c0,0 -8.184647,-6.116379 -12.432892,-8.912277c-3.75116,-2.468719 -7.406754,-5.235016 -11.511948,-6.931763c-3.232361,-1.336029 -6.767731,-1.586578 -10.130508,-2.475586c-4.317177,-1.141464 -8.904243,-1.558884 -12.893364,-3.669098c-2.258881,-1.194992 -5.986229,-4.951248 -5.986229,-4.951248c0,0 -3.167305,3.666672 -3.895767,5.967209c-0.603134,1.904694 -0.248528,6.030289 -0.248528,6.030289z" id="path3024"/>
   <path stroke="#ffffff" d="m200.263245,210.614166c0,5.939178 -4.477753,10.753891 -10.001343,10.753891c-5.52359,0 -10.001328,-4.814713 -10.001328,-10.753891c0,-5.939209 4.477737,-10.75386 10.001328,-10.75386c5.52359,0 10.001343,4.814651 10.001343,10.75386z" id="path3072"/>
   <path stroke="#ffffff" id="path3082" d="m196.579376,210.614166c0,3.751602 -2.828461,6.792862 -6.31752,6.792862c-3.489044,0 -6.317505,-3.04126 -6.317505,-6.792862c0,-3.751572 2.828461,-6.792892 6.317505,-6.792892c3.489059,0 6.31752,3.041321 6.31752,6.792892z"/>
   <path stroke="#ffffff" d="m194.737473,210.614166c0,2.657837 -2.003784,4.812363 -4.475616,4.812363c-2.471771,0 -4.475586,-2.154526 -4.475586,-4.812363c0,-2.657776 2.003815,-4.812393 4.475586,-4.812393c2.471832,0 4.475616,2.154617 4.475616,4.812393z" id="path3084"/>
   <path stroke="#ffffff" id="path3094" d="m192.435089,210.614166c0,1.290573 -0.972961,2.336777 -2.173218,2.336777c-1.200241,0 -2.173218,-1.046204 -2.173218,-2.336777c0,-1.290527 0.972977,-2.336716 2.173218,-2.336716c1.200256,0 2.173218,1.046188 2.173218,2.336716z"/>
   <path stroke="#ffffff" d="m128.099014,205.394669c-1.30304,0 -4.558479,-0.34967 -4.558479,-0.34967l-5.861534,-1.050217l-1.301933,11.20282l10.093704,2.100464l-1.30307,2.451355c0,0 -5.208893,0 -6.511971,0c-1.301949,0 -5.920349,-4.058899 -5.920349,-4.058899c0,0 -1.58831,-5.155716 -1.109932,-7.701279c0.516113,-2.74379 4.100082,-7.146408 4.100082,-7.146408l9.442169,0.700562l4.558479,1.050232l-1.627167,2.801041z" id="path3170"/>
   <path stroke="#ffffff" d="m140.203049,215.45871c-0.407043,1.126434 -1.110703,1.88356 -1.571671,1.690918c-0.460968,-0.192551 -0.504623,-1.261841 -0.097565,-2.38829c0.407043,-1.126434 1.110703,-1.88356 1.571655,-1.690903c0.460983,0.192551 0.504654,1.261841 0.09758,2.388275z" id="path3964"/>
   <path stroke="#ffffff" d="m136.86969,205.930496l-5.065704,14.853622l4.605072,1.485886l5.064636,-14.359573l-4.604004,-1.979935z" id="path3180"/>
   <path stroke="#ffffff" id="path3962" d="m124.980774,210.943909c-0.194016,1.190277 -0.74617,2.080933 -1.233269,1.989136c-0.487129,-0.091812 -0.724686,-1.13121 -0.530685,-2.321564c0.194023,-1.190369 0.746178,-2.080887 1.233276,-1.989075c0.487122,0.091736 0.724701,1.131149 0.530678,2.321503z"/>
   <path stroke="#ffffff" id="path3958" d="m124.445137,208.898605l-10.290161,-0.007187l-0.055489,1.226868l9.869507,2.477631l0.476143,-3.697311z"/>
   <path stroke="#ffffff" d="m261.789337,205.712662c0,1.290588 -0.972992,2.336761 -2.173187,2.336761c-1.200256,0 -2.173218,-1.046173 -2.173218,-2.336761c0,-1.290527 0.972961,-2.336716 2.173218,-2.336716c1.200195,0 2.173187,1.046188 2.173187,2.336716z" id="path3966"/>
   <path stroke="#ffffff" d="m68.75882,245.521912c-1.404076,0.431976 -2.820351,0.480942 -4.26548,0.373535c-0.350716,2.436996 -0.500565,5.012527 0.103233,6.750122c1.55835,4.486115 9.781815,9.808929 9.781815,9.808929c0,0 -5.123428,-6.474426 -5.862633,-10.479645c-0.318565,-1.728088 -0.120995,-4.137665 0.243065,-6.452942l0,0z" id="path3970"/>
   <path stroke="#ffffff" d="m81.245811,242.762665c-0.434547,0.25209 -0.879906,0.498062 -1.35273,0.67131c-0.446739,0.16362 -0.920715,0.221848 -1.387405,0.261047l8.255104,8.279556c0,0 -4.136566,-5.243057 -5.514969,-9.211914z" id="path3972"/>
   <path stroke="#ffffff" d="m180.849579,57.409763l-25.852493,-0.170666l3.912491,-41.389668c0,0 4.702774,-5.269402 7.772873,-5.310442c3.431885,-0.04597 8.825043,5.702746 8.825043,5.702746l5.342087,41.16803z" id="path3996"/>
  </g>
 </g>
</svg>
