<?xml version="1.0" encoding="UTF-8" standalone="no"?>
<!-- Created with Inkscape (http://www.inkscape.org/) -->

<svg
   xmlns:dc="http://purl.org/dc/elements/1.1/"
   xmlns:cc="http://creativecommons.org/ns#"
   xmlns:rdf="http://www.w3.org/1999/02/22-rdf-syntax-ns#"
   xmlns:svg="http://www.w3.org/2000/svg"
   xmlns="http://www.w3.org/2000/svg"
   xmlns:sodipodi="http://sodipodi.sourceforge.net/DTD/sodipodi-0.dtd"
   xmlns:inkscape="http://www.inkscape.org/namespaces/inkscape"
   width="140.98122mm"
   height="57.512691mm"
   viewBox="0 0 499.53974 203.78513"
   id="coyote-grill-logo"
   version="1.1"
   inkscape:version="0.91 r13725"
   sodipodi:docname="coyote-grill-logo.svg">
  <defs
     id="defs3422" />
  <sodipodi:namedview
     id="base"
     pagecolor="#ffffff"
     bordercolor="#666666"
     borderopacity="1.0"
     inkscape:pageopacity="0.0"
     inkscape:pageshadow="2"
     inkscape:zoom="0.35"
     inkscape:cx="1653.3413"
     inkscape:cy="-855.25029"
     inkscape:document-units="px"
     inkscape:current-layer="layer1"
     showgrid="false"
     fit-margin-top="0"
     fit-margin-left="0"
     fit-margin-right="0"
     fit-margin-bottom="0"
     inkscape:window-width="1920"
     inkscape:window-height="1016"
     inkscape:window-x="0"
     inkscape:window-y="27"
     inkscape:window-maximized="1" />
  <metadata
     id="metadata3425">
    <rdf:RDF>
      <cc:Work
         rdf:about="">
        <dc:format>image/svg+xml</dc:format>
        <dc:type
           rdf:resource="http://purl.org/dc/dcmitype/StillImage" />
        <dc:title></dc:title>
      </cc:Work>
    </rdf:RDF>
  </metadata>
  <g
     inkscape:label="Layer 1"
     inkscape:groupmode="layer"
     id="layer1"
     transform="translate(1278.3413,526.67321)">
    <g
       transform="matrix(0.125,0,0,-0.125,-1653.5716,200.21953)"
       id="g3377">
      <path
         d="m 3698.75,5006.42 c 0,0 -106.41,100.63 -217.48,-17.84 -111.07,-118.48 -82.4,-130.03 -143.22,-186.06 -60.82,-56.03 -114.48,-41.8 -156.69,12.91 -44.63,57.84 -7.15,194.02 16.42,242.96 24.24,50.37 0.01,83.29 2.97,127.02 2.95,43.73 44.53,61.36 44.53,61.36 0,0 -132.26,14.06 -202.83,-117.71 -45.17,-84.34 -43.43,-150.78 -37.63,-175.81 4.77,-20.55 -11.59,-134.92 79.45,-247.51 13.62,-16.84 68.23,-80.97 179.95,-91.88 48.94,-4.77 104.02,17.31 149.52,98.93 60.01,107.63 28.02,165.73 107.45,259.15 75.53,88.83 174.71,1.3 174.71,1.3 l 2.85,33.18"
         style="fill:#6e6b6c;fill-opacity:1;fill-rule:nonzero;stroke:none"
         id="path16"
         inkscape:connector-curvature="0" />
      <path
         d="m 3567.46,5024.74 c -0.02,19.98 1.17,40.58 4.77,60.14 3.2,17.37 -0.53,41.63 9.48,56.68 4.99,7.51 3.44,15.2 6.05,24.05 1.59,5.41 3.02,10.32 1.76,16.05 -0.64,2.89 -3,9.01 -4.59,13.18 34.23,6.11 70.6,3.58 105.11,6.67 37.93,3.4 76.4,2.83 114.18,7.92 16.17,-33.16 36.01,-67.2 45.02,-103.75 8.09,-32.77 10.35,-66.97 20.97,-99.32 10.76,-32.78 14.96,-68.31 12.17,-102.91 -1.5,-18.64 -2.2,-37.63 -3.3,-56.35 -0.49,-8.4 0.47,-18.17 -2.2,-26.16 -3.09,-9.26 -11.77,-13.85 -16.78,-21.57 -3.77,-5.8 -30.69,-16.07 -38.14,-18.4 -7.48,-2.34 -14.77,-4.23 -22.56,-4.71 -5.28,-0.33 -34.81,-5.54 -40.36,-6.57 -8.23,-1.54 -16.57,-1.55 -24.82,-2.97 -17.03,-2.93 -35.43,-6.73 -52.68,-5.84 -17.14,0.89 -33.72,6.14 -50.15,11.19 -16.08,4.95 -31.44,8.13 -40.28,25.17 -7.85,15.12 -9.43,29.28 -11.83,46.03 -1.29,9 -4.61,17.47 -4.97,26.67 -0.43,11.08 -1.2,22.13 -2.08,33.18 -0.61,7.48 -4.41,31.74 -7.1,58.05 -0.31,3 2.34,52.45 2.33,63.57"
         style="fill:#9c0054;fill-opacity:1;fill-rule:nonzero;stroke:none"
         id="path18"
         inkscape:connector-curvature="0" />
      <path
         d="m 3571.84,4907.85 c 0.92,-11.04 1.74,-22.09 2.26,-33.16 0.52,-10.95 3.65,-20.71 5.18,-31.42 2.7,-18.84 4.46,-36.77 15.61,-52.55 10.64,-15.05 33.09,-17.75 48.8,-22.32 19.44,-5.66 39.05,-9.74 59.18,-6.35 18.61,3.14 37.61,4.18 56.17,7.64 7.28,1.35 27.45,4.55 29.62,5.15 4.7,1.29 9.57,1.27 14.37,1.67 9.01,0.74 18.11,3.92 26.63,7.07 4.53,1.68 22.56,10.55 22.56,10.55 0,0 2.62,-40.62 2.53,-59.04 -0.04,-8.8 0.33,-17 1.62,-25.69 0.79,-5.29 3.15,-15.01 -3.55,-16.88 -6.09,-1.71 -12.86,-2.76 -19.08,-4.02 -5.53,-1.11 -2.94,-12.66 -2.94,-16.98 0,-20.43 1.86,-39.29 4.09,-59.55 8.55,-77.85 -17.92,-149.87 -35.61,-223.55 -4.06,-16.92 -3.9,-33.57 -5.19,-50.88 -1.49,-19.89 3.55,-38.13 6.36,-57.69 2.44,-16.97 6.41,-35.5 4.2,-52.71 -1.88,-14.63 -10.32,-33.45 -23.65,-39.1 -10.31,-4.37 -32.34,-4.92 -41.47,2.74 -11.71,9.83 -10.46,33.16 -9.48,47.2 2.85,40.82 5.5,81.66 9.22,122.39 0.8,8.68 4.31,15.47 6.6,23.71 2.36,8.5 3.59,17.32 4.17,26.17 1.32,19.94 0.29,40.14 -0.41,60.08 -0.68,19.1 -1.62,38.22 -1.61,57.35 0.01,20.91 3.73,41.24 4.4,62.03 0.62,19.43 -2.12,38.22 -7.48,56.7 -2.37,8.17 -4.79,16.24 -5.64,24.82 -1.03,10.46 0.74,13.85 -9.95,13.83 -17.76,-0.02 -35.54,0.63 -53.31,-0.18 -8.89,-0.4 -17.77,-1.17 -26.59,-2.56 -5.63,-0.89 -16.87,1.87 -20.49,-4.22 -7.96,-13.39 -9.41,-32.45 -15.61,-47.05 -6.39,-15.06 -15.59,-28.56 -24.28,-41.8 -19.66,-29.97 -23.3,-66.99 -36.76,-100.08 -6.85,-16.82 -14.62,-33.24 -22.19,-49.68 -7.93,-17.21 -17.02,-33.91 -20.91,-52.93 -3.49,-17.1 -3.66,-33.42 -10.43,-49.6 -7.17,-17.13 -15.31,-33.6 -23.03,-50.42 -13.83,-30.12 -31.57,-91.17 -72.27,-83.27 -11.67,2.27 -27.48,13.58 -26.32,31.78 1.95,30.31 20.94,55.25 38.6,76.93 8.94,10.99 19.87,21.34 27.25,33.69 7.41,12.4 10.6,29.07 15.7,42.83 5.57,15.05 4.14,33.92 5.99,49.99 2.14,18.6 4.34,37.17 6.17,55.81 3.43,34.77 8.82,68.68 22.53,100.53 6.4,14.87 14.5,28.58 21.61,43.01 3.13,6.36 5.97,12.91 8.22,19.71 1.84,5.59 6.12,13.74 5.96,19.81 -0.16,6.36 -3.48,6.37 -1.91,13.32 1.79,7.96 2.55,16.36 4,24.42 3.26,18.14 6.89,36.23 9.53,54.5 4.82,33.4 6.87,67.46 10.77,101.04 3.5,30.1 11.6,61.53 13.55,90.53 3.48,-0.56 6.12,-46.27 6.71,-53.32"
         style="fill:#6e6b6c;fill-opacity:1;fill-rule:nonzero;stroke:none"
         id="path20"
         inkscape:connector-curvature="0" />
      <path
         d="m 3804.22,5209.43 c -39.25,-5.29 -79.18,-4.46 -118.56,-8.33 -38.56,-3.79 -77.71,-3.95 -116.1,-7.53 -2.54,-0.23 -1.89,-6.37 -3.91,-8.09 -3.25,-2.77 -8.6,-3.02 -12.42,-4.14 -11.56,-3.38 -22.86,-7.81 -34.57,-10.58 -4.14,-0.97 -5.35,-4.67 -7.2,-8.27 -2.68,-5.21 -6.6,-9.4 -11.31,-12.34 -8.85,-5.54 -17.57,-8.29 -26.31,-1.59 -15.79,12.11 -27.7,33.24 -23.86,55.09 2.16,12.28 10.49,20.78 15.21,31.77 4.75,11.06 7.19,23.1 9.02,35.1 3.88,25.56 11.39,50.24 14.76,76.03 3.56,27.29 6.54,57.06 16.88,82.49 3.9,9.6 10.09,19.26 16.76,26.79 7.43,8.39 17.1,9.66 26.85,12.7 11.43,3.56 22.03,9.31 33.15,13.82 9.77,3.96 20.13,7.11 28.45,14.45 5.38,-2.58 -2.77,-15.99 -4.16,-20.06 -3.4,-9.97 -5.92,-20.37 -8.38,-30.66 -5.43,-22.64 -11.92,-43.87 -19.64,-65.68 -7.61,-21.53 -13.02,-43.64 -11.43,-66.93 0.74,-10.88 2.56,-21.63 4.67,-32.27 2.27,-11.53 7.1,-26.72 4.79,-38.67 -5.75,8.08 -7.37,28.35 -9.83,38.32 -1.61,6.52 -3.88,12.8 -5.57,19.29 -0.04,0.17 -3.9,15.05 -5.81,8.74 -7.87,-26.07 -14.78,-52.98 -22.52,-79.26 -1.51,-5.11 23.82,-2.28 27.02,-2.07 12.52,0.83 24.72,2.03 37.31,2.66 27.36,1.37 54.71,3.14 82.07,4.68 51.78,2.91 103.58,7.35 155.15,8.91 3.31,0.1 4.39,2.5 3.07,5.76 -5.15,12.69 -10.64,25.29 -15.87,37.97 -5.75,13.92 -13.25,27.41 -16.01,42.57 -1.18,6.51 -3.46,-1.09 -3.82,-2.96 -1.29,-6.66 -1.23,-12.16 -1.68,-18.92 -0.47,-7.08 -2.7,-13.74 -2.87,-20.94 -0.17,-7.51 3.68,-16.87 2.53,-23.85 -6.06,0.93 -7.42,14.44 -8.53,19.54 -1.1,5.01 -0.1,10.07 -0.76,15.15 -0.94,7.2 -2.35,14.04 -2.63,21.35 -1,25.61 -8.53,51.51 -20.35,73.5 -11.87,22.09 -22.37,43.51 -31.09,67.37 -7.12,19.52 -14.96,38.16 -23.6,56.92 14.47,-9.78 33.53,-12.43 50.16,-14.14 11.46,-1.18 22.89,-2.72 34.36,-3.74 9.38,-0.84 17.73,-0.99 24.95,-8.52 14.33,-14.95 21.23,-37.73 28.4,-57.37 6.69,-18.31 9.51,-37.57 14.23,-56.47 7.7,-30.8 19.09,-60.72 31.43,-89.59 4.6,-10.76 4.64,-14.53 16.34,-14.11 8.29,0.3 15.52,-0.51 21.11,-8.05 2.55,-3.45 3.55,-7.93 6.07,-11.31 1.62,-2.18 8.19,-3.47 8.06,-6.44 -0.25,-5.43 -5.96,-3.09 -6.48,-8.72 -0.76,-8.3 -5.31,-14.47 -6.45,-22.19 -1.11,-7.6 -6.16,-19.07 -12.15,-23.51 -6.17,-4.59 -18.93,-2.56 -26.12,-3.08 -8.56,-0.61 -17.09,1.26 -24.81,5.35 -3.33,1.77 -6.49,3.91 -9.47,6.31 -3.61,2.92 -8.15,0.82 -12.13,2.23 -2.75,0.98 -3.43,3.6 -5.7,5.16 -3.29,2.27 -9,0.88 -12.6,0.81 -9.37,-0.19 -18.73,-0.3 -28.1,-0.45 -16.1,-2.17 12.04,0.19 0,0"
         style="fill:#6e6b6c;fill-opacity:1;fill-rule:nonzero;stroke:none"
         id="path22"
         inkscape:connector-curvature="0" />
      <path
         d="m 3623.59,5513.02 c 0.87,5.37 2.16,10.73 0.12,16.12 1.92,1.26 -10.39,-0.08 -11.94,-0.11 1.32,3.62 -1.65,2.56 2.06,6.54 1.11,1.2 3.67,7.98 3.63,8.04 0.45,-0.62 -12,-5.48 -14.44,-4.69 -4.01,1.3 -7.5,4.5 -9.81,8.28 -1.08,1.83 -1.92,3.78 -2.51,5.87 -0.79,2.13 -0.07,4.47 -1.08,5.56 2.35,0.91 11.4,-3.58 10.99,-1.48 -0.34,1.71 -3.27,2.38 -4.57,2.47 0.11,0.75 0.31,1.48 0.6,2.17 -4.3,0.57 -4.8,5.11 -7.2,8.32 0.04,0.03 1.78,2.34 0.14,1.48 -2.95,10.55 -1.49,18.12 4.86,22.65 -1,-3.33 -2.81,-5.75 -2.5,-8.99 0.99,-10.5 10.86,-6.1 9.34,3.9 -1.78,11.72 -8.17,23.94 -11.63,35.24 -7.64,25.01 -12.03,53.29 -7.18,79.42 4.37,23.59 13.36,44.52 28.77,61.81 7.16,8.03 16.06,14.06 26.06,16.65 4.52,1.17 9.18,1.65 13.82,1.52 5.99,-0.16 11.03,-3.82 17.19,-3.48 5.26,0.29 10.01,2.92 15.23,3.52 6.11,0.7 12.22,-0.44 18.13,-2.12 10.18,-2.9 19.86,-7.45 28.24,-14.55 16.67,-14.14 26.42,-35.56 27.67,-58.55 1.53,-28.05 -0.29,-54.99 -8.21,-81.84 -3.62,-12.26 -10.1,-23.64 -12.91,-36.11 -3.01,-13.44 3.12,-18.25 13.75,-11.01 2.84,-7.2 0.8,-13 -5.99,-17.28 -0.7,0 -10.51,0.76 -7.15,-2.91 3.2,-3.48 12.93,-0.97 16.77,-0.73 0.48,-0.84 0.97,-1.68 1.47,-2.52 -4.07,-2.55 -7.36,-4.8 -12.27,-6.81 -8.47,-3.46 -13.37,3.03 -21.38,1.94 2.12,-2.11 14.21,-11.18 11.57,-15.03 -0.97,-1.41 -12.62,3.32 -15.03,3.72 -5.66,0.95 -7.87,-1.9 -8.71,-8.22 -1.25,-9.34 2.31,-17.98 5.05,-26.55 3.82,-11.92 8.2,-23.61 11.65,-35.67 2.72,-9.49 5.61,-19.08 7.96,-28.69 1.76,-7.23 -1.98,-8.79 -7.98,-8.8 -23.07,-0.06 -46,-0.82 -68.96,-3.87 -11.2,-1.5 -22.26,-4.04 -33.45,-5.68 -5.72,-0.84 -23.2,-7.81 -23.02,3.19 0.22,13.53 5.59,30.06 9.15,43.01 2.31,8.4 5.55,16.44 7.85,24.84 0.84,3.02 6.4,18.32 5.85,19.43 0.87,5.37 0.89,-1.8 0,0"
         style="fill:#6e6b6c;fill-opacity:1;fill-rule:nonzero;stroke:none"
         id="path24"
         inkscape:connector-curvature="0" />
      <path
         d="m 3710.41,5518.54 c 4.69,-19.57 12.95,-38.1 18.15,-57.56 2.64,-9.91 13.1,-28.85 -2.39,-28.88 -23.07,-0.06 -46,-0.82 -68.96,-3.87 -11.2,-1.5 -22.26,-4.04 -33.45,-5.68 -5.72,-0.84 -23.2,-7.81 -23.02,3.19 0.2,12.37 5.1,26.95 8.07,38.89 3.53,14.19 9.25,27.48 11.93,41.97 -3.23,-3.27 -6.45,-6.54 -9.68,-9.8 5.38,-2.58 -2.77,-15.99 -4.16,-20.06 -3.91,-11.45 -6.74,-23.44 -9.47,-35.29 -5.56,-24.08 -13.89,-46.23 -21.43,-69.56 -7.71,-23.83 -10.62,-47.19 -7.07,-72.3 1.71,-12.07 4.84,-23.73 6.9,-35.7 1.88,-10.98 0.69,-23.89 1.11,-35.08 37.19,-0.67 74.46,4.45 111.6,6.59 19.32,1.11 38.62,2.55 57.93,3.65 9.68,0.55 19.36,0.73 29.04,1.18 8.47,0.4 19.81,-0.82 27.66,3.15 0.67,5.5 -0.55,10.91 -1.99,16.12 -1.43,5.2 -5.5,5.49 -6.57,11.33 -0.76,4.14 -2.17,8.04 -3.06,12.14 -1.37,6.24 -0.24,12.75 -1.4,19.12 -2.42,13.28 -2.21,26.64 -4.94,39.88 -3.1,15.07 -6.6,29.81 -13.46,43.44 -12.57,25 -25.3,48.29 -35.03,74.93 -4.56,12.51 -8.88,24.99 -14.32,37.09 -1.8,4 -7.25,20.12 -11.99,21.11"
         style="fill:#9c0054;fill-opacity:1;fill-rule:nonzero;stroke:none"
         id="path26"
         inkscape:connector-curvature="0" />
      <path
         d="m 3585.81,5736.35 c -0.89,2.16 -15.37,37.63 -14.72,51.95 l 1.68,0 -0.34,2.21 1.68,2.21 c 0,0 1.68,-4.8 1.68,-2.21 0,2.58 2.67,7.75 2.67,7.75 l 3.7,0 c 0,0 0.33,4.06 13.07,-9.59 -0.7,0.37 -33.23,17.31 -9.42,-52.32 z m 41.6,40.88 c -1.16,1.52 -2.43,1.04 -5.03,3.03 -2.59,1.97 -2.61,1.15 -1.12,2.09 1.48,0.94 -1.49,-0.94 -3.18,-0.01 -1.7,0.93 -3.51,4.54 -3.84,5.59 -0.32,1.05 0.02,-5.84 0.02,-5.84 -15.3,8.36 -43.41,58.72 -50.95,16.21 -7.53,-42.52 25.54,-83.62 25.54,-83.62 l 1.28,0.46 c 15.08,35.18 46.2,59.55 45.35,58.85 -0.84,-0.71 -6.89,1.73 -8.07,3.24"
         style="fill:#6e6b6c;fill-opacity:1;fill-rule:nonzero;stroke:none"
         id="path28"
         inkscape:connector-curvature="0" />
      <path
         d="m 3754.9,5781.55 c 13.84,12.27 13.83,8.2 13.83,8.2 l 3.68,-0.39 c 0,0 2.22,-5.42 2,-7.99 -0.22,-2.58 1.86,2.03 1.86,2.03 l 1.48,-2.38 -0.52,-2.17 1.67,-0.17 c -0.57,-14.32 -18.03,-48.14 -19.09,-50.2 29.65,66.86 -4.19,53.36 -4.91,53.07 z m -41.33,-10.46 c -0.78,0.78 28.12,-26.69 40.13,-63.28 l 1.23,-0.59 c 0,0 36.44,37.51 32.57,80.61 -3.88,43.1 -36.17,-4.12 -52.1,-10.86 0,0 0.91,6.82 0.5,5.8 -0.41,-1.01 -2.52,-4.41 -4.29,-5.17 -1.76,-0.75 -4.56,1.43 -3.17,0.34 1.41,-1.09 1.46,-0.27 -1.3,-1.96 -2.75,-1.71 -3.97,-1.1 -5.26,-2.49 -1.3,-1.39 -7.53,-3.19 -8.31,-2.4"
         style="fill:#6e6b6c;fill-opacity:1;fill-rule:nonzero;stroke:none"
         id="path30"
         inkscape:connector-curvature="0" />
      <path
         d="m 3654.16,5602.31 c 0.16,-0.17 0.21,-0.26 0.28,-0.3 2.49,-1.3 4.94,-2.71 7.5,-3.86 3.17,-1.43 6.51,-1.92 9.98,-1.08 4.13,1 7.89,2.85 11.55,4.95 0.06,0.04 0.09,0.14 0.18,0.28 -0.24,0.02 -0.39,0.06 -0.55,0.05 -2.65,-0.09 -5.3,-0.12 -7.94,-0.3 -1.74,-0.12 -3.48,-0.4 -5.2,-0.69 -1.09,-0.18 -2.14,-0.2 -3.19,0.18 -0.49,0.18 -1.01,0.33 -1.53,0.4 -1.31,0.15 -2.62,0.32 -3.94,0.35 -2.33,0.06 -4.67,0.02 -7.14,0.02 z m -6.97,0.98 c 1.23,0.35 2.53,0.53 3.63,1.1 1.62,0.86 3.11,1.99 4.64,3.03 0.71,0.49 1.41,1.01 2.07,1.57 2.51,2.14 5.35,2.39 8.24,1.13 1.81,-0.78 3.4,-0.97 5.22,-0.12 0.97,0.45 2.14,0.5 3.23,0.67 1.7,0.27 3.25,-0.24 4.66,-1.13 1.49,-0.93 2.95,-1.91 4.39,-2.92 2.12,-1.48 4.28,-2.87 6.87,-3.39 0.32,-0.06 0.65,-0.08 1.19,-0.14 -1.2,-1.63 -2.25,-3.25 -3.48,-4.71 -3.41,-4.07 -7.49,-7.22 -12.64,-8.77 -7.33,-2.21 -13.96,-0.82 -19.88,4.01 -3.19,2.61 -5.78,5.73 -7.92,9.23 -0.08,0.12 -0.15,0.25 -0.21,0.38 -0.02,0.03 -0.01,0.09 -0.01,0.06"
         style="fill:#9c0054;fill-opacity:1;fill-rule:nonzero;stroke:none"
         id="path32"
         inkscape:connector-curvature="0" />
      <path
         d="m 3682.83,5331.59 c -17.63,-1.38 -35.26,-2.73 -52.88,-4.17 -1.26,-0.1 -2.05,0.45 -2.73,1.34 -1.19,1.57 -1.71,3.46 -1.94,5.48 -0.34,2.95 0.26,5.68 1.17,8.45 1.58,4.84 4.53,8.57 7.67,12.2 2.53,2.92 5.47,5.28 8.61,7.3 5.23,3.38 10.82,5.94 16.65,7.77 2.62,0.83 5.32,1.35 8,1.88 2.07,0.41 4.18,0.63 6.27,0.92 2.43,0.33 4.85,0.76 7.29,0.94 2.83,0.22 5.68,0.27 8.52,0.28 4.92,0 9.84,-0.23 14.67,-1.34 3.73,-0.85 7.52,-1.54 11.06,-3.25 2.58,-1.24 5.25,-2.28 7.76,-3.68 2.77,-1.54 5.4,-3.41 7.66,-5.8 2.98,-3.15 5.82,-6.42 7.51,-10.63 1.6,-3.96 1.94,-7.99 -0.03,-11.96 -0.45,-0.92 -1.07,-1.54 -2.19,-1.62 -17.69,-1.34 -35.38,-2.73 -53.07,-4.11"
         style="fill:#6e6b6c;fill-opacity:1;fill-rule:nonzero;stroke:none"
         id="path34"
         inkscape:connector-curvature="0" />
      <path
         d="m 3634.07,5253.56 c 2.16,0.82 4.14,1.65 6.17,2.33 2.11,0.7 4.21,0.97 5.98,-1.07 1.63,-1.89 3.48,-3.39 5.77,-4.28 1.77,-0.69 3.48,-0.56 5.26,-0.23 3.93,0.71 6.66,3.58 9.52,6.26 0.84,0.79 1.95,1.4 3.02,1.67 2.66,0.67 5.16,0.1 7.53,-1.48 2.22,-1.47 4.06,-3.54 6.57,-4.52 3.62,-1.42 6.84,-0.75 9.75,1.87 1.72,1.54 3.28,3.3 5.04,4.77 2.89,2.41 6.1,2.94 9.43,1.19 1.48,-0.79 2.8,-1.91 4.22,-2.86 2.87,-1.91 6,-2.58 9.29,-1.96 1.99,0.37 3.69,1.59 5.14,3.12 0.88,0.92 1.61,2.01 2.4,3.02 1.13,1.46 2.45,2.32 4.29,1.91 1.67,-0.36 3.35,-0.61 5.03,-0.88 0.47,-0.08 0.96,-0.11 1.44,-0.07 0.68,0.05 0.97,-0.21 1.02,-1 0.19,-3.44 0.29,-6.9 0.69,-10.31 0.35,-2.97 -0.16,-5.66 -1.37,-8.23 -0.83,-1.77 -2.31,-2.86 -3.89,-3.7 -1.69,-0.9 -3.5,-1.34 -5.4,-1.48 -28.28,-2.18 -56.56,-4.4 -84.84,-6.59 -2.98,-0.23 -5.78,0.6 -8,2.83 -1.05,1.06 -1.89,2.55 -2.42,4.02 -0.57,1.6 -0.78,3.39 -0.94,5.12 -0.31,3.56 -0.48,7.14 -0.7,10.55"
         style="fill:#6e6b6c;fill-opacity:1;fill-rule:nonzero;stroke:none"
         id="path36"
         inkscape:connector-curvature="0" />
      <path
         d="m 3739.77,5290.08 c 0.26,-4.1 0.52,-8.09 0.78,-12.16 -35.97,-2.81 -71.95,-5.62 -108,-8.43 -0.26,4.01 -0.52,8.02 -0.78,12.16 0.38,0.03 0.74,0.06 1.09,0.09 14.84,1.16 29.68,2.29 44.52,3.51 1.84,0.15 3.46,-0.06 5.01,-1.16 0.9,-0.65 1.91,-1.14 2.85,-1.74 0.54,-0.35 0.98,-0.29 1.46,0.11 1.34,1.09 2.66,2.21 4.03,3.23 0.48,0.36 1.09,0.63 1.66,0.67 15.47,1.24 30.95,2.44 46.43,3.65 0.29,0.02 0.59,0.04 0.95,0.07"
         style="fill:#6e6b6c;fill-opacity:1;fill-rule:nonzero;stroke:none"
         id="path38"
         inkscape:connector-curvature="0" />
      <path
         d="m 3683.17,5328.56 c 17.85,1.4 35.69,2.79 53.53,4.16 0.62,0.04 1.36,-0.12 1.87,-0.48 1.52,-1.06 3.09,-2.13 3.61,-4.26 0.22,-0.89 -0.19,-2.43 -0.85,-3.01 -1.54,-1.38 -3.28,-1.83 -5.24,-1.48 -2.14,0.38 -4.29,0.86 -6.46,1 -2.27,0.15 -4.45,-0.33 -6.01,-2.5 -0.89,-1.23 -1.78,-2.48 -2.81,-3.57 -2.08,-2.2 -4.54,-2.76 -7.36,-1.96 -2.4,0.67 -4.43,2.07 -6.44,3.53 -1.7,1.24 -3.5,2.04 -5.57,2.2 -4.18,0.32 -7.41,-1.72 -10.35,-4.63 -1.04,-1.02 -1.99,-2.16 -3.1,-3.06 -3.03,-2.45 -5.26,-2.46 -8.39,-0.32 -2.39,1.64 -4.54,3.75 -7.28,4.68 -1.22,0.41 -2.51,0.51 -3.78,0.74 -1.56,0.28 -3.02,-0.21 -4.48,-0.71 -1.9,-0.66 -3.3,-2.1 -4.7,-3.57 -2.25,-2.38 -4.84,-4.17 -8.05,-4.23 -2.48,-0.04 -4.5,1.31 -6.14,3.34 -1.52,1.88 -3.35,3.09 -5.7,3.09 -2.45,0 -4.67,-1.06 -6.96,-1.84 -2.07,-0.7 -4.08,-1.09 -6.22,-0.04 -1.27,0.62 -1.77,2.14 -1.61,3.22 0.38,2.48 1.99,4.04 3.8,5.34 0.22,0.17 0.58,0.14 0.88,0.16 17.94,1.4 35.87,2.8 53.81,4.2"
         style="fill:#6e6b6c;fill-opacity:1;fill-rule:nonzero;stroke:none"
         id="path40"
         inkscape:connector-curvature="0" />
      <path
         d="m 3686.84,5270.52 c 17.9,1.39 35.8,2.8 53.71,4.16 0.58,0.05 1.28,-0.14 1.78,-0.47 1.53,-1.04 3.07,-2.11 3.59,-4.22 0.21,-0.82 -0.2,-2.43 -0.8,-2.96 -1.57,-1.42 -3.32,-1.91 -5.34,-1.52 -2.15,0.41 -4.31,0.84 -6.48,1.03 -2.26,0.2 -4.32,-0.54 -5.87,-2.5 -0.95,-1.19 -1.8,-2.47 -2.82,-3.57 -2.09,-2.25 -4.59,-2.77 -7.43,-2.01 -2.39,0.65 -4.41,2.05 -6.42,3.52 -1.67,1.23 -3.45,2.07 -5.5,2.24 -4.19,0.37 -7.43,-1.73 -10.4,-4.63 -0.93,-0.9 -1.77,-1.9 -2.73,-2.75 -1.3,-1.15 -2.7,-2.12 -4.43,-2.23 -1.63,-0.09 -3.04,0.69 -4.37,1.58 -1.8,1.2 -3.52,2.56 -5.35,3.71 -1.81,1.15 -3.76,1.73 -5.93,1.78 -3.73,0.07 -6.54,-1.69 -9.07,-4.48 -2.22,-2.45 -4.92,-4.15 -8.15,-4.09 -2.39,0.05 -4.44,1.3 -6.01,3.4 -0.48,0.65 -1.09,1.25 -1.75,1.68 -1.86,1.19 -3.83,1.79 -5.99,1.08 -2.33,-0.77 -4.66,-1.55 -7.01,-2.22 -1.74,-0.49 -3.4,0.07 -4.81,1.18 -0.83,0.64 -0.99,1.79 -0.8,2.87 0.43,2.32 1.97,3.73 3.62,5 0.27,0.2 0.69,0.19 1.05,0.22 17.91,1.4 35.81,2.8 53.71,4.2"
         style="fill:#6e6b6c;fill-opacity:1;fill-rule:nonzero;stroke:none"
         id="path42"
         inkscape:connector-curvature="0" />
      <path
         d="m 3630.42,5302.14 c -0.21,3.28 -0.41,6.44 -0.61,9.49 1.74,0.57 3.39,1.13 5.05,1.67 1.12,0.36 2.23,0.73 3.36,1.06 1.22,0.35 2.39,0.04 3.37,-0.74 0.88,-0.69 1.59,-1.64 2.42,-2.41 0.59,-0.56 1.22,-1.09 1.9,-1.5 4.26,-2.6 8.44,-2.2 12.39,0.76 1.69,1.26 3.15,2.89 4.79,4.24 1.51,1.23 3.18,1.92 5.17,1.88 3.24,-0.08 5.69,-1.92 8.09,-3.96 2.72,-2.31 5.69,-3.69 9.16,-2.96 2.16,0.46 4,1.76 5.58,3.46 1.87,2.02 3.67,4.19 6.17,5.24 2.64,1.11 5.29,1.11 7.77,-0.7 2.41,-1.76 4.78,-3.65 7.68,-4.3 4.33,-0.98 8.09,0.1 11.07,3.9 1.08,1.38 1.95,3.02 3.55,3.81 0.33,0.16 0.69,0.35 1.03,0.32 1.6,-0.14 3.21,-0.3 4.81,-0.53 1.5,-0.22 3,-0.52 4.63,-0.81 0.2,-3.02 0.4,-6.23 0.61,-9.49 -35.98,-2.81 -71.95,-5.62 -107.99,-8.43"
         style="fill:#6e6b6c;fill-opacity:1;fill-rule:nonzero;stroke:none"
         id="path44"
         inkscape:connector-curvature="0" />
      <path
         d="m 3675.34,5287.69 c -0.26,-0.02 -0.51,-0.04 -0.77,-0.06 -13.44,-1.04 -26.88,-2.1 -40.31,-3.14 -3.26,-0.25 -6.25,2.16 -7.12,5.25 -1.02,3.64 0.85,7.51 3.64,8.93 0.29,0.15 0.65,0.15 0.98,0.17 6.76,0.54 13.53,1.03 20.29,1.63 1.14,0.1 1.99,-0.45 2.88,-0.94 4.39,-2.46 8.77,-4.95 13.14,-7.44 2.43,-1.39 4.85,-2.8 7.27,-4.19 0,-0.07 0,-0.14 0,-0.21"
         style="fill:#6e6b6c;fill-opacity:1;fill-rule:nonzero;stroke:none"
         id="path46"
         inkscape:connector-curvature="0" />
      <path
         d="m 3695.6,5289.47 c 1.31,1.02 2.62,2.03 3.93,3.05 4.7,3.65 9.39,7.31 14.09,10.97 0.65,0.51 1.31,1.04 2,1.49 0.4,0.25 0.88,0.47 1.34,0.5 6.88,0.57 13.77,1.12 20.66,1.6 0.62,0.05 1.34,-0.2 1.89,-0.55 2.1,-1.34 3.67,-3.2 3.75,-6.02 0.12,-4.47 -2.63,-7.67 -6.43,-7.99 -13.34,-1.11 -26.7,-2.11 -40.04,-3.15 -0.38,-0.03 -0.76,-0.06 -1.14,-0.09 -0.02,0.07 -0.03,0.13 -0.05,0.19"
         style="fill:#6e6b6c;fill-opacity:1;fill-rule:nonzero;stroke:none"
         id="path48"
         inkscape:connector-curvature="0" />
      <path
         d="m 3658.97,5300.9 c 17.19,1.35 34.18,2.67 51.17,4 0.03,-0.07 0.07,-0.14 0.1,-0.21 -1.19,-0.91 -2.4,-1.81 -3.59,-2.72 -3.73,-2.89 -7.46,-5.8 -11.2,-8.67 -2.42,-1.86 -4.87,-3.67 -7.3,-5.52 -0.69,-0.52 -1.33,-1.13 -2.02,-1.64 -0.19,-0.14 -0.56,-0.18 -0.76,-0.07 -5.56,3.09 -11.11,6.22 -16.67,9.31 -2.81,1.56 -5.64,3.08 -8.46,4.63 -0.39,0.21 -0.73,0.51 -1.27,0.89"
         style="fill:#6e6b6c;fill-opacity:1;fill-rule:nonzero;stroke:none"
         id="path50"
         inkscape:connector-curvature="0" />
      <path
         d="m 4208.3,5146.63 c 6.23,34.99 15.34,69.49 27.33,103.55 11.98,34.03 25.76,66.74 41.34,98.14 15.57,31.39 32.36,61.13 50.32,89.16 17.99,28.05 35.98,53.45 53.94,76.22 17.99,22.76 35.46,42.8 52.49,60.04 17.01,17.26 32.24,30.93 45.67,40.99 8.62,6.22 18.57,11.03 29.83,14.39 11.26,3.35 22.29,5.5 33.08,6.47 10.79,0.94 20.49,0.47 29.13,-1.44 8.62,-1.92 14.36,-5.03 17.24,-9.35 2.89,-4.32 2.17,-9.83 -2.15,-16.54 -4.32,-6.72 -13.9,-14.38 -28.76,-23.01 -30.2,-18.22 -59.45,-41.34 -87.72,-69.4 -28.3,-28.03 -54.42,-58.47 -78.39,-91.31 -23.97,-32.84 -45.53,-66.62 -64.71,-101.38 -19.18,-34.76 -34.99,-67.72 -47.44,-98.86 9.58,7.66 18.8,13.64 27.68,17.96 8.85,4.32 17.36,6.47 25.51,6.47 8.64,0 16.3,-2.52 23.01,-7.54 6.71,-5.03 12.82,-10.56 18.34,-16.54 5.51,-6 10.79,-11.5 15.81,-16.54 5.05,-5.02 10.44,-7.55 16.19,-7.55 9.11,0 18.69,2.15 28.76,6.47 10.06,4.32 19.78,9.95 29.12,16.89 9.35,6.94 18.09,14.39 26.24,22.29 8.15,7.92 15.11,15.46 20.86,22.66 5.75,7.19 11.14,12.1 16.19,14.74 5.02,2.64 9.09,3.48 12.21,2.52 3.11,-0.98 4.68,-3.6 4.68,-7.92 0,-4.3 -2.41,-10.3 -7.2,-17.96 -4.79,-7.69 -13.43,-18.48 -25.88,-32.36 -12.47,-13.92 -26.37,-27.82 -41.7,-41.72 -15.35,-13.89 -31.04,-26 -47.09,-36.3 -16.07,-10.32 -30.09,-15.46 -42.07,-15.46 -15.35,0 -26.49,3.6 -33.43,10.79 -6.96,7.19 -12.36,14.97 -16.19,23.36 -3.85,8.39 -6.96,16.19 -9.34,23.36 -2.41,7.2 -6.48,10.79 -12.22,10.79 -6.24,0 -13.92,-3.71 -23.01,-11.14 -9.13,-7.43 -17.75,-15.23 -25.91,-23.36 -4.3,-11.98 -9.81,-21.82 -16.53,-29.48 -6.71,-7.66 -13.06,-12.71 -19.04,-15.11 -6.01,-2.39 -10.68,-1.9 -14.02,1.44 -3.36,3.37 -4.09,10.54 -2.17,21.57"
         style="fill:#9c0054;fill-opacity:1;fill-rule:nonzero;stroke:none"
         id="path52"
         inkscape:connector-curvature="0" />
      <path
         d="m 4709.46,5457.99 c -9.11,-9.6 -19.06,-15.47 -29.83,-17.64 -10.79,-2.15 -19.55,-0.11 -26.25,6.12 -6.24,6.22 -8.39,14.74 -6.47,25.54 1.91,10.79 7.42,20.95 16.53,30.55 9.11,9.58 19.07,15.46 29.84,17.61 10.79,2.15 19.53,0.12 26.25,-6.11 6.22,-6.22 8.39,-14.74 6.47,-25.52 -1.91,-10.79 -7.43,-20.97 -16.54,-30.55 z m -51.76,-189.12 c 5.74,7.19 11.26,12.1 16.54,14.74 5.25,2.64 9.46,3.48 12.57,2.52 3.12,-0.98 4.67,-3.6 4.67,-7.92 0,-4.3 -2.41,-10.3 -7.18,-17.96 -4.81,-7.69 -13.43,-18.48 -25.88,-32.36 -12.47,-13.92 -26.51,-27.82 -42.07,-41.72 -15.58,-13.89 -31.4,-26 -47.47,-36.3 -16.06,-10.32 -30.08,-15.46 -42.05,-15.46 -8.15,0 -13.9,4.42 -17.26,13.29 -3.34,8.88 -4.67,20.74 -3.95,35.6 0.71,14.86 3.48,31.75 8.27,50.69 4.79,18.95 11.61,38.48 20.49,58.61 8.86,20.14 19.76,40.14 32.71,60.04 12.94,19.88 27.56,37.98 43.86,54.29 4.33,3.83 9.58,5.63 15.82,5.39 6.24,-0.25 11.98,-1.45 17.26,-3.6 5.26,-2.15 9.35,-4.92 12.22,-8.27 2.87,-3.36 2.87,-6.23 0,-8.62 -4.79,-4.32 -10.18,-9.48 -16.17,-15.46 -6,-6 -12,-12.59 -17.98,-19.78 -6,-7.18 -11.75,-14.63 -17.26,-22.29 -5.52,-7.66 -10.19,-15.09 -14.02,-22.29 -5.75,-11.02 -10.67,-22.05 -14.74,-33.07 -4.09,-11.03 -6.82,-21.1 -8.27,-30.21 -1.43,-9.11 -1.56,-16.77 -0.35,-23.01 1.19,-6.23 3.95,-10.06 8.27,-11.49 3.34,-0.98 8.36,0 15.09,2.87 6.7,2.88 14.02,6.94 21.93,12.22 7.92,5.28 15.94,11.38 24.09,18.34 8.15,6.94 15.11,14.01 20.86,21.21"
         style="fill:#9c0054;fill-opacity:1;fill-rule:nonzero;stroke:none"
         id="path54"
         inkscape:connector-curvature="0" />
      <path
         d="m 4752.61,5388.24 c -4.81,-10.56 -9.13,-20.75 -12.96,-30.56 -3.83,-9.83 -6.94,-19.55 -9.35,-29.13 17.27,20.61 34.64,41.7 52.14,63.28 17.5,21.57 33.08,42.43 46.74,62.56 13.67,20.14 24.67,39.06 33.08,56.79 8.37,17.73 12.34,33.55 11.87,47.47 -8.64,-1.92 -17.87,-7.69 -27.7,-17.26 -9.82,-9.6 -20.02,-21.94 -30.56,-37.03 -10.54,-15.09 -21.21,-32.61 -32,-52.49 -10.77,-19.9 -21.21,-41.11 -31.26,-63.63 z m -66.88,-251.68 c -11.51,0 -19.06,7.56 -22.66,22.66 -3.59,15.09 -3.83,34.87 -0.72,59.31 3.13,24.46 9.25,52.02 18.34,82.69 9.11,30.68 20.6,61.6 34.52,92.76 9.09,21.1 19.41,41.82 30.91,62.21 11.51,20.37 23.61,39.65 36.32,57.87 12.69,18.22 25.63,34.64 38.83,49.26 13.17,14.62 26,26.35 38.47,35.23 12.45,8.87 24.32,14.5 35.6,16.91 11.24,2.38 21.44,0.47 30.55,-5.77 11.97,-8.62 14.26,-23.97 6.83,-46.02 -7.43,-22.05 -21.33,-47.93 -41.7,-77.65 -20.39,-29.73 -45.67,-62.09 -75.87,-97.06 -30.19,-35.01 -61.84,-69.75 -94.91,-104.28 -5.28,-24.43 -6.24,-42.91 -2.88,-55.36 3.34,-12.47 8.15,-19.18 14.39,-20.14 3.34,-0.46 8.62,0.96 15.82,4.32 7.19,3.35 15.09,7.92 23.73,13.67 8.62,5.75 17.12,12.34 25.53,19.76 8.37,7.43 15.44,14.74 21.21,21.94 5.75,7.19 11.24,12.1 16.54,14.74 5.26,2.64 9.44,3.48 12.57,2.52 3.11,-0.98 4.67,-3.6 4.67,-7.92 0,-4.3 -2.4,-10.3 -7.17,-17.96 -4.81,-7.69 -13.67,-18.34 -26.61,-32.01 -12.94,-13.66 -27.33,-27.32 -43.14,-40.99 -15.82,-13.65 -31.77,-25.51 -47.82,-35.58 -16.07,-10.07 -29.85,-15.11 -41.35,-15.11"
         style="fill:#9c0054;fill-opacity:1;fill-rule:nonzero;stroke:none"
         id="path56"
         inkscape:connector-curvature="0" />
      <path
         d="m 4948.9,5514.06 c 6.71,-4.31 10.42,-10.42 11.15,-18.32 0.7,-7.92 -2.29,-16.91 -9,-26.98 -4.32,-6.24 -9.59,-12.71 -15.81,-19.41 -6.24,-6.71 -12.94,-13.06 -20.14,-19.06 -7.19,-5.99 -14.62,-11.5 -22.28,-16.52 -7.69,-5.05 -14.88,-8.99 -21.59,-11.87 -6.7,-2.87 -11.63,-3.6 -14.74,-2.17 -3.12,1.45 -1.33,6.47 5.4,15.11 5.28,7.18 9.58,13.9 12.94,20.14 3.34,6.22 6.35,12.45 8.99,18.69 2.62,6.21 5.03,12.33 7.2,18.34 2.15,5.98 4.9,11.86 8.27,17.61 6.7,11.98 13.9,20.86 21.56,26.61 7.66,5.74 17.01,5.02 28.05,-2.17"
         style="fill:#9c0054;fill-opacity:1;fill-rule:nonzero;stroke:none"
         id="path58"
         inkscape:connector-curvature="0" />
      <path
         d="m 5357.31,5180.43 c 5.74,-7.2 14.74,-8.88 26.96,-5.03 12.23,3.83 25.76,11.5 40.62,23.01 14.86,11.5 30.44,26.36 46.74,44.58 16.31,18.22 31.65,38.33 46.02,60.4 -31.16,-8.64 -57.42,-19.31 -78.72,-32 -21.35,-12.71 -38.48,-25.41 -51.42,-38.12 -12.94,-12.71 -21.82,-23.97 -26.61,-33.78 -4.78,-9.84 -6,-16.19 -3.59,-19.06 z m 286.18,163.94 c 5.75,0 10.18,-1.33 13.29,-3.95 3.13,-2.64 4.56,-5.51 4.32,-8.64 -0.25,-3.11 -2.03,-5.98 -5.39,-8.62 -3.37,-2.64 -8.15,-3.95 -14.37,-3.95 -8.64,0 -17.38,-0.14 -26.26,-0.37 -8.87,-0.24 -17.14,-0.84 -24.8,-1.8 -14.37,-23.97 -31.28,-46.72 -50.7,-68.31 -19.41,-21.56 -39.66,-40.97 -60.75,-58.23 -21.1,-17.27 -42.31,-31.89 -63.64,-43.87 -21.33,-11.99 -40.99,-20.61 -58.96,-25.89 -17.98,-5.26 -33.56,-6.7 -46.74,-4.32 -13.2,2.41 -21.93,9.37 -26.24,20.86 -6.23,15.35 -3.49,32.36 8.27,51.07 11.73,18.68 29.35,37.26 52.85,55.71 23.47,18.45 51.65,35.46 84.49,51.06 32.82,15.56 67.23,27.68 103.18,36.31 13.41,20.13 24.2,43.26 32.35,69.38 8.16,26.13 11.87,51.18 11.15,75.14 -0.73,23.97 -6.83,45.07 -18.34,63.28 -11.5,18.21 -30.44,29.72 -56.81,34.51 -6.71,0.96 -13.41,1.8 -20.12,2.52 -6.72,0.72 -13.43,1.08 -20.13,1.08 l -2.88,-3.6 c -23.98,-32.12 -46.62,-66.04 -67.95,-101.73 -21.35,-35.72 -41,-71.91 -58.96,-108.58 -17.99,-36.68 -34.06,-72.98 -48.19,-108.95 -14.13,-35.95 -26,-69.73 -35.58,-101.38 -4.32,-13.9 -9.95,-25.4 -16.91,-34.51 -6.94,-9.11 -13.55,-15.21 -19.76,-18.33 -6.24,-3.11 -11.28,-3 -15.12,0.35 -3.83,3.36 -4.79,10.79 -2.87,22.3 9.11,51.77 21.21,99.94 36.32,144.53 15.09,44.57 31.03,85.43 47.82,122.59 16.77,37.15 33.66,70.58 50.69,100.31 17.01,29.72 32,55.37 44.95,76.93 -21.59,-5.75 -42.07,-13.41 -61.49,-23.01 -19.41,-9.58 -36.44,-20.37 -51.06,-32.35 -14.62,-11.99 -26.49,-24.93 -35.58,-38.83 -9.11,-13.92 -14.15,-27.8 -15.11,-41.7 -19.65,14.84 -28.88,32.59 -27.68,53.2 1.19,20.6 10.3,40.99 27.33,61.13 17.01,20.13 40.37,38.47 70.1,55.01 29.72,16.54 63.52,28.15 101.38,34.87 35,5.75 69.76,8.14 104.28,7.18 34.5,-0.96 64.22,-7.43 89.14,-19.41 27.33,-13.9 46.98,-31.64 58.96,-53.22 11.99,-21.56 18.34,-45.18 19.07,-70.82 0.72,-25.65 -3.23,-51.89 -11.87,-78.73 -8.62,-26.86 -19.41,-52.25 -32.36,-76.22 4.33,0 9.35,0.12 15.12,0.37 5.74,0.23 12.94,0.1 21.56,-0.37"
         style="fill:#9c0054;fill-opacity:1;fill-rule:nonzero;stroke:none"
         id="path60"
         inkscape:connector-curvature="0" />
      <path
         d="m 5775.08,5376 c -5.75,4.32 -13.06,5.51 -21.94,3.6 -8.87,-1.92 -17.96,-6.24 -27.31,-12.95 -9.34,-6.7 -18.22,-15.58 -26.61,-26.6 -8.4,-11.03 -14.74,-23.25 -19.06,-36.66 4.79,-0.49 11.87,-0.72 21.21,-0.72 9.35,0 20.98,2.62 34.88,7.9 13.41,5.28 23.73,11.02 30.93,17.26 7.17,6.24 12.1,12.47 14.74,18.69 2.62,6.23 3.11,11.98 1.42,17.26 -1.68,5.28 -4.43,9.34 -8.26,12.22 z m 52.49,-107.13 c 4.78,7.19 9.57,12.33 14.38,15.46 4.79,3.11 8.86,4.19 12.22,3.23 3.34,-0.96 5.14,-3.72 5.4,-8.27 0.23,-4.56 -1.8,-10.91 -6.12,-19.04 -2.88,-5.28 -7.78,-13.08 -14.74,-23.38 -6.94,-10.31 -15.35,-21.33 -25.16,-33.08 -9.83,-11.75 -21.1,-23.13 -33.8,-34.15 -12.71,-11.03 -26.37,-20.14 -40.98,-27.31 -14.64,-7.2 -29.97,-11.52 -46.02,-12.95 -16.07,-1.44 -32.72,1.92 -49.98,10.05 -13.9,6.73 -23.72,17.38 -29.48,32 -5.75,14.63 -8.14,31.28 -7.18,49.99 0.96,18.69 4.91,38.46 11.87,59.31 6.94,20.86 15.91,40.63 26.96,59.32 10.53,17.73 22.75,33.92 36.67,48.54 13.9,14.62 28.41,26 43.5,34.15 15.09,8.15 30.3,12.47 45.66,12.94 15.33,0.47 29.95,-4.3 43.85,-14.37 10.07,-7.19 17.27,-16.44 21.59,-27.68 4.3,-11.28 4.9,-23.26 1.79,-35.95 -3.12,-12.71 -10.32,-25.3 -21.58,-37.75 -11.26,-12.47 -27.21,-23.73 -47.82,-33.8 -9.11,-4.32 -18.45,-7.31 -28.03,-8.99 -9.6,-1.68 -18.71,-2.64 -27.33,-2.88 -8.62,-0.25 -16.65,0.12 -24.08,1.08 -7.45,0.96 -13.79,1.92 -19.06,2.87 -1.43,-7.66 -2.88,-15.93 -4.32,-24.81 -1.43,-8.87 -2.16,-17.37 -2.16,-25.51 0,-8.17 1.08,-15.46 3.25,-21.93 2.15,-6.47 6.1,-11.14 11.87,-14.04 12.45,-6.7 26.35,-7.78 41.7,-3.22 15.32,4.55 30.06,11.49 44.22,20.86 14.13,9.34 26.95,19.76 38.47,31.27 11.49,11.5 19.65,20.84 24.44,28.04"
         style="fill:#9c0054;fill-opacity:1;fill-rule:nonzero;stroke:none"
         id="path62"
         inkscape:connector-curvature="0" />
      <path
         d="m 5922.48,5388.24 c -4.81,-10.56 -9.13,-20.75 -12.96,-30.56 -3.84,-9.83 -6.94,-19.55 -9.35,-29.13 17.26,20.61 34.64,41.7 52.14,63.28 17.5,21.57 33.08,42.43 46.74,62.56 13.67,20.14 24.67,39.06 33.08,56.79 8.37,17.73 12.33,33.55 11.87,47.47 -8.65,-1.92 -17.87,-7.69 -27.71,-17.26 -9.81,-9.6 -20.01,-21.94 -30.55,-37.03 -10.54,-15.09 -21.21,-32.61 -32,-52.49 -10.78,-19.9 -21.21,-41.11 -31.26,-63.63 z m 119.35,-119.37 c 4.78,7.19 9.71,12.22 14.74,15.09 5.04,2.89 9.22,3.97 12.59,3.25 3.34,-0.73 5.14,-3.48 5.39,-8.27 0.24,-4.79 -2.05,-11.03 -6.84,-18.69 -5.28,-8.64 -11.5,-15.82 -18.69,-21.59 -7.19,-5.74 -14.86,-10.18 -23.01,-13.29 -8.15,-3.13 -16.3,-4.81 -24.46,-5.04 -8.15,-0.24 -15.58,0.84 -22.28,3.24 -8.15,-12.47 -17.26,-24.34 -27.31,-35.6 -10.07,-11.26 -20.51,-20.97 -31.28,-29.11 -10.79,-8.17 -21.7,-14.27 -32.73,-18.33 -11.02,-4.09 -21.81,-5.4 -32.35,-3.97 -11.52,1.45 -19.06,9.83 -22.66,25.18 -3.6,15.33 -3.83,34.97 -0.72,58.96 3.13,23.97 9.24,51.04 18.34,81.25 9.11,30.2 20.6,60.87 34.52,92.03 9.09,21.1 19.41,41.82 30.91,62.21 11.51,20.37 23.61,39.65 36.32,57.87 12.69,18.22 25.63,34.64 38.82,49.26 13.18,14.62 26.01,26.35 38.48,35.23 12.45,8.87 24.32,14.5 35.6,16.91 11.24,2.38 21.44,0.47 30.55,-5.77 11.97,-8.62 14.25,-23.97 6.82,-46.02 -7.42,-22.05 -21.32,-47.93 -41.69,-77.65 -20.39,-29.73 -45.67,-62.09 -75.87,-97.06 -30.19,-35.01 -61.84,-69.75 -94.92,-104.28 -5.27,-24.43 -6.82,-43.14 -4.67,-56.08 2.17,-12.94 6.84,-20.61 14.02,-23.01 10.55,-2.88 21.09,-0.47 31.65,7.19 10.54,7.66 19.16,16.05 25.88,25.16 -8.62,10.07 -12.71,22.78 -12.22,38.12 0.47,15.33 3.6,29.83 9.35,43.5 5.75,13.66 13.29,24.93 22.64,33.8 9.36,8.86 18.33,11.61 26.97,8.27 7.2,-2.4 12.11,-7.08 14.74,-14.02 2.62,-6.96 3.35,-15.34 2.15,-25.18 -1.19,-9.83 -3.83,-20.74 -7.89,-32.7 -4.09,-11.99 -9.48,-24.22 -16.19,-36.68 6.71,-4.32 14.25,-5.28 22.66,-2.87 8.36,2.38 15.93,8.62 22.64,18.69"
         style="fill:#9c0054;fill-opacity:1;fill-rule:nonzero;stroke:none"
         id="path64"
         inkscape:connector-curvature="0" />
      <path
         d="m 6136.76,5388.24 c -4.81,-10.56 -9.13,-20.75 -12.96,-30.56 -3.84,-9.83 -6.94,-19.55 -9.35,-29.13 17.26,20.61 34.64,41.7 52.14,63.28 17.5,21.57 33.08,42.43 46.74,62.56 13.67,20.14 24.67,39.06 33.08,56.79 8.37,17.73 12.33,33.55 11.87,47.47 -8.65,-1.92 -17.87,-7.69 -27.71,-17.26 -9.81,-9.6 -20.01,-21.94 -30.55,-37.03 -10.54,-15.09 -21.21,-32.61 -32,-52.49 -10.78,-19.9 -21.22,-41.11 -31.26,-63.63 z m 119.35,-119.37 c 4.78,7.19 9.71,12.22 14.74,15.09 5.04,2.89 9.22,3.97 12.59,3.25 3.34,-0.73 5.14,-3.48 5.39,-8.27 0.23,-4.79 -2.05,-11.03 -6.84,-18.69 -5.28,-8.64 -11.5,-15.82 -18.69,-21.59 -7.19,-5.74 -14.86,-10.18 -23.01,-13.29 -8.15,-3.13 -16.3,-4.81 -24.46,-5.04 -8.15,-0.24 -15.58,0.84 -22.28,3.24 -8.15,-12.47 -17.26,-24.34 -27.31,-35.6 -10.07,-11.26 -20.51,-20.97 -31.28,-29.11 -10.79,-8.17 -21.7,-14.27 -32.73,-18.33 -11.02,-4.09 -21.81,-5.4 -32.35,-3.97 -11.52,1.45 -19.06,9.83 -22.66,25.18 -3.6,15.33 -3.83,34.97 -0.72,58.96 3.13,23.97 9.24,51.04 18.34,81.25 9.1,30.2 20.6,60.87 34.52,92.03 9.09,21.1 19.41,41.82 30.91,62.21 11.51,20.37 23.61,39.65 36.32,57.87 12.69,18.22 25.63,34.64 38.82,49.26 13.18,14.62 26,26.35 38.48,35.23 12.45,8.87 24.32,14.5 35.6,16.91 11.24,2.38 21.44,0.47 30.55,-5.77 11.97,-8.62 14.25,-23.97 6.82,-46.02 -7.42,-22.05 -21.32,-47.93 -41.69,-77.65 -20.39,-29.73 -45.67,-62.09 -75.87,-97.06 -30.19,-35.01 -61.84,-69.75 -94.92,-104.28 -5.28,-24.43 -6.82,-43.14 -4.67,-56.08 2.17,-12.94 6.84,-20.61 14.02,-23.01 10.55,-2.88 21.09,-0.47 31.65,7.19 10.53,7.66 19.16,16.05 25.88,25.16 -8.62,10.07 -12.71,22.78 -12.22,38.12 0.47,15.33 3.6,29.83 9.35,43.5 5.75,13.66 13.29,24.93 22.64,33.8 9.36,8.86 18.33,11.61 26.97,8.27 7.2,-2.4 12.1,-7.08 14.74,-14.02 2.62,-6.96 3.35,-15.34 2.15,-25.18 -1.19,-9.83 -3.83,-20.74 -7.89,-32.7 -4.09,-11.99 -9.49,-24.22 -16.19,-36.68 6.7,-4.32 14.25,-5.28 22.66,-2.87 8.36,2.38 15.93,8.62 22.64,18.69"
         style="fill:#9c0054;fill-opacity:1;fill-rule:nonzero;stroke:none"
         id="path66"
         inkscape:connector-curvature="0" />
      <path
         d="m 6454.57,5457.99 c -9.11,-9.6 -19.06,-15.47 -29.83,-17.64 -10.79,-2.15 -19.55,-0.11 -26.26,6.12 -6.23,6.22 -8.38,14.74 -6.47,25.54 1.92,10.79 7.43,20.95 16.54,30.55 9.11,9.58 19.06,15.46 29.83,17.61 10.79,2.15 19.53,0.12 26.26,-6.11 6.21,-6.22 8.38,-14.74 6.47,-25.52 -1.92,-10.79 -7.43,-20.97 -16.54,-30.55 z m -51.77,-189.12 c 5.75,7.19 11.26,12.1 16.54,14.74 5.26,2.64 9.46,3.48 12.57,2.52 3.13,-0.98 4.67,-3.6 4.67,-7.92 0,-4.3 -2.4,-10.3 -7.17,-17.96 -4.81,-7.69 -13.43,-18.48 -25.88,-32.36 -12.48,-13.92 -26.51,-27.82 -42.07,-41.72 -15.58,-13.89 -31.4,-26 -47.47,-36.3 -16.07,-10.32 -30.09,-15.46 -42.05,-15.46 -8.15,0 -13.9,4.42 -17.26,13.29 -3.35,8.88 -4.67,20.74 -3.95,35.6 0.7,14.86 3.48,31.75 8.27,50.69 4.79,18.95 11.61,38.48 20.49,58.61 8.85,20.14 19.76,40.14 32.7,60.04 12.94,19.88 27.57,37.98 43.87,54.29 4.32,3.83 9.58,5.63 15.82,5.39 6.23,-0.25 11.98,-1.45 17.26,-3.6 5.26,-2.15 9.34,-4.92 12.22,-8.27 2.87,-3.36 2.87,-6.23 0,-8.62 -4.79,-4.32 -10.19,-9.48 -16.17,-15.46 -6,-6 -12,-12.59 -17.99,-19.78 -6,-7.18 -11.75,-14.63 -17.26,-22.29 -5.51,-7.66 -10.18,-15.09 -14.02,-22.29 -5.74,-11.02 -10.67,-22.05 -14.74,-33.07 -4.08,-11.03 -6.82,-21.1 -8.26,-30.21 -1.43,-9.11 -1.57,-16.77 -0.36,-23.01 1.2,-6.23 3.95,-10.06 8.27,-11.49 3.35,-0.98 8.37,0 15.09,2.87 6.71,2.88 14.02,6.94 21.94,12.22 7.92,5.28 15.93,11.38 24.08,18.34 8.16,6.94 15.12,14.01 20.86,21.21"
         style="fill:#9c0054;fill-opacity:1;fill-rule:nonzero;stroke:none"
         id="path68"
         inkscape:connector-curvature="0" />
      <path
         d="m 6577.51,5376 c -5.74,4.32 -13.05,5.51 -21.93,3.6 -8.87,-1.92 -17.97,-6.24 -27.31,-12.95 -9.34,-6.7 -18.22,-15.58 -26.61,-26.6 -8.4,-11.03 -14.74,-23.25 -19.06,-36.66 4.79,-0.49 11.87,-0.72 21.21,-0.72 9.35,0 20.98,2.62 34.88,7.9 13.41,5.28 23.73,11.02 30.93,17.26 7.17,6.24 12.1,12.47 14.74,18.69 2.62,6.23 3.11,11.98 1.42,17.26 -1.68,5.28 -4.43,9.34 -8.27,12.22 z M 6630,5268.87 c 4.79,7.19 9.58,12.33 14.39,15.46 4.79,3.11 8.86,4.19 12.22,3.23 3.34,-0.96 5.14,-3.72 5.4,-8.27 0.23,-4.56 -1.8,-10.91 -6.12,-19.04 -2.88,-5.28 -7.78,-13.08 -14.74,-23.38 -6.94,-10.31 -15.35,-21.33 -25.16,-33.08 -9.84,-11.75 -21.1,-23.13 -33.8,-34.15 -12.71,-11.03 -26.37,-20.14 -40.98,-27.31 -14.64,-7.2 -29.97,-11.52 -46.02,-12.95 -16.07,-1.44 -32.72,1.92 -49.98,10.05 -13.9,6.73 -23.72,17.38 -29.48,32 -5.75,14.63 -8.14,31.28 -7.18,49.99 0.96,18.69 4.91,38.46 11.87,59.31 6.94,20.86 15.91,40.63 26.96,59.32 10.53,17.73 22.75,33.92 36.67,48.54 13.9,14.62 28.4,26 43.5,34.15 15.09,8.15 30.3,12.47 45.66,12.94 15.33,0.47 29.95,-4.3 43.85,-14.37 10.07,-7.19 17.26,-16.44 21.59,-27.68 4.3,-11.28 4.9,-23.26 1.79,-35.95 -3.12,-12.71 -10.32,-25.3 -21.58,-37.75 -11.26,-12.47 -27.21,-23.73 -47.82,-33.8 -9.11,-4.32 -18.45,-7.31 -28.03,-8.99 -9.6,-1.68 -18.71,-2.64 -27.33,-2.88 -8.62,-0.25 -16.66,0.12 -24.08,1.08 -7.45,0.96 -13.79,1.92 -19.06,2.87 -1.43,-7.66 -2.88,-15.93 -4.33,-24.81 -1.42,-8.87 -2.15,-17.37 -2.15,-25.51 0,-8.17 1.08,-15.46 3.25,-21.93 2.15,-6.47 6.1,-11.14 11.87,-14.04 12.45,-6.7 26.35,-7.78 41.69,-3.22 15.33,4.55 30.07,11.49 44.23,20.86 14.13,9.34 26.95,19.76 38.47,31.27 11.49,11.5 19.65,20.84 24.43,28.04"
         style="fill:#9c0054;fill-opacity:1;fill-rule:nonzero;stroke:none"
         id="path70"
         inkscape:connector-curvature="0" />
      <path
         d="m 6675.3,5410.52 c -6.72,4.32 -10.44,10.42 -11.16,18.34 -0.71,7.92 2.29,16.89 8.99,26.96 4.32,6.23 9.58,12.71 15.82,19.41 6.23,6.71 12.94,13.06 20.13,19.06 7.2,5.98 14.62,11.52 22.31,16.54 7.64,5.02 14.83,8.99 21.56,11.87 6.71,2.87 11.61,3.59 14.74,2.15 3.11,-1.43 1.31,-6.47 -5.4,-15.1 -5.27,-7.19 -9.59,-14.01 -12.94,-20.48 -3.36,-6.47 -6.35,-12.71 -8.99,-18.71 -2.64,-6 -5.02,-11.99 -7.19,-17.97 -2.15,-6 -4.91,-11.86 -8.25,-17.61 -6.73,-12 -13.92,-20.86 -21.59,-26.61 -7.66,-5.77 -17.02,-5.04 -28.03,2.15"
         style="fill:#9c0054;fill-opacity:1;fill-rule:nonzero;stroke:none"
         id="path72"
         inkscape:connector-curvature="0" />
      <path
         d="m 6963.63,5268.87 c 5.75,7.19 11.38,12.1 16.91,14.74 5.5,2.64 9.82,3.34 12.94,2.15 3.11,-1.19 4.68,-3.95 4.68,-8.27 0,-4.3 -2.64,-10.05 -7.92,-17.24 -13.43,-17.75 -28.29,-35.6 -44.57,-53.57 -16.31,-17.98 -33.22,-33.68 -50.69,-47.11 -17.52,-13.41 -35.25,-23.48 -53.22,-30.19 -17.98,-6.72 -35.13,-7.42 -51.41,-2.17 -17.26,5.28 -28.29,13.06 -33.08,23.39 -4.79,10.3 -5.39,20.48 -1.8,30.55 3.6,10.07 9.95,18.69 19.06,25.88 9.09,7.2 18.93,10.31 29.48,9.35 -2.4,-5.28 -3.24,-10.91 -2.52,-16.89 0.72,-6 4.67,-10.91 11.87,-14.74 8.15,-4.32 17.26,-4.58 27.33,-0.73 10.07,3.84 19.41,12.46 28.03,25.89 5.28,8.62 8.86,18.45 10.79,29.48 1.9,11.02 2.39,22.28 1.43,33.8 -0.96,11.49 -3.23,22.87 -6.82,34.15 -3.6,11.26 -7.8,21.21 -12.59,29.83 -11.03,-12.47 -22.05,-25.16 -33.08,-38.1 -11.03,-12.94 -21.82,-25.88 -32.35,-38.82 -7.2,-9.11 -13.55,-14.74 -19.07,-16.91 -5.51,-2.15 -9.57,-2.27 -12.21,-0.35 -2.62,1.91 -3.6,5.27 -2.88,10.06 0.73,4.79 3.48,10.07 8.27,15.82 13.41,16.28 26.84,32.24 40.27,47.82 13.41,15.58 26.12,30.08 38.11,43.49 -4.79,12.48 -5.03,25.53 -0.73,39.2 4.32,13.66 10.91,26 19.79,37.03 8.85,11.02 18.8,19.53 29.83,25.53 11.02,5.98 20.86,7.29 29.48,3.95 8.15,-3.37 11.51,-11.75 10.07,-25.16 -1.43,-13.43 -8.16,-29.01 -20.14,-46.75 11.52,-28.75 17.73,-58 18.71,-87.71 0.96,-29.74 -2.64,-57.07 -10.79,-81.97 6.21,6.7 12.45,13.41 18.69,20.13 6.23,6.71 12.94,14.84 20.13,24.44"
         style="fill:#9c0054;fill-opacity:1;fill-rule:nonzero;stroke:none"
         id="path74"
         inkscape:connector-curvature="0" />
      <path
         d="m 4538.35,4886.46 c 11.96,10.54 18.92,21.1 20.84,31.66 1.91,10.53 -0.24,19.04 -6.47,25.51 -6.24,6.47 -16.05,10.07 -29.48,10.79 -13.41,0.72 -29.48,-3.23 -48.17,-11.87 -25.89,-12.47 -48.9,-27.56 -69.03,-45.29 1.92,-2.88 7.43,-7.45 16.54,-13.67 9.11,-6.24 20.02,-11.14 32.72,-14.74 12.69,-3.6 26.47,-4.55 41.33,-2.87 14.86,1.68 28.78,8.5 41.72,20.48 z m -64.01,118.65 c 41.72,13.41 75.5,17.61 101.39,12.59 25.9,-5.04 43.14,-15.46 51.78,-31.28 8.62,-15.81 8.14,-35.48 -1.44,-58.96 -9.6,-23.5 -29.01,-47.23 -58.24,-71.2 -18.22,-15.35 -37.63,-24.55 -58.24,-27.68 -20.62,-3.11 -39.92,-2.76 -57.88,1.09 -17.99,3.82 -33.8,9.7 -47.47,17.62 -13.66,7.9 -22.66,15.44 -26.96,22.64 -25.41,-27.31 -45.78,-57.05 -61.13,-89.17 -15.34,-32.12 -26.12,-62.79 -32.35,-92.04 -6.24,-29.24 -8.04,-54.89 -5.4,-76.92 2.64,-22.05 9.46,-36.93 20.51,-44.59 10.07,-6.71 21.21,-10.19 33.43,-10.42 12.22,-0.26 24.81,1.91 37.75,6.47 12.94,4.55 25.88,10.65 38.82,18.33 12.94,7.67 25.05,15.82 36.33,24.46 11.24,8.62 21.3,17.24 30.18,25.88 8.88,8.62 15.93,15.82 21.21,21.57 6.24,7.19 11.98,12.1 17.26,14.74 5.28,2.64 9.35,3.34 12.22,2.15 2.89,-1.2 4.2,-4.07 3.97,-8.62 -0.25,-4.56 -2.78,-10.19 -7.55,-16.9 -14.87,-21.58 -32.6,-42.55 -53.21,-62.92 -20.62,-20.37 -42.56,-37.75 -65.8,-52.12 -23.25,-14.39 -46.98,-24.58 -71.18,-30.56 -24.22,-6 -47.35,-5.39 -69.38,1.78 -17.75,5.77 -31.65,16.79 -41.72,33.08 -10.07,16.3 -16.3,36.2 -18.69,59.68 -2.4,23.48 -1.33,49.27 3.23,77.3 4.55,28.05 12.59,56.69 24.1,85.94 11.5,29.23 26.35,57.75 44.57,85.57 18.22,27.78 39.79,53.19 64.71,76.2 -10.54,15.35 -17.96,32.37 -22.28,51.06 -4.33,18.69 -2.88,37.38 4.32,56.09 4.78,12.94 12.21,22.4 22.28,28.4 10.07,5.99 20.37,8.86 30.93,8.62 10.54,-0.25 20.37,-3.22 29.48,-8.99 9.09,-5.75 15.09,-13.9 17.96,-24.43 -6.7,-2.41 -12.21,-6.48 -16.53,-12.24 -4.3,-5.75 -7.9,-12.22 -10.78,-19.41 -2.89,-7.2 -4.8,-14.28 -5.76,-21.22 -0.96,-6.94 -1.43,-12.57 -1.43,-16.89 13.41,9.58 27.31,18.22 41.7,25.89 14.39,7.66 29.48,14.13 45.29,19.41"
         style="fill:#9c0054;fill-opacity:1;fill-rule:nonzero;stroke:none"
         id="path76"
         inkscape:connector-curvature="0" />
      <path
         d="m 4578.6,4585.91 c 4.79,-1.44 10.56,-1.09 17.26,1.08 6.71,2.15 13.41,5.02 20.14,8.62 6.7,3.6 12.94,7.92 18.69,12.94 5.76,5.05 10.3,9.72 13.66,14.02 -7.19,8.15 -10.91,18.22 -11.14,30.2 -0.25,11.99 1.68,23.85 5.75,35.6 4.06,11.75 9.6,22.76 16.54,33.08 6.94,10.3 14.27,17.85 21.93,22.66 6.24,4.3 9.72,8.85 10.42,13.64 0.72,4.79 -0.47,8.88 -3.58,12.24 -3.13,3.34 -7.8,5.49 -14.03,6.47 -6.24,0.96 -13.18,-0.49 -20.84,-4.32 -12.95,-6.72 -26.02,-16.79 -39.2,-30.2 -13.2,-13.43 -24.08,-29.01 -32.71,-46.75 -5.76,-12.47 -10.44,-24.8 -14.03,-37.02 -3.6,-12.22 -5.52,-23.5 -5.75,-33.8 -0.25,-10.31 0.96,-18.95 3.6,-25.89 2.62,-6.94 7.05,-11.14 13.29,-12.57 z m 155.32,67.59 c 4.79,7.19 9.72,12.21 14.74,15.09 5.04,2.89 9.11,3.97 12.22,3.24 3.13,-0.72 4.92,-3.48 5.39,-8.27 0.47,-4.79 -1.68,-11.02 -6.47,-18.69 -5.28,-8.64 -11.49,-15.81 -18.69,-21.58 -7.19,-5.74 -14.85,-10.18 -23.01,-13.29 -8.15,-3.13 -16.3,-4.81 -24.45,-5.04 -8.15,-0.24 -15.58,0.84 -22.29,3.24 -8.15,-12.47 -17.61,-24.57 -28.4,-36.32 -10.77,-11.75 -21.92,-21.68 -33.43,-29.83 -11.5,-8.16 -23.36,-14.28 -35.6,-18.34 -12.22,-4.09 -23.85,-4.91 -34.88,-2.52 -11.98,2.87 -21.44,8.87 -28.38,17.98 -6.96,9.09 -11.4,20.61 -13.32,34.51 -1.91,13.9 -0.82,29.85 3.25,47.81 4.07,17.99 11.38,37.28 21.91,57.89 16.8,33.08 34.76,58.26 53.94,75.5 19.18,17.26 37.63,29.71 55.36,37.4 12.48,5.26 25.05,8.27 37.75,8.99 12.71,0.7 23.62,-1.21 32.73,-5.77 9.09,-4.55 15.21,-11.61 18.34,-21.21 3.1,-9.58 1.31,-22.05 -5.4,-37.38 4.79,-9.6 4.18,-23.5 -1.8,-41.72 -6,-18.21 -14.27,-37.37 -24.81,-57.51 6.22,-4.32 13.67,-5.28 22.29,-2.87 8.64,2.38 16.3,8.62 23.01,18.69"
         style="fill:#9c0054;fill-opacity:1;fill-rule:nonzero;stroke:none"
         id="path78"
         inkscape:connector-curvature="0" />
      <path
         d="m 4976.94,4653.5 c 5.76,7.19 11.16,12.1 16.18,14.74 5.03,2.64 9.11,3.48 12.22,2.52 3.11,-0.98 4.67,-3.6 4.67,-7.92 0,-4.3 -2.4,-10.3 -7.17,-17.97 -2.89,-4.32 -9.13,-12.7 -18.71,-25.17 -9.6,-12.48 -20.98,-27.22 -34.15,-44.23 -13.2,-17 -27.68,-35.48 -43.5,-55.36 -15.81,-19.88 -31.16,-39.18 -46.02,-57.88 -11.98,-14.84 -23.12,-28.76 -33.43,-41.7 -10.32,-12.94 -19.66,-24.32 -28.05,-34.16 -8.39,-9.81 -15.58,-17.37 -21.56,-22.65 -6,-5.26 -10.68,-7.43 -14.04,-6.47 -3.83,0.97 -5.51,6 -5.02,15.11 0.47,9.11 2.75,20.74 6.82,34.87 4.07,14.14 9.6,30.19 16.54,48.17 6.94,17.97 14.74,36.44 23.38,55.37 8.62,18.92 17.96,37.86 28.03,56.81 10.07,18.92 20.37,36.53 30.93,52.84 l 18.69,29.48 c -9.6,-11.03 -21.33,-23.97 -35.23,-38.83 -13.92,-14.85 -28.17,-28.89 -42.79,-42.07 -14.63,-13.17 -28.29,-23.96 -40.98,-32.35 -12.71,-8.39 -22.17,-11.63 -28.4,-9.7 -9.58,2.88 -15.47,9.82 -17.62,20.84 -2.17,11.03 -1.07,24.46 3.23,40.27 4.32,15.82 11.04,33.2 20.13,52.14 9.11,18.93 20.02,37.62 32.73,56.09 12.69,18.43 26.47,35.95 41.35,52.49 14.83,16.54 29.95,30.55 45.29,42.05 10.54,7.66 20.37,12.82 29.48,15.46 9.09,2.64 16.29,3.35 21.57,2.15 5.27,-1.19 7.91,-3.71 7.91,-7.54 0,-3.83 -3.85,-8.62 -11.51,-14.37 -9.58,-6.73 -19.41,-15.23 -29.48,-25.53 -10.07,-10.32 -19.65,-21.33 -28.76,-33.08 -9.11,-11.75 -17.38,-23.85 -24.81,-36.3 -7.43,-12.48 -13.54,-24.11 -18.33,-34.88 -4.79,-10.79 -7.67,-20.13 -8.63,-28.05 -0.97,-7.9 0.73,-13.3 5.03,-16.17 1.91,-1.45 6.47,0.82 13.66,6.82 7.2,5.99 15.82,14.25 25.89,24.81 10.06,10.54 20.97,22.41 32.72,35.6 11.73,13.18 23.36,26.35 34.88,39.55 11.49,13.17 22.03,25.51 31.63,37.03 9.58,11.49 17.5,20.83 23.73,28.03 7.2,8.15 16.05,14.39 26.61,18.71 10.54,4.3 20.49,7.17 29.83,8.62 9.35,1.45 16.91,1.45 22.66,0 5.75,-1.45 6.94,-3.85 3.6,-7.2 -11.05,-11.49 -23.62,-26.23 -37.75,-44.22 -14.16,-17.96 -28.53,-37.02 -43.15,-57.16 -14.62,-20.13 -29.01,-40.39 -43.14,-60.76 -14.16,-20.39 -26.61,-38.82 -37.4,-55.36 -10.77,-16.54 -19.53,-30.09 -26.24,-40.62 -6.72,-10.56 -9.83,-16.07 -9.34,-16.54 0.96,-0.49 4.18,1.42 9.69,5.74 5.52,4.33 12.34,10.31 20.51,17.99 8.13,7.64 17.01,16.28 26.59,25.88 9.6,9.58 18.8,19.04 27.7,28.39 8.86,9.36 17.01,18.1 24.44,26.25 7.42,8.16 13.06,14.63 16.89,19.42"
         style="fill:#9c0054;fill-opacity:1;fill-rule:nonzero;stroke:none"
         id="path80"
         inkscape:connector-curvature="0" />
      <path
         d="m 5058.91,4585.91 c 4.79,-1.44 10.55,-1.09 17.26,1.08 6.7,2.15 13.41,5.02 20.13,8.62 6.71,3.6 12.95,7.92 18.69,12.94 5.77,5.05 10.31,9.72 13.67,14.02 -7.2,8.15 -10.91,18.22 -11.14,30.2 -0.26,11.99 1.68,23.85 5.74,35.6 4.07,11.75 9.6,22.76 16.54,33.08 6.94,10.3 14.27,17.85 21.94,22.66 6.23,4.3 9.71,8.85 10.42,13.64 0.72,4.79 -0.47,8.88 -3.58,12.24 -3.13,3.34 -7.8,5.49 -14.04,6.47 -6.23,0.96 -13.17,-0.49 -20.84,-4.32 -12.94,-6.72 -26.02,-16.79 -39.19,-30.2 -13.2,-13.43 -24.09,-29.01 -32.71,-46.75 -5.77,-12.47 -10.44,-24.8 -14.04,-37.02 -3.59,-12.22 -5.51,-23.5 -5.74,-33.8 -0.26,-10.31 0.95,-18.95 3.59,-25.89 2.62,-6.94 7.06,-11.14 13.3,-12.57 z m 155.32,67.59 c 4.79,7.19 9.71,12.21 14.74,15.09 5.04,2.89 9.11,3.97 12.21,3.24 3.13,-0.72 4.93,-3.48 5.4,-8.27 0.47,-4.79 -1.68,-11.02 -6.47,-18.69 -5.28,-8.64 -11.5,-15.81 -18.69,-21.58 -7.19,-5.74 -14.86,-10.18 -23.01,-13.29 -8.15,-3.13 -16.3,-4.81 -24.46,-5.04 -8.15,-0.24 -15.58,0.84 -22.28,3.24 -8.15,-12.47 -17.62,-24.57 -28.41,-36.32 -10.77,-11.75 -21.91,-21.68 -33.43,-29.83 -11.49,-8.16 -23.36,-14.28 -35.6,-18.34 -12.21,-4.09 -23.85,-4.91 -34.87,-2.52 -11.98,2.87 -21.45,8.87 -28.39,17.98 -6.96,9.09 -11.39,20.61 -13.31,34.51 -1.92,13.9 -0.82,29.85 3.25,47.81 4.06,17.99 11.37,37.28 21.91,57.89 16.79,33.08 34.76,58.26 53.94,75.5 19.17,17.26 37.63,29.71 55.36,37.4 12.47,5.26 25.04,8.27 37.75,8.99 12.71,0.7 23.62,-1.21 32.73,-5.77 9.09,-4.55 15.2,-11.61 18.33,-21.21 3.11,-9.58 1.31,-22.05 -5.39,-37.38 4.79,-9.6 4.18,-23.5 -1.8,-41.72 -6,-18.21 -14.27,-37.37 -24.81,-57.51 6.22,-4.32 13.67,-5.28 22.29,-2.87 8.64,2.38 16.3,8.62 23.01,18.69"
         style="fill:#9c0054;fill-opacity:1;fill-rule:nonzero;stroke:none"
         id="path82"
         inkscape:connector-curvature="0" />
      <path
         d="m 5435.7,4936.08 c -12.47,-2.87 -26.86,-12.94 -43.15,-30.2 5.75,0.47 11.15,0.84 16.19,1.07 5.03,0.26 10.17,0.37 15.45,0.37 3.36,5.75 5.86,11.03 7.56,15.82 1.66,4.79 2.99,9.11 3.95,12.94 z m -126.54,-163.22 c -2.41,-5.27 -4.46,-9.59 -6.12,-12.94 -1.68,-3.36 -3.25,-6.47 -4.67,-9.34 -1.45,-2.9 -2.78,-6 -3.97,-9.37 -1.2,-3.34 -2.5,-7.43 -3.95,-12.21 23.97,26.35 45.78,52.25 65.43,77.65 19.65,25.41 36.19,48.42 49.62,69.04 -5.75,0.47 -11.75,0.82 -17.97,1.08 -6.24,0.23 -12.47,0.35 -18.71,0.35 -21.09,-28.29 -40.97,-63.05 -59.66,-104.26 z m -34.53,125.12 c 11.03,0.96 22.29,1.8 33.8,2.5 11.5,0.73 23.01,1.57 34.51,2.52 12.94,17.27 26.12,32.96 39.55,47.1 13.41,14.13 26.49,25.53 39.19,34.15 12.69,8.64 24.67,14.04 35.95,16.19 11.26,2.15 21.22,0.11 29.84,-6.12 6.23,-4.3 6.94,-14.02 2.17,-29.11 -4.81,-15.11 -13.67,-33.68 -26.61,-55.74 l 67.58,2.88 c 6.24,0.47 9.35,-2.15 9.35,-7.9 0,-5.77 -2.04,-11.87 -6.1,-18.34 -4.09,-6.47 -9.6,-12.12 -16.54,-16.91 -6.96,-4.79 -14.04,-6.21 -21.21,-4.3 -5.28,0.96 -12.71,2.27 -22.31,3.95 -9.58,1.68 -20.84,3.25 -33.78,4.67 -19.67,-28.75 -43.14,-59.56 -70.47,-92.39 -27.33,-32.84 -56.82,-64.61 -88.45,-95.28 -3.85,-13.9 -6.23,-26.49 -7.19,-37.75 -0.96,-11.26 -0.96,-20.84 0,-28.76 0.96,-7.91 2.76,-14.01 5.4,-18.33 2.63,-4.32 5.39,-6.73 8.27,-7.2 3.34,-0.47 8.73,0.96 16.18,4.32 7.43,3.35 15.45,7.92 24.09,13.67 8.62,5.75 17.12,12.33 25.53,19.76 8.36,7.43 15.44,14.74 21.21,21.94 5.75,7.19 11.14,12.1 16.17,14.74 5.04,2.64 9.11,3.48 12.21,2.52 3.13,-0.98 4.7,-3.6 4.7,-7.92 0,-4.3 -2.41,-10.3 -7.2,-17.97 -4.81,-7.68 -13.55,-18.33 -26.25,-32 -12.71,-13.66 -26.96,-27.33 -42.78,-40.99 -15.81,-13.65 -31.76,-25.51 -47.81,-35.58 -16.07,-10.07 -29.86,-15.11 -41.35,-15.11 -11.52,0 -19.06,7.56 -22.66,22.65 -3.6,15.1 -3.83,34.88 -0.72,59.32 3.13,24.45 9.13,52.02 17.98,82.69 8.86,30.67 20.26,61.6 34.16,92.76 7.19,16.78 15.34,33.31 24.45,49.62 9.09,16.28 18.69,32.1 28.76,47.46 -10.56,-0.97 -20.86,-1.93 -30.93,-2.89 -10.07,-0.96 -19.88,-2.64 -29.48,-5.02 -3.83,-0.98 -6.59,0 -8.27,2.87 -1.68,2.87 -2.03,6.22 -1.07,10.07 0.96,3.83 3.11,7.54 6.47,11.14 3.34,3.6 7.92,5.63 13.66,6.12"
         style="fill:#9c0054;fill-opacity:1;fill-rule:nonzero;stroke:none"
         id="path84"
         inkscape:connector-curvature="0" />
      <path
         d="m 5549.3,4760.63 c -5.75,4.32 -13.06,5.51 -21.93,3.59 -8.88,-1.91 -17.97,-6.23 -27.31,-12.94 -9.35,-6.7 -18.22,-15.58 -26.61,-26.6 -8.41,-11.03 -14.74,-23.25 -19.06,-36.66 4.79,-0.49 11.87,-0.72 21.21,-0.72 9.34,0 20.98,2.62 34.88,7.89 13.41,5.28 23.73,11.03 30.92,17.27 7.18,6.23 12.1,12.47 14.74,18.69 2.62,6.23 3.11,11.98 1.43,17.26 -1.68,5.28 -4.44,9.34 -8.27,12.22 z m 52.49,-107.13 c 4.79,7.19 9.58,12.33 14.39,15.46 4.79,3.11 8.85,4.18 12.22,3.23 3.34,-0.96 5.14,-3.72 5.39,-8.27 0.24,-4.56 -1.8,-10.91 -6.12,-19.05 -2.87,-5.27 -7.78,-13.07 -14.74,-23.38 -6.94,-10.3 -15.34,-21.32 -25.16,-33.07 -9.83,-11.75 -21.09,-23.13 -33.8,-34.16 -12.7,-11.02 -26.37,-20.13 -40.97,-27.31 -14.64,-7.19 -29.97,-11.51 -46.02,-12.94 -16.07,-1.44 -32.73,1.92 -49.99,10.05 -13.9,6.73 -23.71,17.38 -29.48,32 -5.75,14.63 -8.13,31.28 -7.17,49.99 0.95,18.69 4.9,38.45 11.86,59.31 6.94,20.86 15.92,40.63 26.96,59.32 10.54,17.73 22.76,33.91 36.68,48.54 13.9,14.62 28.4,26 43.49,34.15 15.1,8.15 30.3,12.47 45.67,12.94 15.33,0.47 29.95,-4.3 43.85,-14.37 10.07,-7.19 17.26,-16.44 21.58,-27.68 4.3,-11.28 4.91,-23.26 1.8,-35.95 -3.13,-12.71 -10.32,-25.3 -21.58,-37.75 -11.26,-12.47 -27.21,-23.73 -47.82,-33.8 -9.11,-4.32 -18.45,-7.31 -28.03,-8.99 -9.6,-1.69 -18.71,-2.64 -27.33,-2.88 -8.62,-0.25 -16.66,0.12 -24.09,1.08 -7.45,0.95 -13.78,1.91 -19.06,2.87 -1.43,-7.66 -2.87,-15.93 -4.32,-24.81 -1.43,-8.87 -2.15,-17.38 -2.15,-25.51 0,-8.17 1.08,-15.46 3.25,-21.93 2.15,-6.47 6.09,-11.15 11.86,-14.04 12.46,-6.71 26.35,-7.78 41.7,-3.23 15.33,4.56 30.07,11.5 44.22,20.86 14.14,9.35 26.96,19.77 38.47,31.28 11.5,11.5 19.65,20.84 24.44,28.04"
         style="fill:#9c0054;fill-opacity:1;fill-rule:nonzero;stroke:none"
         id="path86"
         inkscape:connector-curvature="0" />
      <path
         d="m 6162.64,4876.4 c 11.96,10.53 18.92,21.68 20.84,33.45 1.92,11.73 -0.23,21.44 -6.47,29.1 -6.24,7.67 -16.07,12.34 -29.48,14.02 -13.43,1.68 -29.48,-1.78 -48.17,-10.42 -25.88,-12.47 -48.89,-27.56 -69.03,-45.29 7.66,-11.99 16.89,-21.7 27.68,-29.13 10.79,-7.43 22.17,-12.1 34.15,-14.02 11.99,-1.92 24.09,-1.07 36.31,2.52 12.24,3.6 23.61,10.17 34.17,19.77 z m -64,128.71 c 41.69,13.41 75.5,17.14 101.38,11.14 25.88,-6 43.14,-17.61 51.76,-34.87 8.65,-17.25 8.16,-38.1 -1.42,-62.56 -9.6,-24.44 -29.01,-48.66 -58.24,-72.63 -15.83,-12.94 -32.72,-21.91 -50.69,-26.95 -17.99,-5.03 -35.72,-6.48 -53.21,-4.33 -17.52,2.17 -33.8,7.92 -48.9,17.27 -15.11,9.34 -27.7,21.93 -37.75,37.75 -25.41,-27.31 -45.78,-57.05 -61.13,-89.17 -15.34,-32.12 -26.13,-62.79 -32.35,-92.04 -6.24,-29.24 -8.04,-54.89 -5.4,-76.92 2.64,-22.05 9.47,-36.93 20.49,-44.59 11.98,-8.16 24.46,-9.11 37.4,-2.88 12.94,6.24 25.76,16.31 38.47,30.21 12.69,13.9 24.81,29.71 36.3,47.46 11.52,17.71 22.06,34.25 31.66,49.62 6.21,15.32 11.96,29.22 17.24,41.7 5.28,12.45 9.83,21.32 13.66,26.6 4.79,5.75 11.52,9.58 20.14,11.5 8.64,1.91 16.89,2.52 24.81,1.8 7.91,-0.73 14.38,-2.53 19.41,-5.4 5.04,-2.87 6.35,-6.47 3.95,-10.77 -3.35,-6.24 -9.11,-16.19 -17.24,-29.85 -8.18,-13.67 -17.52,-28.76 -28.06,-45.3 -10.54,-16.54 -21.44,-33.68 -32.7,-51.41 -11.28,-17.73 -21.47,-33.92 -30.58,-48.54 -9.11,-14.63 -16.65,-26.85 -22.64,-36.66 -6,-9.83 -8.76,-14.99 -8.27,-15.46 0.96,-0.49 4.19,1.42 9.7,5.74 5.51,4.33 12.34,10.31 20.51,17.99 8.13,7.64 17,16.28 26.6,25.88 9.58,9.58 18.81,19.04 27.69,28.39 8.85,9.36 17,18.1 24.43,26.25 7.43,8.16 13.06,14.63 16.91,19.42 5.75,7.19 11.15,12.1 16.17,14.74 5.04,2.64 9.11,3.48 12.22,2.52 3.13,-0.98 4.69,-3.6 4.69,-7.92 0,-4.3 -2.4,-10.3 -7.19,-17.97 -2.88,-4.32 -9.11,-12.7 -18.71,-25.17 -9.58,-12.48 -20.98,-27.31 -34.16,-44.58 -13.17,-17.26 -27.68,-35.71 -43.49,-55.36 -15.82,-19.65 -31.16,-38.83 -46.02,-57.53 -23.5,-29.72 -41.6,-50.44 -54.29,-62.19 -12.71,-11.75 -22.17,-16.42 -28.41,-14.04 -4.79,1.45 -6.35,7.8 -4.67,19.06 1.68,11.28 5.87,25.79 12.59,43.5 6.71,17.75 15.82,38 27.33,60.76 11.5,22.78 24.67,46.63 39.53,71.55 -11.02,-13.9 -22.17,-26.61 -33.43,-38.1 -11.26,-11.52 -22.77,-20.98 -34.5,-28.41 -11.77,-7.42 -23.74,-12.45 -35.95,-15.09 -12.24,-2.64 -24.58,-2.05 -37.05,1.78 -17.24,5.3 -30.44,16.44 -39.55,33.45 -9.11,17.01 -14.37,37.61 -15.81,61.83 -1.43,24.21 0.72,50.81 6.47,79.82 5.74,29 14.85,58.48 27.33,88.44 12.45,29.95 28.03,59.2 46.74,87.72 18.69,28.52 40.02,54.29 63.98,77.3 -7.19,21.58 -10.53,40.15 -10.06,55.74 0.47,15.56 2.75,28.63 6.84,39.17 4.06,10.54 8.97,18.71 14.74,24.46 5.75,5.75 10.54,9.58 14.37,11.49 11.51,5.28 23.01,5.77 34.52,1.45 11.5,-4.32 18.93,-14.62 22.29,-30.93 -6.73,-0.96 -14.14,-7.54 -22.29,-19.76 -8.15,-12.24 -13.92,-27.45 -17.26,-45.67 25.41,17.26 51.77,30.44 79.1,39.55"
         style="fill:#9c0054;fill-opacity:1;fill-rule:nonzero;stroke:none"
         id="path88"
         inkscape:connector-curvature="0" />
      <path
         d="m 6351.74,4653.5 c 5.75,7.19 11.14,12.1 16.17,14.74 5.04,2.64 9.11,3.48 12.24,2.52 3.1,-0.98 4.67,-3.6 4.67,-7.92 0,-4.3 -2.41,-10.3 -7.2,-17.97 -4.79,-7.68 -13.43,-18.47 -25.88,-32.35 -12.47,-13.92 -26.37,-27.82 -41.72,-41.72 -15.34,-13.9 -31.02,-26 -47.09,-36.3 -16.07,-10.32 -30.09,-15.46 -42.05,-15.46 -11.05,0 -18.48,6.47 -22.31,19.41 -3.83,12.94 -2.87,30.2 2.89,51.76 5.75,21.59 16.64,46.49 32.71,74.8 16.05,28.27 38.22,57.98 66.51,89.15 -6.24,-0.96 -12.48,-1.2 -18.69,-0.71 -6.24,0.47 -12.71,1.43 -19.41,2.88 -8.16,-15.82 -18.22,-33.81 -30.21,-53.94 -11.98,-20.14 -25.16,-39.31 -39.55,-57.52 -7.19,-9.11 -13.43,-14.74 -18.68,-16.91 -5.28,-2.15 -9.23,-2.26 -11.87,-0.35 -2.64,1.92 -3.72,5.28 -3.25,10.07 0.49,4.79 3.13,10.07 7.92,15.82 16.77,20.13 31.03,39.9 42.77,59.33 11.75,19.41 21.24,36.54 28.41,51.39 -13.41,7.2 -20.84,17.03 -22.29,29.48 -1.42,12.48 0.61,24.34 6.12,35.6 5.5,11.26 13.41,20.37 23.74,27.33 10.3,6.94 20.48,8.51 30.55,4.67 7.2,-2.4 12.22,-6 15.09,-10.79 2.88,-4.79 4.32,-10.18 4.32,-16.16 0,-6.01 -1.21,-12.36 -3.59,-19.06 -2.41,-6.73 -5.28,-13.2 -8.62,-19.42 2.87,-3.36 6.56,-5.27 11.14,-5.74 4.53,-0.49 9.34,-0.38 14.37,0.35 5.04,0.72 9.95,2.03 14.74,3.95 4.79,1.91 8.64,3.59 11.51,5.04 1.43,0.47 3.6,0 6.47,-1.45 2.88,-1.42 5.63,-3.36 8.27,-5.74 2.62,-2.41 4.67,-4.93 6.1,-7.55 1.45,-2.64 1.45,-4.67 0,-6.12 -6.7,-6.72 -13.9,-15.46 -21.56,-26.23 -7.66,-10.79 -15.23,-22.43 -22.66,-34.88 -7.43,-12.47 -14.25,-25.06 -20.49,-37.75 -6.23,-12.71 -11.49,-24.57 -15.81,-35.6 -4.32,-11.02 -7.2,-20.62 -8.62,-28.76 -1.45,-8.17 -0.73,-13.66 2.15,-16.53 2.38,-2.41 6.94,-2.29 13.66,0.35 6.71,2.64 14.25,6.84 22.64,12.59 8.39,5.75 16.77,12.33 25.18,19.76 8.37,7.43 15.46,14.74 21.21,21.94"
         style="fill:#9c0054;fill-opacity:1;fill-rule:nonzero;stroke:none"
         id="path90"
         inkscape:connector-curvature="0" />
      <path
         d="m 6550.18,4842.62 c -9.11,-9.6 -19.06,-15.47 -29.83,-17.64 -10.79,-2.15 -19.55,-0.11 -26.25,6.12 -6.24,6.22 -8.39,14.74 -6.47,25.53 1.91,10.79 7.43,20.96 16.54,30.56 9.11,9.58 19.06,15.46 29.83,17.61 10.79,2.15 19.53,0.12 26.25,-6.12 6.22,-6.21 8.39,-14.74 6.47,-25.51 -1.91,-10.79 -7.42,-20.98 -16.54,-30.55 z m -51.76,-189.12 c 5.75,7.19 11.26,12.1 16.54,14.74 5.26,2.64 9.46,3.48 12.57,2.52 3.13,-0.98 4.67,-3.6 4.67,-7.92 0,-4.3 -2.41,-10.3 -7.17,-17.97 -4.81,-7.68 -13.44,-18.47 -25.89,-32.35 -12.47,-13.92 -26.51,-27.82 -42.07,-41.72 -15.58,-13.9 -31.39,-26 -47.46,-36.3 -16.07,-10.32 -30.09,-15.46 -42.05,-15.46 -8.16,0 -13.9,4.41 -17.27,13.29 -3.34,8.87 -4.67,20.74 -3.95,35.6 0.71,14.86 3.48,31.75 8.27,50.69 4.79,18.94 11.62,38.47 20.49,58.61 8.86,20.13 19.77,40.13 32.71,60.04 12.94,19.88 27.56,37.98 43.87,54.28 4.32,3.84 9.58,5.63 15.81,5.4 6.24,-0.26 11.99,-1.45 17.26,-3.6 5.26,-2.15 9.35,-4.92 12.22,-8.27 2.88,-3.36 2.88,-6.23 0,-8.62 -4.79,-4.32 -10.18,-9.48 -16.17,-15.46 -6,-6 -12,-12.59 -17.98,-19.79 -6,-7.17 -11.75,-14.62 -17.26,-22.28 -5.52,-7.67 -10.19,-15.09 -14.02,-22.29 -5.75,-11.02 -10.67,-22.05 -14.74,-33.08 -4.09,-11.02 -6.82,-21.09 -8.27,-30.2 -1.43,-9.11 -1.56,-16.77 -0.35,-23.01 1.19,-6.24 3.95,-10.07 8.27,-11.49 3.34,-0.98 8.37,0 15.09,2.87 6.71,2.87 14.02,6.94 21.93,12.22 7.92,5.28 15.94,11.38 24.09,18.34 8.15,6.94 15.11,14.01 20.86,21.21"
         style="fill:#9c0054;fill-opacity:1;fill-rule:nonzero;stroke:none"
         id="path92"
         inkscape:connector-curvature="0" />
      <path
         d="m 6593.33,4772.86 c -4.81,-10.55 -9.13,-20.74 -12.96,-30.55 -3.83,-9.84 -6.94,-19.55 -9.35,-29.13 17.27,20.6 34.65,41.7 52.14,63.28 17.5,21.56 33.08,42.42 46.74,62.56 13.67,20.13 24.68,39.06 33.08,56.79 8.37,17.73 12.34,33.55 11.87,47.47 -8.64,-1.92 -17.87,-7.69 -27.7,-17.27 -9.82,-9.6 -20.02,-21.93 -30.56,-37.02 -10.54,-15.1 -21.21,-32.61 -32,-52.49 -10.77,-19.9 -21.21,-41.11 -31.26,-63.64 z m -66.88,-251.67 c -11.51,0 -19.06,7.56 -22.66,22.65 -3.59,15.1 -3.83,34.88 -0.72,59.32 3.13,24.45 9.25,52.02 18.34,82.69 9.11,30.67 20.6,61.6 34.52,92.76 9.09,21.1 19.41,41.82 30.91,62.21 11.51,20.37 23.62,39.64 36.32,57.86 12.69,18.22 25.63,34.64 38.83,49.27 13.17,14.62 26,26.35 38.47,35.23 12.45,8.87 24.32,14.5 35.6,16.91 11.24,2.38 21.44,0.46 30.55,-5.77 11.97,-8.62 14.26,-23.97 6.83,-46.02 -7.43,-22.05 -21.33,-47.94 -41.7,-77.65 -20.39,-29.74 -45.67,-62.09 -75.87,-97.06 -30.19,-35.02 -61.84,-69.75 -94.91,-104.28 -5.28,-24.44 -6.24,-42.91 -2.88,-55.36 3.35,-12.47 8.15,-19.18 14.39,-20.14 3.34,-0.47 8.62,0.96 15.82,4.32 7.19,3.35 15.09,7.92 23.73,13.67 8.62,5.75 17.12,12.33 25.53,19.76 8.37,7.43 15.44,14.74 21.21,21.94 5.75,7.19 11.24,12.1 16.54,14.74 5.26,2.64 9.44,3.48 12.57,2.52 3.11,-0.98 4.67,-3.6 4.67,-7.92 0,-4.3 -2.4,-10.3 -7.17,-17.97 -4.81,-7.68 -13.67,-18.33 -26.61,-32 -12.94,-13.66 -27.33,-27.33 -43.14,-40.99 -15.82,-13.65 -31.77,-25.51 -47.82,-35.58 -16.07,-10.07 -29.85,-15.11 -41.35,-15.11"
         style="fill:#9c0054;fill-opacity:1;fill-rule:nonzero;stroke:none"
         id="path94"
         inkscape:connector-curvature="0" />
      <path
         d="m 6753.67,4772.86 c -4.81,-10.55 -9.13,-20.74 -12.96,-30.55 -3.83,-9.84 -6.94,-19.55 -9.34,-29.13 17.26,20.6 34.64,41.7 52.14,63.28 17.49,21.56 33.07,42.42 46.74,62.56 13.66,20.13 24.67,39.06 33.08,56.79 8.36,17.73 12.33,33.55 11.86,47.47 -8.64,-1.92 -17.87,-7.69 -27.7,-17.27 -9.81,-9.6 -20.02,-21.93 -30.56,-37.02 -10.53,-15.1 -21.21,-32.61 -32,-52.49 -10.77,-19.9 -21.21,-41.11 -31.26,-63.64 z m -66.87,-251.67 c -11.52,0 -19.07,7.56 -22.66,22.65 -3.6,15.1 -3.83,34.88 -0.73,59.32 3.13,24.45 9.25,52.02 18.34,82.69 9.11,30.67 20.61,61.6 34.53,92.76 9.09,21.1 19.41,41.82 30.9,62.21 11.52,20.37 23.62,39.64 36.33,57.86 12.68,18.22 25.62,34.64 38.82,49.27 13.18,14.62 26,26.35 38.47,35.23 12.46,8.87 24.32,14.5 35.6,16.91 11.24,2.38 21.45,0.46 30.56,-5.77 11.96,-8.62 14.25,-23.97 6.82,-46.02 -7.43,-22.05 -21.33,-47.94 -41.7,-77.65 -20.39,-29.74 -45.66,-62.09 -75.87,-97.06 -30.18,-35.02 -61.83,-69.75 -94.91,-104.28 -5.28,-24.44 -6.24,-42.91 -2.87,-55.36 3.34,-12.47 8.15,-19.18 14.38,-20.14 3.35,-0.47 8.63,0.96 15.82,4.32 7.19,3.35 15.09,7.92 23.73,13.67 8.62,5.75 17.13,12.33 25.53,19.76 8.37,7.43 15.45,14.74 21.22,21.94 5.74,7.19 11.24,12.1 16.53,14.74 5.26,2.64 9.45,3.48 12.57,2.52 3.11,-0.98 4.68,-3.6 4.68,-7.92 0,-4.3 -2.41,-10.3 -7.18,-17.97 -4.81,-7.68 -13.66,-18.33 -26.6,-32 -12.95,-13.66 -27.34,-27.33 -43.15,-40.99 -15.82,-13.65 -31.77,-25.51 -47.82,-35.58 -16.07,-10.07 -29.85,-15.11 -41.34,-15.11"
         style="fill:#9c0054;fill-opacity:1;fill-rule:nonzero;stroke:none"
         id="path96"
         inkscape:connector-curvature="0" />
    </g>
  </g>
</svg>
