<?xml version="1.0" encoding="UTF-8" standalone="no"?>
<svg
   xmlns:dc="http://purl.org/dc/elements/1.1/"
   xmlns:cc="http://creativecommons.org/ns#"
   xmlns:rdf="http://www.w3.org/1999/02/22-rdf-syntax-ns#"
   xmlns:svg="http://www.w3.org/2000/svg"
   xmlns="http://www.w3.org/2000/svg"
   version="1.1"
   id="coyote-grill-logo-no-words"
   viewBox="0 0 118.29875 203.78537"
   height="57.51276mm"
   width="33.386536mm">
  <defs
     id="defs3422" />
  <metadata
     id="metadata3425">
    <rdf:RDF>
      <cc:Work
         rdf:about="">
        <dc:format>image/svg+xml</dc:format>
        <dc:type
           rdf:resource="http://purl.org/dc/dcmitype/StillImage" />
        <dc:title></dc:title>
      </cc:Work>
    </rdf:RDF>
  </metadata>
  <g
     transform="translate(1278.3413,526.67346)"
     id="layer1">
    <g
       id="g4216">
      <path
         id="path16"
         style="fill:#6e6b6c;fill-opacity:1;fill-rule:nonzero;stroke:none"
         d="m -1191.2279,-425.58297 c 0,0 -13.3012,-12.57875 -27.185,2.23 -13.8837,14.81 -10.2999,16.25375 -17.9024,23.2575 -7.6026,7.00375 -14.3101,5.225 -19.5863,-1.61375 -5.5788,-7.23 -0.8937,-24.2525 2.0525,-30.37 3.03,-6.29625 0,-10.41125 0.3712,-15.8775 0.3688,-5.46625 5.5663,-7.67 5.5663,-7.67 0,0 -16.5325,-1.7575 -25.3537,14.71375 -5.6463,10.5425 -5.4288,18.8475 -4.7038,21.97625 0.5962,2.56875 -1.4488,16.865 9.9312,30.93875 1.7025,2.105 8.5288,10.12125 22.4938,11.485 6.1175,0.59625 13.0025,-2.16375 18.69,-12.36625 7.5012,-13.45375 3.5025,-20.71625 13.4312,-32.39375 9.4413,-11.10375 21.8388,-0.1625 21.8388,-0.1625 l 0.3562,-4.1475" />
      <path
         id="path18"
         style="fill:#9c0054;fill-opacity:1;fill-rule:nonzero;stroke:none"
         d="m -1207.6391,-427.87297 c 0,-2.4975 0.1462,-5.0725 0.5962,-7.5175 0.4,-2.17125 -0.066,-5.20375 1.1851,-7.085 0.6237,-0.93875 0.4299,-1.9 0.7562,-3.00625 0.1987,-0.67625 0.3775,-1.29 0.22,-2.00625 -0.08,-0.36125 -0.375,-1.12625 -0.5738,-1.6475 4.2788,-0.76375 8.825,-0.4475 13.1388,-0.83375 4.7412,-0.425 9.55,-0.35375 14.2725,-0.99 2.0213,4.145 4.5013,8.4 5.6275,12.96875 1.0112,4.09625 1.2937,8.37125 2.6213,12.415 1.3449,4.0975 1.8699,8.53875 1.5212,12.86375 -0.1875,2.33 -0.275,4.70375 -0.4125,7.04375 -0.061,1.05 0.059,2.27125 -0.275,3.27 -0.3863,1.1575 -1.4713,1.73125 -2.0975,2.69625 -0.4713,0.725 -3.8363,2.00875 -4.7675,2.3 -0.935,0.2925 -1.8463,0.52875 -2.82,0.58875 -0.66,0.0412 -4.3513,0.6925 -5.045,0.82125 -1.0288,0.1925 -2.0713,0.19375 -3.1025,0.37125 -2.1288,0.36625 -4.4288,0.84125 -6.585,0.73 -2.1425,-0.11125 -4.215,-0.7675 -6.2688,-1.39875 -2.01,-0.61875 -3.93,-1.01625 -5.035,-3.14625 -0.9812,-1.89 -1.1787,-3.66 -1.4787,-5.75375 -0.1613,-1.125 -0.5763,-2.18375 -0.6213,-3.33375 -0.054,-1.385 -0.15,-2.76625 -0.26,-4.1475 -0.076,-0.935 -0.5512,-3.9675 -0.8875,-7.25625 -0.039,-0.375 0.2925,-6.55625 0.2913,-7.94625" />
      <path
         id="path20"
         style="fill:#6e6b6c;fill-opacity:1;fill-rule:nonzero;stroke:none"
         d="m -1207.0916,-413.26172 c 0.115,1.38 0.2175,2.76125 0.2825,4.145 0.065,1.36875 0.4562,2.58875 0.6475,3.9275 0.3375,2.355 0.5575,4.59625 1.9513,6.56875 1.3299,1.88125 4.1362,2.21875 6.0999,2.79 2.4301,0.7075 4.8813,1.2175 7.3976,0.79375 2.3262,-0.3925 4.7012,-0.5225 7.0212,-0.955 0.91,-0.16875 3.4312,-0.56875 3.7025,-0.64375 0.5875,-0.16125 1.1963,-0.15875 1.7962,-0.20875 1.1263,-0.0925 2.2638,-0.49 3.3288,-0.88375 0.5662,-0.21 2.82,-1.31875 2.82,-1.31875 0,0 0.3275,5.0775 0.3162,7.38 0,1.1 0.041,2.125 0.2026,3.21125 0.099,0.66125 0.3937,1.87625 -0.4438,2.11 -0.7613,0.21375 -1.6075,0.345 -2.385,0.5025 -0.6912,0.13875 -0.3675,1.5825 -0.3675,2.1225 0,2.55375 0.2325,4.91125 0.5113,7.44375 1.0687,9.73125 -2.2401,18.73375 -4.4513,27.94375 -0.5075,2.115 -0.4875,4.19625 -0.6488,6.36 -0.1862,2.48625 0.4438,4.76625 0.7951,7.21125 0.305,2.12125 0.8012,4.4375 0.5249,6.58875 -0.235,1.82875 -1.29,4.18125 -2.9562,4.8875 -1.2888,0.54625 -4.0425,0.615 -5.1838,-0.3425 -1.4637,-1.22875 -1.3075,-4.145 -1.1849,-5.9 0.3562,-5.1025 0.6875,-10.2075 1.1524,-15.29875 0.1,-1.085 0.5388,-1.93375 0.8251,-2.96375 0.2949,-1.0625 0.4487,-2.165 0.5212,-3.27125 0.165,-2.4925 0.036,-5.0175 -0.051,-7.51 -0.085,-2.3875 -0.2025,-4.7775 -0.2012,-7.16875 0,-2.61375 0.4662,-5.155 0.55,-7.75375 0.077,-2.42875 -0.265,-4.7775 -0.935,-7.0875 -0.2963,-1.02125 -0.5988,-2.03 -0.705,-3.1025 -0.1288,-1.3075 0.092,-1.73125 -1.2438,-1.72875 -2.22,0.002 -4.4425,-0.0788 -6.6637,0.0225 -1.1113,0.05 -2.2213,0.14625 -3.3237,0.32 -0.7038,0.11125 -2.1088,-0.23375 -2.5613,0.5275 -0.995,1.67375 -1.1762,4.05625 -1.9513,5.88125 -0.7987,1.8825 -1.9487,3.57 -3.035,5.225 -2.4575,3.74625 -2.9125,8.37375 -4.595,12.51 -0.8562,2.1025 -1.8275,4.155 -2.7737,6.21 -0.9913,2.15125 -2.1275,4.23875 -2.6137,6.61625 -0.4363,2.1375 -0.4575,4.1775 -1.3038,6.2 -0.8963,2.14125 -1.9138,4.2 -2.8788,6.3025 -1.7287,3.765 -3.9462,11.39625 -9.0337,10.40875 -1.4588,-0.28375 -3.435,-1.6975 -3.29,-3.9725 0.2437,-3.78875 2.6175,-6.90625 4.825,-9.61625 1.1175,-1.37375 2.4837,-2.6675 3.4062,-4.21125 0.9263,-1.55 1.325,-3.63375 1.9625,-5.35375 0.6963,-1.88125 0.5175,-4.24 0.7488,-6.24875 0.2675,-2.325 0.5425,-4.64625 0.7712,-6.97625 0.4288,-4.34625 1.1025,-8.585 2.8163,-12.56625 0.8,-1.85875 1.8125,-3.5725 2.7012,-5.37625 0.3913,-0.795 0.7463,-1.61375 1.0275,-2.46375 0.23,-0.69875 0.765,-1.7175 0.745,-2.47625 -0.02,-0.795 -0.435,-0.79625 -0.2387,-1.665 0.2237,-0.995 0.3187,-2.045 0.5,-3.0525 0.4075,-2.2675 0.8612,-4.52875 1.1912,-6.8125 0.6025,-4.175 0.8588,-8.4325 1.3463,-12.63 0.4375,-3.7625 1.45,-7.69125 1.6937,-11.31625 0.435,0.07 0.765,5.78375 0.8388,6.665" />
      <path
         id="path22"
         style="fill:#6e6b6c;fill-opacity:1;fill-rule:nonzero;stroke:none"
         d="m -1178.0441,-450.95922 c -4.9063,0.66125 -9.8975,0.5575 -14.82,1.04125 -4.82,0.47375 -9.7138,0.49375 -14.5125,0.94125 -0.3175,0.0288 -0.2363,0.79625 -0.4888,1.01125 -0.4062,0.34625 -1.0749,0.3775 -1.5525,0.5175 -1.445,0.4225 -2.8574,0.97625 -4.3212,1.3225 -0.5175,0.12125 -0.6688,0.58375 -0.9,1.03375 -0.335,0.65125 -0.825,1.175 -1.4138,1.5425 -1.1062,0.6925 -2.1962,1.03625 -3.2887,0.19875 -1.9737,-1.51375 -3.4625,-4.155 -2.9825,-6.88625 0.27,-1.535 1.3112,-2.5975 1.9012,-3.97125 0.5938,-1.3825 0.8988,-2.8875 1.1276,-4.3875 0.4849,-3.195 1.4237,-6.28 1.8449,-9.50375 0.445,-3.41125 0.8175,-7.1325 2.11,-10.31125 0.4875,-1.2 1.2613,-2.4075 2.095,-3.34875 0.9288,-1.04875 2.1376,-1.2075 3.3563,-1.5875 1.4288,-0.445 2.7537,-1.16375 4.1437,-1.7275 1.2213,-0.495 2.5163,-0.88875 3.5563,-1.80625 0.6725,0.3225 -0.3462,1.99875 -0.52,2.5075 -0.425,1.24625 -0.74,2.54625 -1.0475,3.8325 -0.6788,2.83 -1.49,5.48375 -2.455,8.21 -0.9513,2.69125 -1.6275,5.455 -1.4287,8.36625 0.092,1.36 0.3199,2.70375 0.5837,4.03375 0.2838,1.44125 0.8875,3.34 0.5988,4.83375 -0.7188,-1.01 -0.9213,-3.54375 -1.2288,-4.79 -0.2012,-0.815 -0.485,-1.6 -0.6963,-2.41125 0,-0.0212 -0.4875,-1.88125 -0.7262,-1.0925 -0.9838,3.25875 -1.8475,6.6225 -2.815,9.9075 -0.1888,0.63875 2.9775,0.285 3.3775,0.25875 1.565,-0.10375 3.09,-0.25375 4.6637,-0.3325 3.4201,-0.17125 6.8388,-0.3925 10.2588,-0.585 6.4725,-0.36375 12.9475,-0.91875 19.3938,-1.11375 0.4137,-0.0125 0.5487,-0.3125 0.3837,-0.72 -0.6437,-1.58625 -1.33,-3.16125 -1.9837,-4.74625 -0.7188,-1.74 -1.6563,-3.42625 -2.0013,-5.32125 -0.1475,-0.81375 -0.4325,0.13625 -0.4775,0.37 -0.1612,0.8325 -0.1537,1.52 -0.21,2.365 -0.059,0.885 -0.3375,1.7175 -0.3587,2.6175 -0.021,0.93875 0.46,2.10875 0.3162,2.98125 -0.7575,-0.11625 -0.9275,-1.805 -1.0662,-2.4425 -0.1375,-0.62625 -0.013,-1.25875 -0.095,-1.89375 -0.1176,-0.9 -0.2938,-1.755 -0.3288,-2.66875 -0.125,-3.20125 -1.0662,-6.43875 -2.5437,-9.1875 -1.4838,-2.76125 -2.7963,-5.43875 -3.8863,-8.42125 -0.89,-2.44 -1.87,-4.77 -2.95,-7.115 1.8087,1.2225 4.1913,1.55375 6.27,1.7675 1.4325,0.1475 2.8612,0.34 4.295,0.4675 1.1725,0.105 2.2163,0.12375 3.1187,1.065 1.7913,1.86875 2.6538,4.71625 3.55,7.17125 0.8363,2.28875 1.1888,4.69625 1.7788,7.05875 0.9625,3.85 2.3863,7.59 3.9287,11.19875 0.575,1.345 0.5801,1.81625 2.0425,1.76375 1.0363,-0.0375 1.94,0.0638 2.6388,1.00625 0.3188,0.43125 0.4438,0.99125 0.7587,1.41375 0.2026,0.2725 1.0238,0.43375 1.0076,0.805 -0.031,0.67875 -0.7451,0.38625 -0.81,1.09 -0.095,1.0375 -0.6638,1.80875 -0.8063,2.77375 -0.1388,0.95 -0.77,2.38375 -1.5187,2.93875 -0.7713,0.57375 -2.3663,0.32 -3.2651,0.385 -1.0699,0.0762 -2.1362,-0.1575 -3.1012,-0.66875 -0.4162,-0.22125 -0.8112,-0.48875 -1.1837,-0.78875 -0.4513,-0.365 -1.0188,-0.1025 -1.5163,-0.27875 -0.3437,-0.1225 -0.4288,-0.45 -0.7125,-0.645 -0.4112,-0.28375 -1.125,-0.11 -1.575,-0.10125 -1.1712,0.0238 -2.3412,0.0375 -3.5125,0.0562 -2.0125,0.27125 1.505,-0.0238 0,0" />
      <path
         id="path24"
         style="fill:#6e6b6c;fill-opacity:1;fill-rule:nonzero;stroke:none"
         d="m -1200.6229,-488.90797 c 0.1088,-0.67125 0.27,-1.34125 0.015,-2.015 0.2399,-0.1575 -1.2988,0.01 -1.4926,0.0138 0.165,-0.4525 -0.2062,-0.32 0.2575,-0.8175 0.1388,-0.15 0.4588,-0.9975 0.4538,-1.005 0.056,0.0775 -1.5,0.685 -1.805,0.58625 -0.5013,-0.1625 -0.9375,-0.5625 -1.2262,-1.035 -0.1351,-0.22875 -0.2401,-0.4725 -0.3138,-0.73375 -0.099,-0.26625 -0.01,-0.55875 -0.135,-0.695 0.2937,-0.11375 1.425,0.4475 1.3737,0.185 -0.043,-0.21375 -0.4087,-0.2975 -0.5712,-0.30875 0.014,-0.0937 0.039,-0.185 0.075,-0.27125 -0.5375,-0.0713 -0.6,-0.63875 -0.9,-1.04 0,-0.004 0.2225,-0.2925 0.017,-0.185 -0.3688,-1.31875 -0.1863,-2.265 0.6075,-2.83125 -0.125,0.41625 -0.3513,0.71875 -0.3125,1.12375 0.1237,1.3125 1.3575,0.7625 1.1675,-0.4875 -0.2225,-1.465 -1.0213,-2.9925 -1.4538,-4.405 -0.955,-3.12625 -1.5037,-6.66125 -0.8975,-9.9275 0.5463,-2.94875 1.67,-5.565 3.5963,-7.72625 0.895,-1.00375 2.0075,-1.7575 3.2575,-2.08125 0.565,-0.14625 1.1475,-0.20625 1.7275,-0.19 0.7487,0.02 1.3787,0.4775 2.1487,0.435 0.6575,-0.0362 1.2513,-0.365 1.9038,-0.44 0.7637,-0.0875 1.5275,0.055 2.2662,0.265 1.2725,0.3625 2.4825,0.93125 3.53,1.81875 2.0838,1.7675 3.3025,4.445 3.4588,7.31875 0.1912,3.50625 -0.036,6.87375 -1.0262,10.23 -0.4526,1.5325 -1.2626,2.955 -1.6138,4.51375 -0.3763,1.68 0.39,2.28125 1.7188,1.37625 0.355,0.9 0.1,1.625 -0.7488,2.16 -0.087,0 -1.3137,-0.095 -0.8938,0.36375 0.4,0.435 1.6163,0.12125 2.0963,0.0913 0.06,0.105 0.1212,0.21 0.1837,0.315 -0.5087,0.31875 -0.92,0.6 -1.5337,0.85125 -1.0588,0.4325 -1.6713,-0.37875 -2.6725,-0.2425 0.265,0.26375 1.7763,1.3975 1.4462,1.87875 -0.1212,0.17625 -1.5775,-0.415 -1.8787,-0.465 -0.7075,-0.11875 -0.9838,0.2375 -1.0888,1.0275 -0.1562,1.1675 0.2888,2.2475 0.6313,3.31875 0.4775,1.49 1.025,2.95125 1.4562,4.45875 0.34,1.18625 0.7013,2.385 0.995,3.58625 0.22,0.90375 -0.2475,1.09875 -0.9975,1.1 -2.8837,0.008 -5.75,0.1025 -8.6199,0.48375 -1.4001,0.1875 -2.7826,0.505 -4.1813,0.71 -0.715,0.105 -2.9,0.97625 -2.8775,-0.39875 0.027,-1.69125 0.6987,-3.7575 1.1438,-5.37625 0.2887,-1.05 0.6937,-2.055 0.9812,-3.105 0.105,-0.3775 0.8,-2.29 0.7312,-2.42875 0.1088,-0.67125 0.1113,0.225 0,0" />
      <path
         id="path26"
         style="fill:#9c0054;fill-opacity:1;fill-rule:nonzero;stroke:none"
         d="m -1189.7704,-489.59797 c 0.5863,2.44625 1.6188,4.7625 2.2688,7.195 0.33,1.23875 1.6375,3.60625 -0.2988,3.61 -2.8837,0.008 -5.75,0.1025 -8.6199,0.48375 -1.4001,0.1875 -2.7826,0.505 -4.1813,0.71 -0.715,0.105 -2.9,0.97625 -2.8775,-0.39875 0.025,-1.54625 0.6375,-3.36875 1.0087,-4.86125 0.4413,-1.77375 1.1563,-3.435 1.4913,-5.24625 -0.4038,0.40875 -0.8062,0.8175 -1.21,1.225 0.6725,0.3225 -0.3462,1.99875 -0.52,2.5075 -0.4888,1.43125 -0.8425,2.93 -1.1838,4.41125 -0.6949,3.01 -1.7362,5.77875 -2.6787,8.695 -0.9637,2.97875 -1.3275,5.89875 -0.8838,9.0375 0.2138,1.50875 0.605,2.96625 0.8625,4.4625 0.2351,1.3725 0.086,2.98625 0.1388,4.385 4.6488,0.0837 9.3075,-0.55625 13.95,-0.82375 2.415,-0.13875 4.8275,-0.31875 7.2413,-0.45625 1.2099,-0.0688 2.4199,-0.0913 3.6299,-0.1475 1.0588,-0.05 2.4763,0.1025 3.4575,-0.39375 0.084,-0.6875 -0.069,-1.36375 -0.2487,-2.015 -0.1787,-0.65 -0.6875,-0.68625 -0.8213,-1.41625 -0.095,-0.5175 -0.2712,-1.005 -0.3824,-1.5175 -0.1713,-0.78 -0.03,-1.59375 -0.1751,-2.39 -0.3024,-1.66 -0.2762,-3.33 -0.6174,-4.985 -0.3876,-1.88375 -0.8251,-3.72625 -1.6826,-5.43 -1.5712,-3.125 -3.1624,-6.03625 -4.3787,-9.36625 -0.57,-1.56375 -1.11,-3.12375 -1.79,-4.63625 -0.225,-0.5 -0.9063,-2.515 -1.4988,-2.63875" />
      <path
         id="path28"
         style="fill:#6e6b6c;fill-opacity:1;fill-rule:nonzero;stroke:none"
         d="m -1205.3454,-516.82422 c -0.1112,-0.27 -1.9212,-4.70375 -1.84,-6.49375 l 0.21,0 -0.043,-0.27625 0.21,-0.27625 c 0,0 0.21,0.6 0.21,0.27625 0,-0.3225 0.3338,-0.96875 0.3338,-0.96875 l 0.4625,0 c 0,0 0.041,-0.5075 1.6337,1.19875 -0.088,-0.0462 -4.1537,-2.16375 -1.1775,6.54 z m 5.2,-5.11 c -0.145,-0.19 -0.3037,-0.13 -0.6287,-0.37875 -0.3238,-0.24625 -0.3263,-0.14375 -0.14,-0.26125 0.185,-0.1175 -0.1863,0.1175 -0.3975,10e-4 -0.2125,-0.11625 -0.4388,-0.5675 -0.48,-0.69875 -0.04,-0.13125 0,0.73 0,0.73 -1.9125,-1.045 -5.4263,-7.34 -6.3688,-2.02625 -0.9412,5.315 3.1925,10.4525 3.1925,10.4525 l 0.16,-0.0575 c 1.8851,-4.3975 5.775,-7.44375 5.6688,-7.35625 -0.105,0.0888 -0.8613,-0.21625 -1.0088,-0.405" />
      <path
         id="path30"
         style="fill:#6e6b6c;fill-opacity:1;fill-rule:nonzero;stroke:none"
         d="m -1184.2091,-522.47422 c 1.73,-1.53375 1.7287,-1.025 1.7287,-1.025 l 0.46,0.0488 c 0,0 0.2775,0.6775 0.25,0.99875 -0.027,0.3225 0.2325,-0.25375 0.2325,-0.25375 l 0.185,0.2975 -0.065,0.27125 0.2088,0.0213 c -0.071,1.79 -2.2537,6.0175 -2.3863,6.275 3.7063,-8.3575 -0.5237,-6.67 -0.6137,-6.63375 z m -5.1663,1.3075 c -0.098,-0.0975 3.515,3.33625 5.0163,7.91 l 0.1537,0.0738 c 0,0 4.5551,-4.68875 4.0713,-10.07625 -0.485,-5.3875 -4.5213,0.515 -6.5125,1.3575 0,0 0.1137,-0.8525 0.062,-0.725 -0.051,0.12625 -0.315,0.55125 -0.5363,0.64625 -0.22,0.0937 -0.5699,-0.17875 -0.3962,-0.0425 0.1762,0.13625 0.1825,0.0337 -0.1625,0.245 -0.3437,0.21375 -0.4963,0.1375 -0.6575,0.31125 -0.1625,0.17375 -0.9413,0.39875 -1.0388,0.3" />
      <path
         id="path32"
         style="fill:#9c0054;fill-opacity:1;fill-rule:nonzero;stroke:none"
         d="m -1196.8016,-500.06922 c 0.02,0.0212 0.026,0.0325 0.035,0.0375 0.3112,0.1625 0.6175,0.33875 0.9375,0.4825 0.3962,0.17875 0.8138,0.24 1.2475,0.135 0.5163,-0.125 0.9862,-0.35625 1.4437,-0.61875 0.01,-0.005 0.011,-0.0175 0.023,-0.035 -0.03,-0.002 -0.049,-0.007 -0.069,-0.006 -0.3313,0.0113 -0.6625,0.015 -0.9925,0.0375 -0.2175,0.015 -0.435,0.05 -0.65,0.0863 -0.1362,0.0225 -0.2675,0.025 -0.3988,-0.0225 -0.061,-0.0225 -0.1262,-0.0413 -0.1912,-0.05 -0.1638,-0.0188 -0.3275,-0.04 -0.4925,-0.0437 -0.2913,-0.008 -0.5838,-0.002 -0.8925,-0.002 z m -0.8713,-0.1225 c 0.1538,-0.0438 0.3163,-0.0663 0.4538,-0.1375 0.2025,-0.1075 0.3887,-0.24875 0.58,-0.37875 0.089,-0.0613 0.1763,-0.12625 0.2587,-0.19625 0.3138,-0.2675 0.6688,-0.29875 1.03,-0.14125 0.2263,0.0975 0.425,0.12125 0.6525,0.015 0.1213,-0.0563 0.2675,-0.0625 0.4038,-0.0838 0.2125,-0.0337 0.4062,0.03 0.5825,0.14125 0.1862,0.11625 0.3687,0.23875 0.5487,0.365 0.265,0.185 0.535,0.35875 0.8588,0.42375 0.04,0.007 0.081,0.01 0.1487,0.0175 -0.15,0.20375 -0.2812,0.40625 -0.435,0.58875 -0.4262,0.50875 -0.9362,0.9025 -1.58,1.09625 -0.9162,0.27625 -1.745,0.1025 -2.485,-0.50125 -0.3987,-0.32625 -0.7225,-0.71625 -0.99,-1.15375 -0.01,-0.015 -0.019,-0.0312 -0.026,-0.0475 0,-0.004 0,-0.0113 0,-0.007" />
      <path
         id="path34"
         style="fill:#6e6b6c;fill-opacity:1;fill-rule:nonzero;stroke:none"
         d="m -1193.2179,-466.22922 c -2.2037,0.1725 -4.4075,0.34125 -6.61,0.52125 -0.1575,0.0125 -0.2562,-0.0563 -0.3412,-0.1675 -0.1488,-0.19625 -0.2138,-0.4325 -0.2425,-0.685 -0.043,-0.36875 0.032,-0.71 0.1462,-1.05625 0.1975,-0.605 0.5663,-1.07125 0.9588,-1.525 0.3162,-0.365 0.6837,-0.66 1.0762,-0.9125 0.6538,-0.4225 1.3526,-0.7425 2.0813,-0.97125 0.3275,-0.10375 0.665,-0.16875 1,-0.235 0.2588,-0.0512 0.5225,-0.0788 0.7837,-0.115 0.3038,-0.0412 0.6063,-0.095 0.9113,-0.1175 0.3537,-0.0275 0.71,-0.0337 1.065,-0.035 0.615,0 1.23,0.0288 1.8337,0.1675 0.4663,0.10625 0.94,0.1925 1.3825,0.40625 0.3225,0.155 0.6563,0.285 0.9701,0.46 0.3462,0.1925 0.6749,0.42625 0.9574,0.725 0.3725,0.39375 0.7275,0.8025 0.9388,1.32875 0.2,0.495 0.2425,0.99875 0,1.495 -0.056,0.115 -0.1337,0.1925 -0.2737,0.2025 -2.2112,0.1675 -4.4225,0.34125 -6.6338,0.51375" />
      <path
         id="path36"
         style="fill:#6e6b6c;fill-opacity:1;fill-rule:nonzero;stroke:none"
         d="m -1199.3129,-456.47547 c 0.27,-0.1025 0.5176,-0.20625 0.7713,-0.29125 0.2637,-0.0875 0.5263,-0.12125 0.7475,0.13375 0.2037,0.23625 0.435,0.42375 0.7212,0.535 0.2213,0.0862 0.435,0.07 0.6575,0.0288 0.4913,-0.0888 0.8325,-0.4475 1.19,-0.7825 0.105,-0.0987 0.2438,-0.175 0.3776,-0.20875 0.3325,-0.0838 0.645,-0.0125 0.9412,0.185 0.2775,0.18375 0.5075,0.4425 0.8213,0.565 0.4524,0.1775 0.855,0.0937 1.2187,-0.23375 0.215,-0.1925 0.41,-0.4125 0.63,-0.59625 0.3613,-0.30125 0.7625,-0.3675 1.1787,-0.14875 0.185,0.0987 0.3501,0.23875 0.5275,0.3575 0.3588,0.23875 0.75,0.3225 1.1613,0.245 0.2487,-0.0463 0.4612,-0.19875 0.6425,-0.39 0.11,-0.115 0.2013,-0.25125 0.3,-0.3775 0.1413,-0.1825 0.3062,-0.29 0.5363,-0.23875 0.2087,0.045 0.4187,0.0763 0.6287,0.11 0.059,0.01 0.12,0.0138 0.18,0.009 0.085,-0.006 0.1213,0.0263 0.1275,0.125 0.024,0.43 0.036,0.8625 0.086,1.28875 0.044,0.37125 -0.02,0.7075 -0.1713,1.02875 -0.1038,0.22125 -0.2887,0.3575 -0.4862,0.4625 -0.2113,0.1125 -0.4375,0.1675 -0.675,0.185 -3.5351,0.2725 -7.07,0.55 -10.605,0.82375 -0.3726,0.0288 -0.7226,-0.075 -1,-0.35375 -0.1313,-0.1325 -0.2363,-0.31875 -0.3025,-0.5025 -0.071,-0.2 -0.098,-0.42375 -0.1176,-0.64 -0.039,-0.445 -0.06,-0.8925 -0.087,-1.31875" />
      <path
         id="path38"
         style="fill:#6e6b6c;fill-opacity:1;fill-rule:nonzero;stroke:none"
         d="m -1186.1004,-461.04047 c 0.033,0.5125 0.065,1.01125 0.098,1.52 -4.4963,0.35125 -8.9938,0.7025 -13.5,1.05375 -0.033,-0.50125 -0.065,-1.0025 -0.098,-1.52 0.048,-0.004 0.092,-0.007 0.1363,-0.0113 1.855,-0.145 3.71,-0.28625 5.565,-0.43875 0.23,-0.0188 0.4325,0.007 0.6263,0.145 0.1125,0.0813 0.2387,0.1425 0.3562,0.2175 0.068,0.0438 0.1225,0.0363 0.1825,-0.0137 0.1675,-0.13625 0.3325,-0.27625 0.5038,-0.40375 0.06,-0.045 0.1362,-0.0788 0.2075,-0.0838 1.9337,-0.155 3.8687,-0.305 5.8037,-0.45625 0.036,-0.002 0.074,-0.005 0.1187,-0.009" />
      <path
         id="path40"
         style="fill:#6e6b6c;fill-opacity:1;fill-rule:nonzero;stroke:none"
         d="m -1193.1754,-465.85047 c 2.2313,-0.175 4.4613,-0.34875 6.6913,-0.52 0.077,-0.005 0.17,0.015 0.2337,0.06 0.19,0.1325 0.3863,0.26625 0.4513,0.5325 0.027,0.11125 -0.024,0.30375 -0.1063,0.37625 -0.1924,0.1725 -0.4099,0.22875 -0.655,0.185 -0.2674,-0.0475 -0.5362,-0.1075 -0.8074,-0.125 -0.2838,-0.0188 -0.5563,0.0412 -0.7513,0.3125 -0.1112,0.15375 -0.2225,0.31 -0.3513,0.44625 -0.2599,0.275 -0.5675,0.345 -0.9199,0.245 -0.3,-0.0838 -0.5538,-0.25875 -0.8051,-0.44125 -0.2125,-0.155 -0.4375,-0.255 -0.6962,-0.275 -0.5225,-0.04 -0.9263,0.215 -1.2938,0.57875 -0.1299,0.1275 -0.2487,0.27 -0.3875,0.3825 -0.3787,0.30625 -0.6575,0.3075 -1.0487,0.04 -0.2987,-0.205 -0.5675,-0.46875 -0.91,-0.585 -0.1525,-0.0512 -0.3138,-0.0638 -0.4725,-0.0925 -0.195,-0.035 -0.3775,0.0263 -0.56,0.0888 -0.2375,0.0825 -0.4125,0.2625 -0.5875,0.44625 -0.2813,0.2975 -0.605,0.52125 -1.0063,0.52875 -0.31,0.005 -0.5625,-0.16375 -0.7675,-0.4175 -0.19,-0.235 -0.4187,-0.38625 -0.7125,-0.38625 -0.3062,0 -0.5837,0.1325 -0.87,0.23 -0.2587,0.0875 -0.51,0.13625 -0.7774,0.005 -0.1588,-0.0775 -0.2213,-0.2675 -0.2013,-0.4025 0.047,-0.31 0.2487,-0.505 0.475,-0.6675 0.028,-0.0213 0.072,-0.0175 0.11,-0.02 2.2425,-0.175 4.4838,-0.35 6.7262,-0.525" />
      <path
         id="path42"
         style="fill:#6e6b6c;fill-opacity:1;fill-rule:nonzero;stroke:none"
         d="m -1192.7166,-458.59547 c 2.2375,-0.17375 4.475,-0.35 6.7138,-0.52 0.072,-0.006 0.1599,0.0175 0.2224,0.0588 0.1913,0.13 0.3838,0.26375 0.4488,0.5275 0.026,0.1025 -0.025,0.30375 -0.1,0.37 -0.1962,0.1775 -0.415,0.23875 -0.6675,0.19 -0.2688,-0.0512 -0.5388,-0.105 -0.81,-0.12875 -0.2825,-0.025 -0.54,0.0675 -0.7338,0.3125 -0.1187,0.14875 -0.225,0.30875 -0.3525,0.44625 -0.2612,0.28125 -0.5737,0.34625 -0.9287,0.25125 -0.2987,-0.0813 -0.5513,-0.25625 -0.8025,-0.44 -0.2088,-0.15375 -0.4313,-0.25875 -0.6875,-0.28 -0.5238,-0.0462 -0.9288,0.21625 -1.3,0.57875 -0.1163,0.1125 -0.2213,0.2375 -0.3413,0.34375 -0.1625,0.14375 -0.3375,0.265 -0.5537,0.27875 -0.2038,0.0113 -0.38,-0.0863 -0.5463,-0.1975 -0.225,-0.15 -0.44,-0.32 -0.6687,-0.46375 -0.2263,-0.14375 -0.47,-0.21625 -0.7412,-0.2225 -0.4663,-0.009 -0.8176,0.21125 -1.1338,0.56 -0.2775,0.30625 -0.615,0.51875 -1.0188,0.51125 -0.2987,-0.006 -0.5549,-0.1625 -0.7512,-0.425 -0.06,-0.0813 -0.1363,-0.15625 -0.2188,-0.21 -0.2324,-0.14875 -0.4787,-0.22375 -0.7487,-0.135 -0.2913,0.0962 -0.5825,0.19375 -0.8763,0.2775 -0.2175,0.0613 -0.425,-0.009 -0.6012,-0.1475 -0.1038,-0.08 -0.1238,-0.22375 -0.1,-0.35875 0.054,-0.29 0.2462,-0.46625 0.4525,-0.625 0.034,-0.025 0.086,-0.0237 0.1312,-0.0275 2.2388,-0.175 4.4763,-0.35 6.7138,-0.525" />
      <path
         id="path44"
         style="fill:#6e6b6c;fill-opacity:1;fill-rule:nonzero;stroke:none"
         d="m -1199.7691,-462.54797 c -0.026,-0.41 -0.051,-0.805 -0.076,-1.18625 0.2175,-0.0713 0.4238,-0.14125 0.6313,-0.20875 0.14,-0.045 0.2787,-0.0913 0.42,-0.1325 0.1525,-0.0437 0.2987,-0.005 0.4212,0.0925 0.11,0.0863 0.1988,0.205 0.3025,0.30125 0.074,0.07 0.1525,0.13625 0.2375,0.1875 0.5325,0.325 1.055,0.275 1.5488,-0.095 0.2112,-0.1575 0.3938,-0.36125 0.5987,-0.53 0.1888,-0.15375 0.3975,-0.24 0.6463,-0.235 0.405,0.01 0.7113,0.24 1.0112,0.495 0.34,0.28875 0.7113,0.46125 1.145,0.37 0.27,-0.0575 0.5,-0.22 0.6975,-0.4325 0.2338,-0.2525 0.4588,-0.52375 0.7713,-0.655 0.33,-0.13875 0.6613,-0.13875 0.9712,0.0875 0.3013,0.22 0.5975,0.45625 0.9601,0.5375 0.5412,0.1225 1.0112,-0.0125 1.3837,-0.4875 0.135,-0.1725 0.2437,-0.3775 0.4437,-0.47625 0.041,-0.02 0.086,-0.0437 0.1288,-0.04 0.2,0.0175 0.4013,0.0375 0.6012,0.0662 0.1875,0.0275 0.375,0.065 0.5788,0.10125 0.025,0.3775 0.05,0.77875 0.076,1.18625 -4.4976,0.35125 -8.9938,0.7025 -13.4988,1.05375" />
      <path
         id="path46"
         style="fill:#6e6b6c;fill-opacity:1;fill-rule:nonzero;stroke:none"
         d="m -1194.1541,-460.74172 c -0.033,0.002 -0.064,0.005 -0.096,0.007 -1.68,0.13 -3.36,0.2625 -5.0387,0.3925 -0.4075,0.0312 -0.7813,-0.27 -0.89,-0.65625 -0.1275,-0.455 0.1062,-0.93875 0.455,-1.11625 0.036,-0.0188 0.081,-0.0188 0.1225,-0.0213 0.845,-0.0675 1.6913,-0.12875 2.5363,-0.20375 0.1424,-0.0125 0.2487,0.0563 0.3599,0.1175 0.5488,0.3075 1.0963,0.61875 1.6425,0.93 0.3038,0.17375 0.6063,0.35 0.9088,0.52375 0,0.009 0,0.0175 0,0.0263" />
      <path
         id="path48"
         style="fill:#6e6b6c;fill-opacity:1;fill-rule:nonzero;stroke:none"
         d="m -1191.6216,-460.96422 c 0.1637,-0.1275 0.3275,-0.25375 0.4912,-0.38125 0.5875,-0.45625 1.1738,-0.91375 1.7613,-1.37125 0.081,-0.0637 0.1637,-0.13 0.25,-0.18625 0.05,-0.0312 0.11,-0.0588 0.1675,-0.0625 0.86,-0.0713 1.7212,-0.14 2.5825,-0.2 0.077,-0.006 0.1675,0.025 0.2362,0.0688 0.2625,0.1675 0.4588,0.4 0.4688,0.7525 0.015,0.55875 -0.3288,0.95875 -0.8038,0.99875 -1.6675,0.13875 -3.3375,0.26375 -5.005,0.39375 -0.048,0.004 -0.095,0.008 -0.1425,0.0113 0,-0.009 0,-0.0163 -0.01,-0.0238" />
      <path
         id="path50"
         style="fill:#6e6b6c;fill-opacity:1;fill-rule:nonzero;stroke:none"
         d="m -1196.2004,-462.39297 c 2.1488,-0.16875 4.2725,-0.33375 6.3963,-0.5 0,0.009 0.01,0.0175 0.013,0.0263 -0.1488,0.11375 -0.3,0.22625 -0.4488,0.34 -0.4662,0.36125 -0.9325,0.725 -1.4,1.08375 -0.3025,0.2325 -0.6087,0.45875 -0.9125,0.69 -0.086,0.065 -0.1662,0.14125 -0.2525,0.205 -0.024,0.0175 -0.07,0.0225 -0.095,0.009 -0.695,-0.38625 -1.3887,-0.7775 -2.0837,-1.16375 -0.3513,-0.195 -0.705,-0.385 -1.0575,-0.57875 -0.049,-0.0263 -0.091,-0.0637 -0.1588,-0.11125" />
    </g>
  </g>
</svg>
