<?xml version="1.0" encoding="utf-8"?>
<!-- Generator: Adobe Illustrator 21.0.0, SVG Export Plug-In . SVG Version: 6.00 Build 0)  -->
<svg version="1.1" id="Layer_1" xmlns="http://www.w3.org/2000/svg" xmlns:xlink="http://www.w3.org/1999/xlink" x="0px" y="0px"
	 viewBox="0 0 200 200" style="enable-background:new 0 0 200 200;" xml:space="preserve">
<style type="text/css">
	.st0{fill:#6F6C6D;}
	.st1{fill:#9B1D57;}
</style>
<g id="layer1" transform="translate(1278.3413,526.67346)">
	<g id="g4216">
		<path id="path16" class="st0" d="M-1163.6-427.3c0,0-9.9-9.4-20.3,1.7c-10.4,11-7.7,12.1-13.4,17.3c-5.7,5.2-10.7,3.9-14.6-1.2
			c-4.2-5.4-0.7-18.1,1.5-22.7c2.3-4.7,0-7.8,0.3-11.8c0.3-4.1,4.2-5.7,4.2-5.7s-12.3-1.3-18.9,11c-4.2,7.9-4,14.1-3.5,16.4
			c0.4,1.9-1.1,12.6,7.4,23.1c1.3,1.6,6.4,7.5,16.8,8.6c4.6,0.4,9.7-1.6,13.9-9.2c5.6-10,2.6-15.5,10-24.2c7-8.3,16.3-0.1,16.3-0.1
			L-1163.6-427.3"/>
		<path id="path18" class="st1" d="M-1175.9-429c0-1.9,0.1-3.8,0.4-5.6c0.3-1.6,0-3.9,0.9-5.3c0.5-0.7,0.3-1.4,0.6-2.2
			c0.1-0.5,0.3-1,0.2-1.5c-0.1-0.3-0.3-0.8-0.4-1.2c3.2-0.6,6.6-0.3,9.8-0.6c3.5-0.3,7.1-0.3,10.6-0.7c1.5,3.1,3.4,6.3,4.2,9.7
			c0.8,3.1,1,6.2,2,9.3c1,3.1,1.4,6.4,1.1,9.6c-0.1,1.7-0.2,3.5-0.3,5.3c0,0.8,0,1.7-0.2,2.4c-0.3,0.9-1.1,1.3-1.6,2
			c-0.4,0.5-2.9,1.5-3.6,1.7c-0.7,0.2-1.4,0.4-2.1,0.4c-0.5,0-3.2,0.5-3.8,0.6c-0.8,0.1-1.5,0.1-2.3,0.3c-1.6,0.3-3.3,0.6-4.9,0.5
			c-1.6-0.1-3.1-0.6-4.7-1c-1.5-0.5-2.9-0.8-3.8-2.3c-0.7-1.4-0.9-2.7-1.1-4.3c-0.1-0.8-0.4-1.6-0.5-2.5c0-1-0.1-2.1-0.2-3.1
			c-0.1-0.7-0.4-3-0.7-5.4C-1176.1-423.3-1175.9-427.9-1175.9-429"/>
		<path id="path20" class="st0" d="M-1175.4-418.1c0.1,1,0.2,2.1,0.2,3.1c0,1,0.3,1.9,0.5,2.9c0.3,1.8,0.4,3.4,1.5,4.9
			c1,1.4,3.1,1.7,4.5,2.1c1.8,0.5,3.6,0.9,5.5,0.6c1.7-0.3,3.5-0.4,5.2-0.7c0.7-0.1,2.6-0.4,2.8-0.5c0.4-0.1,0.9-0.1,1.3-0.2
			c0.8-0.1,1.7-0.4,2.5-0.7c0.4-0.2,2.1-1,2.1-1s0.2,3.8,0.2,5.5c0,0.8,0,1.6,0.2,2.4c0.1,0.5,0.3,1.4-0.3,1.6
			c-0.6,0.2-1.2,0.3-1.8,0.4c-0.5,0.1-0.3,1.2-0.3,1.6c0,1.9,0.2,3.7,0.4,5.6c0.8,7.3-1.7,14-3.3,20.8c-0.4,1.6-0.4,3.1-0.5,4.7
			c-0.1,1.9,0.3,3.6,0.6,5.4c0.2,1.6,0.6,3.3,0.4,4.9c-0.2,1.4-1,3.1-2.2,3.6c-1,0.4-3,0.5-3.9-0.3c-1.1-0.9-1-3.1-0.9-4.4
			c0.3-3.8,0.5-7.6,0.9-11.4c0.1-0.8,0.4-1.4,0.6-2.2c0.2-0.8,0.3-1.6,0.4-2.4c0.1-1.9,0-3.7,0-5.6c-0.1-1.8-0.2-3.6-0.2-5.3
			c0-1.9,0.3-3.8,0.4-5.8c0.1-1.8-0.2-3.6-0.7-5.3c-0.2-0.8-0.4-1.5-0.5-2.3c-0.1-1,0.1-1.3-0.9-1.3c-1.7,0-3.3-0.1-5,0
			c-0.8,0-1.7,0.1-2.5,0.2c-0.5,0.1-1.6-0.2-1.9,0.4c-0.7,1.2-0.9,3-1.5,4.4c-0.6,1.4-1.5,2.7-2.3,3.9c-1.8,2.8-2.2,6.2-3.4,9.3
			c-0.6,1.6-1.4,3.1-2.1,4.6c-0.7,1.6-1.6,3.2-1.9,4.9c-0.3,1.6-0.3,3.1-1,4.6c-0.7,1.6-1.4,3.1-2.1,4.7c-1.3,2.8-2.9,8.5-6.7,7.8
			c-1.1-0.2-2.6-1.3-2.5-3c0.2-2.8,2-5.2,3.6-7.2c0.8-1,1.9-2,2.5-3.1c0.7-1.2,1-2.7,1.5-4c0.5-1.4,0.4-3.2,0.6-4.7
			c0.2-1.7,0.4-3.5,0.6-5.2c0.3-3.2,0.8-6.4,2.1-9.4c0.6-1.4,1.4-2.7,2-4c0.3-0.6,0.6-1.2,0.8-1.8c0.2-0.5,0.6-1.3,0.6-1.8
			c0-0.6-0.3-0.6-0.2-1.2c0.2-0.7,0.2-1.5,0.4-2.3c0.3-1.7,0.6-3.4,0.9-5.1c0.4-3.1,0.6-6.3,1-9.4c0.3-2.8,1.1-5.7,1.3-8.4
			C-1175.7-423-1175.5-418.7-1175.4-418.1"/>
		<path id="path22" class="st0" d="M-1153.8-446.2c-3.7,0.5-7.4,0.4-11.1,0.8c-3.6,0.4-7.2,0.4-10.8,0.7c-0.2,0-0.2,0.6-0.4,0.8
			c-0.3,0.3-0.8,0.3-1.2,0.4c-1.1,0.3-2.1,0.7-3.2,1c-0.4,0.1-0.5,0.4-0.7,0.8c-0.2,0.5-0.6,0.9-1.1,1.2c-0.8,0.5-1.6,0.8-2.5,0.1
			c-1.5-1.1-2.6-3.1-2.2-5.1c0.2-1.1,1-1.9,1.4-3c0.4-1,0.7-2.2,0.8-3.3c0.4-2.4,1.1-4.7,1.4-7.1c0.3-2.5,0.6-5.3,1.6-7.7
			c0.4-0.9,0.9-1.8,1.6-2.5c0.7-0.8,1.6-0.9,2.5-1.2c1.1-0.3,2.1-0.9,3.1-1.3c0.9-0.4,1.9-0.7,2.7-1.3c0.5,0.2-0.3,1.5-0.4,1.9
			c-0.3,0.9-0.6,1.9-0.8,2.9c-0.5,2.1-1.1,4.1-1.8,6.1c-0.7,2-1.2,4.1-1.1,6.2c0.1,1,0.2,2,0.4,3c0.2,1.1,0.7,2.5,0.4,3.6
			c-0.5-0.8-0.7-2.6-0.9-3.6c-0.2-0.6-0.4-1.2-0.5-1.8c0,0-0.4-1.4-0.5-0.8c-0.7,2.4-1.4,4.9-2.1,7.4c-0.1,0.5,2.2,0.2,2.5,0.2
			c1.2-0.1,2.3-0.2,3.5-0.2c2.6-0.1,5.1-0.3,7.7-0.4c4.8-0.3,9.7-0.7,14.5-0.8c0.3,0,0.4-0.2,0.3-0.5c-0.5-1.2-1-2.4-1.5-3.5
			c-0.5-1.3-1.2-2.6-1.5-4c-0.1-0.6-0.3,0.1-0.4,0.3c-0.1,0.6-0.1,1.1-0.2,1.8c0,0.7-0.3,1.3-0.3,2c0,0.7,0.3,1.6,0.2,2.2
			c-0.6-0.1-0.7-1.3-0.8-1.8c-0.1-0.5,0-0.9-0.1-1.4c-0.1-0.7-0.2-1.3-0.2-2c-0.1-2.4-0.8-4.8-1.9-6.9c-1.1-2.1-2.1-4.1-2.9-6.3
			c-0.7-1.8-1.4-3.6-2.2-5.3c1.3,0.9,3.1,1.2,4.7,1.3c1.1,0.1,2.1,0.3,3.2,0.3c0.9,0.1,1.7,0.1,2.3,0.8c1.3,1.4,2,3.5,2.6,5.3
			c0.6,1.7,0.9,3.5,1.3,5.3c0.7,2.9,1.8,5.7,2.9,8.4c0.4,1,0.4,1.4,1.5,1.3c0.8,0,1.4,0,2,0.8c0.2,0.3,0.3,0.7,0.6,1.1
			c0.2,0.2,0.8,0.3,0.8,0.6c0,0.5-0.6,0.3-0.6,0.8c-0.1,0.8-0.5,1.3-0.6,2.1c-0.1,0.7-0.6,1.8-1.1,2.2c-0.6,0.4-1.8,0.2-2.4,0.3
			c-0.8,0.1-1.6-0.1-2.3-0.5c-0.3-0.2-0.6-0.4-0.9-0.6c-0.3-0.3-0.8-0.1-1.1-0.2c-0.3-0.1-0.3-0.3-0.5-0.5c-0.3-0.2-0.8-0.1-1.2-0.1
			C-1152-446.2-1152.9-446.2-1153.8-446.2C-1155.3-446-1152.7-446.2-1153.8-446.2"/>
		<path id="path24" class="st0" d="M-1170.6-474.5c0.1-0.5,0.2-1,0-1.5c0.2-0.1-1,0-1.1,0c0.1-0.3-0.2-0.2,0.2-0.6
			c0.1-0.1,0.3-0.7,0.3-0.7c0,0.1-1.1,0.5-1.3,0.4c-0.4-0.1-0.7-0.4-0.9-0.8c-0.1-0.2-0.2-0.4-0.2-0.5c-0.1-0.2,0-0.4-0.1-0.5
			c0.2-0.1,1.1,0.3,1,0.1c0-0.2-0.3-0.2-0.4-0.2c0-0.1,0-0.1,0.1-0.2c-0.4-0.1-0.4-0.5-0.7-0.8c0,0,0.2-0.2,0-0.1
			c-0.3-1-0.1-1.7,0.5-2.1c-0.1,0.3-0.3,0.5-0.2,0.8c0.1,1,1,0.6,0.9-0.4c-0.2-1.1-0.8-2.2-1.1-3.3c-0.7-2.3-1.1-5-0.7-7.4
			c0.4-2.2,1.2-4.2,2.7-5.8c0.7-0.7,1.5-1.3,2.4-1.6c0.4-0.1,0.9-0.2,1.3-0.1c0.6,0,1,0.4,1.6,0.3c0.5,0,0.9-0.3,1.4-0.3
			c0.6-0.1,1.1,0,1.7,0.2c0.9,0.3,1.9,0.7,2.6,1.4c1.6,1.3,2.5,3.3,2.6,5.5c0.1,2.6,0,5.1-0.8,7.6c-0.3,1.1-0.9,2.2-1.2,3.4
			c-0.3,1.3,0.3,1.7,1.3,1c0.3,0.7,0.1,1.2-0.6,1.6c-0.1,0-1-0.1-0.7,0.3c0.3,0.3,1.2,0.1,1.6,0.1c0,0.1,0.1,0.2,0.1,0.2
			c-0.4,0.2-0.7,0.4-1.1,0.6c-0.8,0.3-1.2-0.3-2-0.2c0.2,0.2,1.3,1,1.1,1.4c-0.1,0.1-1.2-0.3-1.4-0.3c-0.5-0.1-0.7,0.2-0.8,0.8
			c-0.1,0.9,0.2,1.7,0.5,2.5c0.4,1.1,0.8,2.2,1.1,3.3c0.3,0.9,0.5,1.8,0.7,2.7c0.2,0.7-0.2,0.8-0.7,0.8c-2.2,0-4.3,0.1-6.4,0.4
			c-1,0.1-2.1,0.4-3.1,0.5c-0.5,0.1-2.2,0.7-2.1-0.3c0-1.3,0.5-2.8,0.9-4c0.2-0.8,0.5-1.5,0.7-2.3
			C-1171.1-473-1170.6-474.4-1170.6-474.5C-1170.5-475-1170.5-474.3-1170.6-474.5"/>
		<path id="path26" class="st1" d="M-1162.5-475c0.4,1.8,1.2,3.6,1.7,5.4c0.2,0.9,1.2,2.7-0.2,2.7c-2.2,0-4.3,0.1-6.4,0.4
			c-1,0.1-2.1,0.4-3.1,0.5c-0.5,0.1-2.2,0.7-2.1-0.3c0-1.2,0.5-2.5,0.8-3.6c0.3-1.3,0.9-2.6,1.1-3.9c-0.3,0.3-0.6,0.6-0.9,0.9
			c0.5,0.2-0.3,1.5-0.4,1.9c-0.4,1.1-0.6,2.2-0.9,3.3c-0.5,2.2-1.3,4.3-2,6.5c-0.7,2.2-1,4.4-0.7,6.7c0.2,1.1,0.5,2.2,0.6,3.3
			c0.2,1,0.1,2.2,0.1,3.3c3.5,0.1,6.9-0.4,10.4-0.6c1.8-0.1,3.6-0.2,5.4-0.3c0.9-0.1,1.8-0.1,2.7-0.1c0.8,0,1.8,0.1,2.6-0.3
			c0.1-0.5-0.1-1-0.2-1.5c-0.1-0.5-0.5-0.5-0.6-1.1c-0.1-0.4-0.2-0.7-0.3-1.1c-0.1-0.6,0-1.2-0.1-1.8c-0.2-1.2-0.2-2.5-0.5-3.7
			c-0.3-1.4-0.6-2.8-1.3-4.1c-1.2-2.3-2.4-4.5-3.3-7c-0.4-1.2-0.8-2.3-1.3-3.5C-1161.6-473.4-1162.1-474.9-1162.5-475"/>
		<path id="path28" class="st0" d="M-1174.1-495.3c-0.1-0.2-1.4-3.5-1.4-4.8h0.2l0-0.2l0.2-0.2c0,0,0.2,0.4,0.2,0.2
			c0-0.2,0.2-0.7,0.2-0.7h0.3c0,0,0-0.4,1.2,0.9C-1173.3-500.2-1176.4-501.8-1174.1-495.3L-1174.1-495.3z M-1170.3-499.1
			c-0.1-0.1-0.2-0.1-0.5-0.3c-0.2-0.2-0.2-0.1-0.1-0.2c0.1-0.1-0.1,0.1-0.3,0c-0.2-0.1-0.3-0.4-0.4-0.5c0-0.1,0,0.5,0,0.5
			c-1.4-0.8-4-5.5-4.8-1.5c-0.7,4,2.4,7.8,2.4,7.8l0.1,0c1.4-3.3,4.3-5.6,4.2-5.5C-1169.6-498.8-1170.2-499-1170.3-499.1"/>
		<path id="path30" class="st0" d="M-1158.4-499.5c1.3-1.1,1.3-0.8,1.3-0.8l0.3,0c0,0,0.2,0.5,0.2,0.7c0,0.2,0.2-0.2,0.2-0.2
			l0.1,0.2l0,0.2l0.2,0c-0.1,1.3-1.7,4.5-1.8,4.7C-1155.2-500.8-1158.3-499.6-1158.4-499.5L-1158.4-499.5z M-1162.2-498.6
			c-0.1-0.1,2.6,2.5,3.7,5.9l0.1,0.1c0,0,3.4-3.5,3-7.5c-0.4-4-3.4,0.4-4.9,1c0,0,0.1-0.6,0-0.5c0,0.1-0.2,0.4-0.4,0.5
			c-0.2,0.1-0.4-0.1-0.3,0c0.1,0.1,0.1,0-0.1,0.2c-0.3,0.2-0.4,0.1-0.5,0.2C-1161.6-498.7-1162.2-498.5-1162.2-498.6"/>
		<path id="path32" class="st1" d="M-1167.8-482.8C-1167.8-482.8-1167.8-482.8-1167.8-482.8c0.3,0.1,0.5,0.3,0.7,0.4
			c0.3,0.1,0.6,0.2,0.9,0.1c0.4-0.1,0.7-0.3,1.1-0.5c0,0,0,0,0,0c0,0,0,0-0.1,0c-0.2,0-0.5,0-0.7,0c-0.2,0-0.3,0-0.5,0.1
			c-0.1,0-0.2,0-0.3,0c0,0-0.1,0-0.1,0c-0.1,0-0.2,0-0.4,0C-1167.3-482.8-1167.5-482.8-1167.8-482.8L-1167.8-482.8z M-1168.4-482.9
			c0.1,0,0.2,0,0.3-0.1c0.2-0.1,0.3-0.2,0.4-0.3c0.1,0,0.1-0.1,0.2-0.1c0.2-0.2,0.5-0.2,0.8-0.1c0.2,0.1,0.3,0.1,0.5,0
			c0.1,0,0.2,0,0.3-0.1c0.2,0,0.3,0,0.4,0.1c0.1,0.1,0.3,0.2,0.4,0.3c0.2,0.1,0.4,0.3,0.6,0.3c0,0,0.1,0,0.1,0
			c-0.1,0.2-0.2,0.3-0.3,0.4c-0.3,0.4-0.7,0.7-1.2,0.8c-0.7,0.2-1.3,0.1-1.9-0.4C-1168-482.3-1168.2-482.6-1168.4-482.9
			C-1168.4-482.9-1168.4-482.9-1168.4-482.9C-1168.4-482.9-1168.4-482.9-1168.4-482.9"/>
		<path id="path34" class="st0" d="M-1165.1-457.6c-1.6,0.1-3.3,0.3-4.9,0.4c-0.1,0-0.2,0-0.3-0.1c-0.1-0.1-0.2-0.3-0.2-0.5
			c0-0.3,0-0.5,0.1-0.8c0.1-0.5,0.4-0.8,0.7-1.1c0.2-0.3,0.5-0.5,0.8-0.7c0.5-0.3,1-0.6,1.6-0.7c0.2-0.1,0.5-0.1,0.7-0.2
			c0.2,0,0.4-0.1,0.6-0.1c0.2,0,0.5-0.1,0.7-0.1c0.3,0,0.5,0,0.8,0c0.5,0,0.9,0,1.4,0.1c0.3,0.1,0.7,0.1,1,0.3
			c0.2,0.1,0.5,0.2,0.7,0.3c0.3,0.1,0.5,0.3,0.7,0.5c0.3,0.3,0.5,0.6,0.7,1c0.1,0.4,0.2,0.7,0,1.1c0,0.1-0.1,0.1-0.2,0.2
			C-1161.8-457.8-1163.4-457.7-1165.1-457.6"/>
		<path id="path36" class="st0" d="M-1169.6-450.3c0.2-0.1,0.4-0.2,0.6-0.2c0.2-0.1,0.4-0.1,0.6,0.1c0.2,0.2,0.3,0.3,0.5,0.4
			c0.2,0.1,0.3,0.1,0.5,0c0.4-0.1,0.6-0.3,0.9-0.6c0.1-0.1,0.2-0.1,0.3-0.2c0.2-0.1,0.5,0,0.7,0.1c0.2,0.1,0.4,0.3,0.6,0.4
			c0.3,0.1,0.6,0.1,0.9-0.2c0.2-0.1,0.3-0.3,0.5-0.4c0.3-0.2,0.6-0.3,0.9-0.1c0.1,0.1,0.3,0.2,0.4,0.3c0.3,0.2,0.6,0.2,0.9,0.2
			c0.2,0,0.3-0.1,0.5-0.3c0.1-0.1,0.2-0.2,0.2-0.3c0.1-0.1,0.2-0.2,0.4-0.2c0.2,0,0.3,0.1,0.5,0.1c0,0,0.1,0,0.1,0
			c0.1,0,0.1,0,0.1,0.1c0,0.3,0,0.6,0.1,1c0,0.3,0,0.5-0.1,0.8c-0.1,0.2-0.2,0.3-0.4,0.3c-0.2,0.1-0.3,0.1-0.5,0.1
			c-2.6,0.2-5.3,0.4-7.9,0.6c-0.3,0-0.5-0.1-0.7-0.3c-0.1-0.1-0.2-0.2-0.2-0.4c-0.1-0.1-0.1-0.3-0.1-0.5
			C-1169.6-449.7-1169.6-450-1169.6-450.3"/>
		<path id="path38" class="st0" d="M-1159.8-453.7c0,0.4,0,0.8,0.1,1.1c-3.4,0.3-6.7,0.5-10.1,0.8c0-0.4,0-0.7-0.1-1.1
			c0,0,0.1,0,0.1,0c1.4-0.1,2.8-0.2,4.2-0.3c0.2,0,0.3,0,0.5,0.1c0.1,0.1,0.2,0.1,0.3,0.2c0.1,0,0.1,0,0.1,0
			c0.1-0.1,0.2-0.2,0.4-0.3c0,0,0.1-0.1,0.2-0.1C-1162.8-453.5-1161.3-453.6-1159.8-453.7C-1159.8-453.7-1159.8-453.7-1159.8-453.7"
			/>
		<path id="path40" class="st0" d="M-1165.1-457.3c1.7-0.1,3.3-0.3,5-0.4c0.1,0,0.1,0,0.2,0c0.1,0.1,0.3,0.2,0.3,0.4
			c0,0.1,0,0.2-0.1,0.3c-0.1,0.1-0.3,0.2-0.5,0.1c-0.2,0-0.4-0.1-0.6-0.1c-0.2,0-0.4,0-0.6,0.2c-0.1,0.1-0.2,0.2-0.3,0.3
			c-0.2,0.2-0.4,0.3-0.7,0.2c-0.2-0.1-0.4-0.2-0.6-0.3c-0.2-0.1-0.3-0.2-0.5-0.2c-0.4,0-0.7,0.2-1,0.4c-0.1,0.1-0.2,0.2-0.3,0.3
			c-0.3,0.2-0.5,0.2-0.8,0c-0.2-0.2-0.4-0.3-0.7-0.4c-0.1,0-0.2,0-0.4-0.1c-0.1,0-0.3,0-0.4,0.1c-0.2,0.1-0.3,0.2-0.4,0.3
			c-0.2,0.2-0.5,0.4-0.8,0.4c-0.2,0-0.4-0.1-0.6-0.3c-0.1-0.2-0.3-0.3-0.5-0.3c-0.2,0-0.4,0.1-0.6,0.2c-0.2,0.1-0.4,0.1-0.6,0
			c-0.1-0.1-0.2-0.2-0.2-0.3c0-0.2,0.2-0.4,0.4-0.5c0,0,0.1,0,0.1,0C-1168.4-457-1166.7-457.2-1165.1-457.3"/>
		<path id="path42" class="st0" d="M-1164.7-451.9c1.7-0.1,3.3-0.3,5-0.4c0.1,0,0.1,0,0.2,0c0.1,0.1,0.3,0.2,0.3,0.4
			c0,0.1,0,0.2-0.1,0.3c-0.1,0.1-0.3,0.2-0.5,0.1c-0.2,0-0.4-0.1-0.6-0.1c-0.2,0-0.4,0.1-0.5,0.2c-0.1,0.1-0.2,0.2-0.3,0.3
			c-0.2,0.2-0.4,0.3-0.7,0.2c-0.2-0.1-0.4-0.2-0.6-0.3c-0.2-0.1-0.3-0.2-0.5-0.2c-0.4,0-0.7,0.2-1,0.4c-0.1,0.1-0.2,0.2-0.3,0.3
			c-0.1,0.1-0.3,0.2-0.4,0.2c-0.2,0-0.3-0.1-0.4-0.1c-0.2-0.1-0.3-0.2-0.5-0.3c-0.2-0.1-0.4-0.2-0.6-0.2c-0.3,0-0.6,0.2-0.8,0.4
			c-0.2,0.2-0.5,0.4-0.8,0.4c-0.2,0-0.4-0.1-0.6-0.3c0-0.1-0.1-0.1-0.2-0.2c-0.2-0.1-0.4-0.2-0.6-0.1c-0.2,0.1-0.4,0.1-0.7,0.2
			c-0.2,0-0.3,0-0.4-0.1c-0.1-0.1-0.1-0.2-0.1-0.3c0-0.2,0.2-0.3,0.3-0.5c0,0,0.1,0,0.1,0C-1168.1-451.6-1166.4-451.8-1164.7-451.9"
			/>
		<path id="path44" class="st0" d="M-1170-454.8c0-0.3,0-0.6-0.1-0.9c0.2-0.1,0.3-0.1,0.5-0.2c0.1,0,0.2-0.1,0.3-0.1
			c0.1,0,0.2,0,0.3,0.1c0.1,0.1,0.1,0.2,0.2,0.2c0.1,0.1,0.1,0.1,0.2,0.1c0.4,0.2,0.8,0.2,1.2-0.1c0.2-0.1,0.3-0.3,0.4-0.4
			c0.1-0.1,0.3-0.2,0.5-0.2c0.3,0,0.5,0.2,0.8,0.4c0.3,0.2,0.5,0.3,0.9,0.3c0.2,0,0.4-0.2,0.5-0.3c0.2-0.2,0.3-0.4,0.6-0.5
			c0.2-0.1,0.5-0.1,0.7,0.1c0.2,0.2,0.4,0.3,0.7,0.4c0.4,0.1,0.8,0,1-0.4c0.1-0.1,0.2-0.3,0.3-0.4c0,0,0.1,0,0.1,0
			c0.1,0,0.3,0,0.4,0c0.1,0,0.3,0,0.4,0.1c0,0.3,0,0.6,0.1,0.9C-1163.3-455.4-1166.6-455.1-1170-454.8"/>
		<path id="path46" class="st0" d="M-1165.8-453.5C-1165.8-453.5-1165.8-453.5-1165.8-453.5c-1.3,0.1-2.6,0.2-3.8,0.3
			c-0.3,0-0.6-0.2-0.7-0.5c-0.1-0.3,0.1-0.7,0.3-0.8c0,0,0.1,0,0.1,0c0.6-0.1,1.3-0.1,1.9-0.2c0.1,0,0.2,0,0.3,0.1
			c0.4,0.2,0.8,0.5,1.2,0.7C-1166.2-453.8-1166-453.6-1165.8-453.5C-1165.8-453.5-1165.8-453.5-1165.8-453.5"/>
		<path id="path48" class="st0" d="M-1163.9-453.7c0.1-0.1,0.2-0.2,0.4-0.3c0.4-0.3,0.9-0.7,1.3-1c0.1,0,0.1-0.1,0.2-0.1
			c0,0,0.1,0,0.1,0c0.6-0.1,1.3-0.1,1.9-0.1c0.1,0,0.1,0,0.2,0.1c0.2,0.1,0.3,0.3,0.3,0.6c0,0.4-0.2,0.7-0.6,0.7
			c-1.2,0.1-2.5,0.2-3.7,0.3C-1163.8-453.6-1163.9-453.6-1163.9-453.7C-1163.9-453.7-1163.9-453.7-1163.9-453.7"/>
		<path id="path50" class="st0" d="M-1167.3-454.7c1.6-0.1,3.2-0.2,4.8-0.4c0,0,0,0,0,0c-0.1,0.1-0.2,0.2-0.3,0.3
			c-0.3,0.3-0.7,0.5-1,0.8c-0.2,0.2-0.5,0.3-0.7,0.5c-0.1,0-0.1,0.1-0.2,0.2c0,0-0.1,0-0.1,0c-0.5-0.3-1-0.6-1.6-0.9
			c-0.3-0.1-0.5-0.3-0.8-0.4C-1167.2-454.7-1167.3-454.7-1167.3-454.7"/>
	</g>
</g>
</svg>
