<?xml version="1.0" encoding="UTF-8" standalone="no"?>
<svg
   xmlns:dc="http://purl.org/dc/elements/1.1/"
   xmlns:cc="http://creativecommons.org/ns#"
   xmlns:rdf="http://www.w3.org/1999/02/22-rdf-syntax-ns#"
   xmlns:svg="http://www.w3.org/2000/svg"
   xmlns="http://www.w3.org/2000/svg"
   xmlns:sodipodi="http://sodipodi.sourceforge.net/DTD/sodipodi-0.dtd"
   xmlns:inkscape="http://www.inkscape.org/namespaces/inkscape"
   viewBox="0 0 87.036424 96.365968"
   x="0px"
   y="0px"
   version="1.1"
   id="svg14"
   sodipodi:docname="shamrock.svg"
   width="87.036423"
   height="96.365967"
   inkscape:version="0.92.2 5c3e80d, 2017-08-06">
  <metadata
     id="metadata20">
    <rdf:RDF>
      <cc:Work
         rdf:about="">
        <dc:format>image/svg+xml</dc:format>
        <dc:type
           rdf:resource="http://purl.org/dc/dcmitype/StillImage" />
        <dc:title>clover_1</dc:title>
      </cc:Work>
    </rdf:RDF>
  </metadata>
  <defs
     id="defs18" />
  <sodipodi:namedview
     pagecolor="#ffffff"
     bordercolor="#666666"
     borderopacity="1"
     objecttolerance="10"
     gridtolerance="10"
     guidetolerance="10"
     inkscape:pageopacity="0"
     inkscape:pageshadow="2"
     inkscape:window-width="640"
     inkscape:window-height="480"
     id="namedview16"
     showgrid="false"
     fit-margin-top="0"
     fit-margin-left="0"
     fit-margin-right="0"
     fit-margin-bottom="0"
     inkscape:zoom="1.9599294"
     inkscape:cx="43.514999"
     inkscape:cy="36.157041"
     inkscape:window-x="0"
     inkscape:window-y="0"
     inkscape:window-maximized="0"
     inkscape:current-layer="svg14" />
  <title
     id="title2">clover_1</title>
  <g
     data-name="Layer 2"
     id="g8"
     transform="translate(0,0.0026791)">
    <g
       data-name="Layer 2"
       id="g6">
      <path
         d="m 81.75,45.28 c -4.13,-3.07 -9.48,-2.85 -14.35,-2.39 -2.43,0.22 -4.85,0.55 -7.28,0.65 a 10.31,10.31 0 0 1 -2.72,0 1.71,1.71 0 0 1 -0.79,-0.41 c -0.88,-0.87 -0.33,-1.77 0.48,-2.35 1.58,-1.13 4.69,-1.21 6.55,-1.42 2.54,-0.29 5.11,-0.38 7.65,-0.75 C 75.86,38 80.53,36.22 82.92,32 a 13.42,13.42 0 0 0 0,-12.36 12.44,12.44 0 0 0 -4.19,-4.88 C 77.13,13.7 75.22,13.23 73.5,12.43 A 10.32,10.32 0 0 1 72.16,11.69 C 68.76,9.41 68.04,4.85 64.47,2.51 60.9,0.17 56.2,-0.78 52.18,0.72 c -10,3.73 -6.56,16.64 -6.73,24.65 a 11.63,11.63 0 0 1 -0.5,4.21 1.58,1.58 0 0 1 -1.52,1.05 c -2.61,0 -1.42,-4.6 -1.36,-6.13 0.19,-5.31 0.29,-11.39 -1.68,-16.43 -3.9,-10 -17.27,-9.74 -22.93,-1.6 -1.21,1.74 -2,3.64 -3.87,4.79 A 5.76,5.76 0 0 1 12.9,11.64 C 11.23,12.45 9.31,12.7 7.59,13.39 A 11.77,11.77 0 0 0 0,24.37 c 0.2,11.19 12.71,15.44 22,15.82 1.93,0.08 5.13,-0.27 7.14,0.51 a 5.26,5.26 0 0 1 0.59,0.26 c 0.74,0.44 1.18,1.08 0.62,1.93 -0.72,1.1 -2.75,0.76 -3.86,0.7 C 21.33,43.34 16.22,41.5 11,42.17 1.26,43.42 -2.95,55.52 3.24,63 c 1.5,1.82 3.53,3.08 5.12,4.79 a 12,12 0 0 1 1.39,1.84 28.67,28.67 0 0 1 2.09,4.37 c 1.7,4.18 3.89,7.62 8.56,8.66 A 13.35,13.35 0 0 0 31.65,80 c 4.29,-3.61 4.74,-9.67 5.61,-14.81 0.15,-0.89 1,-6.93 2.49,-8.66 a 1,1 0 0 1 1,-0.46 c 1.34,0.25 0.52,3.93 0.51,4.77 a 77.73,77.73 0 0 0 0.43,9.4 53,53 0 0 0 4.91,17.63 46.2,46.2 0 0 0 3.91,6.51 c 1.68,2.34 3.25,2.81 5.28,0.32 1.42,-1.73 0.54,-3.38 -0.81,-4.91 A 35.06,35.06 0 0 1 50.32,84 49.11,49.11 0 0 1 45.11,70.09 c -0.52,-2.41 -1,-4.85 -1.37,-7.28 -0.19,-1.36 -0.28,-9.54 2.46,-5.84 1.27,1.71 1.7,4.61 2.38,6.59 a 69.85,69.85 0 0 0 4,9.77 c 1.39,2.63 3.2,5.58 5.95,7 4,2 9.41,0.59 12.54,-2.34 a 12.35,12.35 0 0 0 3.33,-6.11 10.85,10.85 0 0 1 1.22,-2.88 8.22,8.22 0 0 1 3.2,-3 c 3.9,-2.21 7.45,-5 8.12,-9.76 0.61,-4.35 -1.74,-8.4 -5.19,-10.96 z"
         id="path4"
         inkscape:connector-curvature="0" />
    </g>
  </g>
</svg>
